<svg width="80" height="80" viewBox="0 0 80 80" fill="none" xmlns="http://www.w3.org/2000/svg">
<circle cx="40" cy="40" r="40" fill="#FF6D34"/>
<g clip-path="url(#clip0_936_1217)">
<path d="M46.562 49.7657H51.0047L46.2006 54.8872V50.1271C46.2006 49.9277 46.3628 49.7657 46.562 49.7657ZM41.2008 29.8801L42.5704 29.7029L41.7154 28.4759L41.2008 29.8801ZM53.6796 22.8824V48.001H46.562C45.3895 48.001 44.4359 48.9548 44.4359 50.1271V58H27.2027C26.7153 58 26.3203 57.6049 26.3203 57.1176V22.8824C26.3203 22.3951 26.7153 22 27.2027 22H52.7971C53.2845 22 53.6796 22.3951 53.6796 22.8824ZM38.8963 33.6047C38.9965 33.6414 39.0989 33.6589 39.2 33.6589C39.5597 33.6589 39.8976 33.4372 40.0284 33.0799L40.5163 31.7482L43.7076 31.3353L44.5185 32.4989C44.6902 32.7451 44.9643 32.8769 45.2431 32.8769C45.4173 32.8769 45.5932 32.8254 45.7467 32.7185C46.1466 32.4398 46.2447 31.8899 45.9663 31.4902L42.1938 26.0766C42.1924 26.0747 42.1905 26.0731 42.1891 26.0712C42.1647 26.0366 42.1356 26.0055 42.1061 25.9746C42.0954 25.9634 42.0862 25.9498 42.0749 25.9392C42.0516 25.9173 42.0244 25.8993 41.9987 25.8799C41.978 25.8644 41.959 25.8465 41.9373 25.8329C41.9207 25.8225 41.9016 25.8156 41.8841 25.8063C41.8501 25.7881 41.8164 25.7694 41.7804 25.756C41.7779 25.7551 41.776 25.7535 41.7735 25.7526C41.7528 25.7451 41.7317 25.7426 41.711 25.7366C41.6787 25.7274 41.6468 25.7172 41.6136 25.7117C41.5843 25.7068 41.5554 25.7064 41.5261 25.7046C41.4984 25.7029 41.4708 25.6997 41.443 25.7004C41.4131 25.7013 41.3842 25.7064 41.3547 25.7103C41.3274 25.7138 41.3 25.7161 41.2728 25.7223C41.2435 25.729 41.2157 25.7398 41.1871 25.7495C41.1615 25.7581 41.1355 25.7652 41.1105 25.7765C41.0766 25.7916 41.0454 25.8112 41.0136 25.8305C40.9977 25.8402 40.981 25.8465 40.9654 25.8573C40.9637 25.8585 40.9623 25.8603 40.9605 25.8615C40.925 25.8866 40.8931 25.9162 40.8615 25.9464C40.8507 25.9566 40.8382 25.9653 40.828 25.9759C40.8066 25.9985 40.7893 26.0249 40.7704 26.0498C40.7542 26.0712 40.7357 26.0911 40.7217 26.1137C40.7125 26.1284 40.7065 26.1455 40.6981 26.1608C40.6785 26.197 40.6589 26.233 40.6446 26.2713C40.6437 26.2736 40.6423 26.2754 40.6416 26.2776L38.3715 32.4726C38.2038 32.9302 38.4387 33.4371 38.8963 33.6047ZM41.2174 48.8834C41.2174 48.3961 40.8225 48.001 40.3351 48.001H31.397C30.9096 48.001 30.5147 48.3961 30.5147 48.8834C30.5147 49.3706 30.9096 49.7657 31.397 49.7657H40.3353C40.8225 49.7657 41.2174 49.3706 41.2174 48.8834ZM44.9688 43.501C44.9688 43.0138 44.5739 42.6186 44.0865 42.6186H31.397C30.9096 42.6186 30.5147 43.0138 30.5147 43.501C30.5147 43.9882 30.9096 44.3834 31.397 44.3834H44.0865C44.5739 44.3834 44.9688 43.9882 44.9688 43.501ZM47.7206 38.1186C47.7206 37.6314 47.3256 37.2363 46.8382 37.2363H31.397C30.9096 37.2363 30.5147 37.6314 30.5147 38.1186C30.5147 38.6059 30.9096 39.001 31.397 39.001H46.8382C47.3256 39.001 47.7206 38.6059 47.7206 38.1186ZM51.0818 27.6504C51.0193 27.1674 50.5785 26.8259 50.0934 26.8886L48.9144 27.0412L48.7617 25.8622C48.6993 25.3791 48.2586 25.0376 47.7733 25.1004C47.2901 25.1629 46.9488 25.6055 47.0115 26.0886L47.1641 27.2676L45.9851 27.4203C45.502 27.4828 45.1607 27.9252 45.2233 28.4085C45.2808 28.8534 45.6604 29.1778 46.0974 29.1778C46.135 29.1778 46.1733 29.1753 46.2117 29.1704L47.3907 29.0177L47.5434 30.1967C47.6009 30.6416 47.9805 30.9659 48.4174 30.9659C48.455 30.9659 48.4933 30.9635 48.5316 30.9585C49.0148 30.8961 49.3561 30.4535 49.2934 29.9703L49.1408 28.7913L50.3198 28.6386C50.8031 28.5762 51.1443 28.1338 51.0818 27.6504Z" fill="white"/>
</g>
<defs>
<clipPath id="clip0_936_1217">
<rect width="36" height="36" fill="white" transform="translate(22 22)"/>
</clipPath>
</defs>
</svg>
