<svg width="56" height="56" viewBox="0 0 56 56" fill="none" xmlns="http://www.w3.org/2000/svg">
<circle cx="28" cy="28" r="28" fill="url(#paint0_linear_936_1176)"/>
<g clip-path="url(#clip0_936_1176)">
<path d="M38.8071 35.0813L35.7893 34.6523L34.4579 32.019L33.1268 34.6523L30.9425 34.9628L28.7584 34.6523L27.4271 32.019L26.0957 34.6523L23.9114 34.9628L21.7274 34.6523L20.396 32.019L19.0646 34.6523L16.0469 35.0813L18.2317 37.1605L17.7201 40.0001L20.396 38.6985L23.0717 39.9993L22.5601 37.1605L23.9114 35.8747L25.2628 37.1605L24.7512 40.0001L27.4269 38.6985L30.1028 39.9993L29.5912 37.1605L30.9425 35.8747L32.2938 37.1605L31.7822 40.0001L34.4579 38.6985L37.1339 39.9993L36.6223 37.1605L38.8071 35.0813Z" fill="white"/>
<path d="M32.3489 27.9528C32.3489 25.2392 30.1407 23.0311 27.4271 23.0311C24.7136 23.0311 22.5054 25.2392 22.5054 27.9528V31.4684H32.3489V27.9528Z" fill="white"/>
<path d="M30.9427 19.5154C30.9427 17.5771 29.3654 16 27.4271 16C25.4887 16 23.9116 17.5771 23.9116 19.5154C23.9116 21.4538 25.4887 23.0311 27.4271 23.0311C29.3654 23.0311 30.9427 21.4538 30.9427 19.5154Z" fill="white"/>
</g>
<defs>
<linearGradient id="paint0_linear_936_1176" x1="2.10188" y1="28" x2="56" y2="28" gradientUnits="userSpaceOnUse">
<stop stop-color="#036BB3"/>
<stop offset="0.0001" stop-color="#036BB3"/>
<stop offset="1" stop-color="#03B0A9"/>
</linearGradient>
<clipPath id="clip0_936_1176">
<rect width="24" height="24" fill="white" transform="translate(16 16)"/>
</clipPath>
</defs>
</svg>
