<svg width="80" height="80" viewBox="0 0 80 80" fill="none" xmlns="http://www.w3.org/2000/svg">
<circle cx="40" cy="40" r="40" fill="#FFC107"/>
<g clip-path="url(#clip0_936_1187)">
<path d="M37.1326 40.6195C42.0788 40.6195 46.0886 36.6097 46.0886 31.6635C46.0886 26.7172 42.0789 22.7074 37.1326 22.7074C32.1863 22.7074 28.1765 26.7172 28.1765 31.6634C28.1765 36.6096 32.1863 40.6195 37.1326 40.6195ZM41.4674 35.1962C41.0599 36.5432 39.3147 37.5559 37.2231 37.5559C35.1314 37.5559 33.3861 36.5432 32.9788 35.1962H41.4674ZM57.7785 50.3245L49.5844 57.1534C49.346 57.352 48.9715 57.335 48.7522 57.1156L44.6725 53.0354C44.4323 52.7952 44.4323 52.4021 44.6725 52.1619L45.5459 51.2885C45.7861 51.0483 46.1792 51.0483 46.4194 51.2885L49.3031 54.1717L56.1971 48.4267C56.4581 48.2093 56.8495 48.2449 57.0669 48.5059L57.8576 49.4545C58.075 49.7155 58.0395 50.1069 57.7785 50.3245ZM43.7115 53.9962L45.2654 55.5503C43.1447 55.8489 40.4716 56.0609 37.1326 56.0609C28.4972 56.0609 24.2712 54.6499 22.7219 53.9605C22.3222 53.7826 22 53.2741 22 52.8366V49.8843C22 45.4605 25.3682 41.7905 29.6662 41.2989C29.7968 41.2839 29.9905 41.3398 30.0969 41.4169C32.0785 42.8516 34.5046 43.7077 37.1326 43.7077C39.7605 43.7077 42.1866 42.8515 44.1683 41.4169C44.2748 41.3398 44.4684 41.2839 44.599 41.2989C48.8969 41.7904 52.2652 45.4605 52.2652 49.8843V49.9343L49.3863 52.3332L47.3801 50.3277C47.0067 49.9543 46.5103 49.7486 45.9825 49.7486C45.4548 49.7486 44.9584 49.9543 44.5849 50.3277L43.7115 51.2011C42.9406 51.9719 42.9406 53.2254 43.7115 53.9962Z" fill="white"/>
</g>
<defs>
<clipPath id="clip0_936_1187">
<rect width="36" height="36" fill="white" transform="translate(22 22)"/>
</clipPath>
</defs>
</svg>
