<svg width="80" height="80" viewBox="0 0 80 80" fill="none" xmlns="http://www.w3.org/2000/svg">
<circle cx="40" cy="40" r="40" fill="#F178B6"/>
<g clip-path="url(#clip0_936_1232)">
<path d="M56.2106 50.6222L51.684 49.9787L49.6869 46.0288L47.6902 49.9787L44.4138 50.4445L41.1376 49.9787L39.1406 46.0288L37.1436 49.9787L33.8672 50.4445L30.591 49.9787L28.594 46.0288L26.597 49.9787L22.0703 50.6222L25.3475 53.7409L24.5801 58.0003L28.594 56.0481L32.6076 57.9992L31.8402 53.7409L33.8672 51.8123L35.8941 53.7409L35.1267 58.0003L39.1403 56.0481L43.1542 57.9992L42.3868 53.7409L44.4138 51.8123L46.4407 53.7409L45.6733 58.0003L49.6869 56.0481L53.7008 57.9992L52.9334 53.7409L56.2106 50.6222Z" fill="white"/>
<path d="M46.5232 39.9292C46.5232 35.8587 43.2108 32.5466 39.1404 32.5466C35.0702 32.5466 31.7578 35.8587 31.7578 39.9292V45.2026H46.5232V39.9292Z" fill="white"/>
<path d="M44.4138 27.2732C44.4138 24.3656 42.0479 22 39.1404 22C36.2328 22 33.8672 24.3656 33.8672 27.2732C33.8672 30.1807 36.2328 32.5466 39.1404 32.5466C42.0479 32.5466 44.4138 30.1807 44.4138 27.2732Z" fill="white"/>
</g>
<defs>
<clipPath id="clip0_936_1232">
<rect width="36" height="36" fill="white" transform="translate(22 22)"/>
</clipPath>
</defs>
</svg>
