<svg width="80" height="80" viewBox="0 0 80 80" fill="none" xmlns="http://www.w3.org/2000/svg">
<circle cx="40" cy="40" r="40" fill="#03B0A9"/>
<g clip-path="url(#clip0_936_1202)">
<path d="M28.2861 51.7104C28.2861 51.9882 28.5116 52.2142 28.7886 52.2142H32.0265C32.3035 52.2142 32.5289 51.9882 32.5289 51.7104V48.9749H28.2861V51.7104Z" fill="white"/>
<path d="M32.0265 43.4968H28.7886C28.5116 43.4968 28.2861 43.7228 28.2861 44.0006V46.7362H32.5289V44.0006C32.5289 43.7228 32.3035 43.4968 32.0265 43.4968Z" fill="white"/>
<path d="M47.3333 22H22.8777C22.4151 22 22.04 22.3761 22.04 22.8399V57.1309C22.04 57.5947 22.4151 57.9707 22.8777 57.9707H47.3333C47.796 57.9707 48.171 57.5947 48.171 57.1309V22.8399C48.1711 22.3761 47.796 22 47.3333 22V22ZM34.7621 51.7108C34.7621 53.2231 33.535 54.4534 32.0267 54.4534H28.7888C27.2805 54.4534 26.0533 53.2231 26.0533 51.7108V44.0008C26.0533 42.4886 27.2805 41.2582 28.7888 41.2582H32.0267C33.535 41.2582 34.7621 42.4886 34.7621 44.0008V51.7108ZM43.0413 38.6684H27.1698C26.5533 38.6684 26.0533 38.1672 26.0533 37.5489C26.0533 36.9306 26.5533 36.4294 27.1698 36.4294H43.0413C43.6579 36.4294 44.1578 36.9306 44.1578 37.5489C44.1578 38.1672 43.6579 38.6684 43.0413 38.6684ZM43.1282 33.934H27.1698C26.5533 33.934 26.0533 33.4328 26.0533 32.8145C26.0533 32.1963 26.5533 31.6951 27.1698 31.6951H43.1282C43.7448 31.6951 44.2447 32.1963 44.2447 32.8145C44.2447 33.4328 43.7449 33.934 43.1282 33.934ZM43.1282 29.1997H27.1698C26.5533 29.1997 26.0533 28.6985 26.0533 28.0802C26.0533 27.462 26.5533 26.9608 27.1698 26.9608H43.1282C43.7448 26.9608 44.2447 27.462 44.2447 28.0802C44.2447 28.6985 43.7449 29.1997 43.1282 29.1997Z" fill="white"/>
<path d="M52.7871 34.3209H57.9604V52.0654H52.7871V34.3209Z" fill="white"/>
<path d="M52.8085 54.2871H57.9381C57.9502 54.2871 57.96 54.2962 57.96 54.3073V57.0986C57.96 57.5962 57.5235 57.9996 56.985 57.9996L53.6313 57.9998C53.1648 57.9998 52.7866 57.6503 52.7866 57.2192V54.3072C52.7867 54.2961 52.7965 54.2871 52.8085 54.2871Z" fill="white"/>
<path d="M54.8901 26.3914L52.7866 32.0553H57.959L55.7596 26.3852C55.605 25.9862 55.0391 25.9903 54.8901 26.3914Z" fill="white"/>
</g>
<defs>
<clipPath id="clip0_936_1202">
<rect width="36" height="36" fill="white" transform="translate(22 22)"/>
</clipPath>
</defs>
</svg>
