<svg width="56" height="56" viewBox="0 0 56 56" fill="none" xmlns="http://www.w3.org/2000/svg">
<circle cx="28" cy="28" r="28" fill="url(#paint0_linear_936_1165)"/>
<path d="M37.7909 18H27.2468C26.0266 18 25.0376 18.9891 25.0376 20.2092V25.403C25.595 25.68 26.1972 25.9796 26.7593 26.259L27.6194 24.5381C28.1401 23.4976 29.4096 23.0748 30.4498 23.5946C31.4922 24.1163 31.9147 25.3823 31.3928 26.4249L29.8597 29.4919C29.9003 29.8978 29.8643 30.3071 29.7498 30.7031H30.762L28.0923 38.0442C27.934 38.4796 28.2401 38.9877 28.7534 38.9877C29.0403 38.9877 29.3102 38.8107 29.4138 38.5247L32.2582 30.7031H32.7509L35.6242 38.527C35.7288 38.8116 35.9979 38.9877 36.2847 38.9877C36.7642 38.9877 37.1158 38.5087 36.9442 38.0424L34.2489 30.7031H37.7909C39.0109 30.7031 40.0001 29.714 40.0001 28.494V20.2092C40.0001 18.9891 39.0109 18 37.7909 18V18ZM36.2843 27.6909H33.1296C32.7414 27.6909 32.4265 27.3759 32.4265 26.9877C32.4265 26.5992 32.7414 26.2846 33.1296 26.2846H36.2843C36.6729 26.2846 36.9874 26.5992 36.9874 26.9877C36.9874 27.3759 36.6729 27.6909 36.2843 27.6909ZM36.2843 25.0547H33.1296C32.7414 25.0547 32.4265 24.7401 32.4265 24.3516C32.4265 23.9634 32.7414 23.6484 33.1296 23.6484H36.2843C36.6729 23.6484 36.9874 23.9634 36.9874 24.3516C36.9874 24.7401 36.6729 25.0547 36.2843 25.0547ZM36.2843 22.4189H28.7534C28.3648 22.4189 28.0502 22.1039 28.0502 21.7158C28.0502 21.3276 28.3648 21.0126 28.7534 21.0126H36.2843C36.6729 21.0126 36.9874 21.3276 36.9874 21.7158C36.9874 22.1039 36.6729 22.4189 36.2843 22.4189Z" fill="white"/>
<path d="M28.3713 30.4016C28.4984 30.0293 28.4975 29.6404 28.3902 29.2855L30.1352 25.7959C30.3088 25.4485 30.1682 25.0261 29.8208 24.8525C29.4736 24.6788 29.0512 24.8196 28.8774 25.1669L27.3892 28.1431C26.4996 27.7002 25.1481 27.0282 24.0594 26.4868C23.0464 25.983 22.3235 25.5313 21.0901 25.5313H20.4689C21.4293 25.5313 22.2864 25.0893 22.8474 24.3975C23.2755 23.8711 23.5315 23.2002 23.5315 22.4691C23.5315 20.7773 22.1604 19.4062 20.4685 19.4062C18.7773 19.4062 17.4062 20.7773 17.4062 22.4691C17.4062 23.2815 17.7227 24.0198 18.2388 24.5676C18.7969 25.1611 19.5896 25.5313 20.4683 25.5315C19.2902 25.5315 18.1385 26.0089 17.3099 26.8396C16.4653 27.6821 16 28.8045 16 30.0002V32.2595C16 33.2322 16.6315 34.0598 17.5062 34.3542V38.2844C17.5062 38.6728 17.821 38.9875 18.2094 38.9875H22.728C23.1164 38.9875 23.4312 38.6728 23.4312 38.2844V30.3843C24.0978 30.7176 24.9736 31.1554 25.6823 31.5099C26.179 31.7582 26.7595 31.7805 27.2771 31.5699C27.7933 31.3575 28.1912 30.9348 28.3686 30.4098C28.3695 30.407 28.3704 30.4043 28.3713 30.4016Z" fill="white"/>
<defs>
<linearGradient id="paint0_linear_936_1165" x1="2.10188" y1="28" x2="56" y2="28" gradientUnits="userSpaceOnUse">
<stop stop-color="#036BB3"/>
<stop offset="0.0001" stop-color="#036BB3"/>
<stop offset="1" stop-color="#03B0A9"/>
</linearGradient>
</defs>
</svg>
