<svg width="36" height="36" viewBox="0 0 36 36" fill="none" xmlns="http://www.w3.org/2000/svg">
<circle cx="18" cy="18" r="18" fill="#0367B4"/>
<path d="M23.0781 16.9844C23.5096 16.9844 23.8594 16.6346 23.8594 16.2031C23.8594 15.7717 23.5096 15.4219 23.0781 15.4219C22.6467 15.4219 22.2969 15.7717 22.2969 16.2031C22.2969 16.6346 22.6467 16.9844 23.0781 16.9844Z" fill="white"/>
<path d="M24.875 9.5625H23.8594V8.78125C23.8594 8.34977 23.5096 8 23.0781 8C22.6466 8 22.2969 8.34977 22.2969 8.78125V9.5625H18.7422V8.78125C18.7422 8.34977 18.3924 8 17.9609 8C17.5295 8 17.1797 8.34977 17.1797 8.78125V9.5625H13.6641V8.78125C13.6641 8.34977 13.3143 8 12.8828 8C12.4513 8 12.1016 8.34977 12.1016 8.78125V9.5625H11.125C9.40188 9.5625 8 10.9644 8 12.6875V24.875C8 26.5981 9.40188 28 11.125 28H17.1016C17.533 28 17.8828 27.6502 17.8828 27.2188C17.8828 26.7873 17.533 26.4375 17.1016 26.4375H11.125C10.2634 26.4375 9.5625 25.7366 9.5625 24.875V12.6875C9.5625 11.8259 10.2634 11.125 11.125 11.125H12.1016V11.9062C12.1016 12.3377 12.4513 12.6875 12.8828 12.6875C13.3143 12.6875 13.6641 12.3377 13.6641 11.9062V11.125H17.1797V11.9062C17.1797 12.3377 17.5295 12.6875 17.9609 12.6875C18.3924 12.6875 18.7422 12.3377 18.7422 11.9062V11.125H22.2969V11.9062C22.2969 12.3377 22.6466 12.6875 23.0781 12.6875C23.5096 12.6875 23.8594 12.3377 23.8594 11.9062V11.125H24.875C25.7366 11.125 26.4375 11.8259 26.4375 12.6875V17.1406C26.4375 17.5721 26.7873 17.9219 27.2188 17.9219C27.6502 17.9219 28 17.5721 28 17.1406V12.6875C28 10.9644 26.5981 9.5625 24.875 9.5625Z" fill="white"/>
<path d="M23.2734 18.5469C20.6672 18.5469 18.5469 20.6672 18.5469 23.2734C18.5469 25.8797 20.6672 28 23.2734 28C25.8797 28 28 25.8797 28 23.2734C28 20.6672 25.8797 18.5469 23.2734 18.5469ZM23.2734 26.4375C21.5288 26.4375 20.1094 25.0181 20.1094 23.2734C20.1094 21.5287 21.5288 20.1094 23.2734 20.1094C25.0181 20.1094 26.4375 21.5287 26.4375 23.2734C26.4375 25.0181 25.0181 26.4375 23.2734 26.4375Z" fill="white"/>
<path d="M24.4062 22.4922H24.0547V21.6719C24.0547 21.2404 23.7049 20.8906 23.2734 20.8906C22.842 20.8906 22.4922 21.2404 22.4922 21.6719V23.2734C22.4922 23.7049 22.842 24.0547 23.2734 24.0547H24.4062C24.8377 24.0547 25.1875 23.7049 25.1875 23.2734C25.1875 22.842 24.8377 22.4922 24.4062 22.4922Z" fill="white"/>
<path d="M19.6797 16.9844C20.1112 16.9844 20.4609 16.6346 20.4609 16.2031C20.4609 15.7717 20.1112 15.4219 19.6797 15.4219C19.2482 15.4219 18.8984 15.7717 18.8984 16.2031C18.8984 16.6346 19.2482 16.9844 19.6797 16.9844Z" fill="white"/>
<path d="M16.2812 20.3828C16.7127 20.3828 17.0625 20.033 17.0625 19.6016C17.0625 19.1701 16.7127 18.8203 16.2812 18.8203C15.8498 18.8203 15.5 19.1701 15.5 19.6016C15.5 20.033 15.8498 20.3828 16.2812 20.3828Z" fill="white"/>
<path d="M12.8828 16.9844C13.3143 16.9844 13.6641 16.6346 13.6641 16.2031C13.6641 15.7717 13.3143 15.4219 12.8828 15.4219C12.4513 15.4219 12.1016 15.7717 12.1016 16.2031C12.1016 16.6346 12.4513 16.9844 12.8828 16.9844Z" fill="white"/>
<path d="M12.8828 20.3828C13.3143 20.3828 13.6641 20.033 13.6641 19.6016C13.6641 19.1701 13.3143 18.8203 12.8828 18.8203C12.4513 18.8203 12.1016 19.1701 12.1016 19.6016C12.1016 20.033 12.4513 20.3828 12.8828 20.3828Z" fill="white"/>
<path d="M12.8828 23.7812C13.3143 23.7812 13.6641 23.4315 13.6641 23C13.6641 22.5685 13.3143 22.2188 12.8828 22.2188C12.4513 22.2188 12.1016 22.5685 12.1016 23C12.1016 23.4315 12.4513 23.7812 12.8828 23.7812Z" fill="white"/>
<path d="M16.2812 23.7812C16.7127 23.7812 17.0625 23.4315 17.0625 23C17.0625 22.5685 16.7127 22.2188 16.2812 22.2188C15.8498 22.2188 15.5 22.5685 15.5 23C15.5 23.4315 15.8498 23.7812 16.2812 23.7812Z" fill="white"/>
<path d="M16.2812 16.9844C16.7127 16.9844 17.0625 16.6346 17.0625 16.2031C17.0625 15.7717 16.7127 15.4219 16.2812 15.4219C15.8498 15.4219 15.5 15.7717 15.5 16.2031C15.5 16.6346 15.8498 16.9844 16.2812 16.9844Z" fill="white"/>
</svg>
