<svg width="24" height="24" viewBox="0 0 24 24" fill="none" xmlns="http://www.w3.org/2000/svg">
<path d="M5.99979 0C5.52638 0 5.14263 0.383755 5.14263 0.857159V2.57143H6.85689V0.857159C6.85689 0.383755 6.47314 0 5.99979 0Z" fill="#8F8F8F"/>
<path d="M18.0002 0C17.5268 0 17.143 0.383755 17.143 0.857159V2.57143H18.8573V0.857159C18.8573 0.383755 18.4736 0 18.0002 0Z" fill="#8F8F8F"/>
<path d="M21.4286 2.57129H18.8571V5.99987C18.8571 6.47328 18.4734 6.85703 18 6.85703C17.5266 6.85703 17.1428 6.47328 17.1428 5.99987V2.57129H6.85712V5.99987C6.85712 6.47328 6.47337 6.85703 5.99996 6.85703C5.52656 6.85703 5.1428 6.47328 5.1428 5.99987V2.57129H2.57143C1.15127 2.57129 0 3.72255 0 5.14272V21.4284C0 22.8486 1.15127 23.9999 2.57143 23.9999H21.4286C22.8487 23.9999 24 22.8486 24 21.4284V5.14272C24 3.72255 22.8487 2.57129 21.4286 2.57129ZM22.2857 21.4284C22.2857 21.9018 21.9019 22.2856 21.4285 22.2856H2.57143C2.09802 22.2856 1.71427 21.9018 1.71427 21.4284V10.2856H22.2857V21.4284Z" fill="#8F8F8F"/>
<path d="M6.85683 12H5.14256C4.66916 12 4.28541 12.3838 4.28541 12.8572C4.28541 13.3306 4.66916 13.7143 5.14256 13.7143H6.85683C7.33024 13.7143 7.71399 13.3306 7.71399 12.8572C7.71399 12.3838 7.33024 12 6.85683 12Z" fill="#8F8F8F"/>
<path d="M12.8574 12H11.1431C10.6697 12 10.286 12.3838 10.286 12.8572C10.286 13.3306 10.6697 13.7143 11.1431 13.7143H12.8574C13.3308 13.7143 13.7145 13.3306 13.7145 12.8572C13.7145 12.3838 13.3308 12 12.8574 12Z" fill="#8F8F8F"/>
<path d="M18.8572 12H17.143C16.6696 12 16.2858 12.3838 16.2858 12.8572C16.2858 13.3306 16.6696 13.7143 17.143 13.7143H18.8572C19.3306 13.7143 19.7144 13.3306 19.7144 12.8572C19.7144 12.3838 19.3306 12 18.8572 12Z" fill="#8F8F8F"/>
<path d="M6.85683 15.4285H5.14256C4.66916 15.4285 4.28541 15.8122 4.28541 16.2856C4.28541 16.759 4.66916 17.1428 5.14256 17.1428H6.85683C7.33024 17.1428 7.71399 16.759 7.71399 16.2856C7.71399 15.8122 7.33024 15.4285 6.85683 15.4285Z" fill="#8F8F8F"/>
<path d="M12.8574 15.4285H11.1431C10.6697 15.4285 10.286 15.8122 10.286 16.2856C10.286 16.759 10.6697 17.1428 11.1431 17.1428H12.8574C13.3308 17.1428 13.7145 16.759 13.7145 16.2856C13.7145 15.8122 13.3308 15.4285 12.8574 15.4285Z" fill="#8F8F8F"/>
<path d="M18.8572 15.4285H17.143C16.6696 15.4285 16.2858 15.8122 16.2858 16.2856C16.2858 16.759 16.6696 17.1428 17.143 17.1428H18.8572C19.3306 17.1428 19.7144 16.759 19.7144 16.2856C19.7143 15.8122 19.3306 15.4285 18.8572 15.4285Z" fill="#8F8F8F"/>
<path d="M6.85683 18.8574H5.14256C4.66916 18.8574 4.28541 19.2412 4.28541 19.7146C4.28541 20.188 4.66916 20.5717 5.14256 20.5717H6.85683C7.33024 20.5717 7.71399 20.1879 7.71399 19.7145C7.71399 19.2411 7.33024 18.8574 6.85683 18.8574Z" fill="#8F8F8F"/>
<path d="M12.8574 18.8574H11.1431C10.6697 18.8574 10.286 19.2412 10.286 19.7146C10.286 20.188 10.6697 20.5717 11.1431 20.5717H12.8574C13.3308 20.5717 13.7145 20.188 13.7145 19.7146C13.7145 19.2412 13.3308 18.8574 12.8574 18.8574Z" fill="#8F8F8F"/>
<path d="M18.8572 18.8574H17.143C16.6696 18.8574 16.2858 19.2412 16.2858 19.7146C16.2858 20.188 16.6696 20.5717 17.143 20.5717H18.8572C19.3306 20.5717 19.7144 20.188 19.7144 19.7146C19.7144 19.2412 19.3306 18.8574 18.8572 18.8574Z" fill="#8F8F8F"/>
</svg>
