<svg width="24" height="24" viewBox="0 0 24 24" fill="none" xmlns="http://www.w3.org/2000/svg">
<path d="M2.25 5.25H3.75V20.61C3.75198 21.3096 4.03076 21.9799 4.52542 22.4746C5.02009 22.9692 5.69044 23.248 6.39 23.25H17.64C18.3343 23.2402 18.997 22.9579 19.4852 22.4641C19.9735 21.9703 20.2481 21.3044 20.25 20.61V5.25H21.75C21.9489 5.25 22.1397 5.17098 22.2803 5.03033C22.421 4.88968 22.5 4.69891 22.5 4.5C22.5 4.30109 22.421 4.11032 22.2803 3.96967C22.1397 3.82902 21.9489 3.75 21.75 3.75H2.25C2.05109 3.75 1.86032 3.82902 1.71967 3.96967C1.57902 4.11032 1.5 4.30109 1.5 4.5C1.5 4.69891 1.57902 4.88968 1.71967 5.03033C1.86032 5.17098 2.05109 5.25 2.25 5.25ZM15.24 9V18C15.24 18.1989 15.161 18.3897 15.0203 18.5303C14.8797 18.671 14.6889 18.75 14.49 18.75C14.2911 18.75 14.1003 18.671 13.9597 18.5303C13.819 18.3897 13.74 18.1989 13.74 18V9C13.74 8.80109 13.819 8.61032 13.9597 8.46967C14.1003 8.32902 14.2911 8.25 14.49 8.25C14.6889 8.25 14.8797 8.32902 15.0203 8.46967C15.161 8.61032 15.24 8.80109 15.24 9ZM10.26 9V18C10.26 18.1989 10.181 18.3897 10.0403 18.5303C9.89968 18.671 9.70891 18.75 9.51 18.75C9.31109 18.75 9.12032 18.671 8.97967 18.5303C8.83902 18.3897 8.76 18.1989 8.76 18V9C8.76 8.80109 8.83902 8.61032 8.97967 8.46967C9.12032 8.32902 9.31109 8.25 9.51 8.25C9.70891 8.25 9.89968 8.32902 10.0403 8.46967C10.181 8.61032 10.26 8.80109 10.26 9Z" fill="#D80404"/>
<path d="M9 2.25H15C15.1989 2.25 15.3897 2.17098 15.5303 2.03033C15.671 1.88968 15.75 1.69891 15.75 1.5C15.75 1.30109 15.671 1.11032 15.5303 0.96967C15.3897 0.829018 15.1989 0.75 15 0.75H9C8.80109 0.75 8.61032 0.829018 8.46967 0.96967C8.32902 1.11032 8.25 1.30109 8.25 1.5C8.25 1.69891 8.32902 1.88968 8.46967 2.03033C8.61032 2.17098 8.80109 2.25 9 2.25Z" fill="#D80404"/>
</svg>
