<svg width="20" height="20" viewBox="0 0 20 20" fill="none" xmlns="http://www.w3.org/2000/svg">
<path d="M19.484 6.29402C18.7987 5.60863 17.6835 5.60867 16.9979 6.29418C16.787 6.50523 15.4407 7.85262 15.2351 8.05848V3.41508C15.2351 2.94555 15.0522 2.50414 14.7202 2.17215L13.063 0.514844C12.731 0.182813 12.2895 0 11.82 0H1.75851C0.789256 0 0.000701904 0.788555 0.000701904 1.75781V18.2422C0.000701904 19.2114 0.789256 20 1.75851 20H13.4773C14.4465 20 15.2351 19.2114 15.2351 18.2422V13.0325L19.484 8.77996C20.171 8.09301 20.1711 6.98105 19.484 6.29402ZM11.7195 1.17188C11.8302 1.17188 12.0435 1.1527 12.2343 1.34348L13.8916 3.00078C14.0775 3.18676 14.0632 3.39055 14.0632 3.51562H11.7195V1.17188ZM14.0632 18.2422C14.0632 18.5653 13.8004 18.8281 13.4773 18.8281H1.75851C1.43543 18.8281 1.17258 18.5653 1.17258 18.2422V1.75781C1.17258 1.43473 1.43543 1.17188 1.75851 1.17188H10.5476V4.10156C10.5476 4.42516 10.8099 4.6875 11.1335 4.6875H14.0632V9.23137C14.0632 9.23137 12.3345 10.9615 12.3344 10.9616L11.5062 11.7898C11.4419 11.8541 11.3934 11.9326 11.3646 12.0189L10.536 14.5048C10.4658 14.7154 10.5206 14.9475 10.6775 15.1044C10.8347 15.2616 11.0669 15.3161 11.2771 15.246L13.7631 14.4173C13.8494 14.3886 13.9278 14.3401 13.9921 14.2758L14.0632 14.2047V18.2422ZM12.7491 12.2042L13.5778 13.0328L13.2612 13.3493L12.0183 13.7636L12.4326 12.5207L12.7491 12.2042ZM14.4062 12.204L13.5776 11.3754C14.0189 10.9338 15.9786 8.97234 16.3942 8.55637L17.2228 9.385L14.4062 12.204ZM18.6552 7.95148L18.0512 8.55602L17.2225 7.72738L17.8267 7.12266C18.0553 6.89418 18.427 6.89422 18.6554 7.12266C18.8838 7.35117 18.885 7.7216 18.6552 7.95148Z" fill="black"/>
<path d="M11.1335 5.85938H2.93039C2.6068 5.85938 2.34445 6.12172 2.34445 6.44531C2.34445 6.76891 2.6068 7.03125 2.93039 7.03125H11.1335C11.4571 7.03125 11.7194 6.76891 11.7194 6.44531C11.7194 6.12172 11.4571 5.85938 11.1335 5.85938Z" fill="black"/>
<path d="M8.78976 8.20312H2.93039C2.6068 8.20312 2.34445 8.46547 2.34445 8.78906C2.34445 9.11266 2.6068 9.375 2.93039 9.375H8.78976C9.11335 9.375 9.37569 9.11266 9.37569 8.78906C9.37569 8.46547 9.11335 8.20312 8.78976 8.20312Z" fill="black"/>
<path d="M8.78976 10.5469H2.93039C2.6068 10.5469 2.34445 10.8092 2.34445 11.1328C2.34445 11.4564 2.6068 11.7188 2.93039 11.7188H8.78976C9.11335 11.7188 9.37569 11.4564 9.37569 11.1328C9.37569 10.8092 9.11335 10.5469 8.78976 10.5469Z" fill="black"/>
<path d="M8.78976 12.8906H2.93039C2.6068 12.8906 2.34445 13.153 2.34445 13.4766C2.34445 13.8002 2.6068 14.0625 2.93039 14.0625H8.78976C9.11335 14.0625 9.37569 13.8002 9.37569 13.4766C9.37569 13.153 9.11335 12.8906 8.78976 12.8906Z" fill="black"/>
<path d="M11.1335 16.4844H7.61789C7.2943 16.4844 7.03195 16.7467 7.03195 17.0703C7.03195 17.3939 7.2943 17.6562 7.61789 17.6562H11.1335C11.4571 17.6562 11.7195 17.3939 11.7195 17.0703C11.7195 16.7467 11.4571 16.4844 11.1335 16.4844Z" fill="black"/>
</svg>
