<svg width="36" height="36" viewBox="0 0 36 36" fill="none" xmlns="http://www.w3.org/2000/svg">
<circle cx="18" cy="18" r="18" fill="#0367B4"/>
<g clip-path="url(#clip0_767_304)">
<path d="M9.14375 8C8.56424 8 8.09445 8.46978 8.09445 9.0493V20.8227C8.41018 20.6267 8.7723 20.518 9.14375 20.5079L10.0147 20.4974V8H9.14375Z" fill="white"/>
<path d="M10.8752 8V20.4974H23.3306V8H10.8752ZM21.0641 14.3904H13.1417V13.425H21.1165L21.0641 14.3904ZM21.0641 12.5331H13.1417V11.5887H21.1165L21.0641 12.5331ZM21.0641 10.6968H13.1417V9.73138H21.1165L21.0641 10.6968Z" fill="white"/>
<path d="M9.14375 21.4627C8.56424 21.4627 8.09445 21.9325 8.09445 22.512V23.5613C8.09445 24.1408 8.56424 24.6106 9.14375 24.6106H23.3306V21.4626H9.14375V21.4627Z" fill="white"/>
<path d="M27.8741 14.2016V14.0232C27.8407 13.4336 27.3523 12.9729 26.7618 12.9739V12.9634C26.1739 12.9914 25.7118 13.4766 25.7125 14.0652V14.2016C26.0209 13.9873 26.3864 13.8703 26.7618 13.8658C27.1579 13.8635 27.5455 13.9805 27.8741 14.2016Z" fill="white"/>
<path d="M26.7618 24.9363C26.2617 24.9541 25.8338 25.3007 25.7125 25.7862L26.7618 28.0003L27.8111 25.7862C27.6868 25.3027 27.2606 24.9575 26.7618 24.9363Z" fill="white"/>
<path d="M25.7125 24.3173V24.2976C25.7021 24.3042 25.6914 24.3105 25.6811 24.3173H25.7125Z" fill="white"/>
<path d="M26.809 14.8259C26.2035 14.8259 25.7125 15.3169 25.7125 15.9224V24.2973C26.0358 24.0951 26.4116 23.9921 26.7933 24.0022C27.1868 23.9968 27.5733 24.1062 27.9056 24.317V15.9225C27.9056 15.3169 27.4146 14.8259 26.809 14.8259Z" fill="white"/>
</g>
<defs>
<clipPath id="clip0_767_304">
<rect width="20" height="20" fill="white" transform="translate(8 8)"/>
</clipPath>
</defs>
</svg>
