<svg width="101" height="53" viewBox="0 0 101 53" fill="none" xmlns="http://www.w3.org/2000/svg">
<path d="M81.075 15.5046C81.075 18.7465 78.8976 20.9349 75.7088 20.9349C72.4818 20.9349 70.3044 18.7465 70.3044 15.5046C70.3044 12.2837 72.4818 10.1141 75.7088 10.1141C78.8976 10.1162 81.075 12.2837 81.075 15.5046ZM72.8069 15.5443C72.8069 17.4547 73.991 18.7653 75.7088 18.7653C77.3885 18.7653 78.5725 17.4527 78.5725 15.5443C78.5725 13.636 77.3885 12.3234 75.7088 12.3234C73.991 12.3234 72.8069 13.636 72.8069 15.5443Z" fill="#0367B4"/>
<path d="M93.6376 14.1924V20.8349H91.1371V14.949C91.1371 13.4566 90.2782 12.5432 88.8654 12.5432C87.1857 12.562 86.1924 13.8559 86.1924 15.6053V20.8349H83.71V10.196H86.1924V12.1837C86.9188 10.7708 88.1972 10.1145 89.8588 10.0956C92.2068 10.0956 93.6376 11.6674 93.6376 14.1924Z" fill="#0367B4"/>
<path d="M100.429 31.0306H63.5134V0H100.429V31.0306ZM65.4962 28.9676H98.4479V2.063H65.4962V28.9676Z" fill="#0367B4"/>
<path d="M37.5012 40.7144C37.5012 41.6424 38.2156 42.2423 39.3836 42.2423C40.8707 42.2423 42.0386 41.4167 42.1771 40.3444V39.3536H39.502C38.1354 39.3516 37.5012 39.7445 37.5012 40.7144Z" fill="#0367B4"/>
<path d="M11.9604 38.7538H16.835L14.4168 32.6861L11.9604 38.7538Z" fill="#0367B4"/>
<path d="M52.759 42.0542C54.4226 42.0542 55.7713 40.5485 55.7713 38.6911C55.7713 36.8337 54.4226 35.328 52.759 35.328C51.0954 35.328 49.7468 36.8337 49.7468 38.6911C49.7468 40.5485 51.0954 42.0542 52.759 42.0542Z" fill="#0367B4"/>
<path d="M0 20.7679V52.4026H65.3717V20.7679H0ZM19.0145 44.1799L17.7863 41.1261H11.0093L9.78118 44.1799H7.02583L13.1085 29.7326H15.8638L21.8682 44.1799H19.0145ZM31.1216 44.1799L28.2478 39.3516L26.6223 41.1261V44.1799H24.0456V28.8652H26.6223V37.7401L30.9811 33.1584H33.9532L30.0299 37.4098L34.192 44.1799H31.1216ZM42.1971 44.1799V42.838C41.4646 43.8078 40.2746 44.3032 38.7695 44.3032C36.4898 44.3032 35.0649 42.838 35.0649 40.8774C35.0649 38.8332 36.5118 37.5749 39.0866 37.554H42.1771V37.2656C42.1771 35.9864 41.3643 35.2214 39.7789 35.2214C38.7876 35.2214 37.7179 35.5726 36.6282 36.254L35.6971 34.3958C37.2223 33.5075 38.4123 33.033 40.3529 33.033C43.1263 33.033 44.6916 34.4982 44.7117 36.9542L44.7317 44.1778H42.1971V44.1799ZM58.3459 44.1799H55.7692V42.4053C55.0166 43.6239 53.7884 44.3032 52.2031 44.3032C49.1708 44.3032 47.1499 41.9915 47.1499 38.6284C47.1499 35.2841 49.1708 33.0351 52.1429 33.0351C53.7684 33.0351 54.9965 33.7165 55.7692 34.9539V28.8652H58.3459V44.1799Z" fill="#0367B4"/>
</svg>
