<svg width="20" height="20" viewBox="0 0 20 20" fill="none" xmlns="http://www.w3.org/2000/svg">
<path d="M17.0679 2.92942C13.1619 -0.976589 6.83987 -0.977175 2.93331 2.92942C-0.207706 6.0704 -0.801248 10.7408 1.05573 14.4602L0.0262246 18.9886C-0.107589 19.5772 0.419926 20.1049 1.00874 19.9711L5.53718 18.9416C12.1215 22.229 19.9954 17.4697 19.9954 9.99678C19.9954 7.32715 18.9558 4.81724 17.0679 2.92942ZM12.0855 12.4856H5.83073C5.37733 12.4856 5.00979 12.1181 5.00979 11.6647C5.00979 11.2113 5.37733 10.8438 5.83073 10.8438H12.0855C12.5389 10.8438 12.9065 11.2113 12.9065 11.6647C12.9065 12.1181 12.5389 12.4856 12.0855 12.4856ZM14.1705 9.14976H5.83073C5.37733 9.14976 5.00979 8.78221 5.00979 8.32881C5.00979 7.87542 5.37733 7.50787 5.83073 7.50787H14.1705C14.6239 7.50787 14.9915 7.87542 14.9915 8.32881C14.9915 8.78221 14.6239 9.14976 14.1705 9.14976Z" fill="#0367B4"/>
</svg>
