<svg width="24" height="24" viewBox="0 0 24 24" fill="none" xmlns="http://www.w3.org/2000/svg">
<path d="M21.7908 2H11.2467C10.0265 2 9.03754 2.98914 9.03754 4.20917V9.40295C9.59491 9.67999 10.1971 9.97955 10.7593 10.259L11.6193 8.53815C12.1401 7.49756 13.4095 7.07477 14.4498 7.5946C15.4922 8.11627 15.9146 9.38226 15.3928 10.4249L13.8596 13.4919C13.9003 13.8978 13.8642 14.3071 13.7498 14.7031H14.762L12.0923 22.0442C11.9339 22.4796 12.2401 22.9877 12.7533 22.9877C13.0402 22.9877 13.3101 22.8107 13.4138 22.5247L16.2581 14.7031H16.7509L19.6241 22.527C19.7287 22.8116 19.9979 22.9877 20.2846 22.9877C20.7642 22.9877 21.1157 22.5087 20.9442 22.0424L18.2488 14.7031H21.7908C23.0109 14.7031 24 13.714 24 12.494V4.20917C24 2.98914 23.0109 2 21.7908 2V2ZM20.2842 11.6909H17.1295C16.7413 11.6909 16.4264 11.3759 16.4264 10.9877C16.4264 10.5992 16.7413 10.2846 17.1295 10.2846H20.2842C20.6728 10.2846 20.9874 10.5992 20.9874 10.9877C20.9874 11.3759 20.6728 11.6909 20.2842 11.6909ZM20.2842 9.05469H17.1295C16.7413 9.05469 16.4264 8.74011 16.4264 8.35156C16.4264 7.96338 16.7413 7.64844 17.1295 7.64844H20.2842C20.6728 7.64844 20.9874 7.96338 20.9874 8.35156C20.9874 8.74011 20.6728 9.05469 20.2842 9.05469ZM20.2842 6.41888H12.7533C12.3647 6.41888 12.0502 6.10394 12.0502 5.71576C12.0502 5.32758 12.3647 5.01263 12.7533 5.01263H20.2842C20.6728 5.01263 20.9874 5.32758 20.9874 5.71576C20.9874 6.10394 20.6728 6.41888 20.2842 6.41888Z" fill="#130049"/>
<path d="M12.3713 14.4016C12.4984 14.0293 12.4975 13.6404 12.3902 13.2855L14.1352 9.7959C14.3088 9.44855 14.1682 9.02612 13.8208 8.85254C13.4736 8.67877 13.0512 8.81958 12.8774 9.16693L11.3892 12.1431C10.4996 11.7002 9.14813 11.0282 8.05939 10.4868C7.04645 9.98303 6.32355 9.53131 5.09015 9.53131H4.46887C5.42926 9.53131 6.28638 9.08929 6.84741 8.39752C7.27551 7.87109 7.53149 7.2002 7.53149 6.46906C7.53149 4.77734 6.1604 3.40625 4.46851 3.40625C2.77734 3.40625 1.40625 4.77734 1.40625 6.46906C1.40625 7.28149 1.72266 8.01978 2.23883 8.56763C2.79694 9.16107 3.5896 9.53131 4.46832 9.53149C3.29022 9.53149 2.13849 10.0089 1.30994 10.8396C0.465271 11.6821 0 12.8045 0 14.0002V16.2595C0 17.2322 0.631531 18.0598 1.50623 18.3542V22.2844C1.50623 22.6728 1.82098 22.9875 2.20935 22.9875H6.72803C7.11639 22.9875 7.43115 22.6728 7.43115 22.2844V14.3843C8.09784 14.7176 8.97363 15.1554 9.68225 15.5099C10.179 15.7582 10.7595 15.7805 11.2771 15.5699C11.7933 15.3575 12.1912 14.9348 12.3686 14.4098C12.3695 14.407 12.3704 14.4043 12.3713 14.4016Z" fill="#130049"/>
</svg>
