<svg width="20" height="20" viewBox="0 0 20 20" fill="none" xmlns="http://www.w3.org/2000/svg">
<g clip-path="url(#clip0_774_246)">
<path d="M18.3202 5.625H13.0577C12.6014 2.44895 9.86277 0 6.5625 0C2.94395 0 0 2.94391 0 6.5625C0 7.80305 0.344102 8.99949 0.998008 10.0423L0.0363672 12.6442C-0.0429297 12.8588 0.00988282 13.0999 0.171641 13.2617C0.283516 13.3736 0.43332 13.4333 0.586055 13.4333C0.65418 13.4333 0.722891 13.4214 0.789102 13.397L3.53055 12.3837C4.46219 12.8694 5.50453 13.125 6.56254 13.125C6.7334 13.125 6.90273 13.1184 7.07035 13.1055V16.1327C7.07035 17.0589 7.82391 17.8125 8.75012 17.8125H15.6752L19.1082 19.9138C19.2019 19.9712 19.3079 20 19.4141 20C19.5127 20 19.6114 19.9752 19.7005 19.9252C19.8854 19.8216 20 19.6261 20 19.4141V7.30473C20 6.37855 19.2464 5.625 18.3202 5.625ZM3.87113 11.2341C3.78094 11.1821 3.67977 11.1556 3.57805 11.1556C3.50953 11.1556 3.4407 11.1676 3.37492 11.1919L1.57691 11.8564L2.20012 10.1703C2.26645 9.99078 2.24094 9.7902 2.13176 9.63297C1.50383 8.72875 1.17191 7.66699 1.17191 6.5625C1.17191 3.59012 3.59012 1.17188 6.56254 1.17188C9.53492 1.17188 11.9531 3.59008 11.9531 6.5625C11.9531 9.53488 9.53492 11.9531 6.56254 11.9531C5.61602 11.9531 4.68535 11.7045 3.87113 11.2341ZM18.8281 18.3684L16.1462 16.7268C16.0541 16.6704 15.9482 16.6405 15.8403 16.6405H8.75012C8.47008 16.6405 8.24223 16.4127 8.24223 16.1327V12.9067C9.60051 12.5468 10.7873 11.7612 11.6507 10.702L12.687 11.7382L11.1677 13.2575C10.9388 13.4863 10.9388 13.8573 11.1677 14.0861C11.2821 14.2005 11.432 14.2578 11.582 14.2578C11.7319 14.2578 11.8819 14.2005 11.9963 14.0861L13.5155 12.5669L15.0348 14.0861C15.1493 14.2005 15.2992 14.2578 15.4491 14.2578C15.5991 14.2578 15.7491 14.2006 15.8634 14.0861C16.0923 13.8573 16.0923 13.4863 15.8634 13.2575L14.3442 11.7383L15.8635 10.219C16.0923 9.99023 16.0923 9.61922 15.8635 9.39039C15.6347 9.16156 15.2637 9.16156 15.0349 9.39039L13.5156 10.9096L12.3182 9.71223C12.7968 8.84105 13.0832 7.85016 13.1204 6.79688H18.3202C18.6003 6.79688 18.8281 7.02473 18.8281 7.30473V18.3684H18.8281Z" fill="black"/>
<path d="M8.78493 4.52711L6.25 7.06199L5.12133 5.93332C4.89254 5.70449 4.52153 5.70449 4.2927 5.93332C4.06387 6.16215 4.06387 6.53313 4.2927 6.76195L5.83567 8.30492C5.95008 8.41937 6.10004 8.47656 6.25 8.47656C6.39997 8.47656 6.54993 8.41937 6.6643 8.30492L9.61352 5.3557C9.84235 5.12691 9.84235 4.7559 9.61352 4.52707C9.38473 4.29828 9.01375 4.29824 8.78493 4.52711Z" fill="black"/>
</g>
<defs>
<clipPath id="clip0_774_246">
<rect width="20" height="20" fill="white"/>
</clipPath>
</defs>
</svg>
