<svg width="24" height="24" viewBox="0 0 24 24" fill="none" xmlns="http://www.w3.org/2000/svg">
<path d="M5.9998 0C5.52639 0 5.14264 0.383755 5.14264 0.857159V2.57143H6.85691V0.857159C6.85691 0.383755 6.47315 0 5.9998 0Z" fill="white"/>
<path d="M18.0002 0C17.5268 0 17.143 0.383755 17.143 0.857159V2.57143H18.8573V0.857159C18.8573 0.383755 18.4736 0 18.0002 0Z" fill="white"/>
<path d="M21.4286 2.57129H18.8571V5.99987C18.8571 6.47328 18.4734 6.85703 18 6.85703C17.5266 6.85703 17.1428 6.47328 17.1428 5.99987V2.57129H6.85712V5.99987C6.85712 6.47328 6.47337 6.85703 5.99996 6.85703C5.52656 6.85703 5.1428 6.47328 5.1428 5.99987V2.57129H2.57143C1.15127 2.57129 0 3.72255 0 5.14272V21.4284C0 22.8486 1.15127 23.9999 2.57143 23.9999H21.4286C22.8487 23.9999 24 22.8486 24 21.4284V5.14272C24 3.72255 22.8487 2.57129 21.4286 2.57129ZM22.2857 21.4284C22.2857 21.9018 21.9019 22.2856 21.4285 22.2856H2.57143C2.09802 22.2856 1.71427 21.9018 1.71427 21.4284V10.2856H22.2857V21.4284Z" fill="white"/>
<path d="M6.85677 12H5.1425C4.66909 12 4.28534 12.3838 4.28534 12.8572C4.28534 13.3306 4.66909 13.7143 5.1425 13.7143H6.85677C7.33017 13.7143 7.71393 13.3306 7.71393 12.8572C7.71393 12.3838 7.33017 12 6.85677 12Z" fill="white"/>
<path d="M12.8574 12H11.1431C10.6697 12 10.2859 12.3838 10.2859 12.8572C10.2859 13.3306 10.6697 13.7143 11.1431 13.7143H12.8574C13.3308 13.7143 13.7145 13.3306 13.7145 12.8572C13.7145 12.3838 13.3308 12 12.8574 12Z" fill="white"/>
<path d="M18.8573 12H17.143C16.6696 12 16.2859 12.3838 16.2859 12.8572C16.2859 13.3306 16.6696 13.7143 17.143 13.7143H18.8573C19.3307 13.7143 19.7145 13.3306 19.7145 12.8572C19.7145 12.3838 19.3307 12 18.8573 12Z" fill="white"/>
<path d="M6.85677 15.4285H5.1425C4.66909 15.4285 4.28534 15.8122 4.28534 16.2856C4.28534 16.759 4.66909 17.1428 5.1425 17.1428H6.85677C7.33017 17.1428 7.71393 16.759 7.71393 16.2856C7.71393 15.8122 7.33017 15.4285 6.85677 15.4285Z" fill="white"/>
<path d="M12.8574 15.4285H11.1431C10.6697 15.4285 10.2859 15.8122 10.2859 16.2856C10.2859 16.759 10.6697 17.1428 11.1431 17.1428H12.8574C13.3308 17.1428 13.7145 16.759 13.7145 16.2856C13.7145 15.8122 13.3308 15.4285 12.8574 15.4285Z" fill="white"/>
<path d="M18.8573 15.4285H17.143C16.6696 15.4285 16.2859 15.8122 16.2859 16.2856C16.2859 16.759 16.6696 17.1428 17.143 17.1428H18.8573C19.3307 17.1428 19.7145 16.759 19.7145 16.2856C19.7144 15.8122 19.3307 15.4285 18.8573 15.4285Z" fill="white"/>
<path d="M6.85677 18.8574H5.1425C4.66909 18.8574 4.28534 19.2412 4.28534 19.7146C4.28534 20.188 4.66909 20.5717 5.1425 20.5717H6.85677C7.33017 20.5717 7.71393 20.1879 7.71393 19.7145C7.71393 19.2411 7.33017 18.8574 6.85677 18.8574Z" fill="white"/>
<path d="M12.8574 18.8574H11.1431C10.6697 18.8574 10.2859 19.2412 10.2859 19.7146C10.2859 20.188 10.6697 20.5717 11.1431 20.5717H12.8574C13.3308 20.5717 13.7145 20.188 13.7145 19.7146C13.7145 19.2412 13.3308 18.8574 12.8574 18.8574Z" fill="white"/>
<path d="M18.8573 18.8574H17.143C16.6696 18.8574 16.2859 19.2412 16.2859 19.7146C16.2859 20.188 16.6696 20.5717 17.143 20.5717H18.8573C19.3307 20.5717 19.7145 20.188 19.7145 19.7146C19.7145 19.2412 19.3307 18.8574 18.8573 18.8574Z" fill="white"/>
</svg>
