<svg width="411" height="140" viewBox="0 0 411 140" fill="none" xmlns="http://www.w3.org/2000/svg">
<g opacity="0.6">
<mask id="mask0_641_7031" style="mask-type:alpha" maskUnits="userSpaceOnUse" x="0" y="0" width="411" height="140">
<path d="M0 5C0 2.23857 2.23858 0 5 0H406C408.761 0 411 2.23858 411 5V140H0V5Z" fill="#8DC63F"/>
</mask>
<g mask="url(#mask0_641_7031)">
<g style="mix-blend-mode:luminosity">
<path d="M346.76 149.991C347.029 149.991 347.298 149.843 347.419 149.574C347.594 149.211 347.446 148.767 347.083 148.592C344.339 147.248 342.093 143.617 342.093 140.497C342.093 139.098 342.551 138.049 343.371 137.538C344.164 137.041 345.254 137.094 346.437 137.673C346.8 137.848 347.244 137.7 347.419 137.336C347.594 136.973 347.446 136.53 347.083 136.355C345.429 135.548 343.828 135.521 342.591 136.301C341.327 137.094 340.628 138.587 340.628 140.51C340.628 144.208 343.183 148.337 346.437 149.937C346.545 149.978 346.652 149.991 346.76 149.991Z" fill="#5B6BB1"/>
<path d="M354.049 140.842C354.049 140.008 352.879 139.336 351.453 139.336C350.014 139.336 348.858 140.008 348.858 140.842C348.858 141.676 350.028 142.348 351.453 142.348C352.879 142.348 354.049 141.676 354.049 140.842Z" fill="#2B6C81"/>
<path d="M357.723 137.247C357.723 139.251 354.912 140.878 351.443 140.878C347.973 140.878 345.162 139.251 345.162 137.247V140.838C345.162 142.841 347.973 144.469 351.443 144.469C354.912 144.469 357.723 142.841 357.723 140.838V137.247Z" fill="#69A4FC"/>
<path d="M357.723 137.251C357.723 135.247 354.912 133.62 351.443 133.62C347.973 133.62 345.162 135.247 345.162 137.251C345.162 139.255 347.973 140.882 351.443 140.882C354.912 140.882 357.723 139.255 357.723 137.251Z" fill="#88BEFF"/>
<path d="M348.578 138.389C349.318 138.819 350.327 139.075 351.456 139.075C353.702 139.075 355.518 138.026 355.518 136.735V133.117C355.518 134.408 353.702 135.457 351.456 135.457C350.34 135.457 349.318 135.188 348.578 134.771C347.839 134.341 347.395 133.763 347.395 133.117V136.735C347.382 137.38 347.839 137.958 348.578 138.389Z" fill="#1C6DF6"/>
<path d="M348.578 134.758C349.318 135.188 350.327 135.444 351.456 135.444C353.702 135.444 355.518 134.395 355.518 133.104C355.518 132.458 355.06 131.866 354.321 131.45C353.581 131.019 352.572 130.764 351.443 130.764C349.197 130.764 347.382 131.813 347.382 133.104C347.382 133.749 347.839 134.341 348.578 134.758Z" fill="#2B6C81"/>
<path d="M356.771 121.189C356.771 122.884 354.391 124.256 351.446 124.256C348.514 124.256 346.121 122.884 346.121 121.189V133.091C346.121 134.785 348.501 136.157 351.446 136.157C354.378 136.157 356.771 134.785 356.771 133.091V121.189Z" fill="#69A4FC"/>
<path d="M351.46 124.253C348.519 124.253 346.134 122.881 346.134 121.187C346.134 119.494 348.519 118.121 351.46 118.121C354.401 118.121 356.785 119.494 356.785 121.187C356.785 122.881 354.401 124.253 351.46 124.253Z" fill="#88BEFF"/>
<path d="M351.459 123.352C353.477 123.352 355.117 122.383 355.117 121.187C355.117 119.99 353.477 119.021 351.459 119.021C349.442 119.021 347.802 119.99 347.802 121.187C347.802 122.383 349.442 123.352 351.459 123.352ZM351.459 119.277C353.342 119.277 354.862 120.138 354.862 121.187C354.862 122.236 353.329 123.096 351.459 123.096C349.577 123.096 348.057 122.236 348.057 121.187C348.057 120.138 349.577 119.277 351.459 119.277Z" fill="#1C6DF6"/>
<path d="M351.454 121.188C351.454 121.188 357.358 120.475 354.977 113.764C353.929 110.819 351.454 107 351.454 107C351.454 107 348.361 111.29 347.931 114.88C347.487 118.471 347.917 120.246 351.454 121.188Z" fill="#FEB30F"/>
<path opacity="0.67" d="M351.495 121.08C351.495 121.08 354.588 120.018 353.539 116.642C352.409 113.025 351.535 111.855 351.871 112.393C351.871 112.393 349.72 114.706 349.599 116.737C349.478 118.781 349.72 120.717 351.495 121.08Z" fill="#FBC22C"/>
<path opacity="0.67" d="M351.372 120.718C351.372 120.718 352.798 120.234 352.314 118.688C351.789 117.02 351.386 116.496 351.547 116.738C351.547 116.738 350.565 117.8 350.498 118.728C350.444 119.669 350.552 120.557 351.372 120.718Z" fill="#F2DBD1"/>
<path d="M309.706 96.7383L321.508 103.551V131.257L309.706 124.444V96.7383Z" fill="#99C1FD"/>
<path d="M321.509 103.55L323 102.7V130.406L321.509 131.256V103.55Z" fill="#5195FB"/>
<path d="M309.708 96.7354L311.186 95.873L323 102.698L321.509 103.548L309.708 96.7354Z" fill="#C9DEFE"/>
<path d="M314.332 126.818C314.332 126.251 313.95 125.672 313.199 125.241C311.696 124.366 309.244 124.366 307.729 125.241C306.977 125.672 306.595 126.251 306.595 126.818V127.902C306.595 127.335 306.977 126.756 307.729 126.325C309.232 125.45 311.683 125.45 313.199 126.325C313.95 126.756 314.332 127.335 314.332 127.902V126.818Z" fill="#5195FB"/>
<path d="M310.501 131.708L318.902 126.854V127.939L310.501 132.792V131.708Z" fill="#7788BD"/>
<path d="M310.501 131.708L302 126.805L310.402 121.951L318.902 126.854L310.501 131.708ZM313.199 128.394C314.702 127.52 314.702 126.115 313.199 125.24C311.696 124.366 309.244 124.366 307.729 125.24C306.226 126.115 306.226 127.52 307.729 128.394C309.232 129.269 311.683 129.269 313.199 128.394Z" fill="#C9DEFE"/>
<path d="M305.953 131.645C305.953 131.078 305.571 130.499 304.82 130.068C303.317 129.193 300.865 129.193 299.35 130.068C298.598 130.499 298.217 131.078 298.217 131.645V132.729C298.217 132.162 298.598 131.583 299.35 131.152C300.853 130.278 303.304 130.278 304.82 131.152C305.571 131.583 305.953 132.162 305.953 132.729V131.645Z" fill="#5195FB"/>
<path d="M302.072 136.564L310.498 131.71V132.794L302.072 137.66V136.564Z" fill="#7788BD"/>
<path d="M302.07 136.561L293.57 131.658L301.984 126.792L310.484 131.695L302.07 136.561ZM304.817 133.223C306.32 132.348 306.32 130.944 304.817 130.069C303.315 129.194 300.863 129.194 299.348 130.069C297.845 130.944 297.845 132.348 299.348 133.223C300.863 134.097 303.315 134.097 304.817 133.223Z" fill="#C9DEFE"/>
<path d="M297.586 136.478C297.586 135.911 297.204 135.332 296.453 134.901C294.95 134.026 292.498 134.026 290.983 134.901C290.231 135.332 289.849 135.911 289.849 136.478V137.562C289.849 136.995 290.231 136.416 290.983 135.985C292.486 135.111 294.937 135.111 296.453 135.985C297.204 136.416 297.586 136.995 297.586 137.562V136.478Z" fill="#5195FB"/>
<path d="M293.66 141.431L302.074 136.564V137.661L293.66 142.515V141.431Z" fill="#7788BD"/>
<path d="M302.072 136.565L293.658 141.431L285.158 136.528L293.572 131.662L302.072 136.565ZM296.455 138.056C297.958 137.181 297.958 135.777 296.455 134.902C294.952 134.027 292.5 134.027 290.985 134.902C289.482 135.777 289.482 137.181 290.985 138.056C292.5 138.93 294.952 138.93 296.455 138.056Z" fill="#C9DEFE"/>
<path d="M289.219 141.307C289.219 140.74 288.837 140.161 288.085 139.73C286.582 138.856 284.131 138.856 282.616 139.73C281.864 140.161 281.482 140.74 281.482 141.307V142.391C281.482 141.825 281.864 141.246 282.616 140.814C284.119 139.94 286.57 139.94 288.085 140.814C288.837 141.246 289.219 141.825 289.219 142.391V141.307Z" fill="#5195FB"/>
<path d="M285.152 136.513L293.652 141.416L285.238 146.282L276.738 141.379L285.152 136.513ZM282.614 139.728C281.111 140.603 281.111 142.007 282.614 142.882C284.117 143.756 286.569 143.756 288.084 142.882C289.587 142.007 289.587 140.603 288.084 139.728C286.569 138.866 284.13 138.866 282.614 139.728Z" fill="#C9DEFE"/>
<path d="M315.535 113.579C315.535 113.012 315.153 112.433 314.402 112.002C312.899 111.127 310.447 111.127 308.932 112.002C308.181 112.433 307.799 113.012 307.799 113.579V114.663C307.799 114.096 308.181 113.517 308.932 113.086C310.435 112.211 312.887 112.211 314.402 113.086C315.153 113.517 315.535 114.096 315.535 114.663V113.579Z" fill="#5195FB"/>
<path d="M308.928 112C310.431 111.125 312.882 111.125 314.398 112C315.445 112.603 315.765 113.466 315.358 114.229L319.904 113.724L311.404 108.821L302.744 113.823L308.016 114.353C307.536 113.552 307.831 112.628 308.928 112Z" fill="#C9DEFE"/>
<path d="M315.02 125.667C315.02 127.429 313.59 128.378 311.829 128.378C310.067 128.378 308.638 127.429 308.638 125.667C308.638 123.906 310.067 122.477 311.829 122.477C313.578 122.477 315.02 123.906 315.02 125.667Z" fill="#81B2FC"/>
<path d="M315.018 104.502V125.543C315.018 126.566 313.589 127.391 311.827 127.391C310.201 127.391 308.846 126.689 308.661 125.777C308.648 125.703 308.636 125.63 308.636 125.543V104.502C308.636 105.524 310.065 106.35 311.827 106.35C313.589 106.35 315.018 105.524 315.018 104.502Z" fill="#B1D0FE"/>
<path d="M315.018 104.502V125.543C315.018 126.566 313.589 127.391 311.827 127.391C310.201 127.391 308.846 126.689 308.661 125.777C308.772 125.876 308.907 125.987 309.055 126.085C310.053 126.751 311.519 126.085 312.455 122.956C313.391 119.827 313.391 107.767 313.391 107.767C313.391 107.767 313.391 107.767 310.595 107.101C309.671 106.88 309.055 106.436 308.648 105.931V104.514C308.648 105.537 310.078 106.362 311.839 106.362C313.601 106.362 315.018 105.524 315.018 104.502Z" fill="#81B2FC"/>
<path d="M308.624 104.509C308.624 103.487 310.053 102.661 311.815 102.661C313.577 102.661 315.006 103.487 315.006 104.509C315.006 105.532 313.577 106.357 311.815 106.357C310.053 106.357 308.624 105.532 308.624 104.509Z" fill="#81B2FC"/>
<path d="M315.551 104.508C315.551 103.178 313.912 102.131 311.818 102.131C309.724 102.131 308.085 103.178 308.085 104.508C308.085 105.839 309.724 106.886 311.818 106.886C313.912 106.886 315.551 105.839 315.551 104.508ZM314.479 104.508C314.479 105.124 313.346 105.827 311.818 105.827C310.29 105.827 309.157 105.137 309.157 104.508C309.157 103.88 310.29 103.19 311.818 103.19C313.346 103.19 314.479 103.893 314.479 104.508Z" fill="#E1EDFF"/>
<path d="M309.415 107.606V116.181C309.415 116.181 309.464 119.113 309.907 118.755C310.351 118.398 310.265 115.873 310.265 115.873V108.013C310.265 108.001 309.784 108.05 309.415 107.606Z" fill="white"/>
<path d="M302.75 113.812L311.25 118.728V119.812L302.75 114.897V113.812Z" fill="#C9DEFE"/>
<path d="M311.25 118.728L319.91 113.727V114.811L311.25 119.812V118.728Z" fill="#7788BD"/>
<path d="M315.352 114.232C315.18 114.577 314.847 114.897 314.391 115.168C312.888 116.043 310.437 116.043 308.921 115.168C308.503 114.934 308.207 114.65 308.022 114.355L302.749 113.825L311.25 118.728L319.91 113.727L315.352 114.232Z" fill="#C9DEFE"/>
<path d="M306.857 118.593C306.857 118.027 306.476 117.448 305.724 117.016C304.221 116.142 301.77 116.142 300.254 117.016C299.503 117.448 299.121 118.027 299.121 118.593V119.677C299.121 119.111 299.503 118.532 300.254 118.1C301.757 117.226 304.209 117.226 305.724 118.1C306.476 118.532 306.857 119.111 306.857 119.677V118.593Z" fill="#5195FB"/>
<path d="M300.252 117.005C301.755 116.13 304.207 116.13 305.722 117.005C306.769 117.608 307.089 118.471 306.683 119.234L311.229 118.729L302.728 113.826L294.068 118.828L299.34 119.358C298.872 118.557 299.168 117.645 300.252 117.005Z" fill="#C9DEFE"/>
<path d="M306.363 130.687C306.363 132.449 304.934 133.397 303.173 133.397C301.411 133.397 299.982 132.449 299.982 130.687C299.982 128.925 301.411 127.496 303.173 127.496C304.934 127.484 306.363 128.913 306.363 130.687Z" fill="#81B2FC"/>
<path d="M306.371 109.515V130.556C306.371 131.579 304.942 132.404 303.18 132.404C301.554 132.404 300.199 131.702 300.014 130.79C300.002 130.716 299.99 130.642 299.99 130.556V109.515C299.99 110.537 301.419 111.363 303.18 111.363C304.942 111.363 306.371 110.537 306.371 109.515Z" fill="#B1D0FE"/>
<path d="M306.371 109.515V130.556C306.371 131.579 304.942 132.404 303.18 132.404C301.554 132.404 300.199 131.702 300.014 130.79C300.125 130.889 300.261 131 300.409 131.098C301.406 131.763 302.872 131.098 303.809 127.969C304.745 124.84 304.745 112.779 304.745 112.779C304.745 112.779 304.745 112.779 301.949 112.114C301.025 111.892 300.409 111.449 300.002 110.944V109.527C300.002 110.549 301.431 111.375 303.193 111.375C304.942 111.363 306.371 110.537 306.371 109.515Z" fill="#81B2FC"/>
<path d="M299.978 109.518C299.978 108.495 301.407 107.67 303.169 107.67C304.93 107.67 306.359 108.495 306.359 109.518C306.359 110.54 304.93 111.366 303.169 111.366C301.407 111.366 299.978 110.54 299.978 109.518Z" fill="#81B2FC"/>
<path d="M306.896 109.517C306.896 108.187 305.258 107.14 303.164 107.14C301.069 107.14 299.431 108.187 299.431 109.517C299.431 110.848 301.069 111.895 303.164 111.895C305.258 111.895 306.896 110.86 306.896 109.517ZM305.837 109.517C305.837 110.133 304.704 110.835 303.176 110.835C301.649 110.835 300.515 110.146 300.515 109.517C300.515 108.901 301.649 108.199 303.176 108.199C304.691 108.211 305.837 108.901 305.837 109.517Z" fill="#E1EDFF"/>
<path d="M300.753 112.614V121.188C300.753 121.188 300.802 124.12 301.245 123.763C301.689 123.406 301.603 120.88 301.603 120.88V113.021C301.603 113.008 301.122 113.058 300.753 112.614Z" fill="white"/>
<path d="M294.086 118.819L302.586 123.735V124.819L294.086 119.916V118.819Z" fill="#C9DEFE"/>
<path d="M302.586 123.735L311.246 118.733V119.83L302.586 124.819V123.735Z" fill="#7788BD"/>
<path d="M306.698 119.238C306.525 119.582 306.193 119.903 305.737 120.174C304.234 121.048 301.782 121.048 300.267 120.174C299.848 119.94 299.553 119.656 299.368 119.361L294.095 118.831L302.595 123.734L311.256 118.732L306.698 119.238Z" fill="#C9DEFE"/>
<path d="M298.186 123.59C298.186 123.024 297.804 122.445 297.052 122.013C295.549 121.139 293.098 121.139 291.582 122.013C290.831 122.445 290.449 123.024 290.449 123.59V124.674C290.449 124.108 290.831 123.529 291.582 123.098C293.085 122.223 295.537 122.223 297.052 123.098C297.804 123.529 298.186 124.108 298.186 124.674V123.59Z" fill="#5195FB"/>
<path d="M291.598 122.011C293.101 121.137 295.552 121.137 297.068 122.011C298.115 122.615 298.435 123.477 298.028 124.241L302.574 123.736L294.074 118.833L285.413 123.835L290.686 124.364C290.206 123.551 290.501 122.64 291.598 122.011Z" fill="#C9DEFE"/>
<path d="M297.68 135.671C297.68 137.433 296.251 138.381 294.489 138.381C292.727 138.381 291.298 137.433 291.298 135.671C291.298 133.91 292.727 132.48 294.489 132.48C296.251 132.48 297.68 133.91 297.68 135.671Z" fill="#81B2FC"/>
<path d="M297.676 114.502V135.543C297.676 136.566 296.247 137.391 294.485 137.391C292.859 137.391 291.504 136.689 291.319 135.777C291.307 135.703 291.294 135.63 291.294 135.543V114.502C291.294 115.524 292.723 116.35 294.485 116.35C296.247 116.338 297.676 115.512 297.676 114.502Z" fill="#B1D0FE"/>
<path d="M297.676 114.502V135.543C297.676 136.566 296.247 137.391 294.485 137.391C292.859 137.391 291.504 136.689 291.319 135.777C291.43 135.876 291.565 135.987 291.713 136.085C292.711 136.751 294.177 136.085 295.113 132.956C296.05 129.827 296.05 117.767 296.05 117.767C296.05 117.767 296.05 117.767 293.253 117.101C292.329 116.88 291.713 116.436 291.307 115.931V114.514C291.307 115.537 292.736 116.362 294.497 116.362C296.247 116.338 297.676 115.512 297.676 114.502Z" fill="#81B2FC"/>
<path d="M291.283 114.507C291.283 113.485 292.712 112.659 294.473 112.659C296.235 112.659 297.664 113.485 297.664 114.507C297.664 115.53 296.235 116.355 294.473 116.355C292.712 116.343 291.283 115.517 291.283 114.507Z" fill="#81B2FC"/>
<path d="M298.203 114.507C298.203 113.176 296.565 112.129 294.47 112.129C292.376 112.129 290.738 113.176 290.738 114.507C290.738 115.837 292.376 116.884 294.47 116.884C296.565 116.884 298.203 115.837 298.203 114.507ZM297.144 114.507C297.144 115.122 296.01 115.825 294.483 115.825C292.955 115.825 291.822 115.135 291.822 114.507C291.822 113.878 292.955 113.188 294.483 113.188C296.01 113.188 297.144 113.878 297.144 114.507Z" fill="#E1EDFF"/>
<path d="M292.085 117.601V126.175C292.085 126.175 292.134 129.107 292.577 128.75C293.021 128.392 292.935 125.867 292.935 125.867V118.007C292.922 118.007 292.442 118.044 292.085 117.601Z" fill="white"/>
<path d="M285.421 123.824L293.934 128.727V129.824L285.421 124.908V123.824Z" fill="#C9DEFE"/>
<path d="M293.928 128.727L302.576 123.737V124.821L293.928 129.823V128.727Z" fill="#7788BD"/>
<path d="M298.032 124.231C297.859 124.576 297.527 124.896 297.071 125.167C295.568 126.042 293.116 126.042 291.601 125.167C291.182 124.933 290.887 124.65 290.702 124.354L285.429 123.824L293.929 128.727L302.59 123.726L298.032 124.231Z" fill="#C9DEFE"/>
<path d="M289.514 128.594C289.514 128.028 289.132 127.449 288.38 127.017C286.877 126.143 284.426 126.143 282.911 127.017C282.159 127.449 281.777 128.028 281.777 128.594V129.678C281.777 129.112 282.159 128.533 282.911 128.101C284.414 127.227 286.865 127.227 288.38 128.101C289.132 128.533 289.514 129.112 289.514 129.678V128.594Z" fill="#5195FB"/>
<path d="M282.926 127.015C284.429 126.141 286.88 126.141 288.396 127.015C289.443 127.619 289.763 128.481 289.357 129.245L293.902 128.74L285.402 123.837L276.742 128.839L282.014 129.368C281.534 128.568 281.829 127.644 282.926 127.015Z" fill="#C9DEFE"/>
<path d="M289.014 140.674C289.014 142.436 287.585 143.384 285.823 143.384C284.061 143.384 282.632 142.436 282.632 140.674C282.632 138.912 284.061 137.483 285.823 137.483C287.585 137.483 289.014 138.912 289.014 140.674Z" fill="#81B2FC"/>
<path d="M289.018 119.511V140.552C289.018 141.575 287.589 142.4 285.827 142.4C284.201 142.4 282.846 141.698 282.661 140.786C282.648 140.712 282.636 140.638 282.636 140.552V119.511C282.636 120.533 284.065 121.359 285.827 121.359C287.589 121.359 289.018 120.533 289.018 119.511Z" fill="#B1D0FE"/>
<path d="M289.018 119.511V140.552C289.018 141.575 287.589 142.4 285.827 142.4C284.201 142.4 282.846 141.698 282.661 140.786C282.772 140.885 282.907 140.996 283.055 141.094C284.053 141.759 285.519 141.094 286.455 137.965C287.391 134.836 287.391 122.775 287.391 122.775C287.391 122.775 287.391 122.775 284.595 122.11C283.671 121.888 283.055 121.445 282.648 120.94V119.523C282.648 120.546 284.078 121.371 285.839 121.371C287.589 121.359 289.018 120.533 289.018 119.511Z" fill="#81B2FC"/>
<path d="M282.619 119.511C282.619 118.488 284.048 117.663 285.809 117.663C287.571 117.663 289 118.488 289 119.511C289 120.533 287.571 121.359 285.809 121.359C284.06 121.359 282.619 120.533 282.619 119.511Z" fill="#81B2FC"/>
<path d="M289.555 119.509C289.555 118.179 287.916 117.132 285.822 117.132C283.728 117.132 282.089 118.179 282.089 119.509C282.089 120.84 283.728 121.887 285.822 121.887C287.916 121.887 289.555 120.84 289.555 119.509ZM288.483 119.509C288.483 120.125 287.349 120.828 285.822 120.828C284.294 120.828 283.161 120.138 283.161 119.509C283.161 118.881 284.294 118.191 285.822 118.191C287.349 118.191 288.483 118.893 288.483 119.509Z" fill="#E1EDFF"/>
<path d="M283.417 122.617V131.191C283.417 131.191 283.466 134.123 283.909 133.766C284.353 133.409 284.267 130.883 284.267 130.883V123.024C284.267 123.011 283.786 123.061 283.417 122.617Z" fill="white"/>
<path d="M276.761 128.83L285.262 133.746V134.83L276.761 129.914V128.83Z" fill="#C9DEFE"/>
<path d="M285.256 133.746L293.904 128.744V129.828L285.256 134.83V133.746Z" fill="#7788BD"/>
<path d="M289.356 129.247C289.183 129.592 288.851 129.912 288.395 130.184C286.892 131.058 284.441 131.058 282.925 130.184C282.506 129.949 282.211 129.666 282.026 129.37L276.753 128.841L285.254 133.744L293.914 128.742L289.356 129.247Z" fill="#C9DEFE"/>
<path d="M280.859 133.608C280.859 133.041 280.477 132.462 279.726 132.031C278.223 131.156 275.771 131.156 274.256 132.031C273.505 132.462 273.123 133.041 273.123 133.608V134.692C273.123 134.125 273.505 133.546 274.256 133.115C275.759 132.24 278.211 132.24 279.726 133.115C280.477 133.546 280.859 134.125 280.859 134.692V133.608Z" fill="#5195FB"/>
<path d="M274.254 132.018C275.757 131.144 278.208 131.144 279.724 132.018C280.771 132.622 281.091 133.484 280.685 134.248L285.23 133.743L276.73 128.84L268.07 133.841L273.342 134.371C272.862 133.57 273.158 132.659 274.254 132.018Z" fill="#C9DEFE"/>
<path d="M280.346 124.523V145.565C280.346 146.587 278.917 147.413 277.155 147.413C275.529 147.413 274.174 146.711 273.989 145.799C273.977 145.725 273.964 145.651 273.964 145.565V124.523C273.964 125.546 275.393 126.371 277.155 126.371C278.917 126.371 280.346 125.546 280.346 124.523Z" fill="#B1D0FE"/>
<path d="M280.346 124.523V145.565C280.346 146.587 278.917 147.413 277.155 147.413C275.529 147.413 274.174 146.711 273.989 145.799C274.1 145.897 274.235 146.008 274.383 146.107C275.381 146.772 276.847 146.107 277.783 142.978C278.72 139.849 278.72 127.788 278.72 127.788C278.72 127.788 278.72 127.788 275.923 127.123C274.999 126.901 274.383 126.458 273.977 125.952V124.536C273.977 125.558 275.406 126.384 277.167 126.384C278.917 126.371 280.346 125.546 280.346 124.523Z" fill="#81B2FC"/>
<path d="M273.96 124.523C273.96 123.5 275.389 122.675 277.151 122.675C278.913 122.675 280.342 123.5 280.342 124.523C280.342 125.545 278.913 126.371 277.151 126.371C275.389 126.371 273.96 125.545 273.96 124.523Z" fill="#81B2FC"/>
<path d="M280.889 124.521C280.889 123.191 279.25 122.144 277.156 122.144C275.062 122.144 273.423 123.191 273.423 124.521C273.423 125.852 275.062 126.899 277.156 126.899C279.25 126.899 280.889 125.864 280.889 124.521ZM279.817 124.521C279.817 125.137 278.684 125.839 277.156 125.839C275.628 125.839 274.495 125.149 274.495 124.521C274.495 123.905 275.628 123.203 277.156 123.203C278.684 123.203 279.817 123.905 279.817 124.521Z" fill="#E1EDFF"/>
<path d="M274.745 127.625V136.199C274.745 136.199 274.794 139.131 275.238 138.774C275.681 138.417 275.595 135.891 275.595 135.891V128.032C275.595 128.019 275.114 128.068 274.745 127.625Z" fill="white"/>
<path d="M268.078 133.829L276.578 138.745V139.829L268.078 134.926V133.829Z" fill="#C9DEFE"/>
<path d="M276.578 138.745L285.238 133.743V134.84L276.578 139.829V138.745Z" fill="#7788BD"/>
<path d="M280.682 134.25C280.51 134.595 280.177 134.915 279.721 135.186C278.218 136.061 275.767 136.061 274.251 135.186C273.833 134.952 273.537 134.669 273.352 134.373L268.079 133.844L276.58 138.747L285.24 133.745L280.682 134.25Z" fill="#C9DEFE"/>
<path d="M265.998 121.966L277.812 128.778V156.484L265.998 149.672V121.966Z" fill="#99C1FD"/>
<path d="M277.813 128.779L279.291 127.917V155.623L277.813 156.485V128.779Z" fill="#5195FB"/>
<path d="M266 121.966L267.491 121.104L279.293 127.916L277.815 128.778L266 121.966Z" fill="#C9DEFE"/>
<path d="M336.194 84.0627C336.194 92.0363 342.654 98.4965 350.615 98.4965C354.99 98.4965 358.906 96.5508 361.539 93.486C363.726 90.9553 365.049 87.6616 365.049 84.0627C365.049 76.1018 358.589 69.6416 350.615 69.6416C348.466 69.6416 346.418 70.1249 344.574 70.9642C339.628 73.2405 336.194 78.251 336.194 84.0627Z" fill="#99C1FD"/>
<path d="M359.822 75.786C354.748 72.8611 346.495 72.8611 341.434 75.786C340.175 76.5109 339.233 77.3502 338.598 78.2531C340.772 73.7895 345.338 70.6865 350.628 70.6865C355.918 70.6865 360.496 73.7895 362.658 78.2531C362.022 77.3502 361.081 76.5109 359.822 75.786Z" fill="#B6D4FF"/>
<path d="M337.63 80.8848C337.528 82.8813 338.787 84.8906 341.419 86.4167C346.494 89.3416 354.747 89.3416 359.808 86.4167C362.441 84.9034 363.687 82.8813 363.598 80.8975C363.852 81.9149 363.992 82.9831 363.992 84.0767C363.992 91.4526 357.99 97.455 350.614 97.455C343.238 97.455 337.236 91.4526 337.236 84.0767C337.236 82.9704 337.388 81.9021 337.63 80.8848Z" fill="#FC7464"/>
<path d="M363.596 80.8863C363.367 79.9707 363.049 79.0932 362.642 78.2539L363.596 80.8863Z" fill="#609AAA"/>
<path d="M359.823 86.4071C354.749 89.332 346.496 89.332 341.434 86.4071C338.802 84.8938 337.556 82.8718 337.645 80.8752C337.874 79.9596 338.191 79.0821 338.598 78.2428C339.234 77.3526 340.175 76.5133 341.434 75.7757C346.508 72.8508 354.762 72.8508 359.823 75.7757C361.082 76.5006 362.023 77.3399 362.659 78.2428C363.066 79.0821 363.384 79.9596 363.613 80.8752C363.702 82.8718 362.443 84.8938 359.823 86.4071Z" fill="#FF6666"/>
<path d="M357.661 77.5879C357.661 77.5879 356.491 78.3636 355.931 78.7578C355.257 79.2411 354.545 79.3174 354.545 79.3174C354.545 79.3174 354.927 80.6908 355.27 81.8226C355.613 82.9545 355.715 83.6539 355.715 83.6539C355.715 83.6539 358.386 83.0435 359.352 82.1787C360.624 81.0215 360.955 80.1186 360.726 80.2203C360.726 80.2203 360.064 79.3047 359.06 78.5162C358.284 77.8931 357.661 77.5879 357.661 77.5879Z" fill="white"/>
<path d="M346.941 52.3069C347.043 52.4722 347.17 52.6376 347.348 52.8029C347.488 52.9301 347.653 53.0445 347.857 53.159C348.035 53.2607 348.226 53.3497 348.416 53.426C348.467 53.4387 348.518 53.4642 348.556 53.4769C348.722 53.5405 348.887 53.5913 349.065 53.6295C349.103 53.6422 349.141 53.6549 349.192 53.6676C349.408 53.7185 349.625 53.7567 349.841 53.7821C349.879 53.7821 349.93 53.7948 349.968 53.7948C350.159 53.8075 350.337 53.8202 350.527 53.8202C350.578 53.8202 350.642 53.8202 350.693 53.8202C350.807 53.8202 350.909 53.8075 351.023 53.8075V75.4264C349.892 75.49 348.722 75.2866 347.844 74.7779C347.157 74.3837 346.776 73.875 346.712 73.3663C346.7 73.3154 346.687 73.2518 346.687 73.1883V51.5693C346.7 51.7982 346.789 52.0526 346.941 52.3069Z" fill="#B8C8F4"/>
<path d="M351.898 53.6931C351.923 53.6931 351.961 53.6804 351.987 53.6677C352.139 53.6295 352.279 53.5914 352.419 53.5532C352.534 53.5151 352.648 53.4896 352.75 53.4515C352.89 53.4006 353.004 53.337 353.131 53.2735C353.22 53.2353 353.309 53.1972 353.398 53.1463C353.488 53.0954 353.564 53.0445 353.64 52.981C353.691 52.9428 353.729 52.9047 353.78 52.8665C353.844 52.8156 353.907 52.7648 353.958 52.7139C354.034 52.6376 354.098 52.5613 354.161 52.485C354.2 52.4341 354.251 52.3832 354.276 52.3324C354.327 52.2434 354.378 52.1543 354.416 52.0653C354.441 52.0145 354.467 51.9763 354.479 51.9255C354.518 51.811 354.53 51.6838 354.543 51.5694C354.543 51.5312 354.543 73.1374 354.543 73.1374C354.543 73.201 354.53 73.2646 354.53 73.3155C354.467 73.7606 354.162 74.2057 353.64 74.5745C353.564 74.6253 353.488 74.6889 353.398 74.7398C352.953 74.9941 352.445 75.1722 351.898 75.2866C351.618 75.3375 351.326 75.3756 351.02 75.3883V53.7694C351.326 53.7694 351.618 53.744 351.898 53.6931Z" fill="#99C1FD"/>
<path d="M350.622 49.8264C349.681 49.8264 348.766 50.0426 348.117 50.4114C347.558 50.7294 347.24 51.1363 347.24 51.5432C347.24 51.9375 347.545 52.3444 348.117 52.6623C348.766 53.0311 349.681 53.2473 350.622 53.2473C350.762 53.2473 350.889 53.2346 351.029 53.2219V53.7687C350.915 53.7814 350.813 53.7814 350.699 53.7814C350.648 53.7814 350.584 53.7814 350.533 53.7814C350.343 53.7814 350.152 53.7687 349.974 53.756C349.936 53.756 349.885 53.756 349.847 53.7433C349.63 53.7179 349.402 53.6797 349.198 53.6288C349.16 53.6161 349.122 53.6034 349.071 53.5907C348.893 53.5525 348.728 53.489 348.562 53.4381C348.511 53.4254 348.46 53.3999 348.422 53.3872C348.232 53.3109 348.041 53.2219 347.863 53.1202C347.672 53.0057 347.507 52.8913 347.354 52.7641C347.176 52.6115 347.049 52.4462 346.947 52.2681C346.795 52.0265 346.706 51.7722 346.706 51.5178C346.706 50.9328 347.087 50.3478 347.85 49.9155C348.715 49.4195 349.897 49.2033 351.029 49.2796V49.8264C350.889 49.8519 350.75 49.8264 350.622 49.8264Z" fill="#99C1FD"/>
<path d="M354.543 51.5947C354.543 51.7219 354.518 51.8363 354.479 51.9508C354.467 52.0016 354.441 52.0398 354.416 52.0907C354.378 52.1797 354.34 52.2687 354.276 52.3577C354.238 52.4086 354.2 52.4594 354.161 52.5103C354.098 52.5866 354.034 52.6629 353.958 52.7392C353.907 52.7901 353.844 52.8409 353.78 52.8918C353.666 52.9808 353.538 53.0826 353.398 53.1716C353.309 53.2224 353.22 53.2479 353.131 53.2988C353.004 53.3623 352.89 53.4259 352.75 53.4768C352.648 53.515 352.534 53.5404 352.419 53.5785C352.279 53.6167 352.139 53.6675 351.987 53.693C351.669 53.7566 351.351 53.8074 351.02 53.8202V53.2733C351.809 53.2225 352.559 53.0317 353.119 52.7011C353.678 52.3831 353.996 51.9635 353.996 51.582C353.996 51.1877 353.678 50.7681 353.119 50.4502C352.559 50.1322 351.809 49.9415 351.02 49.8779V49.3311C351.885 49.3819 352.724 49.5854 353.398 49.9669C354.162 50.412 354.543 50.997 354.543 51.5693V51.5947Z" fill="#99C1FD"/>
<path d="M348.4 53.4111C348.451 53.4239 348.503 53.4495 348.541 53.4623C348.503 53.4495 348.451 53.4239 348.4 53.4111Z" fill="#99C1FD"/>
<path d="M349.839 53.7715C349.877 53.7715 349.928 53.7843 349.967 53.7843C349.928 53.7715 349.877 53.7715 349.839 53.7715Z" fill="#99C1FD"/>
<path d="M346.939 52.3057C347.04 52.471 347.168 52.6363 347.346 52.8016C347.168 52.6363 347.04 52.471 346.939 52.3057Z" fill="#99C1FD"/>
<path d="M349.059 53.6123C349.098 53.6251 349.136 53.6379 349.188 53.6507C349.136 53.6379 349.098 53.6251 349.059 53.6123Z" fill="#99C1FD"/>
<path d="M351.986 53.6643C352.138 53.6388 352.278 53.588 352.418 53.5498C352.278 53.588 352.138 53.6261 351.986 53.6643Z" fill="#99C1FD"/>
<path d="M353.78 52.8805C353.844 52.8295 353.908 52.7785 353.959 52.7275C353.908 52.7785 353.844 52.8295 353.78 52.8805Z" fill="#99C1FD"/>
<path d="M354.16 52.4987C354.198 52.4473 354.25 52.396 354.275 52.3447C354.25 52.4089 354.198 52.4473 354.16 52.4987Z" fill="#99C1FD"/>
<path d="M354.417 52.09C354.442 52.0388 354.468 52.0004 354.48 51.9492C354.468 52.0004 354.429 52.0516 354.417 52.09Z" fill="#99C1FD"/>
<path d="M352.751 53.4544C352.891 53.4035 353.006 53.34 353.133 53.2764C353.006 53.34 352.878 53.4035 352.751 53.4544Z" fill="#99C1FD"/>
<path d="M353.119 50.4247C353.678 50.7427 353.996 51.1496 353.996 51.5566C353.996 51.9508 353.678 52.3578 353.119 52.6757C352.559 52.9936 351.809 53.1843 351.02 53.2479V49.8652C351.822 49.9034 352.572 50.1068 353.119 50.4247Z" fill="#8AACEA"/>
<path d="M348.119 52.6748C347.56 52.3441 347.242 51.9499 347.242 51.5557C347.242 51.1487 347.547 50.7545 348.119 50.4238C348.768 50.055 349.683 49.8389 350.624 49.8389C350.764 49.8389 350.891 49.8516 351.031 49.8643V53.247C350.891 53.2597 350.764 53.2725 350.624 53.2725C349.683 53.2598 348.768 53.0436 348.119 52.6748Z" fill="#8AACEA"/>
<path d="M351.898 53.6916V75.3106C352.445 75.1961 352.954 75.0181 353.399 74.7637C353.488 74.7129 353.564 74.662 353.641 74.5984V52.9795C353.564 53.0304 353.488 53.094 353.399 53.1448C352.954 53.3992 352.445 53.5772 351.898 53.6916Z" fill="white"/>
<path d="M345.376 50.6299C345.376 51.4056 345.719 52.4866 346.749 53.0843C348.796 54.267 352.116 54.267 354.163 53.0843C355.18 52.4866 355.867 51.4056 355.867 50.6299C355.867 49.8542 355.358 49.0784 354.328 48.4935C352.281 47.3108 348.962 47.3108 346.914 48.4935C345.884 49.0784 345.376 49.8542 345.376 50.6299Z" fill="#88BEFF"/>
<path d="M346.976 51.1138C347.128 51.3936 347.421 51.6606 347.815 51.8895C348.553 52.3092 349.57 52.5508 350.626 52.5508C351.681 52.5508 352.711 52.3092 353.449 51.8895C353.843 51.6606 354.123 51.3936 354.275 51.1138C354.123 50.834 353.83 50.567 353.449 50.3381C352.711 49.9184 351.694 49.6768 350.626 49.6768C349.57 49.6768 348.54 49.9184 347.815 50.3381C347.408 50.5797 347.128 50.8467 346.976 51.1138Z" fill="#99C1FD"/>
<path d="M388.272 40.4744C390.79 38.2617 390.79 31.5471 388.272 32.3482C385.766 34.5737 385.766 41.2756 388.272 40.4744Z" fill="#609AAA"/>
<path d="M357.969 60.207V68.206C357.765 69.1471 357.091 70.0627 355.883 70.7876C351.725 73.2801 344.4 71.8049 343.777 68.206C343.738 68.206 343.738 60.207 343.738 60.207H347.096C347.121 60.4614 347.223 60.703 347.388 60.9065C349.207 63.1574 354.344 62.3181 354.599 60.207H357.969Z" fill="#69A4FC"/>
<path d="M349.016 61.9616V71.8936C347.96 71.741 346.803 71.3467 345.824 70.7872V57.0146H347.083C347.083 59.6344 347.057 60.0413 347.108 60.2066C347.21 61.0841 348.24 61.72 349.016 61.9616Z" fill="#99C1FD"/>
<path d="M357.968 60.2048C357.892 61.8961 356.162 63.0788 354.623 63.6511C351.38 64.8592 346.675 64.3632 344.539 62.0233C343.521 60.9423 343.483 59.1619 344.539 58.0301C345.086 57.4324 345.887 56.8602 347.069 56.4151C347.069 59.4799 347.044 60.0394 347.095 60.2174C347.349 62.3285 352.5 63.1678 354.305 60.9169C354.776 60.3065 354.623 59.8614 354.623 56.4023C355.742 56.822 356.684 57.4452 357.358 58.2591C357.815 58.8186 358.006 59.5053 357.968 60.2048Z" fill="#88BEFF"/>
<path d="M381.988 86.835L355.88 70.4046C354.278 69.0057 353.642 64.6565 354.748 63.0288C355.066 62.5582 355.473 62.4311 355.88 62.5837C355.88 62.5582 381.988 78.9886 381.988 78.9886V86.835Z" fill="#5292FF"/>
<path d="M383.398 82.7524L354.251 64.5035C354.34 63.9058 354.493 63.3971 354.734 63.041L383.386 80.9974V82.7524H383.398Z" fill="#99C1FD"/>
<path d="M382.074 87.0223C379.556 84.8095 379.556 78.0949 382.074 78.8961C384.579 81.1216 384.579 87.8234 382.074 87.0223Z" fill="#609AAA"/>
<path d="M382.671 29.3535C382.671 33.0542 382.645 34.2114 382.683 34.3768C382.709 34.6311 382.811 34.8727 382.976 35.0762C383.866 36.1826 385.774 36.6022 387.414 36.3351V31.4264C385.379 31.7698 382.722 30.9177 382.671 29.3535Z" fill="#5292FF"/>
<path d="M389.116 30.8502V35.7463C389.739 35.3648 390.223 34.8815 390.223 34.1439V29.3369C390.185 30.0236 389.676 30.5069 389.116 30.8502Z" fill="#5292FF"/>
<path d="M390.211 29.3535H382.67C382.682 29.646 382.784 29.9385 382.975 30.1801C384.832 32.4819 390.135 31.5536 390.211 29.3535Z" fill="#609AAA"/>
<path d="M382.67 34.1572V178.279C382.771 178.775 383.14 179.258 383.776 179.64C385.989 180.975 389.842 180.187 390.198 178.279C390.211 178.279 390.211 34.1572 390.211 34.1572C390.211 36.548 384.793 37.3365 382.975 35.0856C382.784 34.8312 382.67 34.526 382.67 34.1572Z" fill="#5292FF"/>
<path d="M387.426 31.4385V36.3472C387.96 36.2709 388.621 36.0675 389.117 35.7623V30.8662C388.621 31.146 388.036 31.3368 387.426 31.4385Z" fill="#99C1FD"/>
<path d="M387.426 36.3467V180.227C388.049 180.125 388.634 179.935 389.117 179.642V35.7617C388.621 36.0669 387.96 36.2704 387.426 36.3467Z" fill="#99C1FD"/>
<path d="M387.426 27.6602V31.4371C388.049 31.3481 388.634 31.1573 389.117 30.8648V27.6728H387.426V27.6602Z" fill="#99C1FD"/>
<path d="M382.668 29.3469C382.808 31.6614 388.124 32.3862 389.904 30.1735C390.336 29.6266 390.311 28.8128 389.904 28.3168C388.073 26.0659 382.528 26.8925 382.668 29.3469Z" fill="#88BEFF"/>
<path d="M379.332 34.3682V42.3671C379.536 43.3082 380.21 44.2238 381.418 44.9487C385.525 47.4158 392.901 46.0042 393.524 42.3671C393.562 42.3671 393.562 34.3682 393.562 34.3682H390.205C390.18 34.6225 390.078 34.8641 389.913 35.0676C388.094 37.3185 382.956 36.4792 382.702 34.3682H379.332Z" fill="#69A4FC"/>
<path d="M388.285 36.1227V46.0547C389.34 45.9021 390.485 45.5206 391.477 44.9483V31.1758H390.205C390.205 33.6047 390.23 34.2024 390.192 34.3678C390.09 35.2452 389.073 35.8811 388.285 36.1227Z" fill="#99C1FD"/>
<path d="M379.325 34.3669C379.401 36.0582 381.131 37.2409 382.669 37.8132C385.95 39.034 390.643 38.4999 392.754 36.1854C393.784 35.1044 393.797 33.3113 392.754 32.1922C392.067 31.4419 391.177 30.9333 390.223 30.5772C390.223 33.6293 390.249 34.2015 390.211 34.3796C389.956 36.4906 384.806 37.3299 383 35.079C382.529 34.4686 382.695 34.0108 382.695 30.5645C381.576 30.9841 380.622 31.6073 379.961 32.4212C379.49 32.9807 379.299 33.6801 379.325 34.3669Z" fill="#88BEFF"/>
<path d="M379.332 79.9902V87.9892C379.536 88.9303 380.21 89.8459 381.418 90.5708C385.525 93.0379 392.901 91.6263 393.524 87.9892C393.562 87.9892 393.562 79.9902 393.562 79.9902H390.205C390.18 80.2446 390.078 80.4862 389.913 80.6897C388.094 82.9406 382.956 82.1013 382.702 79.9902H379.332Z" fill="#69A4FC"/>
<path d="M388.285 81.7477V91.6797C389.34 91.5271 390.485 91.1456 391.477 90.5733V76.8008H390.218C390.218 79.4205 390.243 79.8274 390.192 79.9927C390.09 80.8702 389.073 81.5061 388.285 81.7477Z" fill="#99C1FD"/>
<path d="M379.325 79.9977C379.401 81.6891 381.131 82.8718 382.669 83.444C385.95 84.6649 390.643 84.1307 392.754 81.8163C393.784 80.7353 393.797 78.9422 392.754 77.8231C392.067 77.0601 391.164 76.5514 390.223 76.208C390.223 79.2728 390.249 79.8324 390.198 80.0104C389.943 82.1214 384.793 82.9608 382.987 80.7099C382.517 80.1122 382.669 79.6671 382.669 76.1953C381.55 76.615 380.609 77.2381 379.935 78.052C379.49 78.5988 379.299 79.2983 379.325 79.9977Z" fill="#88BEFF"/>
<path d="M187.323 145.596C187.629 145.777 188.02 145.78 188.325 145.575L207.707 132.08C208.1 131.812 208.151 131.298 207.859 130.925C207.561 130.561 207.005 130.474 206.619 130.732L187.236 144.227C186.843 144.495 186.793 145.009 187.085 145.382C187.155 145.467 187.232 145.542 187.323 145.596Z" fill="#DD6C2D"/>
<path d="M163.899 146.382C164.019 146.454 164.171 146.502 164.331 146.513L184.687 147.505C185.162 147.523 185.55 147.183 185.561 146.744C185.572 146.305 185.182 145.921 184.713 145.893L164.357 144.901C163.881 144.883 163.493 145.223 163.483 145.662C163.471 145.962 163.646 146.232 163.899 146.382Z" fill="#DD6C2D"/>
<path d="M161.466 145.515C161.612 145.6 161.795 145.652 161.982 145.65C162.456 145.633 162.825 145.256 162.786 144.793L161.605 130.182C161.57 129.736 161.155 129.377 160.662 129.397C160.187 129.413 159.819 129.791 159.858 130.254L161.038 144.864C161.064 145.134 161.232 145.376 161.466 145.515Z" fill="#DD6C2D"/>
<path d="M206.914 114.742L207.758 129.655L205.989 129.761L205.145 114.848L206.914 114.742Z" fill="#DD6C2D"/>
<path d="M211.397 132.458C210.235 134.229 207.695 134.721 205.734 133.575C204.546 132.881 203.836 131.742 203.714 130.558C203.632 129.786 203.808 128.998 204.27 128.294C205.432 126.524 207.972 126.032 209.933 127.178C210.639 127.59 211.181 128.157 211.519 128.8C212.135 129.94 212.143 131.322 211.397 132.458Z" fill="#FEB30F"/>
<path d="M210.99 131.039C209.828 132.809 207.299 133.308 205.326 132.155C204.62 131.743 204.078 131.175 203.74 130.532C203.657 129.76 203.833 128.972 204.295 128.268C205.458 126.497 207.998 126.005 209.96 127.151C210.666 127.564 211.208 128.131 211.546 128.774C211.629 129.546 211.446 130.344 210.99 131.039Z" fill="#FCD561"/>
<path d="M208.015 128.978C207.857 129.219 207.518 129.286 207.249 129.128C206.98 128.971 206.892 128.656 207.051 128.415C207.209 128.173 207.547 128.107 207.817 128.264C208.086 128.421 208.174 128.737 208.015 128.978Z" fill="#FFEFCA"/>
<path d="M209.813 116.01C208.651 117.78 206.111 118.272 204.15 117.127C202.962 116.433 202.252 115.294 202.13 114.11C202.048 113.338 202.224 112.55 202.686 111.846C203.848 110.075 206.388 109.583 208.349 110.729C209.055 111.142 209.597 111.709 209.935 112.352C210.545 113.501 210.552 114.884 209.813 116.01Z" fill="#FEB30F"/>
<path d="M209.399 114.602C208.236 116.373 205.707 116.871 203.735 115.719C203.028 115.306 202.486 114.739 202.148 114.096C202.065 113.324 202.241 112.536 202.704 111.831C203.866 110.061 206.406 109.569 208.368 110.715C209.074 111.127 209.616 111.695 209.954 112.338C210.037 113.11 209.861 113.898 209.399 114.602Z" fill="#FCD561"/>
<path d="M206.447 112.54C206.289 112.781 205.95 112.847 205.681 112.69C205.412 112.533 205.324 112.217 205.482 111.976C205.641 111.735 205.979 111.668 206.248 111.826C206.517 111.983 206.599 112.308 206.447 112.54Z" fill="#FFEFCA"/>
<path d="M161.597 128.238C161.903 128.42 162.293 128.423 162.599 128.218L181.981 114.722C182.374 114.455 182.424 113.941 182.132 113.567C181.823 113.197 181.278 113.117 180.892 113.374L161.51 126.87C161.117 127.137 161.066 127.651 161.358 128.025C161.429 128.11 161.506 128.184 161.597 128.238Z" fill="#DD6C2D"/>
<path d="M164.059 131.305C162.897 133.075 160.357 133.567 158.396 132.421C157.208 131.727 156.498 130.588 156.376 129.404C156.294 128.632 156.47 127.844 156.932 127.14C158.094 125.37 160.634 124.878 162.595 126.024C163.301 126.436 163.843 127.004 164.181 127.646C164.809 128.792 164.805 130.168 164.059 131.305Z" fill="#FEB30F"/>
<path d="M163.664 129.89C162.502 131.66 159.973 132.159 158 131.006C157.294 130.594 156.751 130.026 156.414 129.383C156.331 128.611 156.507 127.823 156.969 127.119C158.131 125.348 160.672 124.856 162.633 126.002C163.34 126.415 163.882 126.982 164.22 127.625C164.291 128.391 164.12 129.195 163.664 129.89Z" fill="#FCD561"/>
<path d="M160.533 127.744C160.428 127.905 160.203 127.94 160.035 127.842C159.856 127.737 159.807 127.528 159.906 127.377C160.012 127.216 160.237 127.18 160.405 127.279C160.579 127.367 160.639 127.583 160.533 127.744Z" fill="#FFEFCA"/>
<path d="M183.52 113.389C183.641 113.461 183.792 113.509 183.952 113.52L204.308 114.512C204.783 114.53 205.171 114.19 205.182 113.751C205.193 113.312 204.803 112.928 204.334 112.9L183.978 111.908C183.502 111.89 183.114 112.23 183.104 112.669C183.092 112.968 183.267 113.239 183.52 113.389Z" fill="#DD6C2D"/>
<path d="M186.827 114.834C185.665 116.605 183.125 117.097 181.164 115.951C179.976 115.257 179.266 114.118 179.144 112.934C179.062 112.162 179.244 111.364 179.7 110.67C180.862 108.9 183.401 108.408 185.362 109.554C186.068 109.966 186.611 110.533 186.948 111.176C187.558 112.326 187.566 113.708 186.827 114.834Z" fill="#FEB30F"/>
<path d="M186.412 113.426C185.25 115.197 182.721 115.696 180.748 114.543C180.042 114.13 179.5 113.563 179.162 112.92C179.079 112.148 179.262 111.35 179.717 110.656C180.88 108.885 183.42 108.393 185.382 109.539C186.088 109.951 186.63 110.519 186.968 111.162C187.051 111.934 186.875 112.722 186.412 113.426Z" fill="#FCD561"/>
<path d="M183.649 111.478C183.431 111.809 182.95 111.904 182.58 111.688C182.211 111.472 182.086 111.024 182.304 110.692C182.522 110.36 183.003 110.265 183.373 110.481C183.742 110.697 183.867 111.146 183.649 111.478Z" fill="#FFEFCA"/>
<path d="M235.36 132.978C234.396 134.446 232.277 134.864 230.641 133.908C229.655 133.332 229.053 132.382 228.958 131.394C228.901 130.748 229.038 130.091 229.421 129.507C230.385 128.039 232.504 127.621 234.14 128.577C234.723 128.917 235.173 129.389 235.454 129.929C235.979 130.876 235.981 132.032 235.36 132.978Z" fill="#FEB30F"/>
<path d="M235.021 131.799C234.057 133.268 231.938 133.686 230.301 132.73C229.707 132.382 229.257 131.911 228.976 131.37C228.919 130.725 229.056 130.067 229.439 129.484C230.403 128.015 232.523 127.597 234.159 128.553C234.742 128.893 235.192 129.365 235.473 129.905C235.548 130.548 235.404 131.215 235.021 131.799Z" fill="#FCD561"/>
<path d="M232.717 130.168C232.532 130.449 232.129 130.52 231.827 130.343C231.513 130.159 231.418 129.784 231.596 129.513C231.78 129.231 232.183 129.161 232.486 129.338C232.8 129.521 232.895 129.897 232.717 130.168Z" fill="#FFEFCA"/>
<path d="M209.586 131.216C209.707 131.288 209.858 131.336 210.018 131.348L230.375 132.34C230.85 132.357 231.238 132.017 231.249 131.578C231.259 131.14 230.869 130.755 230.4 130.727L210.044 129.735C209.568 129.718 209.181 130.058 209.17 130.497C209.158 130.796 209.333 131.066 209.586 131.216Z" fill="#DD6C2D"/>
<path d="M207.28 113.072C207.586 113.254 207.976 113.257 208.282 113.052L227.664 99.5569C228.057 99.2894 228.108 98.7753 227.816 98.4016C227.506 98.0316 226.951 97.9447 226.575 98.2087L207.193 111.704C206.8 111.971 206.75 112.485 207.041 112.859C207.112 112.944 207.189 113.018 207.28 113.072Z" fill="#DD6C2D"/>
<path d="M209.143 115.795C208.179 117.264 206.06 117.682 204.424 116.726C203.438 116.15 202.837 115.2 202.741 114.212C202.684 113.566 202.821 112.908 203.204 112.325C204.168 110.857 206.287 110.439 207.923 111.395C208.506 111.735 208.956 112.207 209.237 112.747C209.756 113.704 209.764 114.85 209.143 115.795Z" fill="#FEB30F"/>
<path d="M208.807 114.619C207.843 116.088 205.723 116.506 204.087 115.549C203.492 115.202 203.042 114.73 202.761 114.19C202.704 113.545 202.841 112.887 203.224 112.303C204.188 110.834 206.308 110.417 207.944 111.373C208.527 111.713 208.977 112.185 209.258 112.725C209.333 113.367 209.19 114.035 208.807 114.619Z" fill="#FCD561"/>
<path d="M206.195 112.824C206.11 112.955 205.914 112.993 205.768 112.908C205.622 112.823 205.571 112.64 205.657 112.51C205.743 112.379 205.939 112.341 206.084 112.426C206.241 112.517 206.281 112.694 206.195 112.824Z" fill="#FFEFCA"/>
<path d="M231.911 99.332C230.947 100.801 228.828 101.218 227.192 100.262C226.206 99.6861 225.604 98.7364 225.509 97.7482C225.452 97.1026 225.589 96.4451 225.972 95.8617C226.935 94.3932 229.054 93.9754 230.691 94.9313C231.273 95.2718 231.723 95.7435 232.016 96.2901C232.523 97.2408 232.531 98.3865 231.911 99.332Z" fill="#FEB30F"/>
<path d="M231.572 98.1534C230.608 99.6223 228.489 100.04 226.852 99.0841C226.258 98.737 225.808 98.2652 225.527 97.725C225.47 97.0793 225.607 96.4217 225.99 95.8381C226.954 94.3692 229.073 93.9513 230.71 94.9074C231.293 95.248 231.743 95.7198 232.035 96.2665C232.092 96.9122 231.955 97.5699 231.572 98.1534Z" fill="#FCD561"/>
<path d="M229.258 96.5352C229.073 96.8166 228.67 96.887 228.368 96.7101C228.065 96.5332 227.959 96.1513 228.137 95.8799C228.321 95.5985 228.724 95.5281 229.027 95.7051C229.33 95.882 229.443 96.2538 229.258 96.5352Z" fill="#FFEFCA"/>
<path d="M159.559 127.392L159.436 129.007L134.577 127.091L134.701 125.477L159.559 127.392Z" fill="#DD6C2D"/>
<path d="M137.879 127.241C136.914 128.727 134.808 129.156 133.188 128.197C132.212 127.619 131.62 126.663 131.531 125.666C131.478 125.015 131.618 124.351 132.001 123.761C132.966 122.275 135.072 121.846 136.692 122.805C137.268 123.146 137.713 123.621 138 124.171C138.517 125.125 138.501 126.285 137.879 127.241Z" fill="#FEB30F"/>
<path d="M137.547 126.058C136.582 127.543 134.475 127.973 132.856 127.014C132.268 126.666 131.823 126.191 131.547 125.647C131.494 124.996 131.633 124.332 132.017 123.741C132.982 122.256 135.089 121.826 136.709 122.785C137.285 123.127 137.73 123.601 138.017 124.152C138.088 124.8 137.931 125.467 137.547 126.058Z" fill="#FCD561"/>
<path d="M135.1 124.345C134.968 124.548 134.684 124.606 134.463 124.475C134.241 124.344 134.169 124.076 134.302 123.872C134.434 123.669 134.717 123.611 134.939 123.742C135.16 123.873 135.232 124.141 135.1 124.345Z" fill="#FFEFCA"/>
</g>
</g>
</g>
</svg>
