<svg width="411" height="140" viewBox="0 0 411 140" fill="none" xmlns="http://www.w3.org/2000/svg">
<defs>
<linearGradient id="paint0_linear_641_8183" x1="283.269" y1="120.309" x2="280.891" y2="122.525" gradientUnits="userSpaceOnUse">
<stop stop-color="#AB316D"/>
<stop offset="1" stop-color="#792D3D"/>
</linearGradient>
<linearGradient id="paint1_linear_641_8183" x1="317.029" y1="127.374" x2="313.443" y2="130.714" gradientUnits="userSpaceOnUse">
<stop stop-color="#AB316D"/>
<stop offset="1" stop-color="#792D3D"/>
</linearGradient>
<linearGradient id="paint2_linear_641_8183" x1="305.037" y1="127.735" x2="301.865" y2="132.105" gradientUnits="userSpaceOnUse">
<stop stop-color="#AB316D"/>
<stop offset="1" stop-color="#792D3D"/>
</linearGradient>
<linearGradient id="paint3_linear_641_8183" x1="303.226" y1="127.731" x2="307.468" y2="128.043" gradientUnits="userSpaceOnUse">
<stop stop-color="#311944"/>
<stop offset="1" stop-color="#6B3976"/>
</linearGradient>
<linearGradient id="paint4_linear_641_8183" x1="304.074" y1="127.043" x2="302.09" y2="131.879" gradientUnits="userSpaceOnUse">
<stop stop-color="#AB316D"/>
<stop offset="1" stop-color="#792D3D"/>
</linearGradient>
<linearGradient id="paint5_linear_641_8183" x1="302.018" y1="128.175" x2="304.177" y2="132.239" gradientUnits="userSpaceOnUse">
<stop offset="0.00359712" stop-color="#E38DDD"/>
<stop offset="1" stop-color="#9571F6"/>
</linearGradient>
</defs>
<g opacity="0.8">
<mask id="mask0_641_8183" style="mask-type:alpha" maskUnits="userSpaceOnUse" x="0" y="0" width="411" height="140">
<path d="M0 5C0 2.23857 2.23858 0 5 0H406C408.761 0 411 2.23858 411 5V140H0V5Z" fill="#54D0FF"/>
</mask>
<g mask="url(#mask0_641_8183)">
<g style="mix-blend-mode:luminosity">
<path d="M234.189 51.8195C232.285 50.684 230.026 48.8968 228.379 46.1024C226.594 43.0908 224.907 37.8673 226.9 36.0801C227.64 35.4087 228.951 35.1717 229.76 35.6555C230.954 36.3665 230.253 38.1734 231.486 41.1258C231.713 41.6689 232.897 44.4929 234.228 44.3942C234.889 44.3448 235.451 43.5845 235.678 42.9032C236.349 40.9185 234.218 39.5163 233.025 36.4356C231.812 33.3055 231.723 28.8423 233.962 26.9465C235.244 25.8603 237.384 25.5542 238.282 26.3837C238.667 26.7391 238.775 27.2427 238.686 30.8665C238.617 33.8387 238.519 34.6681 239.13 35.2605C239.761 35.8629 241.063 36.1393 241.862 35.616C243.943 34.2731 240.383 29.0102 242.562 23.4412C243.539 20.943 245.926 17.7141 248.47 18.0202C250.187 18.2276 251.893 20.0444 251.982 21.7626C252.071 23.3128 250.788 23.8164 249.97 26.7984C249.723 27.7068 249.21 29.5631 249.851 29.9877C250.601 30.4913 252.564 28.7633 253.037 28.3289C256.558 25.1198 255.769 22.1871 258.186 20.9825C260.079 20.0444 262.871 20.6665 264.478 22.4044C265.889 23.925 266.421 26.3343 265.632 28.1808C264.833 30.0569 262.407 31.1134 257.554 33.2363C255.256 34.2435 253.52 34.836 252.751 36.5837C252.376 37.4329 252.13 38.7758 252.672 39.1707C253.875 40.0594 257.13 35.0631 260.661 35.774C262.466 36.1393 264.054 37.9463 264.212 39.8224C264.409 42.1231 262.466 44.2757 260.474 44.9274C257.87 45.7864 256.716 43.5944 252.505 43.8116C250.64 43.9103 247.484 44.5225 247.109 46.132C246.952 46.8331 247.307 47.7711 247.987 48.2056C249.516 49.1831 251.351 46.7936 254.526 46.9121C256.815 46.9911 259.359 48.3636 259.448 49.7163C259.586 51.6319 254.832 53.508 252.455 54.1992C249.595 55.0583 243.233 56.1839 234.189 51.8195Z" fill="#7A9ADB"/>
<path opacity="0.5" d="M235.488 51.4059C237.402 46.844 244.779 39.2508 249.011 36.022C253.153 32.8721 258.4 27.2438 258.45 27.1846L258.558 27.2833C258.509 27.3426 253.252 32.9807 249.099 36.1404C244.878 39.3496 237.53 46.9132 235.626 51.4553L235.488 51.4059Z" fill="white"/>
</g>
<g style="mix-blend-mode:luminosity">
<path d="M151.928 136.369C153.991 134.894 156.405 132.614 158.025 129.267C159.77 125.648 161.198 119.499 158.75 117.65C157.832 116.958 156.314 116.81 155.43 117.445C154.127 118.376 155.113 120.373 153.979 123.878C153.775 124.525 152.688 127.872 151.158 127.883C150.398 127.894 149.684 127.066 149.356 126.317C148.392 124.116 150.693 122.301 151.758 118.648C152.835 114.95 152.506 109.822 149.764 107.881C148.188 106.758 145.707 106.622 144.755 107.655C144.347 108.097 144.279 108.687 144.732 112.828C145.106 116.232 145.299 117.173 144.653 117.899C143.995 118.648 142.534 119.091 141.559 118.58C139.043 117.241 142.613 110.877 139.576 104.705C138.216 101.948 135.167 98.4763 132.289 99.0662C130.34 99.4747 128.572 101.71 128.628 103.684C128.685 105.465 130.192 105.919 131.416 109.254C131.79 110.264 132.561 112.351 131.87 112.896C131.054 113.543 128.64 111.75 128.062 111.308C123.721 107.972 124.345 104.546 121.455 103.4C119.2 102.504 116.061 103.491 114.383 105.635C112.922 107.507 112.536 110.332 113.624 112.363C114.723 114.428 117.602 115.403 123.37 117.366C126.101 118.296 128.141 118.807 129.195 120.736C129.705 121.677 130.124 123.175 129.535 123.697C128.243 124.831 124.027 119.42 120.061 120.588C118.033 121.189 116.389 123.402 116.389 125.569C116.378 128.212 118.826 130.493 121.16 131.048C124.22 131.775 125.331 129.154 130.17 128.995C132.312 128.927 135.995 129.324 136.573 131.128C136.822 131.911 136.505 133.022 135.768 133.59C134.113 134.86 131.779 132.308 128.164 132.739C125.557 133.057 122.77 134.86 122.792 136.437C122.826 138.65 128.447 140.329 131.224 140.885C134.589 141.577 141.99 142.246 151.928 136.369Z" fill="#FF716F"/>
<path opacity="0.5" d="M150.385 136.034C147.745 130.996 138.565 123.021 133.409 119.742C128.355 116.531 121.804 110.598 121.736 110.541L121.623 110.666C121.691 110.723 128.253 116.667 133.318 119.878C138.463 123.146 147.609 131.087 150.238 136.102L150.385 136.034Z" fill="white"/>
</g>
<g style="mix-blend-mode:luminosity">
<path d="M335.624 96.8877C335.624 104.9 333.076 112.342 328.817 118.461C328.801 118.484 328.707 118.508 328.707 118.539C321.938 128.351 310.582 134.689 297.724 134.689C296.669 134.689 295.692 134.635 294.668 134.478C294.66 134.478 294.66 134.556 294.66 134.556C294.152 134.517 293.652 134.501 293.152 134.439C292.972 134.415 292.792 134.415 292.62 134.392C292.464 134.368 292.308 134.361 292.151 134.337C292.019 134.314 291.878 134.298 291.745 134.282C291.714 134.275 291.682 134.275 291.651 134.267C291.323 134.212 290.995 134.157 290.666 134.095C290.666 134.095 290.666 134.095 290.659 134.095C273.174 130.753 259.965 115.362 259.965 96.8877C259.965 92.9831 260.528 89.2116 261.63 85.6669C261.802 85.1114 261.997 84.5636 262.161 84.0159C262.474 83.1082 262.872 82.2162 263.271 81.3476C263.427 80.9955 263.607 80.6512 263.771 80.3069C264.694 78.4133 265.772 76.6136 266.984 74.9156C267.093 74.7591 267.21 74.6105 267.32 74.454C267.765 73.8436 268.234 73.249 268.719 72.6621C269.446 71.7857 270.212 70.9485 271.009 70.1425C273.096 68.0455 275.417 66.1988 277.942 64.6339C278.723 64.1487 279.521 63.6949 280.341 63.2723C282.319 62.2395 284.398 61.3787 286.563 60.7058C290.119 59.6025 293.894 59 297.81 59C306.814 59 315.092 62.1534 321.587 67.4117C326.362 71.2849 330.192 76.2928 332.639 82.0284C333.186 83.3117 333.592 84.6262 334.061 85.9721C334.061 85.9799 334.053 85.9799 334.061 85.9877C335.093 89.4463 335.624 93.1005 335.624 96.8877Z" fill="#90AFED"/>
<path d="M306.051 109.659C305.239 110.801 302.73 112.273 304.434 115.16C306.122 118.039 304.316 118.579 303.152 118.313C301.987 118.047 298.353 117.899 298.962 119.55C299.564 121.201 300.604 121.827 299.275 122.46C297.946 123.094 297.383 124.753 296.023 127.038C294.671 129.331 291.459 127.351 292.412 129.644C293.358 131.936 294.101 131.717 294.015 133.313C293.991 133.752 294.288 134.205 294.679 134.636C294.171 134.597 293.663 134.542 293.155 134.479C292.975 134.456 292.795 134.432 292.623 134.409C292.467 134.385 292.311 134.37 292.155 134.338C292.022 134.315 291.881 134.299 291.748 134.276C291.717 134.268 291.74 134.268 291.709 134.26C291.381 134.205 291.115 134.151 290.802 134.088C290.49 133.814 290.685 133.525 290.724 133.204C291.146 130.254 287.074 128.219 286.394 126.154C285.722 124.088 286.386 122.859 286.23 121.146C286.074 119.44 286.629 117.171 285.644 115.739C284.659 114.307 280.704 113.822 279.954 110.934C279.196 108.047 280.962 103.72 281.642 102.984C282.322 102.249 278.367 98.8999 276.483 98.7904C274.592 98.673 275.35 94.8623 272.153 95.4492C268.949 96.0126 263.204 94.2207 264.392 92.3036C265.369 90.7152 267.018 87.2253 261.648 85.6682C261.82 85.1126 262.016 84.5649 262.172 84.0172C262.485 83.1095 262.883 82.2175 263.282 81.3489C263.438 80.9968 263.618 80.6525 263.782 80.3082C264.705 78.4146 265.783 76.6149 266.995 74.9169C267.104 74.7604 267.221 74.6117 267.331 74.4553C267.776 73.8449 268.245 73.2502 268.73 72.6634C269.457 71.787 270.223 70.9497 271.02 70.1438C273.107 68.0467 275.428 66.2001 277.953 64.6351C279.016 65.3785 280.235 65.8401 281.282 65.2768C283.854 63.837 282.158 63.6101 281.103 63.5631C280.829 63.5475 280.563 63.4379 280.352 63.2736C282.33 62.2407 284.409 61.38 286.574 60.7071C286.41 62.1625 284.44 64.4943 285.894 64.2126C287.582 63.8918 288.278 59.3143 289.513 60.8401C290.771 62.3659 288.137 64.3691 290.615 63.2032C293.092 62.0529 293.429 59.4942 296.188 60.7384C298.962 61.9982 298.712 63.4927 299.486 63.344C300.26 63.1954 302.753 64.8777 301.245 66.2627C299.72 67.6477 298.321 65.8793 296.039 65.3472C293.757 64.8229 293.812 66.693 292.756 67.1234C291.686 67.5381 286.527 65.042 285.261 67.2956C283.979 69.5335 283.44 71.0984 285.339 71.0358C287.238 70.981 287.363 70.4881 287.207 71.8965C287.058 73.305 287.402 74.3535 289.122 73.0311C290.834 71.7087 290.451 70.4255 291.795 71.0515C293.139 71.6853 293.296 71.1141 294.718 70.0734C296.141 69.0327 298.017 68.9309 298.509 71.2549C299.001 73.5867 298.157 74.1031 295.656 74.2205C293.147 74.3457 292.866 73.5476 292.061 75.6524C291.264 77.7495 287.949 80.449 285.034 81.5602C282.127 82.6713 280.985 84.3223 281.056 86.5367C281.126 88.759 280.032 91.1064 279.305 89.2754C278.57 87.4366 276.515 84.338 274.42 86.4115C272.317 88.4851 268.659 92.1471 272.7 92.8201C276.733 93.5008 274.631 89.7214 276.671 90.4726C278.703 91.2316 275.381 92.8983 276.741 93.5008C278.101 94.1111 278.672 93.8216 278.664 95.6839C278.656 97.5384 279.117 99.3459 280.767 98.5556C282.416 97.7732 284.542 94.1268 286.933 96.2786C289.325 98.4383 289.161 98.1566 290.412 97.5306C291.67 96.9046 292.467 98.7826 292.983 99.6433C293.499 100.496 295.515 99.6276 297.149 102.179C298.783 104.729 299.423 105.183 301.292 104.268C303.16 103.352 303.918 104.033 304.402 105.324C304.887 106.615 306.036 105.355 306.591 107.053C307.122 108.775 306.864 108.509 306.051 109.659Z" fill="#5C80CA"/>
<path d="M312.429 78.7404C311.108 75.9 317.65 76.2209 318.807 76.44C319.972 76.6356 322.699 74.4994 323.051 73.5057C323.411 72.5041 323.989 72.9814 326.06 72.9501C328.132 72.9266 326.303 72.4571 324.02 71.7059C321.746 70.9548 323.692 70.8843 321.597 69.2255C320.699 68.4978 320.98 67.8796 321.582 67.4258C326.357 71.2991 330.179 76.3069 332.626 82.0425C332.555 82.019 332.493 82.0112 332.43 82.0112C330.984 82.0034 330.664 78.7952 329.914 78.1692C329.179 77.5432 329.937 79.9298 330.117 80.9157C330.297 81.8938 329.718 81.0722 328.999 81.9721C328.272 82.8719 326.959 82.8876 326.842 81.5417C326.725 80.1959 325.771 78.8656 323.841 78.2475C321.91 77.6293 320.245 78.1379 318.674 78.7404C317.119 79.3273 313.758 81.5495 312.429 78.7404Z" fill="#5C80CA"/>
<path d="M328.858 118.54C328.991 117.562 329.202 116.561 328.795 116.193C327.811 115.277 327.592 112.773 327.936 111.506C328.28 110.238 330.937 110.309 329.132 108.196C327.318 106.083 325.685 103.571 326.451 102.132C327.209 100.7 326.982 100.59 325.552 100.598C324.121 100.606 323.496 100.668 322.074 99.4008C320.651 98.1098 318.697 102.437 313.343 98.9705C307.989 95.465 311.037 89.5572 313.046 89.5416C315.063 89.5103 317.423 88.4852 315.766 86.0204C314.117 83.5478 316.696 83.1957 317.955 83.7591C319.213 84.3146 321.448 82.8201 323.731 82.1472C326.013 81.4742 325.911 85.2067 327.185 85.95C328.459 86.6934 330.851 86.1065 332.094 84.9093C332.985 84.0564 333.172 85.0502 334.048 85.997C335.08 89.4477 335.634 93.1019 335.634 96.8813C335.642 104.941 333.133 112.406 328.858 118.54Z" fill="#5C80CA"/>
<path d="M319.284 74.018C319.284 74.018 320.956 73.259 320.347 72.0462C319.745 70.8333 318.799 67.1087 318.103 68.2824C317.408 69.464 318.432 71.7488 318.213 72.7348C317.986 73.7285 317.978 74.2449 319.284 74.018Z" fill="#5479C6"/>
<path d="M317.621 72.8752C317.597 72.4839 317.84 70.8955 316.597 70.9424C316.597 70.9424 314.791 71.6936 315.847 72.9769C316.91 74.2601 317.644 73.2664 317.621 72.8752Z" fill="#5C80CA"/>
<path opacity="0.2" d="M335.527 96.8044C335.527 104.817 333.033 112.258 328.766 118.377C328.75 118.401 328.711 118.424 328.711 118.456C321.786 128.268 310.539 134.575 297.681 134.575C296.626 134.575 295.602 134.481 294.57 134.324C294.563 134.324 294.563 134.442 294.563 134.442C294.055 134.403 293.554 134.41 293.054 134.348C292.874 134.324 292.695 134.332 292.523 134.309C292.366 134.285 292.21 134.277 292.054 134.254C291.921 134.23 291.78 134.223 291.647 134.199C291.616 134.191 291.585 134.191 291.553 134.183C291.225 134.129 290.897 134.168 290.569 134.003C290.569 134.003 290.569 134.003 290.561 134.003C274.397 130.85 261.884 117.485 260.094 100.873C263.877 111.765 273.248 119.833 284.777 122.196H284.785C285.066 122.352 285.355 122.345 285.637 122.391C285.66 122.391 285.691 122.423 285.715 122.423C285.832 122.438 285.949 122.47 286.067 122.485C286.199 122.509 286.332 122.525 286.473 122.548C286.629 122.571 286.778 122.587 286.934 122.603C287.364 122.658 287.802 122.83 288.239 122.869C288.247 122.869 288.247 122.986 288.247 122.986C289.138 122.986 290.021 122.978 290.928 122.978C296.478 122.978 301.714 121.531 306.287 119.089C310.867 116.648 314.791 113.119 317.722 108.878C317.722 108.855 317.761 108.815 317.769 108.792C321.45 103.51 323.607 97.0783 323.607 90.1533C323.607 86.8826 323.068 83.7213 322.177 80.7479C322.177 80.7401 322.106 80.7323 322.106 80.7323C321.794 79.5664 321.426 78.4318 320.95 77.3206C318.839 72.3676 315.58 68.0404 311.453 64.6992C308.428 62.2501 304.981 60.333 301.214 59.0889C308.85 59.7931 315.838 62.7665 321.481 67.3362C326.257 71.2095 330.141 76.2174 332.588 81.9529C333.135 83.2362 333.44 84.5508 334.065 85.8966C334.065 85.9045 334.01 85.9045 334.01 85.9123C335.034 89.363 335.527 93.025 335.527 96.8044Z" fill="#7A9ADB"/>
<path d="M283.294 121.937L282.552 121.068C282.552 121.068 282.005 120.246 282.489 119.167C282.974 118.087 283.505 118.431 283.505 118.431L283.294 119.198C283.294 119.198 283.154 119.691 283.591 120.356C283.967 121.146 283.998 121.725 283.998 121.725L283.294 121.937Z" fill="url(#paint0_linear_641_8183)"/>
<path d="M316.545 127.548L317.514 126.789L318.03 125.326C318.03 125.326 319.101 125.843 318.397 127.212C317.975 127.65 316.975 128.292 316.529 128.949C316.068 129.606 316.545 127.548 316.545 127.548Z" fill="url(#paint1_linear_641_8183)"/>
<path d="M306.895 136.903C306.895 136.903 311.437 134.54 312.562 133.663C313.735 132.748 316.916 129.125 317.197 128.695C317.478 128.256 316.517 127.278 316.517 127.278C316.517 127.278 311.007 133.217 304.809 130.886C305.653 133.217 306.895 136.903 306.895 136.903Z" fill="#FFBAB9"/>
<path d="M300.86 130.578C298.554 130.015 295.115 130.946 291.402 128.614C287.744 126.322 285.712 123.176 284.54 121.173C283.946 121.415 283.36 121.65 282.766 121.893C283.61 123.638 285.626 127.386 288.464 130.101C292.035 133.52 295.74 133.982 297.577 136.689C298.601 135.821 301.985 130.852 300.86 130.578Z" fill="#FFBAB9"/>
<path d="M303.153 130.594C302.011 130.476 299.135 129.944 297.681 131.204C296.189 132.487 297.47 134.256 297.056 136.525C296.775 138.066 296.767 138.982 296.282 141.493C296.181 142.01 296.048 142.581 295.829 143.27C295.321 144.897 294.406 148.098 293.984 148.88C295.102 149.561 298.017 150.852 301.621 150.586C303.27 150.461 304.606 150.015 305.56 149.6C304.841 146.728 305.294 142.902 305.74 141.54C306.615 138.856 306.85 137.8 309.046 134.013C309.656 132.972 308.358 133.481 307.623 132.471C306.514 130.93 304.302 130.711 303.153 130.594Z" fill="#FFBAB9"/>
<path opacity="0.25" d="M299.24 137.484C299.334 136.983 299.498 136.068 299.115 135.074C299.053 134.91 298.834 134.378 298.389 133.908C297.443 132.906 296.137 132.867 294.652 132.656C293.566 132.5 292.018 132.187 290.135 131.506C292.863 133.509 295.489 134.26 297.107 136.099C297.091 136.24 297.075 136.381 297.044 136.529C296.763 138.071 296.755 138.986 296.27 141.498C296.169 142.015 296.036 142.586 295.817 143.274C295.309 144.902 294.395 148.102 293.972 148.885C295.09 149.565 298.006 150.857 301.609 150.591C303.258 150.465 304.594 150.019 305.548 149.605C305.329 148.728 305.22 147.758 305.188 146.803C303.875 146.702 301.984 146.35 300.077 145.199C299.014 144.558 298.482 144.237 298.201 143.595C297.662 142.351 298.514 141.303 299.24 137.484Z" fill="#FFBAB9"/>
<path d="M302.361 128.177C302.541 127.316 303.267 126.808 303.424 126.698C304.088 126.244 304.221 126.205 304.44 126.182L304.737 126.158C304.737 126.158 304.753 126.158 304.768 126.158C304.94 126.182 305.44 126.424 305.534 126.495C305.816 126.729 305.487 128.208 304.44 130C304.393 130.157 304.346 130.313 304.299 130.462C305.081 130.657 305.268 130.814 305.268 130.931C305.261 131.182 304.37 131.432 303.565 131.393C302.556 131.346 301.517 130.83 301.556 130.509C301.571 130.376 301.775 130.227 302.517 130.125C302.642 129.969 302.767 129.82 302.9 129.664C302.806 129.539 302.228 128.811 302.361 128.177Z" fill="url(#paint2_linear_641_8183)"/>
<path d="M304.486 125.567C304.15 125.857 304.033 126.389 304.095 126.78C304.134 127.015 304.205 127.046 304.181 127.195C304.119 127.617 303.329 127.75 303.361 127.969C303.384 128.126 303.79 128.102 303.845 128.298C303.908 128.517 303.447 128.666 303.22 129.182C303.181 129.26 302.97 129.753 303.173 130.066C303.368 130.356 303.861 130.332 304.408 130.301C305.018 130.27 305.463 130.121 305.588 130.074C306.002 129.925 306.44 129.769 306.831 129.362C306.925 129.268 307.464 128.681 307.487 127.813C307.519 126.67 306.636 125.622 305.666 125.395C305.51 125.364 304.9 125.223 304.486 125.567Z" fill="url(#paint3_linear_641_8183)"/>
<path d="M303.64 127.946C303.883 127.828 304.031 128.134 303.906 128.384C303.781 128.634 303.406 128.767 303.195 128.595C302.984 128.423 303.32 128.11 303.64 127.946Z" fill="url(#paint4_linear_641_8183)"/>
<path d="M301.125 130.443L301.696 130.31C301.696 130.31 301.789 131.076 303.571 131.303C304.564 131.374 305.252 130.865 305.252 130.865L305.666 131.092C305.666 131.092 304.697 132.156 303.368 132.031C301.664 131.875 301.125 130.443 301.125 130.443Z" fill="url(#paint5_linear_641_8183)"/>
<path d="M359.99 111.236L358.864 110.195C357.574 108.998 356.887 108.818 355.839 109.436C355.292 109.757 354.894 110.281 354.722 110.892L352.064 120.297C351.697 121.588 351.009 122.77 350.063 123.716L349.61 124.17C348.969 124.812 348.226 125.328 347.414 125.72L338.652 129.867L345.921 123.693C346.624 122.887 344.967 121.322 344.162 120.61L343.943 120.414C343.271 119.82 342.271 119.765 341.536 120.281C338.918 122.128 332.93 126.377 330.437 128.364C328.038 130.274 326.826 137.199 326.357 140.657C326.185 141.925 326.396 143.192 326.959 144.335C327.6 145.634 329.569 147.793 331.008 147.958L331.117 146.776C332.641 146.948 334.173 146.604 335.478 145.806L352.025 135.641C354.143 134.342 355.613 132.198 356.058 129.749L359.286 112.112C359.403 111.518 360.302 111.752 359.99 111.236Z" fill="#CDDCF8"/>
<path d="M238.362 110.382L238.471 110.194C239.104 109.154 240.449 108.817 241.496 109.435C242.043 109.756 243.77 111.454 243.942 112.064L245.271 120.296C245.638 121.587 246.326 122.769 247.272 123.716L247.725 124.169C248.366 124.811 249.109 125.327 249.922 125.719L258.683 129.866L252.993 123.356C252.29 122.55 252.368 121.321 253.173 120.609L253.392 120.413C254.064 119.819 255.065 119.764 255.799 120.28C258.418 122.127 264.405 126.376 266.898 128.363C269.298 130.273 270.564 132.612 271.033 136.071C271.205 137.339 270.939 143.191 270.376 144.334C269.735 145.633 268.477 146.517 267.039 146.681L266.226 146.775C264.702 146.947 263.17 146.603 261.865 145.805L245.318 135.641C243.2 134.342 241.73 132.198 241.285 129.748L238.041 112.111C237.932 111.517 238.041 110.899 238.362 110.382Z" fill="#CDDCF8"/>
<path d="M360.391 111.797L360.274 111.609C359.641 110.569 358.297 110.232 357.249 110.85C356.702 111.171 356.304 111.695 356.132 112.306L353.474 121.711C353.107 123.002 352.419 124.184 351.473 125.131L351.02 125.584C350.379 126.226 349.637 126.742 348.824 127.134L340.062 131.281L345.752 124.771C346.455 123.965 346.377 122.736 345.572 122.024L345.353 121.829C344.681 121.234 343.681 121.179 342.946 121.695C340.328 123.542 334.341 127.791 331.847 129.779C329.448 131.688 328.236 138.613 327.767 142.071C327.595 143.339 327.806 144.607 328.369 145.749C329.01 147.048 330.268 147.932 331.707 148.096L332.519 148.19C334.044 148.362 335.575 148.018 336.881 147.22L353.427 137.056C355.546 135.757 357.015 133.613 357.46 131.164L360.688 113.526C360.821 112.924 360.704 112.314 360.391 111.797Z" fill="#ED6664"/>
<path d="M240.006 111.797L240.124 111.609C240.757 110.569 242.101 110.232 243.148 110.85C243.695 111.171 244.094 111.695 244.266 112.306L246.923 121.711C247.291 123.002 247.979 124.184 248.924 125.131L249.378 125.584C250.019 126.226 250.761 126.742 251.574 127.134L260.336 131.281L254.646 124.771C253.942 123.965 254.02 122.736 254.826 122.024L255.044 121.829C255.717 121.234 256.717 121.179 257.452 121.695C260.07 123.542 266.057 127.791 268.551 129.779C270.95 131.688 272.162 138.613 272.631 142.071C272.802 143.339 272.591 144.607 272.029 145.749C271.388 147.048 270.129 147.932 268.691 148.096L267.878 148.19C266.354 148.362 264.822 148.018 263.517 147.22L246.97 137.056C244.852 135.757 243.383 133.613 242.937 131.164L239.694 113.526C239.584 112.924 239.694 112.314 240.006 111.797Z" fill="#ED6664"/>
<path d="M314.648 95.6821L292.349 94.4771C290.512 94.3753 289.02 95.729 289.02 97.4974V109.728C289.02 111.496 290.512 112.967 292.349 113.014L299.642 113.194L303.042 117.216C303.245 117.459 303.604 117.498 303.862 117.302L307.137 113.374L314.656 113.562C316.36 113.601 317.728 112.271 317.728 110.581V98.9137C317.72 97.2236 316.352 95.776 314.648 95.6821Z" fill="#335EB7"/>
<path d="M315.094 95.3256L292.794 94.1206C290.958 94.0189 289.465 95.3726 289.465 97.141V109.371C289.465 111.14 290.958 112.611 292.794 112.658L300.087 112.838L303.409 116.766C303.643 117.047 304.073 117.047 304.315 116.773L307.582 113.025L315.102 113.213C316.798 113.252 318.173 111.922 318.173 110.232V98.5495C318.165 96.8593 316.798 95.4195 315.094 95.3256Z" fill="#CDF1FF"/>
<path d="M311.476 102.591C311.351 100.275 309.78 98.3341 307.826 98.0837C306.271 97.8881 304.887 98.7723 304.145 100.196C303.402 98.7018 302.011 97.6846 300.424 97.7237C298.408 97.7785 296.766 99.6095 296.641 101.973C296.555 103.53 297.118 104.962 298.048 105.932L303.738 110.572C303.981 110.776 304.301 110.783 304.551 110.596L310.132 106.362C311.015 105.478 311.554 104.124 311.476 102.591Z" fill="#FB4B48"/>
</g>
</g>
</g>
</svg>
