<svg width="411" height="140" viewBox="0 0 411 140" fill="none" xmlns="http://www.w3.org/2000/svg">
<g opacity="0.6">
<mask id="mask0_641_7529" style="mask-type:alpha" maskUnits="userSpaceOnUse" x="0" y="0" width="411" height="140">
<path d="M0 5C0 2.23857 2.23858 0 5 0H406C408.761 0 411 2.23858 411 5V140H0V5Z" fill="#FCB814"/>
</mask>
<g mask="url(#mask0_641_7529)">
<g style="mix-blend-mode:luminosity">
<mask id="mask1_641_7529" style="mask-type:alpha" maskUnits="userSpaceOnUse" x="0" y="-42" width="511" height="198">
<rect y="-42" width="511" height="198" rx="10" fill="#EEF4FF"/>
</mask>
<g mask="url(#mask1_641_7529)">
<g opacity="0.7">
<path d="M375.217 32.8047H373.887V44.3737H375.217V32.8047Z" fill="#F69F2E"/>
<path d="M368.94 -1.14062H367.609V10.4283H368.94V-1.14062Z" fill="#F69F2E"/>
<path d="M355.639 -1.14062H354.309V10.4283H355.639V-1.14062Z" fill="#F69F2E"/>
<path d="M349.186 32.8086H347.855V44.3776H349.186V32.8086Z" fill="#F69F2E"/>
<path d="M375.219 44.3789H347.855V185.103H375.219V44.3789Z" fill="#F69F2E"/>
<path d="M355.271 124.793H352.23V107.724C352.23 106.776 352.991 106.207 353.751 106.207C354.701 106.207 355.271 106.966 355.271 107.724V124.793Z" fill="#FFB887"/>
<path d="M360.583 124.793H357.543V107.724C357.543 106.776 358.303 106.207 359.063 106.207C360.013 106.207 360.583 106.966 360.583 107.724V124.793Z" fill="#FFB887"/>
<path d="M365.718 124.793H362.678V107.724C362.678 106.776 363.438 106.207 364.198 106.207C365.148 106.207 365.718 106.966 365.718 107.724V124.793Z" fill="#FFB887"/>
<path d="M370.859 124.793H367.818V107.724C367.818 106.776 368.578 106.207 369.339 106.207C370.289 106.207 370.859 106.966 370.859 107.724V124.793Z" fill="#FFB887"/>
<path d="M355.271 147.735H352.23V130.666C352.23 129.717 352.991 129.148 353.751 129.148C354.701 129.148 355.271 129.907 355.271 130.666V147.735Z" fill="#FFB887"/>
<path d="M360.583 147.735H357.543V130.666C357.543 129.717 358.303 129.148 359.063 129.148C360.013 129.148 360.583 129.907 360.583 130.666V147.735Z" fill="#FFB887"/>
<path d="M365.718 147.735H362.678V130.666C362.678 129.717 363.438 129.148 364.198 129.148C365.148 129.148 365.718 129.907 365.718 130.666V147.735Z" fill="#FFB887"/>
<path d="M370.859 147.735H367.818V130.666C367.818 129.717 368.578 129.148 369.339 129.148C370.289 129.148 370.859 129.907 370.859 130.666V147.735Z" fill="#FFB887"/>
<path d="M376.546 123.27H346.332V126.114H376.546V123.27Z" fill="#966D62"/>
<path d="M378.065 59.9258H345V92.9258H378.065V59.9258Z" fill="#F8AF50"/>
<path d="M374.265 63.7305H348.611V89.3339H374.265V63.7305Z" fill="#FFB887"/>
<path d="M354.696 100.888H352.416V97.095C352.416 96.526 352.986 95.957 353.556 95.957C354.126 95.957 354.696 96.526 354.696 97.095V100.888V100.888Z" fill="#764A3E"/>
<path d="M358.688 100.888H356.408V97.095C356.408 96.526 356.978 95.957 357.548 95.957C358.118 95.957 358.688 96.526 358.688 97.095V100.888V100.888Z" fill="#764A3E"/>
<path d="M362.673 100.888H360.393V97.095C360.393 96.526 360.963 95.957 361.533 95.957C362.103 95.957 362.673 96.526 362.673 97.095V100.888V100.888Z" fill="#764A3E"/>
<path d="M366.653 100.888H364.373V97.095C364.373 96.526 364.943 95.957 365.513 95.957C366.083 95.957 366.653 96.526 366.653 97.095V100.888V100.888Z" fill="#764A3E"/>
<path d="M370.646 100.888H368.365V97.095C368.365 96.526 368.935 95.957 369.505 95.957C370.075 95.957 370.646 96.526 370.646 97.095V100.888V100.888Z" fill="#764A3E"/>
<path d="M376.56 100.895H346.346V103.739H376.56V100.895Z" fill="#FFB887"/>
<path d="M354.696 53.4623H352.416V49.6692C352.416 49.1002 352.986 48.5312 353.556 48.5312C354.126 48.5312 354.696 49.1002 354.696 49.6692V53.4623V53.4623Z" fill="#764A3E"/>
<path d="M358.669 53.4623H356.389V49.6692C356.389 49.1002 356.959 48.5312 357.529 48.5312C358.099 48.5312 358.669 49.1002 358.669 49.6692V53.4623V53.4623Z" fill="#764A3E"/>
<path d="M362.673 53.4623H360.393V49.6692C360.393 49.1002 360.963 48.5312 361.533 48.5312C362.103 48.5312 362.673 49.1002 362.673 49.6692V53.4623V53.4623Z" fill="#764A3E"/>
<path d="M366.653 53.4623H364.373V49.6692C364.373 49.1002 364.943 48.5312 365.513 48.5312C366.083 48.5312 366.653 49.1002 366.653 49.6692V53.4623V53.4623Z" fill="#764A3E"/>
<path d="M370.646 53.4623H368.365V49.6692C368.365 49.1002 368.935 48.5312 369.505 48.5312C370.075 48.5312 370.646 49.1002 370.646 49.6692V53.4623V53.4623Z" fill="#764A3E"/>
<path d="M376.56 53.4688H346.346V56.3136H376.56V53.4688Z" fill="#966D62"/>
<path d="M361.53 86.2906C366.987 86.2906 371.411 81.8751 371.411 76.4285C371.411 70.9818 366.987 66.5664 361.53 66.5664C356.072 66.5664 351.648 70.9818 351.648 76.4285C351.648 81.8751 356.072 86.2906 361.53 86.2906Z" fill="#FFDA7E"/>
<path d="M369.719 76.4286C369.719 80.9803 366.109 84.5838 361.548 84.5838C356.987 84.5838 353.377 80.9803 353.377 76.4286C353.377 71.8769 356.987 68.2734 361.548 68.2734C366.109 68.2734 369.719 71.8769 369.719 76.4286Z" fill="#FFF6E0"/>
<path d="M361.907 67.3281H360.957V70.5523H361.907V67.3281Z" fill="#966D62"/>
<path d="M357.239 68.3374L356.416 68.8115L358.031 71.6036L358.854 71.1295L357.239 68.3374Z" fill="#966D62"/>
<path d="M353.84 71.4952L353.365 72.3164L356.163 73.9285L356.638 73.1073L353.84 71.4952Z" fill="#966D62"/>
<path d="M355.646 76.0469H352.416V76.9952H355.646V76.0469Z" fill="#966D62"/>
<path d="M356.164 79.1168L353.365 80.7266L353.84 81.5481L356.638 79.9384L356.164 79.1168Z" fill="#966D62"/>
<path d="M357.352 84.5874L356.592 84.2081L358.112 81.3633L358.872 81.9322L357.352 84.5874Z" fill="#966D62"/>
<path d="M361.907 82.4961H360.957V85.7202H361.907V82.4961Z" fill="#966D62"/>
<path d="M364.889 81.5768L364.066 82.0508L365.681 84.8432L366.504 84.3693L364.889 81.5768Z" fill="#966D62"/>
<path d="M367.008 79.0929L366.533 79.9141L369.331 81.5264L369.806 80.7052L367.008 79.0929Z" fill="#966D62"/>
<path d="M370.84 76.0469H367.609V76.9952H370.84V76.0469Z" fill="#966D62"/>
<path d="M369.301 71.5266L366.502 73.1367L366.976 73.9583L369.775 72.3482L369.301 71.5266Z" fill="#966D62"/>
<path d="M365.699 68.2109L364.086 71.0039L364.909 71.4775L366.522 68.6844L365.699 68.2109Z" fill="#966D62"/>
<path d="M362.301 71.8828H360.781V76.4345H362.301V71.8828Z" fill="#FFB887"/>
<path d="M361.742 76.181L361.07 76.8516L365.639 81.4111L366.311 80.7406L361.742 76.181Z" fill="#FFB887"/>
<path d="M362.856 76.4292C362.856 77.1878 362.286 77.7567 361.525 77.7567C360.765 77.7567 360.195 77.1878 360.195 76.4292C360.195 75.6705 360.765 75.1016 361.525 75.1016C362.286 75.2912 362.856 75.8602 362.856 76.4292Z" fill="#966D62"/>
<path d="M347.855 44.3742H375.219L368.948 23.1328H354.126L347.855 44.3742Z" fill="#764A3E"/>
<path d="M369.137 10.4297H354.125V23.7056H369.137V10.4297Z" fill="#F69F2E"/>
<path d="M359.051 20.8766H356.961V14.8077C356.961 14.2387 357.341 13.8594 357.911 13.8594C358.481 13.8594 358.861 14.2387 358.861 14.8077V20.8766H359.051Z" fill="#764A3E"/>
<path d="M362.481 20.861H360.391V14.792C360.391 14.2231 360.771 13.8438 361.341 13.8438C361.911 13.8438 362.291 14.2231 362.291 14.792V20.861H362.481Z" fill="#764A3E"/>
<path d="M365.887 20.861H363.797V14.792C363.797 14.2231 364.177 13.8438 364.747 13.8438C365.317 13.8438 365.697 14.2231 365.697 14.792V20.861H365.887Z" fill="#764A3E"/>
<path d="M370.278 20.8633H352.605V23.7081H370.278V20.8633Z" fill="#966D62"/>
<path d="M354.125 10.431L361.536 -11L368.947 10.431H354.125Z" fill="#764A3E"/>
<path d="M355.485 42.2722H353.395V38.8584C353.395 38.2895 353.775 37.9102 354.345 37.9102C354.915 37.9102 355.295 38.2895 355.295 38.8584V42.2722H355.485Z" fill="#F69F2E"/>
<path d="M359.077 42.2722H356.986V38.8584C356.986 38.2895 357.366 37.9102 357.936 37.9102C358.507 37.9102 358.887 38.2895 358.887 38.8584V42.2722H359.077Z" fill="#F69F2E"/>
<path d="M362.51 42.2722H360.42V38.8584C360.42 38.2895 360.8 37.9102 361.37 37.9102C361.94 37.9102 362.32 38.2895 362.32 38.8584V42.2722H362.51Z" fill="#F69F2E"/>
<path d="M366.125 42.2722H364.035V38.8584C364.035 38.2895 364.415 37.9102 364.985 37.9102C365.555 37.9102 365.935 38.2895 365.935 38.8584V42.2722H366.125Z" fill="#F69F2E"/>
<path d="M369.532 42.2722H367.441V38.8584C367.441 38.2895 367.821 37.9102 368.392 37.9102C368.962 37.9102 369.342 38.2895 369.342 38.8584V42.2722H369.532Z" fill="#F69F2E"/>
<path d="M359.057 35.2605H356.967V31.8467C356.967 31.2777 357.347 30.8984 357.917 30.8984C358.487 30.8984 358.867 31.2777 358.867 31.8467V35.2605H359.057Z" fill="#F69F2E"/>
<path d="M362.485 35.2605H360.395V31.8467C360.395 31.2777 360.775 30.8984 361.345 30.8984C361.915 30.8984 362.295 31.2777 362.295 31.8467V35.2605H362.485Z" fill="#F69F2E"/>
<path d="M366.082 35.2605H363.992V31.8467C363.992 31.2777 364.372 30.8984 364.942 30.8984C365.512 30.8984 365.892 31.2777 365.892 31.8467V35.2605H366.082Z" fill="#F69F2E"/>
<path d="M359.425 8.69505H357.715V6.03987C357.715 5.66056 358.095 5.28125 358.475 5.28125C358.855 5.28125 359.235 5.66056 359.235 6.03987V8.69505H359.425Z" fill="#F69F2E"/>
<path d="M362.284 8.69505H360.764V6.03987C360.764 5.66056 361.144 5.28125 361.524 5.28125C361.904 5.28125 362.284 5.66056 362.284 6.03987V8.69505V8.69505Z" fill="#F69F2E"/>
<path d="M365.146 8.69505H363.436V6.03987C363.436 5.66056 363.816 5.28125 364.196 5.28125C364.576 5.28125 364.956 5.66056 364.956 6.03987V8.69505H365.146Z" fill="#F69F2E"/>
<path d="M328.239 95.302H307.559V91.8936C307.559 90.8521 308.412 90 309.456 90H326.342C327.385 90 328.239 90.8521 328.239 91.8936V95.302Z" fill="#FFA667"/>
<path d="M263.347 105.625V116.418L256.707 121.72V130.147H265.055C265.055 126.17 268.28 122.951 272.265 122.951C276.249 122.951 279.474 126.17 279.474 130.147H309.736C309.736 126.17 312.961 122.951 316.945 122.951C320.93 122.951 324.155 126.17 324.155 130.147H338.954V105.625H263.347Z" fill="#EA552F"/>
<path d="M339.143 131.092H323.491V130.145C323.491 126.642 320.645 123.802 317.135 123.802C313.625 123.802 310.779 126.642 310.779 130.145V131.092H278.715V130.145C278.715 126.642 275.869 123.802 272.36 123.802C268.85 123.802 266.004 126.642 266.004 130.145V131.092H256.707V129.293H264.201C264.676 125.222 268.091 122.098 272.265 122.098C276.439 122.098 279.949 125.317 280.328 129.293H309.072C309.546 125.222 312.961 122.098 317.135 122.098C321.309 122.098 324.819 125.317 325.198 129.293H339.143V131.092Z" fill="#FFA667"/>
<path d="M339.147 105.623H258.797C257.659 105.623 256.9 104.582 257.09 103.54L258.323 97.7651C258.892 95.0195 261.358 93.0312 264.11 93.0312H333.265C336.49 93.0312 339.147 95.6822 339.147 98.9013V105.623Z" fill="#EA552F"/>
<path d="M339.242 105.625H263.352V111.779H339.242V105.625Z" fill="#FDC323"/>
<path d="M277.486 130.145C277.486 132.985 275.209 135.352 272.268 135.352C269.328 135.352 267.051 133.08 267.051 130.145C267.051 127.304 269.328 124.938 272.268 124.938C275.209 124.938 277.486 127.304 277.486 130.145Z" fill="#966D62"/>
<path d="M272.364 135.92C269.233 135.92 266.672 133.364 266.672 130.239C266.672 127.115 269.233 124.559 272.364 124.559C275.494 124.559 278.055 127.115 278.055 130.239C278.055 133.364 275.494 135.92 272.364 135.92ZM272.364 125.6C269.802 125.6 267.715 127.683 267.715 130.239C267.715 132.796 269.802 134.878 272.364 134.878C274.925 134.878 277.012 132.796 277.012 130.239C277.012 127.588 274.925 125.6 272.364 125.6Z" fill="#485C85"/>
<path d="M274.45 130.139C274.45 131.275 273.501 132.316 272.268 132.316C271.035 132.316 270.086 131.369 270.086 130.139C270.086 129.002 271.035 127.961 272.268 127.961C273.501 127.961 274.45 129.002 274.45 130.139Z" fill="#485C85"/>
<path d="M272.363 132.884C270.845 132.884 269.707 131.653 269.707 130.233C269.707 128.718 270.94 127.582 272.363 127.582C273.881 127.582 275.019 128.813 275.019 130.233C275.019 131.653 273.786 132.884 272.363 132.884ZM272.363 128.529C271.509 128.529 270.751 129.286 270.751 130.138C270.751 130.99 271.509 131.748 272.363 131.748C273.217 131.748 273.976 130.99 273.976 130.138C273.976 129.286 273.217 128.529 272.363 128.529Z" fill="#E1E1E0"/>
<path d="M322.357 130.145C322.357 132.985 320.08 135.352 317.139 135.352C314.199 135.352 311.922 133.08 311.922 130.145C311.922 127.304 314.199 124.938 317.139 124.938C320.08 124.938 322.357 127.304 322.357 130.145Z" fill="#966D62"/>
<path d="M317.141 135.92C314.011 135.92 311.449 133.364 311.449 130.239C311.449 127.115 314.011 124.559 317.141 124.559C320.272 124.559 322.833 127.115 322.833 130.239C322.833 133.364 320.272 135.92 317.141 135.92ZM317.141 125.6C314.58 125.6 312.493 127.683 312.493 130.239C312.493 132.796 314.58 134.878 317.141 134.878C319.702 134.878 321.789 132.796 321.789 130.239C321.789 127.588 319.702 125.6 317.141 125.6Z" fill="#485C85"/>
<path d="M317.143 132.316C318.348 132.316 319.325 131.341 319.325 130.139C319.325 128.936 318.348 127.961 317.143 127.961C315.938 127.961 314.961 128.936 314.961 130.139C314.961 131.341 315.938 132.316 317.143 132.316Z" fill="#485C85"/>
<path d="M317.144 132.884C315.627 132.884 314.488 131.653 314.488 130.233C314.488 128.718 315.722 127.582 317.144 127.582C318.662 127.582 319.801 128.813 319.801 130.233C319.801 131.653 318.662 132.884 317.144 132.884ZM317.144 128.529C316.291 128.529 315.532 129.286 315.532 130.138C315.532 130.99 316.291 131.748 317.144 131.748C317.998 131.748 318.757 130.99 318.757 130.138C318.757 129.286 317.998 128.529 317.144 128.529Z" fill="#E1E1E0"/>
<path d="M291.804 107.702C291.52 107.702 291.235 107.796 291.14 108.081C290.951 108.27 290.856 108.649 290.856 109.027C290.856 109.879 291.14 110.258 291.804 110.258C292.089 110.258 292.374 110.163 292.753 110.069V110.637C292.468 110.732 292.089 110.826 291.709 110.826C291.14 110.826 290.761 110.637 290.476 110.353C290.192 110.069 290.002 109.595 290.002 108.933C290.002 108.554 290.097 108.175 290.192 107.891C290.287 107.607 290.571 107.418 290.761 107.228C291.045 107.039 291.33 107.039 291.709 107.039C292.089 107.039 292.468 107.134 292.753 107.323L292.468 107.986C292.374 107.891 292.184 107.891 292.089 107.796C292.089 107.702 291.994 107.702 291.804 107.702Z" fill="#485C85"/>
<path d="M293.602 110.732V107.039H294.36V110.732H293.602Z" fill="#485C85"/>
<path d="M296.74 110.732H295.981V107.702H294.938V107.039H297.689V107.702H296.74V110.732Z" fill="#485C85"/>
<path d="M299.494 108.554L300.252 107.039H301.106L299.873 109.311V110.732H299.114V109.311L297.881 107.039H298.735L299.494 108.554Z" fill="#485C85"/>
<path d="M302.906 107.039H304.045C304.614 107.039 304.993 107.134 305.183 107.228C305.468 107.418 305.562 107.607 305.562 107.986C305.562 108.175 305.468 108.365 305.373 108.554C305.278 108.649 305.088 108.743 304.993 108.838C305.183 108.933 305.373 109.027 305.468 109.122C305.562 109.311 305.657 109.501 305.657 109.69C305.657 110.069 305.562 110.258 305.278 110.447C304.993 110.637 304.709 110.732 304.329 110.732H302.906V107.039V107.039ZM303.665 108.554H304.139C304.329 108.554 304.519 108.554 304.614 108.459C304.709 108.365 304.804 108.27 304.804 108.175C304.804 108.081 304.709 107.891 304.614 107.891C304.519 107.796 304.329 107.796 304.139 107.796H303.76V108.554H303.665ZM303.665 109.122V110.069H304.139C304.329 110.069 304.519 110.069 304.614 109.974C304.709 109.879 304.804 109.785 304.804 109.595C304.804 109.311 304.614 109.122 304.139 109.122H303.665Z" fill="#485C85"/>
<path d="M309.357 107.039V109.406C309.357 109.69 309.262 109.879 309.167 110.163C309.072 110.353 308.883 110.542 308.598 110.637C308.408 110.732 308.124 110.826 307.744 110.826C307.27 110.826 306.891 110.732 306.606 110.447C306.321 110.163 306.227 109.879 306.227 109.406V107.039H306.985V109.311C306.985 109.595 307.08 109.785 307.175 109.974C307.27 110.069 307.46 110.163 307.744 110.163C308.029 110.163 308.219 110.069 308.314 109.974C308.408 109.879 308.503 109.595 308.503 109.311V107.039H309.357Z" fill="#485C85"/>
<path d="M312.484 109.692C312.484 110.071 312.389 110.26 312.105 110.449C311.82 110.639 311.535 110.733 311.061 110.733C310.682 110.733 310.302 110.639 310.018 110.544V109.787C310.302 109.881 310.492 109.976 310.682 109.976C310.871 109.976 310.966 110.071 311.156 110.071C311.346 110.071 311.441 110.071 311.535 109.976C311.63 109.881 311.63 109.787 311.63 109.692C311.63 109.597 311.63 109.597 311.535 109.503C311.535 109.408 311.441 109.408 311.346 109.313C311.251 109.219 311.061 109.219 310.871 109.029C310.682 108.934 310.492 108.84 310.397 108.745C310.302 108.65 310.207 108.556 310.112 108.366C310.018 108.272 310.018 108.082 310.018 107.893C310.018 107.609 310.112 107.325 310.397 107.136C310.587 106.946 310.966 106.852 311.346 106.852C311.535 106.852 311.725 106.852 311.915 106.946C312.105 106.946 312.294 107.041 312.484 107.136L312.199 107.704C312.01 107.609 311.82 107.609 311.725 107.514C311.63 107.514 311.441 107.514 311.346 107.514C311.156 107.514 311.061 107.514 310.966 107.609C310.871 107.704 310.871 107.798 310.871 107.893C310.871 107.988 310.871 107.988 310.966 108.082C310.966 108.177 311.061 108.177 311.156 108.272C311.251 108.366 311.346 108.366 311.63 108.556C312.01 108.745 312.199 108.84 312.389 109.029C312.389 109.313 312.484 109.503 312.484 109.692Z" fill="#485C85"/>
<path d="M339.243 108.176H315.053V109.217H339.243V108.176Z" fill="#485C85"/>
<path d="M287.542 108.176H263.352V109.217H287.542V108.176Z" fill="#485C85"/>
<path d="M273.038 103.727H265.449C264.785 103.727 264.311 103.254 264.311 102.591V98.0463C264.311 97.3835 264.785 96.9102 265.449 96.9102H273.038C273.702 96.9102 274.176 97.3835 274.176 98.0463V102.591C274.176 103.254 273.607 103.727 273.038 103.727Z" fill="#9BD4DF"/>
<path d="M273.03 96.9102H271.512V103.727H273.03C273.694 103.727 274.168 103.254 274.168 102.591V98.0463C274.168 97.4782 273.599 96.9102 273.03 96.9102Z" fill="#56C0D0"/>
<path d="M273.039 104.301H265.45C264.501 104.301 263.742 103.543 263.742 102.596V98.0519C263.742 97.1051 264.501 96.3477 265.45 96.3477H273.039C273.987 96.3477 274.746 97.1051 274.746 98.0519V102.596C274.746 103.543 273.893 104.301 273.039 104.301ZM265.45 97.4838C265.07 97.4838 264.786 97.7678 264.786 98.1465V102.691C264.786 103.07 265.07 103.354 265.45 103.354H273.039C273.418 103.354 273.703 103.07 273.703 102.691V98.1465C273.703 97.7678 273.418 97.4838 273.039 97.4838H265.45Z" fill="#485C85"/>
<path d="M284.886 103.731H277.297C276.633 103.731 276.158 103.257 276.158 102.595V98.0502C276.158 97.3874 276.633 96.9141 277.297 96.9141H284.886C285.55 96.9141 286.024 97.3874 286.024 98.0502V102.595C286.119 103.257 285.55 103.731 284.886 103.731Z" fill="#9BD4DF"/>
<path d="M284.884 96.9141H283.461V103.731H284.979C285.643 103.731 286.117 103.257 286.117 102.595V98.0502C286.117 97.4821 285.548 96.9141 284.884 96.9141Z" fill="#56C0D0"/>
<path d="M284.879 104.308H277.29C276.341 104.308 275.582 103.551 275.582 102.604V98.0597C275.582 97.1129 276.341 96.3555 277.29 96.3555H284.879C285.827 96.3555 286.586 97.1129 286.586 98.0597V102.604C286.586 103.551 285.827 104.308 284.879 104.308ZM277.29 97.4916C276.91 97.4916 276.626 97.7756 276.626 98.1543V102.699C276.626 103.078 276.91 103.362 277.29 103.362H284.879C285.258 103.362 285.543 103.078 285.543 102.699V98.1543C285.543 97.7756 285.258 97.4916 284.879 97.4916H277.29Z" fill="#485C85"/>
<path d="M296.847 103.731H289.258C288.593 103.731 288.119 103.257 288.119 102.595V98.0502C288.119 97.3874 288.593 96.9141 289.258 96.9141H296.847C297.511 96.9141 297.985 97.3874 297.985 98.0502V102.595C297.985 103.257 297.511 103.731 296.847 103.731Z" fill="#9BD4DF"/>
<path d="M296.85 96.9141H295.332V103.731H296.85C297.514 103.731 297.988 103.257 297.988 102.595V98.0502C297.988 97.4821 297.514 96.9141 296.85 96.9141Z" fill="#56C0D0"/>
<path d="M296.847 104.308H289.258C288.31 104.308 287.551 103.551 287.551 102.604V98.0597C287.551 97.1129 288.31 96.3555 289.258 96.3555H296.847C297.796 96.3555 298.555 97.1129 298.555 98.0597V102.604C298.555 103.551 297.796 104.308 296.847 104.308ZM289.258 97.4916C288.879 97.4916 288.594 97.7756 288.594 98.1543V102.699C288.594 103.078 288.879 103.362 289.258 103.362H296.847C297.227 103.362 297.511 103.078 297.511 102.699V98.1543C297.511 97.7756 297.227 97.4916 296.847 97.4916H289.258Z" fill="#485C85"/>
<path d="M308.804 103.731H301.215C300.55 103.731 300.076 103.257 300.076 102.595V98.0502C300.076 97.3874 300.55 96.9141 301.215 96.9141H308.804C309.468 96.9141 309.942 97.3874 309.942 98.0502V102.595C309.942 103.257 309.468 103.731 308.804 103.731Z" fill="#9BD4DF"/>
<path d="M308.803 96.9141H307.285V103.731H308.803C309.467 103.731 309.941 103.257 309.941 102.595V98.0502C309.941 97.4821 309.467 96.9141 308.803 96.9141Z" fill="#56C0D0"/>
<path d="M308.804 104.308H301.215C300.267 104.308 299.508 103.551 299.508 102.604V98.0597C299.508 97.1129 300.267 96.3555 301.215 96.3555H308.804C309.753 96.3555 310.512 97.1129 310.512 98.0597V102.604C310.512 103.551 309.753 104.308 308.804 104.308ZM301.215 97.4916C300.836 97.4916 300.551 97.7756 300.551 98.1543V102.699C300.551 103.078 300.836 103.362 301.215 103.362H308.804C309.184 103.362 309.468 103.078 309.468 102.699V98.1543C309.468 97.7756 309.184 97.4916 308.804 97.4916H301.215Z" fill="#485C85"/>
<path d="M320.753 103.731H313.164C312.5 103.731 312.025 103.257 312.025 102.595V98.0502C312.025 97.3874 312.5 96.9141 313.164 96.9141H320.753C321.417 96.9141 321.891 97.3874 321.891 98.0502V102.595C321.891 103.257 321.417 103.731 320.753 103.731Z" fill="#9BD4DF"/>
<path d="M320.756 96.9141H319.238V103.731H320.756C321.42 103.731 321.894 103.257 321.894 102.595V98.0502C321.894 97.4821 321.42 96.9141 320.756 96.9141Z" fill="#56C0D0"/>
<path d="M320.758 104.308H313.168C312.22 104.308 311.461 103.551 311.461 102.604V98.0597C311.461 97.1129 312.22 96.3555 313.168 96.3555H320.758C321.706 96.3555 322.465 97.1129 322.465 98.0597V102.604C322.465 103.551 321.706 104.308 320.758 104.308ZM313.168 97.4916C312.789 97.4916 312.504 97.7756 312.504 98.1543V102.699C312.504 103.078 312.789 103.362 313.168 103.362H320.758C321.137 103.362 321.422 103.078 321.422 102.699V98.1543C321.422 97.7756 321.137 97.4916 320.758 97.4916H313.168Z" fill="#485C85"/>
<path d="M332.702 103.727H325.113C324.449 103.727 323.975 103.254 323.975 102.591V98.0463C323.975 97.3835 324.449 96.9102 325.113 96.9102H332.702C333.366 96.9102 333.84 97.3835 333.84 98.0463V102.591C333.84 103.254 333.271 103.727 332.702 103.727Z" fill="#9BD4DF"/>
<path d="M332.698 96.9102H331.18V103.727H332.698C333.362 103.727 333.836 103.254 333.836 102.591V98.0463C333.836 97.4782 333.267 96.9102 332.698 96.9102Z" fill="#56C0D0"/>
<path d="M332.699 104.301H325.11C324.161 104.301 323.402 103.543 323.402 102.596V98.0519C323.402 97.1051 324.161 96.3477 325.11 96.3477H332.699C333.648 96.3477 334.407 97.1051 334.407 98.0519V102.596C334.312 103.543 333.553 104.301 332.699 104.301ZM325.11 97.4838C324.73 97.4838 324.446 97.7678 324.446 98.1465V102.691C324.446 103.07 324.73 103.354 325.11 103.354H332.699C333.078 103.354 333.363 103.07 333.363 102.691V98.1465C333.363 97.7678 333.078 97.4838 332.699 97.4838H325.11Z" fill="#485C85"/>
<path d="M282.235 120.593H270.757C270.093 120.593 269.523 120.025 269.523 119.362V115.102C269.523 114.439 270.093 113.871 270.757 113.871H282.235C282.899 113.871 283.468 114.439 283.468 115.102V119.362C283.563 120.025 282.994 120.593 282.235 120.593Z" fill="#9BD4DF"/>
<g opacity="0.86">
<path opacity="0.86" d="M274.361 113.871H270.757C270.093 113.871 269.523 114.439 269.523 115.102V119.362C269.523 120.025 270.093 120.593 270.757 120.593H274.361V113.871Z" fill="#D6ECF1"/>
</g>
<path d="M282.232 121.159H270.754C269.71 121.159 268.951 120.307 268.951 119.36V115.1C268.951 114.058 269.805 113.301 270.754 113.301H282.232C283.276 113.301 284.034 114.153 284.034 115.1V119.36C284.129 120.307 283.276 121.159 282.232 121.159ZM270.754 114.342C270.374 114.342 269.995 114.626 269.995 115.1V119.36C269.995 119.739 270.279 120.118 270.754 120.118H282.232C282.612 120.118 282.991 119.834 282.991 119.36V115.1C282.991 114.721 282.706 114.342 282.232 114.342H270.754Z" fill="#485C85"/>
<path d="M299.026 120.597H287.548C286.884 120.597 286.314 120.029 286.314 119.366V115.106C286.314 114.443 286.884 113.875 287.548 113.875H299.026C299.69 113.875 300.259 114.443 300.259 115.106V119.366C300.259 120.029 299.69 120.597 299.026 120.597Z" fill="#9BD4DF"/>
<g opacity="0.86">
<path opacity="0.86" d="M291.063 113.875H287.458C286.794 113.875 286.225 114.443 286.225 115.106V119.366C286.225 120.029 286.794 120.597 287.458 120.597H291.063V113.875Z" fill="#D6ECF1"/>
</g>
<path d="M299.031 121.159H287.552C286.509 121.159 285.75 120.307 285.75 119.36V115.1C285.75 114.058 286.604 113.301 287.552 113.301H299.031C300.074 113.301 300.833 114.153 300.833 115.1V119.36C300.833 120.307 300.074 121.159 299.031 121.159ZM287.552 114.342C287.173 114.342 286.794 114.626 286.794 115.1V119.36C286.794 119.739 287.078 120.118 287.552 120.118H299.031C299.41 120.118 299.79 119.834 299.79 119.36V115.1C299.79 114.721 299.505 114.342 299.031 114.342H287.552Z" fill="#485C85"/>
<path d="M315.815 120.593H304.337C303.673 120.593 303.104 120.025 303.104 119.362V115.102C303.104 114.439 303.673 113.871 304.337 113.871H315.815C316.479 113.871 317.048 114.439 317.048 115.102V119.362C317.048 120.025 316.479 120.593 315.815 120.593Z" fill="#9BD4DF"/>
<g opacity="0.86">
<path opacity="0.86" d="M307.852 113.871H304.247C303.583 113.871 303.014 114.439 303.014 115.102V119.362C303.014 120.025 303.583 120.593 304.247 120.593H307.852V113.871Z" fill="#D6ECF1"/>
</g>
<path d="M315.824 121.163H304.345C303.302 121.163 302.543 120.311 302.543 119.364V115.104C302.543 114.062 303.397 113.305 304.345 113.305H315.824C316.867 113.305 317.626 114.157 317.626 115.104V119.364C317.626 120.311 316.772 121.163 315.824 121.163ZM304.251 114.346C303.871 114.346 303.492 114.63 303.492 115.104V119.364C303.492 119.743 303.776 120.121 304.251 120.121H315.729C316.108 120.121 316.488 119.837 316.488 119.364V115.104C316.488 114.725 316.203 114.346 315.729 114.346H304.251Z" fill="#485C85"/>
<path d="M332.511 120.593H321.032C320.368 120.593 319.799 120.025 319.799 119.362V115.102C319.799 114.439 320.368 113.871 321.032 113.871H332.511C333.175 113.871 333.744 114.439 333.744 115.102V119.362C333.839 120.025 333.269 120.593 332.511 120.593Z" fill="#9BD4DF"/>
<g opacity="0.86">
<path opacity="0.86" d="M324.637 113.871H321.032C320.368 113.871 319.799 114.439 319.799 115.102V119.362C319.799 120.025 320.368 120.593 321.032 120.593H324.637V113.871Z" fill="#D6ECF1"/>
</g>
<path d="M332.511 121.159H321.033C319.989 121.159 319.23 120.307 319.23 119.36V115.1C319.23 114.058 320.084 113.301 321.033 113.301H332.511C333.555 113.301 334.314 114.153 334.314 115.1V119.36C334.314 120.307 333.555 121.159 332.511 121.159ZM321.033 114.342C320.653 114.342 320.274 114.626 320.274 115.1V119.36C320.274 119.739 320.559 120.118 321.033 120.118H332.511C332.891 120.118 333.27 119.834 333.27 119.36V115.1C333.27 114.721 332.986 114.342 332.511 114.342H321.033Z" fill="#485C85"/>
<path d="M255.949 128.049H257.846V123.031H255.949C255.379 123.031 255 123.505 255 123.978V127.008C255 127.576 255.474 128.049 255.949 128.049Z" fill="#FDC323"/>
<path d="M257.853 123.039H256.715V128.057H257.853V123.039Z" fill="#F49820"/>
<path d="M75.1109 159.143C73.4189 159.143 71.8327 159.036 70.2464 158.823C69.8234 158.823 69.6119 158.397 69.6119 157.971C69.6119 157.545 70.0349 157.332 70.4579 157.332C71.9384 157.545 73.5247 157.652 75.1109 157.652C75.5339 157.652 75.8512 157.971 75.8512 158.397C75.8512 158.823 75.5339 159.143 75.1109 159.143ZM79.8697 158.823C79.5525 158.823 79.2352 158.61 79.1295 158.184C79.1295 157.758 79.341 157.439 79.764 157.332C81.3502 157.119 82.8307 156.8 84.3112 156.374C84.7342 156.267 85.0515 156.48 85.1572 156.906C85.263 157.332 85.0515 157.652 84.6285 157.758C83.148 158.291 81.5617 158.61 79.8697 158.823C79.8697 158.823 79.9755 158.823 79.8697 158.823ZM65.6991 157.865C65.5934 157.865 65.5934 157.865 65.4876 157.865C63.9014 157.439 62.4209 156.906 60.8346 156.267C60.5173 156.161 60.3058 155.735 60.4116 155.309C60.5173 154.99 60.9403 154.777 61.3634 154.883C62.8439 155.522 64.3244 155.948 65.8049 156.374C66.2279 156.48 66.4394 156.906 66.3336 157.226C66.3336 157.652 66.0164 157.865 65.6991 157.865ZM89.07 156.267C88.7528 156.267 88.5413 156.054 88.4355 155.842C88.3298 155.522 88.4355 155.096 88.8585 154.883C90.339 154.244 91.7138 153.605 93.0885 152.753C93.4058 152.54 93.8288 152.647 94.0403 152.966C94.2518 153.286 94.146 153.712 93.8288 153.925C92.454 154.777 90.9735 155.522 89.493 156.054C89.2815 156.267 89.1758 156.267 89.07 156.267ZM56.9218 154.244C56.8161 154.244 56.7103 154.244 56.6046 154.138C55.2298 153.286 53.8551 152.434 52.5861 151.369C52.2688 151.156 52.2688 150.73 52.4803 150.411C52.6918 150.091 53.1148 149.985 53.4321 150.304C54.7011 151.263 55.9701 152.114 57.3448 152.966C57.6621 153.179 57.7678 153.605 57.5563 153.925C57.3448 154.031 57.1333 154.244 56.9218 154.244ZM97.3186 151.475C97.1071 151.475 96.8956 151.369 96.7898 151.156C96.5783 150.837 96.5783 150.411 96.8956 150.198C98.1646 149.239 99.3278 148.174 100.385 147.109C100.703 146.79 101.126 146.79 101.337 147.109C101.654 147.429 101.654 147.855 101.337 148.068C100.174 149.239 99.0106 150.304 97.6358 151.263C97.6358 151.475 97.4243 151.475 97.3186 151.475ZM49.3078 148.387C49.0963 148.387 48.9905 148.281 48.779 148.174C47.6158 147.003 46.5583 145.832 45.6065 144.447C45.395 144.128 45.395 143.702 45.7123 143.489C46.0295 143.276 46.4525 143.276 46.664 143.595C47.6158 144.873 48.6733 146.045 49.7308 147.109C50.048 147.429 50.048 147.855 49.7308 148.068C49.7308 148.281 49.5193 148.387 49.3078 148.387ZM104.087 144.66C103.981 144.66 103.769 144.66 103.664 144.554C103.346 144.341 103.346 143.915 103.558 143.595C104.51 142.317 105.356 141.04 106.202 139.655C106.413 139.336 106.836 139.229 107.153 139.442C107.471 139.655 107.576 140.081 107.365 140.401C106.519 141.785 105.673 143.169 104.615 144.447C104.51 144.66 104.298 144.66 104.087 144.66ZM43.4915 140.72C43.28 140.72 42.9627 140.614 42.857 140.401C42.011 139.016 41.2707 137.526 40.742 136.035C40.6362 135.715 40.742 135.289 41.165 135.076C41.4822 134.97 41.9052 135.076 42.1167 135.502C42.7512 136.993 43.3857 138.377 44.2318 139.762C44.4433 140.081 44.3375 140.507 44.0203 140.72C43.703 140.72 43.5973 140.72 43.4915 140.72ZM108.845 136.354C108.74 136.354 108.634 136.354 108.528 136.248C108.211 136.141 107.999 135.715 108.105 135.289C108.74 133.798 109.163 132.308 109.586 130.817C109.691 130.391 110.114 130.178 110.432 130.284C110.855 130.391 111.066 130.817 110.96 131.136C110.537 132.734 110.009 134.224 109.374 135.822C109.374 136.248 109.057 136.354 108.845 136.354ZM39.896 131.882C39.5787 131.882 39.2615 131.669 39.2615 131.349C38.8385 129.752 38.5212 128.155 38.3097 126.557C38.3097 126.131 38.5212 125.812 38.9442 125.705C39.3672 125.705 39.6845 125.918 39.7902 126.344C40.0017 127.942 40.319 129.432 40.742 130.923C40.8477 131.349 40.6362 131.669 40.2132 131.775C40.0017 131.882 39.896 131.882 39.896 131.882ZM111.278 127.09C111.278 127.09 111.172 127.09 111.278 127.09C110.749 127.09 110.537 126.77 110.537 126.344C110.749 124.747 110.855 123.256 110.855 121.659V121.552C110.855 121.126 111.172 120.807 111.595 120.807C112.018 120.807 112.335 121.126 112.335 121.552V121.659C112.335 123.256 112.229 124.96 112.018 126.557C111.912 126.877 111.595 127.09 111.278 127.09ZM38.627 122.404C38.204 122.404 37.8867 122.085 37.8867 121.765H38.627L37.8867 121.659C37.8867 120.061 37.9925 118.464 38.204 116.867C38.204 116.441 38.627 116.228 38.9442 116.228C39.3672 116.228 39.5787 116.654 39.5787 117.08C39.3672 118.571 39.2615 120.168 39.2615 121.659C39.2615 121.978 38.9442 122.404 38.627 122.404ZM111.278 117.399C110.96 117.399 110.643 117.186 110.537 116.76C110.326 115.163 110.009 113.672 109.586 112.181C109.48 111.755 109.691 111.436 110.114 111.329C110.537 111.223 110.855 111.436 110.96 111.862C111.383 113.459 111.701 115.056 111.912 116.654C112.018 116.973 111.701 117.293 111.278 117.399ZM39.7902 112.927C39.6845 112.927 39.6845 112.927 39.5787 112.927C39.1557 112.82 38.9442 112.394 39.05 112.075C39.473 110.477 40.0017 108.987 40.6362 107.389C40.742 107.07 41.165 106.857 41.588 106.963C41.9052 107.07 42.1167 107.496 42.011 107.922C41.3765 109.413 40.9535 110.903 40.5305 112.394C40.4247 112.714 40.1075 112.927 39.7902 112.927ZM108.74 108.135C108.422 108.135 108.211 107.922 108.105 107.709C107.471 106.218 106.836 104.834 105.99 103.449C105.779 103.13 105.884 102.704 106.202 102.491C106.519 102.278 106.942 102.384 107.153 102.704C107.999 104.088 108.74 105.579 109.374 107.07C109.48 107.389 109.374 107.815 108.951 108.028C108.951 108.135 108.845 108.135 108.74 108.135ZM43.3857 104.088C43.28 104.088 43.1742 104.088 43.0685 103.982C42.7512 103.769 42.6455 103.343 42.857 103.023C43.703 101.639 44.549 100.255 45.6065 98.9767C45.818 98.6572 46.241 98.5507 46.5583 98.8702C46.8755 99.0832 46.8755 99.5091 46.664 99.8286C45.7123 101.106 44.8663 102.384 44.0203 103.769C43.9145 103.875 43.703 104.088 43.3857 104.088ZM103.981 99.8286C103.769 99.8286 103.558 99.7221 103.452 99.5091C102.5 98.2313 101.443 97.0599 100.385 95.995C100.068 95.6756 100.068 95.2496 100.385 95.0366C100.703 94.7172 101.126 94.7172 101.337 95.0366C102.5 96.208 103.558 97.3794 104.51 98.6572C104.721 98.9767 104.721 99.4026 104.404 99.6156C104.298 99.8286 104.087 99.8286 103.981 99.8286ZM49.202 96.421C48.9905 96.421 48.8848 96.3145 48.6733 96.208C48.356 95.8885 48.356 95.4626 48.6733 95.2496C49.8365 94.0782 50.9998 93.0133 52.2688 92.0549C52.5861 91.842 53.0091 91.842 53.2206 92.1614C53.4321 92.4809 53.4321 92.9069 53.1148 93.1198C51.8458 94.0782 50.6825 95.1431 49.625 96.208C49.625 96.3145 49.4135 96.421 49.202 96.421ZM97.2128 93.1198C97.1071 93.1198 96.8956 93.1198 96.7898 93.0133C95.5208 92.0549 94.2518 91.203 92.877 90.4576C92.5598 90.2446 92.454 89.8187 92.6655 89.4992C92.877 89.1798 93.3 89.0733 93.6173 89.2862C94.992 90.1382 96.3668 90.9901 97.6358 91.9485C97.9531 92.1614 98.0588 92.5874 97.7416 92.9069C97.6358 93.0133 97.4243 93.1198 97.2128 93.1198ZM56.7103 90.5641C56.4988 90.5641 56.1816 90.4576 56.0758 90.2446C55.8643 89.9252 55.9701 89.4992 56.2873 89.2862C57.6621 88.4343 59.1426 87.6889 60.6231 87.1565C60.9403 87.05 61.3634 87.1565 61.5749 87.5824C61.6806 87.9019 61.5749 88.3279 61.1518 88.5408C59.6713 89.1798 58.2966 89.8187 56.9218 90.6706C57.0276 90.5641 56.9218 90.5641 56.7103 90.5641ZM88.9643 88.3279C88.8585 88.3279 88.7528 88.3279 88.647 88.2214C87.1665 87.5824 85.686 87.1565 84.2055 86.7305C83.7825 86.624 83.571 86.1981 83.6767 85.8786C83.7825 85.4527 84.2055 85.2397 84.5227 85.3462C86.2147 85.7721 87.6952 86.3046 89.1758 86.9435C89.493 87.05 89.7045 87.4759 89.5988 87.9019C89.493 88.2214 89.1758 88.3279 88.9643 88.3279ZM65.4876 86.837C65.1704 86.837 64.8531 86.624 64.8531 86.3046C64.7474 85.8786 64.9589 85.5592 65.3819 85.4527C66.9681 85.0267 68.5544 84.7072 70.1407 84.4943C70.5637 84.4943 70.8809 84.7072 70.9867 85.1332C70.9867 85.5592 70.7752 85.8786 70.3522 85.9851C68.7659 86.1981 67.2854 86.5175 65.8049 86.9435C65.6991 86.837 65.5934 86.837 65.4876 86.837ZM79.764 85.8786C79.6582 85.8786 79.6582 85.8786 79.764 85.8786C78.1777 85.6656 76.5914 85.5592 75.1109 85.5592H75.0052C74.5822 85.5592 74.2649 85.2397 74.2649 84.8137C74.2649 84.4943 74.5822 84.1748 75.0052 84.1748H75.1109C76.6972 84.1748 78.2834 84.2813 79.8697 84.4943C80.2927 84.4943 80.5042 84.9202 80.5042 85.2397C80.3985 85.6656 80.0812 85.8786 79.764 85.8786Z" fill="#479BEE"/>
<path d="M75.1155 151.263C91.3519 151.263 104.514 138.009 104.514 121.659C104.514 105.31 91.3519 92.0557 75.1155 92.0557C58.879 92.0557 45.7168 105.31 45.7168 121.659C45.7168 138.009 58.879 151.263 75.1155 151.263Z" fill="#40ADE7"/>
<path d="M51.0054 112.29C50.5824 113.994 50.5824 115.272 49.7364 116.976C48.8904 118.467 48.5731 119.212 48.5731 121.129C48.5731 123.471 47.8329 130.606 51.9572 129.435C55.3412 128.476 53.5434 124.004 55.9757 121.981C57.1389 121.022 58.6194 121.448 59.3597 119.957C59.9942 118.573 59.1482 117.082 60.3115 115.804C62.3207 113.568 66.5507 114.526 68.0312 111.758C65.599 110.267 62.8495 109.096 64.2242 105.368C64.753 103.984 66.3392 102.813 66.3392 101.215C66.3392 99.0856 64.753 100.576 63.3782 99.5116C62.215 98.5532 63.3782 96.8494 62.3207 96.104C61.8977 95.7845 61.369 95.891 60.7345 96.104C56.1872 98.3402 52.8032 101.535 50.5824 105.368C54.2837 104.836 51.4284 110.906 51.0054 112.29Z" fill="#196950"/>
<path d="M61.581 122.193C60.735 123.045 59.466 122.193 58.62 122.939C58.197 123.258 57.774 126.346 58.0912 126.879C59.3602 128.689 62.1098 123.365 62.2155 122.193C61.8983 122.193 61.7925 122.193 61.581 122.193Z" fill="#196950"/>
<path d="M99.017 138.805C98.6997 138.166 98.2767 137.527 97.9595 137.314C97.325 136.781 96.479 136.781 95.7387 137.101C94.9985 137.42 93.8352 137.953 92.5662 138.485C90.5569 139.337 88.2304 138.805 86.1154 139.657C82.9429 141.041 77.7611 146.791 84.6349 145.407C85.4809 145.194 86.5384 144.555 87.2787 145.087C87.3844 145.087 87.2787 146.791 87.2787 148.602C92.0375 146.365 96.056 143.064 99.017 138.805Z" fill="#196950"/>
<path d="M99.2285 137.635C99.6515 137.529 99.9688 137.103 100.075 136.57C99.7573 136.996 99.44 137.316 99.2285 137.635Z" fill="#196950"/>
<path d="M98.8044 133.375C97.8526 134.653 99.2274 136.144 99.2274 137.634C99.5446 137.315 99.8619 136.889 100.073 136.57C100.602 135.185 100.179 133.162 98.8044 133.375Z" fill="#196950"/>
<path d="M96.2687 129.115C95.1055 129.967 93.5192 129.541 92.4617 130.393C91.4042 131.245 91.6157 133.055 93.0962 133.588C95.4227 134.546 95.317 132.203 95.9515 130.925C96.2687 130.393 97.432 129.754 97.3262 129.115C97.2205 128.05 96.7975 128.796 96.2687 129.115Z" fill="#196950"/>
<path d="M86.6406 126.878C86.6406 127.943 87.2751 129.008 87.2751 130.179C87.2751 130.924 86.7464 134.758 88.5441 132.202C89.1786 131.244 88.6499 127.197 87.5924 126.132C87.0636 125.813 86.6406 126.665 86.6406 126.878Z" fill="#196950"/>
<path d="M100.496 123.365C100.284 122.833 99.0155 122.62 99.1212 123.472C99.3327 126.027 97.4292 126.879 99.1212 129.435C99.9672 128.583 99.9672 127.731 100.073 126.56C100.073 126.24 99.8615 125.495 99.8615 125.175C99.9672 124.536 100.602 124.217 100.496 123.365Z" fill="#196950"/>
<path d="M73.2114 107.179C72.5769 106.221 72.4712 106.434 72.3654 105.262C72.1539 103.878 72.6827 102.707 71.9424 101.535C71.6252 101.109 70.9906 100.47 70.3561 100.151C69.9331 99.938 69.5101 99.938 69.1929 100.151C68.1354 100.151 66.9721 100.257 66.5491 101.216C66.1261 102.068 66.3376 104.091 66.1261 105.156C65.2801 109.309 67.9239 109.309 71.2021 109.309C72.3654 109.309 74.4804 109.841 74.2689 108.244C74.1632 107.925 73.5287 107.605 73.2114 107.179Z" fill="#196950"/>
<path d="M99.3328 119.852C101.131 118.893 99.0155 118.255 98.804 117.19C98.4868 115.912 100.073 114.953 99.4385 113.569C101.342 112.504 101.342 115.699 101.342 116.87C103.14 116.87 101.448 114.208 101.236 113.356C101.025 111.865 101.871 110.8 101.659 109.309C101.659 109.097 101.554 108.884 101.554 108.671C99.227 103.879 95.6315 99.7255 91.0842 96.8503C90.9785 96.8503 90.9785 96.9568 90.8727 96.9568C88.8635 98.5541 91.2957 99.0866 90.9785 100.364C90.767 101.11 89.8152 100.897 89.2865 101.11C89.3922 101.11 87.1715 101.429 87.4887 101.536C87.4887 101.642 87.383 101.642 87.2772 101.642C87.1715 100.045 85.5852 98.4477 83.999 99.5125C82.5184 97.9152 84.9507 96.7438 85.1622 95.253C84.3162 95.253 83.2587 95.04 82.5184 95.5725C81.5667 96.3179 81.9897 97.1698 80.8264 97.5958C80.6149 97.5958 79.9804 97.0633 79.5574 97.2763C78.9229 97.4893 78.9229 98.1282 78.6057 98.6606C78.0769 99.4061 77.5482 100.577 76.8079 101.216C76.0677 101.962 75.5389 102.601 75.0102 101.216C74.4814 99.7255 76.0677 99.832 76.2792 98.6606C76.5964 96.9568 73.1066 96.2114 73.3181 98.7671C72.0491 98.8736 71.0974 97.5958 69.5111 97.7022C67.6076 98.0217 68.2421 98.5541 69.9341 99.0866C73.4239 100.258 73.1066 101.642 73.9526 104.73C74.9044 108.138 78.3942 106.541 78.4999 109.948C78.6057 111.652 79.0287 112.078 79.6632 113.569C80.2977 115.166 79.7689 115.805 79.3459 117.403C79.1344 118.467 78.3942 120.278 79.6632 120.491C81.0379 119.852 81.9897 119.639 82.7299 118.042C83.0472 117.296 82.6242 116.977 83.4702 116.444C84.2105 116.018 85.0565 116.551 85.691 116.551C86.96 116.444 88.1232 115.379 89.2865 116.231C90.9785 117.403 89.6037 118.893 89.8152 120.171C90.0267 121.556 91.9302 121.875 92.2475 123.046C92.5648 124.324 90.344 124.963 90.6612 126.241C91.2957 128.797 92.2475 125.07 92.5648 124.857C92.9878 124.431 94.0453 124.857 94.3625 124.431C94.6798 124.111 94.574 122.834 94.4683 122.301C94.3625 120.917 93.6223 120.065 95.3143 119.532C96.5833 119.213 98.1695 120.491 99.3328 119.852Z" fill="#196950"/>
<path d="M74.907 92.3761C74.8012 92.2696 74.6955 92.1631 74.5897 92.0566C72.369 92.0566 70.1482 92.3761 68.0332 92.9085C68.3505 93.015 68.562 93.1215 68.7735 93.5475C69.408 94.6124 67.716 96.3162 69.1965 96.7421C70.1482 96.9551 70.254 95.8902 70.8885 95.6772C71.523 95.5708 71.946 95.5708 72.5805 95.5708C73.7437 95.5708 74.8012 96.4227 75.5415 95.0383C75.33 94.9318 75.2242 94.7189 74.907 94.6124C75.0127 93.441 75.5415 93.1215 74.907 92.3761Z" fill="#196950"/>
<path d="M44.2556 104.781C36.1756 104.781 29.602 109.677 29.602 115.676C29.602 117.813 30.4922 119.882 31.9302 121.537L27 128.777L36.1756 124.777C38.5037 125.881 41.2427 126.57 44.1871 126.57C52.2671 126.57 58.8407 121.675 58.8407 115.676C58.9091 109.677 52.3356 104.781 44.2556 104.781Z" fill="#AC8D1F"/>
<path d="M46.7883 118.159H41.2419L40.2147 120.573H37.9551L42.9537 109.058H45.2134L50.1435 120.573H47.8154L46.7883 118.159ZM45.9666 116.298L43.9808 111.471L41.9266 116.298H45.9666Z" fill="white"/>
<path d="M95.6292 72C106.627 72 115.51 78.6023 115.51 86.6954C115.51 89.6771 114.347 92.3393 112.338 94.682L119 104.479L106.521 99.0481C103.349 100.539 99.6477 101.497 95.6292 101.497C84.6311 101.497 75.748 94.895 75.748 86.8019C75.748 78.6023 84.6311 72 95.6292 72Z" fill="#E83E62"/>
<path d="M100.6 79.7754V81.5857L92.7749 90.9567H100.706V93.1929H89.2852V91.3826L97.1107 82.0116H89.4967V79.7754H100.6V79.7754Z" fill="white"/>
</g>
</g>
</g>
</g>
</g>
</svg>
