<svg width="411" height="140" viewBox="0 0 411 140" fill="none" xmlns="http://www.w3.org/2000/svg">
<g opacity="0.6">
<mask id="mask0_641_7356" style="mask-type:alpha" maskUnits="userSpaceOnUse" x="0" y="0" width="411" height="140">
<path d="M0 5C0 2.23857 2.23858 0 5 0H406C408.761 0 411 2.23858 411 5V140H0V5Z" fill="#46B1E5"/>
</mask>
<g mask="url(#mask0_641_7356)">
<g style="mix-blend-mode:luminosity">
<path d="M293.006 132.278C290.078 124.08 294.436 115.418 302.738 112.931C311.04 110.446 320.146 115.08 323.075 123.278C326.004 131.475 321.646 140.134 313.345 142.619C305.039 145.106 295.932 140.475 293.006 132.278Z" fill="#FC5552"/>
<path d="M313.081 142.187C319.88 140.141 323.92 133.81 323.236 127.107C323.02 127.008 322.797 126.913 322.574 126.821C323.394 133.365 319.502 139.606 312.871 141.599C306.216 143.577 299.019 140.624 295.464 134.867C295.342 135.059 295.222 135.254 295.108 135.451C298.876 141.266 306.249 144.215 313.081 142.187Z" fill="#A5E1FF"/>
<path d="M294.918 135.61C294.875 135.545 294.832 135.479 294.789 135.414C287.517 136.654 282.475 136.731 281.962 135.349C281.125 133.105 292.538 127.873 307.453 123.666C322.368 119.456 335.138 117.864 335.976 120.109C336.534 121.602 331.653 124.422 323.924 127.382C323.932 127.453 323.943 127.527 323.948 127.6C332.35 124.432 337.706 121.385 337.109 119.791C336.236 117.451 322.931 119.113 307.387 123.498C291.845 127.884 279.953 133.336 280.824 135.672C281.379 137.153 286.948 137.022 294.918 135.61Z" stroke="#FCD561" stroke-width="1.6757"/>
<path d="M284.018 134.771C283.243 132.697 293.789 127.865 307.57 123.976C321.354 120.088 333.15 118.614 333.925 120.688C334.413 121.998 330.382 124.408 323.874 126.986C323.893 127.119 323.909 127.251 323.925 127.383C331.654 124.422 336.536 121.603 335.977 120.109C335.14 117.865 322.368 119.459 307.454 123.667C292.539 127.876 281.126 133.105 281.963 135.35C282.477 136.729 287.518 136.655 294.79 135.414C294.708 135.29 294.626 135.169 294.551 135.047C288.547 135.979 284.462 135.961 284.018 134.771Z" stroke="#FCD561" stroke-width="1.6757"/>
<path d="M333.924 120.689C333.152 118.615 321.353 120.088 307.569 123.976C293.788 127.866 283.241 132.7 284.017 134.772C284.461 135.962 288.546 135.979 294.553 135.045C294.43 134.848 294.315 134.646 294.199 134.442C290.109 134.941 287.417 134.802 287.083 133.906C286.406 132.087 295.655 127.846 307.743 124.435C319.83 121.023 330.181 119.734 330.861 121.553C331.245 122.579 328.455 124.38 323.777 126.369C323.816 126.575 323.849 126.78 323.879 126.987C330.381 124.408 334.412 121.996 333.924 120.689Z" stroke="#FCD561" stroke-width="1.6757"/>
<path opacity="0.63" d="M299.112 138.566C306.163 132.16 313.28 129.143 322.682 127.274C322.575 126.183 322.551 125.04 322.176 123.944C309.012 126.175 303.351 129.281 296.036 135.534C296.858 136.711 298.018 137.668 299.112 138.566Z" fill="white"/>
<path d="M293.217 127.685C295.855 126.237 298.634 125.007 301.432 123.864C307.183 121.729 313.065 119.403 319.19 118.287C318.347 117.316 317.385 116.454 316.339 115.725C315.164 115.678 313.989 115.753 312.829 115.986C305.924 117.294 300.198 121.34 294.199 124.547C293.886 124.716 293.577 124.895 293.267 125.076C293.171 125.933 293.15 126.804 293.217 127.685Z" fill="#A5E1FF"/>
<path d="M313.045 113.849C310.04 112.696 306.674 112.456 303.424 113.377C300.504 114.206 298.092 115.851 296.363 117.992C304.245 113.123 308.219 114.573 313.045 113.849Z" fill="white"/>
<path opacity="0.63" d="M312.381 141.324C316.265 140.219 319.248 137.667 320.934 134.435C316.491 134.419 311.96 134.625 308.265 137.028C306.594 138.194 304.844 139.395 303.955 141.268C306.644 142.054 309.556 142.127 312.381 141.324Z" fill="white"/>
<path d="M118.098 141.098C123.455 135.741 123.455 127.056 118.098 121.699C112.741 116.342 104.056 116.342 98.6994 121.699C93.3426 127.056 93.3426 135.741 98.6994 141.098C104.056 146.455 112.741 146.455 118.098 141.098Z" fill="#C9DEFE"/>
<path d="M109.29 145.19C108.063 145.324 109.708 142.715 109.452 141.575C109.136 140.157 108.138 139.04 108.083 137.453C108.036 136.115 108.585 135.372 109.02 134.209C109.383 133.237 109.397 132.352 109.04 131.296C109.313 131.108 109.589 131.067 109.934 131.151C110.775 133.24 109.8 136.852 112.905 137.699C114.277 138.073 115.577 137.647 116.821 138.596C117.605 139.193 117.933 140.287 118.127 140.905C116.685 142.391 114.512 144.627 109.29 145.19Z" fill="#88BEFF"/>
<path d="M98.9349 131.719C98.1254 132.079 98.4736 133.225 98.8827 133.75C99.5325 134.588 100.679 134.85 101.691 134.835C103.792 134.803 103.255 132.842 104.079 131.522C104.366 131.063 104.711 130.582 105.268 130.44C105.634 130.347 105.86 130.573 106.156 130.582C106.789 130.602 107.807 129.723 108.187 129.938C108.262 129.07 106.423 124.936 105.515 124.199C104.92 123.715 104.549 124.153 103.887 124.507C102.283 125.362 100.853 126.514 99.9561 128.124C99.5964 128.771 99.4861 129.572 99.2395 130.277C99.0944 130.692 99.0654 131.113 98.9842 131.525C98.9755 131.58 98.9349 131.725 98.9349 131.719Z" fill="#88BEFF"/>
<path d="M113.91 118.9C110.008 116.469 100.41 117.011 96.4531 124.88C96.72 124.842 96.9376 124.676 97.1958 124.581C97.8312 124.343 98.5623 124.218 99.2354 124.183C101.197 124.088 102.906 125.01 104.617 125.869C105.357 126.24 106.114 126.603 106.808 127.053C107.365 127.415 107.727 127.871 108.215 128.294C109.361 129.287 110.678 128.373 111.337 127.218C111.902 126.226 111.615 125.126 111.638 124.053C111.659 123.165 112.279 122.57 113.022 122.173C113.53 121.9 114.18 121.758 114.447 121.212C114.714 120.673 114.444 120.386 114.197 119.945C114.003 119.599 113.907 118.903 113.913 118.944" fill="#88BEFF"/>
<path d="M94.6683 130.915C95.353 130.997 95.7301 130.93 96.4061 130.715C97.7175 130.3 99.2929 130.324 100.555 130.878C101.956 131.493 103.207 132.293 103.178 133.973C103.154 135.172 102.505 136.216 102.386 137.394C102.284 138.403 102.235 139.378 102.496 140.365C102.647 140.93 102.803 141.482 102.882 142.047C102.977 142.735 102.684 143.324 102.185 143.681C95.6576 139.918 94.471 133.587 94.6683 130.915Z" fill="#88BEFF"/>
<path d="M393.232 142.623C398.636 145.746 398.665 150.801 393.296 153.923C387.928 157.046 379.195 157.046 373.791 153.923C368.387 150.801 368.358 145.746 373.726 142.623C379.095 139.501 387.828 139.501 393.232 142.623Z" fill="#6A73A2"/>
<path d="M364.583 95.5859C364.476 95.6715 364.369 95.757 364.262 95.8426C364.369 95.757 364.476 95.6715 364.583 95.5859Z" fill="#9DEFF1"/>
<path d="M401.185 99.0327C402.119 98.277 404.051 96.6943 398.518 92.9657C398.205 92.7874 397.877 92.6092 397.535 92.431C394.961 91.0764 391.546 89.9571 389.357 89.5792C388.352 89.4081 387.404 89.2655 386.47 89.1729C385.4 89.2655 383.055 89.6006 380.866 90.67C382.399 91.2475 383.953 91.9818 385.514 92.8801L381.679 96.3307C380.082 95.411 378.521 94.6838 377.009 94.142C374.799 98.0418 370.878 97.3859 371.099 96.73C371.32 96.0669 370.215 94.085 365.816 95.632C365.167 95.8602 364.625 95.9457 364.169 95.9315C362.864 96.9938 361.638 98.1772 360.498 99.4962C359.457 100.694 358.494 101.991 357.603 103.403C357.411 103.702 357.225 104.009 357.047 104.323C356.683 104.95 356.099 106.084 355.543 107.36C355.022 108.55 354.516 109.862 354.217 110.982C352.848 116.086 352.741 119.501 353.368 124.321C353.497 125.297 353.789 126.573 354.045 127.522C354.466 129.076 355.008 130.587 355.664 132.056C355.072 130.68 354.972 129.967 354.987 129.796C355.001 129.653 355.008 129.461 355.072 129.333C355.336 128.812 355.985 128.712 356.27 128.213C356.484 127.842 356.234 127.422 356.384 127.037C356.491 127.001 356.591 126.994 356.683 127.008C355.885 126.046 355.6 124.185 356.605 122.802C357.033 122.788 357.332 123.023 357.617 123.273C357.902 123.522 358.173 123.793 358.551 123.871C358.566 122.745 357.182 122.075 357.546 120.827C357.71 120.827 357.874 120.827 358.031 120.82C359.571 120.806 360.647 120.784 361.431 120.692C363.221 120.471 363.478 119.85 364.248 117.947C363.855 117.918 363.52 117.89 363.499 117.491C363.499 117.469 363.77 115.559 364.476 114.945L372.104 110.033C372.938 109.819 377.28 112.892 378.136 113.776C378.984 114.66 378.592 115.067 378.378 115.202C378.157 115.345 378.157 115.345 375.961 115.159C376.147 117.17 376.339 117.498 376.66 118.047C379.077 116.927 380.902 114.888 383.304 113.748C384.431 113.213 385.721 113.769 386.841 113.213C386.919 113.177 386.94 113.035 386.983 112.964C385.842 112.885 384.702 114.061 383.554 112.971C382.542 112.008 385.222 105.827 388.081 105.87C388.167 105.962 388.288 106.084 388.373 106.176C388.331 106.355 388.331 106.355 384.474 110.233C384.481 110.397 384.488 110.618 384.495 110.782C388.787 113.056 388.787 113.056 389.115 113.135C389.279 110.625 389.336 110.404 389.493 109.819C389.592 109.784 389.721 109.741 389.821 109.705C390.07 110.076 390.141 110.532 390.384 110.903C390.448 110.853 396.045 105.05 394.312 102.177C394.298 102.155 394.284 102.134 394.269 102.113C395.688 102.583 397.114 101.5 398.533 102.155C398.654 102.212 398.654 102.212 399.132 104.373C400.151 102.99 402.29 102.954 402.981 101.172C403.445 99.9453 401.513 99.9667 401.185 99.0327ZM372.96 103.845C372.097 104.102 370.5 104.587 367.748 106.233C365.431 107.624 363.392 109.399 361.161 110.91C359.877 111.78 359.606 111.523 359.464 110.561C359.457 110.518 359.45 110.475 359.442 110.44C359.321 109.663 359.2 109.114 358.344 109.135C357.603 109.149 357.154 109.655 356.662 110.09C356.405 110.319 356.142 110.532 355.814 110.646C355.799 110.611 355.771 110.568 355.757 110.54C355.906 110.204 356.241 109.677 356.698 109.064C357.396 108.108 358.373 106.932 359.393 105.87C360.284 104.943 361.21 104.109 362.009 103.581C363.413 102.662 364.989 102.063 366.436 101.236C367.727 100.501 368.818 99.4676 370.094 98.7048C370.172 98.6549 370.279 98.5979 370.365 98.5693C370.778 98.4125 372.432 99.5033 372.461 99.6174C372.646 100.323 371.897 100.558 371.719 101.079C372.61 102.17 374.257 100.309 374.906 101.692C374.728 102.177 373.658 103.631 372.96 103.845Z" fill="#88BEFF"/>
<path d="M380.867 90.666C382.4 91.2435 383.954 91.9778 385.515 92.8761L381.68 96.3268C380.083 95.4071 378.521 94.6799 377.01 94.138C374.8 98.0378 370.879 97.3819 371.1 96.726C371.321 96.063 370.216 94.081 365.817 95.6281C365.168 95.8562 364.626 95.9418 364.17 95.9275C364.227 95.8776 364.412 95.7279 364.427 95.7208C364.476 95.678 364.819 95.4142 364.869 95.3786C365.51 94.8866 366.173 94.4161 366.851 93.9741C367.036 93.8529 367.221 93.7388 367.407 93.6247C367.706 93.4394 367.998 93.2683 368.291 93.0972C368.355 93.0615 369.111 92.6409 369.16 92.6124C369.203 92.591 370.201 92.0777 370.258 92.0491C370.344 92.0064 370.8 91.7925 370.957 91.7212C371.014 91.6998 371.542 91.4645 371.656 91.4146C371.891 91.3148 372.732 90.9869 372.747 90.9797C373.103 90.8443 373.467 90.716 373.816 90.5948C374.814 90.2597 375.769 89.9888 376.589 89.8034C376.639 89.7891 377.252 89.6679 377.402 89.6323C378.664 89.3828 379.84 89.2117 380.967 89.1118C382.45 88.9764 383.854 88.9693 385.28 89.0619C385.701 89.0905 386.086 89.119 386.478 89.1618C385.401 89.2687 383.056 89.5966 380.867 90.666Z" fill="#6FADC2"/>
<path d="M364.518 117.922C364.717 117.894 364.988 117.851 365.409 117.708C365.409 117.708 365.566 118.999 365.202 120.332C365.095 120.71 365.131 120.874 365.345 121.009C365.388 121.024 366.393 121.366 367.027 120.66C367.042 120.646 368.346 119.013 367.976 118.101C367.74 117.523 370.827 115.484 370.984 115.42C372.26 114.864 372.781 115.698 372.581 116.09C372.332 116.582 371.255 117.031 370.728 117.245C370.057 117.523 369.958 117.566 369.886 117.708C369.573 118.343 369.965 119.213 370.143 119.562C370.193 119.662 370.2 119.669 370 120.14C369.615 121.052 369.238 121.081 368.902 121.102C368.624 121.123 368.403 121.138 368.254 121.537C368.175 121.758 368.054 122.086 368.047 122.692C367.612 122.407 366.699 121.9 365.487 121.736C365.167 121.694 364.946 121.58 364.817 121.409C364.005 120.311 365.131 119.042 364.518 117.922Z" fill="#88BEFF"/>
<path d="M399.075 93.2801L398.633 93.0234C398.783 93.109 398.925 93.1945 399.075 93.2801Z" fill="#6FADC2"/>
<path d="M404.616 97.4812C403.881 96.8253 403.161 96.1836 402.355 95.542C402.584 95.7202 402.819 95.9056 403.068 96.1052C405.079 97.7022 407.524 100.468 408.765 102.386C407.232 100.29 406.818 99.7269 404.616 97.4812Z" fill="#6FADC2"/>
<path d="M358.122 127.595C357.573 127.723 357.06 127.473 356.668 127.003C357.196 127.06 357.545 127.709 358.122 127.595Z" fill="#6FADC2"/>
<path d="M371.415 147.568C371.316 147.525 371.216 147.482 371.116 147.439C364.136 144.352 358.946 138.998 355.938 132.66C356.543 133.822 357.378 135.305 358.048 136.403C358.725 137.358 359.673 138.599 360.408 139.511C360.422 139.526 361.919 141.023 364.093 142.748C364.821 142.955 365.997 144.331 366.011 144.345C366.475 144.908 368.378 146.07 369.519 146.676C370.082 146.955 370.845 147.297 371.415 147.568Z" fill="#88BEFF"/>
<path d="M359.469 128.375C359.034 128.069 358.685 127.855 358.186 127.577C358.499 127.484 358.784 127.406 359.041 127.327C359.177 127.676 359.319 128.026 359.469 128.375Z" fill="#88BEFF"/>
<path d="M361.985 131.454C361.756 130.983 361.528 130.513 361.314 130.035C361.642 130.47 361.871 130.919 361.985 131.454Z" fill="#6FADC2"/>
<path d="M363.868 134.977C363.854 134.963 363.832 134.949 363.818 134.941C362.535 134.029 362.228 132.553 362 131.477C362.57 132.646 363.205 133.822 363.868 134.977Z" fill="#6FADC2"/>
<path d="M364.456 128.517C364.079 127.997 363.743 127.455 363.594 126.82C363.672 126.949 363.758 127.07 363.85 127.191C364.043 127.633 364.243 128.075 364.456 128.517Z" fill="#6FADC2"/>
<path d="M365.987 131.566C365.445 130.554 364.932 129.534 364.447 128.515C365.132 129.456 365.937 130.326 365.987 131.566Z" fill="#6FADC2"/>
<path d="M410.709 105.661C410.345 105.012 409.896 104.235 409.461 103.501C410.081 104.492 410.516 105.29 410.709 105.661Z" fill="#6FADC2"/>
<path d="M382.755 146.184C382.698 146.262 382.634 146.369 382.577 146.44C382.277 146.818 381.172 148.066 379.518 148.315C379.419 148.33 379.333 148.344 379.248 148.358C378.584 148.479 378.385 148.629 378.278 148.743C378.028 149.028 378.378 149.192 379.654 149.791C379.575 149.784 379.483 149.784 379.397 149.77C377.993 149.606 376.531 149.257 374.941 148.822C374.856 148.8 374.77 148.779 374.692 148.75C373.829 148.487 373.323 148.294 372.931 148.159C372.781 148.102 372.631 148.045 372.482 147.988C372.147 147.859 371.783 147.717 371.419 147.553C370.835 147.289 370.086 146.939 369.53 146.654C368.39 146.041 366.486 144.879 366.023 144.323C366.008 144.309 364.832 142.94 364.105 142.726C361.93 141.001 360.426 139.504 360.419 139.489C359.685 138.577 358.729 137.336 358.059 136.381C357.389 135.283 356.533 133.807 355.949 132.638C355.849 132.438 355.756 132.232 355.671 132.032C355.079 130.656 354.979 129.943 354.993 129.772C355.008 129.629 355.015 129.437 355.079 129.309C355.343 128.788 355.992 128.688 356.277 128.189C356.491 127.819 356.241 127.398 356.391 127.013C356.498 126.977 356.598 126.97 356.69 126.984C357.082 127.455 357.596 127.697 358.145 127.576C358.166 127.569 358.187 127.569 358.209 127.562C358.708 127.84 359.057 128.061 359.492 128.36C359.57 128.41 359.649 128.467 359.727 128.524C360.405 129.045 360.946 129.508 361.339 130.014C361.552 130.485 361.781 130.963 362.009 131.433C362.244 132.538 362.551 134.007 363.834 134.927C363.848 134.941 363.87 134.955 363.884 134.962C364.832 135.625 365.139 135.461 365.367 135.34C365.823 135.098 367.213 135.54 368.739 136.16C371.056 137.115 373.672 138.498 373.708 138.52C373.765 138.562 373.779 138.677 373.808 138.741C374.956 141.236 376.496 143.532 377.052 144.016C377.237 144.173 377.722 144.601 380.374 145.271C382.406 145.82 382.57 145.863 382.755 146.184Z" fill="#3E85F4"/>
<path d="M355.944 132.653C355.923 132.618 355.901 132.582 355.887 132.539C355.801 132.368 355.73 132.197 355.666 132.04C355.752 132.247 355.844 132.454 355.944 132.653Z" fill="#7AC3D3"/>
<path d="M358.124 127.598C357.575 127.726 357.062 127.476 356.67 127.006C357.197 127.063 357.547 127.712 358.124 127.598Z" fill="#7AC3D3"/>
<path d="M361.987 131.454C361.758 130.983 361.53 130.513 361.316 130.035C361.644 130.47 361.872 130.919 361.987 131.454Z" fill="#7AC3D3"/>
<path d="M356.67 126.999C357.062 127.469 357.575 127.719 358.124 127.59C357.547 127.711 357.197 127.063 356.67 126.999ZM364.455 128.517C364.933 129.537 365.446 130.556 365.995 131.568C365.938 130.328 365.132 129.458 364.455 128.517ZM398.434 92.9131L398.519 92.963C398.562 92.9844 398.591 93.0058 398.626 93.0272L398.434 92.9131ZM399.175 93.3408L399.09 93.2909C400.252 93.9754 401.2 94.6455 402.333 95.5224C401.442 94.8095 400.437 94.0966 399.175 93.3408ZM409.463 103.5C409.905 104.235 410.347 105.012 410.71 105.66C410.518 105.29 410.083 104.491 409.463 103.5Z" fill="#3E85F4"/>
<path d="M411.506 108.951C411.285 109.251 411.285 109.251 411.313 110.812C409.388 103.554 409.224 102.955 406.444 99.4477C407.67 100.809 408.697 102.278 409.452 103.476C409.239 103.126 409.032 102.784 408.832 102.478C408.811 102.449 408.789 102.413 408.775 102.385C407.242 100.296 406.829 99.7328 404.619 97.48C403.884 96.8241 403.171 96.1824 402.359 95.5408C401.211 94.6354 400.248 93.9723 399.086 93.2879C399.072 93.2808 398.559 92.9813 398.523 92.96C404.055 96.6957 402.116 98.2713 401.189 99.027C401.517 99.961 403.45 99.9396 402.979 101.166C402.287 102.948 400.149 102.984 399.129 104.367C398.651 102.207 398.651 102.207 398.53 102.15C397.119 101.494 395.686 102.57 394.267 102.107C394.281 102.128 394.295 102.15 394.31 102.171C396.049 105.044 390.446 110.848 390.381 110.897C390.139 110.527 390.068 110.07 389.818 109.7C389.718 109.735 389.59 109.778 389.49 109.814C389.333 110.398 389.276 110.619 389.112 113.129C388.784 113.05 388.784 113.05 384.493 110.776C384.485 110.612 384.478 110.391 384.471 110.227C388.328 106.356 388.328 106.356 388.371 106.171C388.285 106.078 388.164 105.957 388.079 105.864C385.213 105.821 382.532 112.002 383.551 112.965C384.699 114.056 385.833 112.879 386.981 112.958C386.938 113.036 386.917 113.172 386.838 113.207C385.719 113.763 384.428 113.207 383.302 113.742C380.899 114.883 379.074 116.922 376.657 118.041C376.337 117.499 376.144 117.164 375.959 115.154C378.155 115.339 378.155 115.339 378.376 115.196C378.589 115.061 378.989 114.655 378.133 113.771C377.285 112.887 372.936 109.821 372.102 110.028L364.473 114.94C363.775 115.546 363.497 117.464 363.497 117.485C363.518 117.884 363.86 117.913 364.245 117.941C363.468 119.852 363.219 120.472 361.429 120.686C360.645 120.779 359.568 120.8 358.028 120.814C357.872 120.814 357.708 120.821 357.544 120.821C357.18 122.069 358.563 122.732 358.549 123.866C358.171 123.787 357.9 123.516 357.615 123.267C357.33 123.017 357.03 122.789 356.603 122.796C355.597 124.179 355.89 126.04 356.681 127.003C357.209 127.06 357.558 127.716 358.135 127.594C358.157 127.587 358.178 127.587 358.199 127.58C358.513 127.487 359.782 127.124 360.06 127.045C361.336 126.682 361.365 126.696 361.486 126.753C363.119 127.552 363.383 129.391 364.452 130.617L364.644 132.542L366.013 131.772C366.013 131.701 366.013 131.63 366.013 131.565C365.471 130.553 364.958 129.534 364.473 128.514C364.095 127.994 363.76 127.452 363.611 126.817C363.689 126.946 363.775 127.067 363.867 127.188C364.63 128.172 365.799 128.792 366.398 129.919C366.833 130.731 367.054 131.601 367.425 133.968C367.518 134.025 367.639 134.103 367.731 134.161C368.052 133.954 368.245 133.833 368.266 132.777C368.28 132.157 368.544 131.344 370.633 131.508C370.826 131.316 371.089 131.066 371.282 130.874C372.316 130.924 373.692 130.988 374.725 130.995C375.239 131.644 375.923 132.521 376.451 133.155C374.041 132.834 371.752 131.772 369.257 131.915C368.701 132.735 370.469 136.791 373.67 136.292C373.763 136.278 373.877 136.249 373.97 136.228C373.941 136.806 373.898 137.583 373.863 138.16C376.137 142.73 377.178 144.819 382.76 145.311C388.129 144.413 386.546 143.208 386.175 142.972C385.647 142.637 384.992 142.623 384.528 142.666C384.093 142.709 382.782 142.837 381.085 139.957C383.901 141.896 390.431 141.126 390.488 141.119C391.65 140.912 392.563 140.748 393.269 142.58C393.711 143.728 395.55 145.218 395.564 145.218C395.714 145.211 395.942 145.211 396.049 145.111C396.662 144.555 396.598 143.635 397.169 143.058C397.853 142.374 398.915 142.295 399.571 141.575C399.571 141.575 400.612 140.306 401.781 138.609C402.829 139.436 402.829 139.436 403.571 140.277C403.307 141.604 403.229 141.924 402.508 143.122C403.257 142.744 403.542 142.516 404.02 142.024C403.963 141.96 403.877 141.874 403.82 141.81C403.913 141.169 404.405 140.327 404.426 140.292C404.647 140.32 404.947 140.406 405.146 140.52C406.037 139.999 407.421 138.11 407.428 138.096C407.492 138.003 410.622 132.564 410.636 132.528C411.72 130.368 412.768 126.903 412.454 125.94C412.304 125.947 412.105 125.955 411.962 125.962C411.955 125.947 411.306 124.422 412.86 122.868C413.252 123.737 412.946 124.65 413.017 125.541C414.008 123.531 414.329 113.97 411.506 108.951ZM372.579 116.088C372.33 116.58 371.253 117.029 370.726 117.243C370.056 117.521 369.956 117.563 369.885 117.706C369.571 118.34 369.963 119.21 370.141 119.56C370.191 119.659 370.198 119.667 369.999 120.137C369.614 121.05 369.236 121.078 368.901 121.1C368.623 121.121 368.402 121.135 368.252 121.534C368.173 121.755 368.052 122.083 368.045 122.689C367.61 122.404 366.698 121.898 365.486 121.734C365.165 121.691 364.944 121.577 364.816 121.406C364.003 120.308 365.122 119.032 364.509 117.92C364.709 117.891 364.98 117.849 365.4 117.706C365.4 117.706 365.557 118.996 365.193 120.33C365.086 120.707 365.122 120.871 365.336 121.007C365.379 121.021 366.384 121.363 367.018 120.658C367.033 120.643 368.337 119.011 367.967 118.098C367.731 117.521 370.818 115.482 370.975 115.417C372.259 114.854 372.772 115.695 372.579 116.088Z" fill="#5A80C8"/>
<path d="M374.915 101.7C374.73 102.184 373.667 103.646 372.969 103.853C372.106 104.109 370.509 104.594 367.757 106.241C365.44 107.631 363.401 109.406 361.17 110.918C359.886 111.788 359.615 111.531 359.473 110.568C359.466 110.526 359.459 110.483 359.451 110.447C359.33 109.67 359.209 109.121 358.354 109.143C357.612 109.157 357.163 109.663 356.671 110.098C356.414 110.326 356.151 110.54 355.823 110.654C355.808 110.618 355.78 110.576 355.766 110.547C355.915 110.212 356.25 109.684 356.707 109.071C357.405 108.116 358.382 106.94 359.402 105.877C360.293 104.951 361.22 104.116 362.018 103.589C363.423 102.669 364.998 102.07 366.445 101.243C367.736 100.509 368.827 99.4752 370.103 98.7124C370.181 98.6625 370.288 98.6054 370.374 98.5769C370.787 98.4201 372.441 99.5109 372.47 99.6249C372.655 100.331 371.906 100.566 371.728 101.086C372.619 102.177 374.259 100.309 374.915 101.7Z" fill="#EBEFFF"/>
<path d="M386.549 89.1626C386.528 89.1626 386.499 89.1697 386.478 89.1697C385.408 89.2624 383.063 89.5975 380.874 90.6669C379.733 91.223 378.635 91.9787 377.787 92.9982C377.587 93.2406 377.395 93.4972 377.224 93.7753C377.16 93.8751 377.103 93.9749 377.038 94.0818C377.031 94.1032 377.017 94.1175 377.01 94.1389C374.8 98.0386 370.879 97.3827 371.1 96.7268C371.321 96.0638 370.216 94.0818 365.817 95.6289C365.168 95.857 364.626 95.9426 364.17 95.9283C364.227 95.8784 364.412 95.7287 364.427 95.7216C364.476 95.6788 364.819 95.415 364.869 95.3794C365.467 94.9231 366.237 94.3813 366.851 93.9749C366.865 93.9606 366.886 93.9535 366.9 93.9392C367.057 93.8394 367.228 93.7325 367.407 93.6184C367.713 93.4331 368.554 92.934 368.583 92.9197C368.711 92.8413 369.788 92.2852 369.881 92.2353C369.923 92.2139 370.444 91.9573 370.522 91.9216C370.658 91.8575 371.264 91.5794 371.328 91.5509C371.435 91.501 371.549 91.4582 371.656 91.4083C371.877 91.3156 372.091 91.2301 372.283 91.1517C372.312 91.1445 372.739 90.9734 372.754 90.9734C373.117 90.838 373.502 90.6883 373.823 90.5884C374.294 90.4459 374.9 90.2462 375.356 90.1179C375.719 90.0181 376.19 89.8898 376.596 89.7971C376.646 89.7828 377.238 89.6616 377.395 89.626C377.716 89.5618 378.051 89.4905 378.329 89.4477C378.749 89.3836 379.306 89.2909 379.726 89.241C380.097 89.1911 380.582 89.1341 380.974 89.1055C381.024 89.0984 381.067 89.0984 381.109 89.0984C381.516 89.077 382.065 89.0342 382.471 89.02C382.877 89.0057 383.426 88.9986 383.833 89.0057C384.268 89.0129 384.781 89.0271 385.287 89.0628C385.743 89.0984 386.171 89.1269 386.549 89.1626Z" fill="#3E85F4"/>
<path d="M376.177 95.7613C376.177 95.7613 378.451 92.0184 381.609 92.5318C384.768 93.0451 387.698 92.603 390.927 93.4871C394.157 94.3711 395.034 96.0537 393.715 97.8859C392.396 99.7181 394.299 100.452 391.441 101.479C388.582 102.506 386.6 103.461 384.468 103.974C382.344 104.488 376.911 100.816 375.442 99.2761C373.974 97.7433 376.177 95.7613 376.177 95.7613Z" fill="#EBEFFF"/>
<path d="M367.063 90.7686C366.372 91.1607 365.723 91.6169 365.117 92.1303C364.889 92.3228 364.661 92.5295 364.447 92.7434C363.484 93.6845 362.65 94.7895 361.952 96.0443C361.367 97.0923 360.882 98.2401 360.49 99.4806C359.449 100.678 358.487 101.976 357.596 103.388C357.403 103.687 357.218 103.994 357.039 104.307C356.676 104.935 356.091 106.068 355.535 107.344C356.077 100.593 358.736 95.5666 363.156 93.0499L367.063 90.7686Z" fill="#6D78A8"/>
<path d="M364.449 128.51C364.071 127.99 363.736 127.448 363.586 126.813C363.664 126.942 363.75 127.063 363.843 127.184C364.035 127.626 364.235 128.068 364.449 128.51Z" fill="#88BEFF"/>
<path d="M361.979 131.45C361.751 130.979 361.522 130.509 361.309 130.031C361.637 130.466 361.865 130.915 361.979 131.45Z" fill="#3E85F4"/>
<path d="M363.864 134.977C363.85 134.963 363.828 134.949 363.814 134.941C362.531 134.029 362.224 132.553 361.996 131.477C362.566 132.646 363.201 133.822 363.864 134.977Z" fill="#9DEFF1"/>
<path d="M361.715 94.0023C361.907 93.8739 362.1 93.7527 362.307 93.6387L361.715 94.0023Z" fill="#9DEFF1"/>
<path d="M385.514 92.8796L381.678 96.3302C380.26 95.268 378.755 94.4196 377.223 93.7779C374.841 92.7727 372.389 92.2451 370.093 92.1311C368.04 92.0312 366.108 92.2523 364.461 92.7584C363.684 92.9937 362.964 93.2931 362.322 93.6496L367.156 90.7123C369.879 89.1296 373.465 88.7874 377.394 89.6429C378.542 89.8924 379.697 90.2346 380.88 90.6767C382.399 91.2399 383.96 91.9742 385.514 92.8796Z" fill="#6A73A2"/>
<path d="M413.651 114.758C413.352 112.533 412.546 109.974 412.154 108.976C410.778 105.468 409.937 104.185 408.818 102.46C409.01 102.766 409.224 103.108 409.438 103.458C408.689 102.267 407.663 100.791 406.429 99.4297C409.217 102.944 409.374 103.536 411.299 110.794C411.277 109.233 411.277 109.233 411.491 108.933C414.314 113.952 414.001 123.513 412.988 125.537C412.917 124.646 413.216 123.734 412.831 122.864C411.277 124.418 411.926 125.944 411.933 125.958C412.083 125.951 412.282 125.944 412.425 125.937C412.746 126.899 411.691 130.364 410.607 132.524C410.593 132.56 407.463 137.992 407.399 138.092C407.385 138.114 406.001 139.996 405.117 140.516C404.918 140.409 404.625 140.317 404.397 140.288C404.376 140.324 403.891 141.165 403.791 141.807C403.848 141.871 403.934 141.956 403.991 142.02C403.513 142.512 403.228 142.741 402.479 143.118C403.2 141.921 403.278 141.6 403.542 140.274C402.8 139.425 402.8 139.425 401.752 138.605C400.583 140.302 399.542 141.571 399.542 141.571C398.886 142.291 397.824 142.37 397.14 143.054C396.569 143.632 396.626 144.551 396.02 145.107C395.906 145.207 395.685 145.207 395.536 145.214C395.521 145.214 393.682 143.717 393.24 142.577C392.534 140.744 391.614 140.908 390.459 141.115C390.395 141.122 383.872 141.892 381.056 139.953C382.76 142.826 384.072 142.698 384.499 142.662C384.956 142.619 385.619 142.634 386.146 142.969C386.517 143.204 388.1 144.409 382.731 145.307C377.149 144.815 376.108 142.733 373.834 138.156C373.862 137.579 373.905 136.802 373.941 136.224C373.855 136.246 373.734 136.274 373.641 136.288C370.44 136.78 368.672 132.731 369.228 131.911C371.723 131.768 374.005 132.831 376.422 133.152C375.887 132.517 375.21 131.64 374.696 130.991C373.663 130.977 372.287 130.92 371.253 130.87C371.06 131.063 370.797 131.312 370.604 131.505C368.515 131.348 368.251 132.153 368.237 132.774C368.209 133.829 368.016 133.95 367.703 134.157C367.61 134.1 367.489 134.021 367.396 133.964C367.025 131.59 366.804 130.72 366.369 129.915C365.77 128.788 364.601 128.168 363.838 127.184C364.031 127.626 364.238 128.068 364.444 128.517C365.122 129.459 365.927 130.328 365.984 131.569C365.991 131.64 365.991 131.704 365.984 131.776L364.616 132.546L364.423 130.621C363.354 129.394 363.09 127.548 361.457 126.757C361.343 126.699 361.307 126.685 360.031 127.049C359.76 127.127 359.432 127.22 359.033 127.334C359.169 127.683 359.311 128.033 359.461 128.382C359.539 128.432 359.618 128.489 359.696 128.546C360.374 129.066 360.915 129.53 361.307 130.036C361.635 130.464 361.849 130.92 361.978 131.455C362.37 133.045 363.19 133.829 363.86 134.984C364.808 135.647 365.115 135.483 365.343 135.362C365.799 135.119 367.189 135.561 368.715 136.182C371.032 137.137 373.648 138.52 373.684 138.541C373.741 138.584 373.755 138.698 373.784 138.762C374.932 141.258 376.472 143.553 377.028 144.038C377.213 144.195 377.698 144.623 380.35 145.293C382.396 145.813 382.56 145.856 382.745 146.177C382.688 146.255 382.624 146.362 382.567 146.434C382.268 146.811 381.163 148.059 379.509 148.309C379.409 148.323 379.323 148.337 379.238 148.351C379.901 148.915 380.571 149.456 381.248 149.977C384.228 150.212 386.995 149.948 390.16 149.321C391.557 149.036 393.404 148.408 394.744 147.909C398.722 146.426 403.378 143.225 406.258 139.889C407.128 138.884 408.261 137.5 408.974 136.374C413.387 129.352 414.713 122.572 413.651 114.758ZM409.452 103.493C410.072 104.484 410.507 105.283 410.7 105.654C410.336 105.012 409.894 104.228 409.452 103.493Z" fill="#88BEFF"/>
<path d="M363.86 134.973C363.846 134.959 363.824 134.945 363.81 134.938C362.527 134.025 362.22 132.549 361.992 131.473C362.563 132.642 363.197 133.818 363.86 134.973Z" fill="#88BEFF"/>
<path d="M381.671 94.9165V96.321C380.074 95.4013 378.513 94.6741 377.002 94.1323C373.85 92.9987 370.899 92.6779 368.282 93.0843C365.851 93.4621 363.72 94.4674 361.952 96.043C359.984 97.8039 358.487 100.278 357.596 103.386C357.403 103.686 357.218 103.992 357.039 104.306C356.676 104.933 356.091 106.067 355.535 107.343C356.077 100.591 358.736 95.5653 363.156 93.0486C363.456 92.8775 363.762 92.7207 364.076 92.5781C364.418 92.4141 364.768 92.2715 365.124 92.1432C367.113 91.4231 369.316 91.1807 371.647 91.416C373.608 91.6156 375.661 92.1432 377.779 93.0059C379.055 93.512 380.352 94.1537 381.671 94.9165Z" fill="#6D78A8"/>
<path d="M381.68 94.9942L385.494 92.9053L385.594 94.1315L381.68 96.4058V94.9942Z" fill="#6D78A8"/>
<path d="M383.512 91.9472C383.512 92.7599 382.856 93.4158 382.043 93.4158C381.23 93.4158 380.574 92.7599 380.574 91.9472C380.574 91.1344 381.23 90.4785 382.043 90.4785C382.856 90.4785 383.512 91.1344 383.512 91.9472Z" fill="#6D78A8"/>
<path d="M306.704 -7.49927C304.499 -8.71564 302.743 -7.62286 302.782 -5.04701C302.821 -2.47117 304.636 0.605541 306.841 1.82191C309.046 3.03828 310.802 1.9455 310.763 -0.630347C310.724 -3.20619 308.909 -6.2829 306.704 -7.49927Z" fill="#FCD561"/>
<path d="M310.108 1.6149C309.406 2.4475 308.209 2.58409 306.843 1.82955C304.638 0.613181 302.823 -2.46352 302.784 -5.03937C302.758 -6.71757 303.493 -7.76482 304.618 -7.95996C304.072 -7.8689 303.558 -7.68676 303.278 -7.56318C303.161 -7.51114 302.94 -7.40707 302.693 -7.25096C302.504 -7.12737 302.302 -6.95824 302.218 -6.87368C302.107 -6.7566 301.951 -6.60049 301.867 -6.46389C301.678 -6.17769 301.632 -6.10613 301.496 -5.77439C301.424 -5.59226 301.353 -5.33858 301.314 -5.14995C301.275 -4.9418 301.249 -4.6621 301.229 -4.44744C301.223 -4.34987 301.223 -4.2458 301.223 -4.14173C301.262 -1.56588 303.076 1.51083 305.282 2.7272C305.308 2.74021 305.34 2.75972 305.366 2.77273C305.529 2.85079 305.737 2.95486 305.906 3.01991C306.095 3.08495 306.348 3.16301 306.543 3.20204C306.726 3.23456 306.973 3.26058 307.155 3.26058C307.428 3.26058 307.682 3.21505 307.721 3.20854C307.799 3.18903 307.903 3.16952 307.981 3.1435C308.079 3.11097 308.209 3.07195 308.3 3.03292C308.397 2.99389 308.625 2.89632 308.924 2.69467C309.165 2.51905 309.633 2.18081 310.108 1.6149Z" fill="#FCD561"/>
<path d="M305.302 2.71923C305.243 2.68671 305.133 2.62817 305.133 2.62817C305.243 2.68671 305.543 2.83632 305.868 2.88185C306.226 2.92738 306.401 2.83632 306.447 2.80379C307.045 2.36798 307.578 2.62817 308.203 2.82981C307.507 3.33718 306.499 3.35018 305.373 2.75826C305.347 2.74525 305.315 2.72574 305.289 2.71273C303.084 1.49636 301.269 -1.58035 301.23 -4.15619C301.23 -4.26027 301.23 -4.36434 301.236 -4.46191C301.217 -4.03261 301.288 -3.65534 300.592 -3.3301C300.586 -3.24554 300.586 -3.16098 300.586 -3.07642C300.618 -0.910365 302.147 1.67198 304.001 2.69972C304.027 2.71273 304.046 2.72574 304.072 2.73875C304.71 2.30293 304.996 2.55662 305.373 2.75826C305.354 2.74525 305.328 2.73224 305.302 2.71923Z" fill="#E84343"/>
<path d="M305.371 2.75913C304.994 2.55749 304.708 2.31031 304.07 2.73962C305.02 3.24048 305.859 3.22747 306.451 2.80467C306.301 2.90224 305.84 2.9933 305.137 2.62904C305.137 2.62904 305.293 2.72011 305.371 2.75913Z" fill="#FCD561"/>
<path d="M305.374 2.75883C305.562 2.84989 305.822 2.97348 306.024 3.04503C306.206 3.11008 306.46 3.17513 306.655 3.20765C307.006 3.25969 307.097 3.25318 307.435 3.23367C307.598 3.22716 307.806 3.17513 307.969 3.1361C308.086 3.11008 308.34 3.01251 308.528 2.91494C308.788 2.78485 308.99 2.64174 309.094 2.57019C309.341 2.39456 309.758 2.04332 310.115 1.61401C310.538 1.10665 310.785 0.345597 310.766 -0.630102C310.727 -3.20595 308.912 -6.28265 306.707 -7.49902C306.648 -7.48601 305.517 -7.22583 305.152 -6.60788C307.357 -5.39151 309.172 -2.31481 309.211 0.261039C309.231 1.47741 308.847 2.36855 308.203 2.83688C307.507 3.34425 306.505 3.35726 305.374 2.75883Z" fill="#FF8980"/>
<path d="M306.451 2.80621C305.866 3.23551 305.02 3.24852 304.07 2.74116C304.044 2.72815 304.025 2.71514 303.999 2.70213C302.145 1.6744 300.616 -0.907951 300.584 -3.074C300.584 -3.15856 300.584 -3.24963 300.59 -3.32769C300.636 -4.39445 301.072 -5.11647 301.735 -5.40918C301.247 -5.18802 300.994 -4.95385 300.844 -4.81075C300.766 -4.7392 300.629 -4.58309 300.577 -4.51154C300.447 -4.33591 300.408 -4.27737 300.278 -4.0432C300.233 -3.95864 300.142 -3.74399 300.103 -3.6269C300.025 -3.37322 299.999 -3.25614 299.966 -3.0675C299.894 -2.63819 299.92 -2.2284 299.933 -2.03326C300.083 -0.296514 301.208 1.66139 302.626 2.6566C302.9 2.84524 303.628 3.33959 304.591 3.37862C305.027 3.39813 305.365 3.31357 305.534 3.26154C305.768 3.18998 305.866 3.14445 306.08 3.03387C306.191 2.98184 306.276 2.92329 306.451 2.80621Z" fill="#FCD561"/>
<path d="M306.452 2.80449C307.05 2.36868 307.583 2.62887 308.208 2.83051C308.852 2.36217 309.236 1.47754 309.216 0.254664C309.177 -2.32118 307.362 -5.39789 305.157 -6.61426C304.799 -5.99631 304.533 -5.43692 303.889 -5.1377C305.743 -4.10996 307.271 -1.52761 307.304 0.638442C307.31 1.66618 306.985 2.41421 306.452 2.80449Z" fill="#E84343"/>
<path d="M303.05 2.92256C303.935 3.41041 304.592 3.38439 304.872 3.37789C304.989 3.37138 305.314 3.35187 305.698 3.20876C306.082 3.07217 306.348 2.87702 306.446 2.80547C306.986 2.40869 307.304 1.66716 307.291 0.639424C307.259 -1.52663 305.73 -4.10898 303.877 -5.13672C303.233 -4.8375 302.933 -4.26509 302.92 -4.23907C304.612 -3.3024 306.004 -0.947716 306.03 1.0232C306.062 2.99411 304.716 3.83972 303.024 2.90304C302.888 2.82499 302.751 2.74043 302.621 2.64936C302.79 2.76645 302.881 2.83149 303.05 2.92256Z" fill="#FC5552"/>
<path d="M305.171 3.06433C304.632 3.39607 303.877 3.37005 303.038 2.90822C301.347 1.97155 299.955 -0.383144 299.929 -2.35406C299.916 -3.3948 300.28 -4.11682 300.872 -4.43555L290.9 0.891773C290.256 1.23652 289.866 2.01708 289.885 3.13588C289.918 5.2629 291.421 7.80623 293.242 8.80795C294.146 9.30881 294.959 9.33483 295.544 8.97707C298.745 7.01266 301.958 5.04175 305.171 3.06433Z" fill="#FCD561"/>
<path d="M296.841 11.3458C295.923 11.8727 294.662 11.8141 293.27 11.0401C290.394 9.45295 288.027 5.43957 287.975 2.08316C287.949 0.352921 288.541 -0.863451 289.516 -1.42285L287.318 -0.160945C286.342 0.398456 285.75 1.61483 285.776 3.34507C285.828 6.70147 288.196 10.7149 291.071 12.302C292.463 13.076 293.725 13.1346 294.642 12.6077C295.299 12.2304 296.177 11.7231 296.841 11.3458Z" fill="#FCD561"/>
<path d="M306.217 0.899181C306.23 1.92041 305.879 2.64243 305.307 2.97417L294.639 9.5699C295.218 9.23816 295.602 8.02179 295.589 7.00056C295.582 6.61028 295.524 6.20048 295.42 5.79069C294.997 4.132 293.819 2.4538 292.46 1.69926C291.634 1.24393 290.431 1.0618 289.891 1.37402L300.981 -4.58425C301.527 -4.89647 302.269 -4.86395 303.095 -4.40212C304.097 -3.84922 305.001 -2.78896 305.573 -1.61161C305.957 -0.792027 306.204 0.0860983 306.217 0.899181Z" fill="#FCD561"/>
<path d="M293.391 1.60837L302.842 -3.58885C302.842 -3.58885 303.707 -3.88156 303.473 -3.07498C303.245 -2.26841 294.139 2.3499 294.139 2.3499L293.391 1.60837Z" fill="#FCEAB2"/>
<path d="M306.217 0.89849C306.23 1.91972 305.879 2.64174 305.306 2.97348L294.639 9.56921C295.218 9.23747 295.601 8.0211 295.588 6.99987C295.582 6.60959 295.523 6.19979 295.419 5.79C298.99 3.9817 304.207 1.13266 305.033 0.345595C305.534 -0.129245 305.632 -0.877278 305.566 -1.6123C305.957 -0.792717 306.204 0.0854075 306.217 0.89849Z" fill="#FEB30F"/>
<path d="M298.381 7.83859C298.433 11.195 296.143 12.6325 293.268 11.0389C290.393 9.45174 288.026 5.43836 287.974 2.08196C287.921 -1.27445 290.211 -2.71198 293.086 -1.11833C295.961 0.475309 298.329 4.48218 298.381 7.83859ZM293.119 1.11277C291.297 0.104543 289.847 1.0152 289.879 3.14222C289.912 5.26925 291.414 7.81257 293.236 8.81429C295.057 9.82251 296.508 8.91186 296.475 6.78483C296.436 4.65781 294.94 2.12099 293.119 1.11277Z" fill="#FCD561"/>
<path d="M289.515 -1.42396L287.316 -0.162052C288.234 -0.688929 289.495 -0.630387 290.887 0.143668L293.086 -1.11824C291.688 -1.89229 290.432 -1.95084 289.515 -1.42396Z" fill="#FF8980"/>
<path d="M294.64 12.6077L296.839 11.3457C297.814 10.7863 298.406 9.56998 298.38 7.83974C298.328 4.48333 295.96 0.46995 293.085 -1.11719L290.887 0.144719C293.762 1.73186 296.129 5.74524 296.182 9.10164C296.208 10.8319 295.616 12.0483 294.64 12.6077Z" fill="#FF8980"/>
<path d="M296.184 9.10128C296.236 12.4577 293.946 13.8952 291.071 12.3016C288.196 10.7144 285.828 6.70106 285.776 3.34465C285.724 -0.0117512 288.014 -1.44928 290.889 0.144362C293.764 1.7315 296.132 5.74488 296.184 9.10128ZM290.902 1.02249C288.443 -0.336984 286.485 0.885892 286.531 3.76095C286.576 6.63601 288.599 10.064 291.058 11.4234C293.517 12.7829 295.475 11.56 295.429 8.68498C295.39 5.81643 293.361 2.38196 290.902 1.02249Z" fill="#E84343"/>
<path d="M294.105 11.6821C293.318 12.1309 292.245 12.0789 291.048 11.4219C288.589 10.0624 286.56 6.62795 286.52 3.75939C286.501 2.28283 287.008 1.23558 287.841 0.760742L270.649 10.6218C269.817 11.0967 269.309 12.1439 269.329 13.6205C269.374 16.4955 271.397 19.9235 273.856 21.283C275.046 21.9464 276.126 21.992 276.913 21.5431C282.071 18.59 288.947 14.6417 294.105 11.6821Z" fill="#FCD561"/>
<path d="M278.464 24.245C277.294 24.9215 275.687 24.8434 273.905 23.8547C270.23 21.8253 267.205 16.6996 267.14 12.4065C267.107 10.1949 267.868 8.64032 269.111 7.9248L267.062 9.10215C265.819 9.81767 265.058 11.3723 265.091 13.5839C265.156 17.8769 268.187 23.0026 271.856 25.0321C273.638 26.0208 275.245 26.0923 276.415 25.4223C277.027 25.0646 277.846 24.5963 278.464 24.245Z" fill="#FCD561"/>
<path d="M295.427 8.63848C295.447 10.102 294.946 11.1298 294.126 11.6046L275.165 22.4414C275.991 21.9665 276.492 20.9388 276.473 19.4752C276.466 18.9158 276.381 18.3304 276.232 17.745C275.62 15.3708 273.942 12.9706 271.997 11.8908C270.82 11.2338 269.753 11.1883 268.973 11.6306L287.934 0.793857C288.714 0.345035 289.775 0.397073 290.958 1.05404C292.396 1.84761 293.677 3.35669 294.503 5.0414C295.063 6.21224 295.414 7.47414 295.427 8.63848Z" fill="#FCD561"/>
<path d="M273.332 11.7686L290.595 2.21981C290.595 2.21981 291.831 1.80351 291.5 2.95483C291.168 4.10616 274.399 12.8289 274.399 12.8289L273.332 11.7686Z" fill="#FCEAB2"/>
<path d="M295.426 8.63907C295.446 10.1026 294.945 11.1304 294.125 11.6052L275.164 22.442C275.99 21.9671 276.491 20.9394 276.472 19.4758C276.465 18.9164 276.38 18.331 276.231 17.7456C281.337 15.1632 292.545 8.97081 293.735 7.839C294.444 7.16251 294.587 6.08924 294.502 5.04199C295.062 6.21283 295.413 7.47474 295.426 8.63907Z" fill="#FEB30F"/>
<path d="M280.435 19.7617C280.5 24.0548 277.573 25.8826 273.905 23.8532C270.229 21.8237 267.205 16.698 267.14 12.405C267.075 8.11188 270.002 6.28407 273.67 8.31352C277.339 10.3495 280.37 15.4752 280.435 19.7617ZM273.709 10.8829C271.251 9.52339 269.293 10.7463 269.338 13.6213C269.384 16.4964 271.407 19.9243 273.866 21.2838C276.324 22.6433 278.282 21.4204 278.237 18.5454C278.191 15.6768 276.168 12.2423 273.709 10.8829Z" fill="#FCD561"/>
<path d="M280.432 19.7626C280.465 21.9677 279.71 23.5288 278.461 24.2443L276.412 25.4217C277.661 24.7062 278.416 23.1515 278.383 20.94C278.318 16.6469 275.287 11.5212 271.618 9.49175C269.836 8.50955 268.229 8.4315 267.059 9.10148L269.108 7.92413C270.278 7.24765 271.885 7.3257 273.667 8.31441C277.336 10.3504 280.367 15.476 280.432 19.7626Z" fill="#FF8980"/>
<path d="M271.622 9.49028L271.635 10.44C274.861 12.2222 277.521 16.7235 277.573 20.4962C277.625 24.2689 275.063 25.8755 271.836 24.0867C268.61 22.3045 265.95 17.8032 265.897 14.0305C265.839 10.2643 268.408 8.65118 271.635 10.44L271.622 9.49028C267.946 7.46082 265.026 9.28864 265.091 13.5817C265.156 17.8748 268.187 23.0005 271.856 25.0299C275.531 27.0594 278.451 25.2316 278.386 20.9385C278.321 16.6454 275.29 11.5197 271.622 9.49028Z" fill="#E84343"/>
<path d="M275.84 24.4271C274.806 25.019 273.401 24.954 271.834 24.0824C268.607 22.3001 265.947 17.7988 265.895 14.0261C265.869 12.0878 266.532 10.7218 267.625 10.0908L247.454 21.6561C246.361 22.2806 245.691 23.653 245.724 25.5914C245.782 29.3576 248.443 33.8589 251.663 35.6476C253.23 36.5128 254.642 36.5778 255.669 35.9924C261.719 32.5254 269.791 27.9006 275.84 24.4271Z" fill="#FCD561"/>
<path d="M257.705 39.5435C256.163 40.4282 254.056 40.3306 251.714 39.0297C246.894 36.3628 242.913 29.6304 242.829 23.9974C242.783 21.0963 243.779 19.0539 245.418 18.1172L242.113 20.0165C240.481 20.9532 239.486 22.9957 239.525 25.8968C239.609 31.5298 243.583 38.2621 248.41 40.929C250.752 42.2235 252.859 42.321 254.401 41.4429C255.389 40.8705 256.71 40.1094 257.705 39.5435Z" fill="#FCD561"/>
<path d="M277.568 20.4902C277.601 22.4286 276.931 23.8011 275.838 24.4256L255.667 35.9974C256.76 35.3664 257.423 34.0004 257.397 32.062C257.384 31.3205 257.274 30.5464 257.072 29.7659C256.266 26.6176 254.041 23.4369 251.452 22.0058C249.885 21.1407 248.473 21.0692 247.445 21.6611L267.616 10.0958C268.65 9.50387 270.056 9.56891 271.623 10.434C273.529 11.4878 275.233 13.4847 276.326 15.7223C277.087 17.2834 277.542 18.9486 277.568 20.4902Z" fill="#FCD561"/>
<path d="M253.234 21.8438L271.155 11.9827C271.155 11.9827 272.794 11.4233 272.358 12.9519C271.922 14.4805 254.652 23.2423 254.652 23.2423L253.234 21.8438Z" fill="#FCEAB2"/>
<path d="M277.569 20.4909C277.602 22.4293 276.932 23.8018 275.839 24.4262L255.668 35.998C256.761 35.3671 257.424 34.0011 257.398 32.0627C257.385 31.3212 257.275 30.5471 257.073 29.7665C263.844 26.3386 273.738 20.9332 275.312 19.4371C276.255 18.5395 276.444 17.115 276.327 15.7295C277.088 17.2841 277.543 18.9493 277.569 20.4909Z" fill="#FEB30F"/>
<path d="M260.295 33.6609C260.379 39.2939 256.541 41.7006 251.715 39.0337C246.888 36.3668 242.914 29.6345 242.829 24.0014C242.745 18.3684 246.583 15.9617 251.409 18.6286C256.229 21.2955 260.21 28.0278 260.295 33.6609ZM251.461 22.0045C248.235 20.2222 245.666 21.8289 245.724 25.5951C245.783 29.3613 248.443 33.8625 251.663 35.6513C254.889 37.4336 257.458 35.8269 257.4 32.0607C257.348 28.2945 254.688 23.7868 251.461 22.0045Z" fill="#FCD561"/>
<path d="M245.418 18.1158L242.113 20.0151C243.655 19.1305 245.762 19.2281 248.104 20.529L251.408 18.6296C249.067 17.3352 246.959 17.2311 245.418 18.1158Z" fill="#FF8980"/>
<path d="M254.379 41.4438C257.807 39.4779 257.836 33.0897 254.443 27.1754C251.051 21.2611 245.523 18.0603 242.095 20.0263C238.667 21.9922 238.639 28.3804 242.031 34.2947C245.423 40.209 250.951 43.4098 254.379 41.4438Z" fill="#E84343"/>
<path d="M253.941 33.8701C253.961 35.0474 253.714 36.0101 253.265 36.7126C252.322 38.1957 250.487 38.5404 248.354 37.3631C245.219 35.6263 242.63 31.2487 242.571 27.5801C242.532 24.9977 243.762 23.4561 245.596 23.378C246.363 23.3455 247.229 23.5732 248.159 24.0805C251.294 25.8238 253.883 30.2014 253.941 33.8701Z" fill="#FC5552"/>
<path d="M253.94 33.8694C253.96 35.0468 253.713 36.0095 253.264 36.712C252.496 36.7445 251.625 36.5233 250.701 36.0095C248.951 35.0403 247.371 33.2515 246.31 31.222C245.465 29.6089 244.944 27.8461 244.925 26.2264C244.905 25.0491 245.153 24.0864 245.601 23.3839C246.369 23.3514 247.234 23.579 248.164 24.0864C249.023 24.5612 249.836 25.2312 250.564 26.0248C252.516 28.1518 253.895 31.2025 253.94 33.8694Z" fill="#3E85F4"/>
<path d="M254.398 41.4349L257.702 39.5355C259.335 38.5989 260.33 36.5564 260.291 33.6553C260.207 28.0223 256.232 21.29 251.406 18.623L248.102 20.5224C252.922 23.1893 256.902 29.9216 256.987 35.5547C257.032 38.4558 256.037 40.4982 254.398 41.4349Z" fill="#FF8980"/>
<path d="M253.941 33.8704C253.96 35.0477 253.713 36.0104 253.264 36.7129C252.497 36.7454 251.625 36.5243 250.701 36.0104C248.952 35.0412 247.371 33.2524 246.311 31.223C246.259 30.8457 246.226 30.4749 246.22 30.1107C246.174 26.9299 248.028 25.3102 250.558 26.0322C252.516 28.1528 253.895 31.2035 253.941 33.8704Z" fill="#88BEFF"/>
<path d="M251.311 32.3281C251.656 32.92 251.656 33.564 251.311 33.7656C250.967 33.9673 250.407 33.642 250.069 33.0501C249.724 32.4582 249.724 31.8142 250.069 31.6126C250.414 31.4109 250.967 31.7362 251.311 32.3281Z" fill="#F1F0EF"/>
<path d="M271.524 52.8516L270.475 54.1605C270.619 53.7744 270.981 53.3341 271.524 52.8516Z" fill="#747DB4"/>
<path d="M277.697 45.6204C281.135 41.3679 287.107 36.0779 296.04 34.9861L308.399 32.3984L304.84 42.1279C304.557 42.906 304.135 43.6781 303.586 44.414C300.829 48.1417 295.063 50.8681 288.15 51.7065L271.152 53.7755L277.697 45.6204Z" fill="#99C1FD"/>
<path d="M307.947 32.7902L304.569 42.025C304.291 42.779 303.887 43.5209 303.356 44.2387C300.648 47.9001 294.954 50.5843 288.126 51.4167L271.84 53.4012L277.926 45.801C281.328 41.5907 287.245 36.349 296.076 35.2753L307.947 32.7902ZM308.858 32L296.004 34.6963C287.511 35.7337 281.431 40.5351 277.468 45.4391L270.477 54.1612L288.192 52.0018C295.268 51.1392 301.052 48.3404 303.827 44.5886C304.382 43.8346 304.816 43.0504 305.118 42.2301L308.858 32Z" fill="#C9DEFE"/>
<path opacity="0.26" d="M299.402 44.5902L299.957 42.7385L307.208 33.4795L303.564 41.4718L299.402 44.5902Z" fill="#E1EDFF"/>
<path d="M289.67 33.8457L283.33 44.9926L280.863 52.3214L289.67 33.8457Z" fill="#C9DEFE"/>
<path d="M295.133 49.7759L289.662 33.8457L280.855 52.3214C280.855 52.3214 287.068 51.6277 289.119 51.2719C292.937 50.6083 295.133 49.7759 295.133 49.7759Z" fill="#E1EDFF"/>
<path d="M299.397 43.0321L289.668 33.8516L295.175 49.8843C295.175 49.8843 297.817 48.0929 298.366 47.2062C298.933 46.2893 299.397 43.0321 299.397 43.0321Z" fill="#C9DEFE"/>
<path d="M303.825 44.5879C302.757 47.4772 293.794 54.1183 288.799 54.7275L278.376 56.0002L270.48 54.1605L288.196 52.0011C295.266 51.1385 301.05 48.3337 303.825 44.5879Z" fill="#88BEFF"/>
<path d="M189.482 123.249C189.482 123.249 191.751 107.913 199.543 106.947C207.342 105.978 205.779 118.225 204.921 122.521C204.063 126.816 197.553 133.402 194.896 132.495C192.232 131.591 189.187 127.298 189.482 123.249Z" fill="#FEB30F"/>
<path d="M196.213 131.947C200.177 132.568 204.779 127.639 206.499 120.945C208.211 114.254 206.386 108.328 202.422 107.707L199.701 107.284C203.665 107.904 205.49 113.831 203.778 120.522C202.066 127.213 197.464 132.142 193.492 131.524L196.213 131.947Z" fill="#FBC429"/>
<path d="M202.802 106.436C198.463 105.756 193.42 111.149 191.54 118.483C189.668 125.814 191.664 132.296 196.004 132.977L193.282 132.553C188.943 131.872 186.947 125.391 188.819 118.06C190.691 110.728 195.736 105.342 200.081 106.013L202.802 106.436Z" fill="#FEB30F"/>
<path d="M202.698 106.58C198.368 105.891 193.347 111.272 191.483 118.599C189.627 125.923 191.629 132.405 195.959 133.093C200.289 133.782 205.31 128.401 207.174 121.074C209.032 113.757 207.028 107.268 202.698 106.58ZM196.254 131.945C192.299 131.318 190.468 125.39 192.166 118.705C193.864 112.019 198.447 107.101 202.411 107.725C206.366 108.353 208.197 114.28 206.499 120.966C204.794 127.654 200.21 132.572 196.254 131.945Z" fill="#FCDC79"/>
<path d="M198.506 139.551C199.83 143.76 207.254 144.955 215.083 142.229C222.912 139.502 228.192 133.881 226.868 129.673L227.782 132.578C229.106 136.786 223.826 142.407 215.997 145.134C208.168 147.86 200.744 146.665 199.42 142.456L198.506 139.551Z" fill="#FEB30F"/>
<path d="M214.907 141.999C222.779 139.24 228.082 133.555 226.752 129.3C225.422 125.045 217.963 123.832 210.091 126.59C202.219 129.349 196.916 135.034 198.246 139.289C199.575 143.544 207.035 144.757 214.907 141.999Z" fill="#FBC22C"/>
<path d="M200.332 137.331C201.426 140.813 207.616 141.777 214.171 139.489C220.726 137.2 225.146 132.524 224.054 129.049L224.457 130.331C225.55 133.813 221.129 138.482 214.574 140.771C208.019 143.059 201.826 142.088 200.735 138.613L200.332 137.331Z" fill="#FEB30F"/>
<path d="M214.037 139.327C220.636 137.001 225.093 132.245 223.993 128.705C222.893 125.165 216.652 124.181 210.053 126.507C203.455 128.834 198.997 133.589 200.097 137.129C201.197 140.669 207.438 141.653 214.037 139.327Z" fill="#FEB30F"/>
<path d="M214.037 139.327C220.636 137.001 225.093 132.245 223.993 128.705C222.893 125.165 216.652 124.181 210.053 126.507C203.455 128.834 198.997 133.589 200.097 137.129C201.197 140.669 207.438 141.653 214.037 139.327Z" fill="#FCEAB2"/>
<path d="M222.78 129.133C222.897 129.511 222.941 129.899 222.92 130.294C222.801 133.279 219.062 136.828 213.832 138.672C208.602 140.516 203.621 140.041 201.846 137.724C201.605 137.413 201.423 137.074 201.308 136.703C200.317 133.516 204.326 129.247 210.246 127.16C216.182 125.067 221.79 125.946 222.78 129.133Z" fill="#FCD561"/>
<path d="M222.93 130.38C222.811 133.346 219.084 136.872 213.87 138.704C208.656 140.536 203.691 140.065 201.921 137.763C202.04 134.797 205.767 131.271 210.981 129.439C216.195 127.606 221.168 128.075 222.93 130.38Z" fill="#F2E0DE"/>
<path d="M203.23 137.784L212.375 133.892L222.353 130.861L212.437 135.695L203.23 137.784Z" fill="#5D9EFB"/>
<path d="M210.172 134.66C210.379 135.321 211.538 135.508 212.758 135.082C213.979 134.657 214.803 133.777 214.595 133.116L214.794 133.749C215.001 134.41 214.177 135.289 212.957 135.715C211.737 136.141 210.578 135.954 210.37 135.293L210.172 134.66Z" fill="#FEB30F"/>
<path d="M210.13 134.61C209.922 133.944 210.749 133.057 211.974 132.628C213.199 132.199 214.362 132.388 214.57 133.054C214.779 133.721 213.951 134.607 212.726 135.036C211.499 135.458 210.336 135.27 210.13 134.61Z" fill="#FEB30F"/>
<path d="M280.99 113.182C281.615 112.231 281.688 111.065 281.052 109.806C279.401 106.534 273.507 103.653 268.186 103.521C264.914 103.437 262.479 104.407 261.473 105.93L261.308 106.183C262.314 104.66 264.749 103.69 268.021 103.774C273.342 103.906 279.234 106.783 280.887 110.059C281.523 111.318 281.458 112.486 280.828 113.439L280.99 113.182Z" fill="#FEB30F"/>
<path d="M257.051 103.084C255.97 104.723 255.887 106.835 257.065 109.159C259.818 114.608 268.416 119.187 276.274 119.387C280.784 119.499 284.063 118.142 285.52 115.933L285.355 116.186C283.898 118.396 280.619 119.752 276.106 119.636C268.251 119.441 259.65 114.857 256.9 109.412C255.727 107.085 255.808 104.981 256.891 103.334L257.051 103.084Z" fill="#FEB30F"/>
<path d="M276.064 102.716C273.204 100.934 269.516 101.381 267.003 103.56C267.354 103.54 267.715 103.533 268.091 103.542C272.258 103.652 276.768 105.438 279.331 107.775C279.051 105.752 277.93 103.875 276.064 102.716Z" fill="#FCD561"/>
<path d="M285.444 109.899C282.7 104.454 274.11 99.8848 266.263 99.6854C258.425 99.4874 254.289 103.737 257.043 109.188C259.784 114.629 268.377 119.203 276.224 119.402C284.064 119.592 288.189 115.337 285.444 109.899ZM275.464 115.556C275.089 115.579 274.698 115.58 274.289 115.574C271.176 115.495 267.853 114.478 265.313 112.99C263.524 111.937 262.107 110.648 261.429 109.294C259.885 106.258 262.467 103.754 267.109 103.52C269.618 101.337 273.308 100.895 276.167 102.676C278.027 103.838 279.153 105.711 279.436 107.738C280.15 108.386 280.703 109.075 281.068 109.787C282.585 112.815 280.059 115.301 275.464 115.556Z" fill="#FCD561"/>
<path d="M279.041 104.441C280.182 105.122 281.265 105.9 282.24 106.802C283.215 107.704 284.097 108.721 284.764 109.893C285.426 111.049 285.892 112.409 285.72 113.836C285.55 115.275 284.567 116.555 283.371 117.334C282.161 118.123 280.775 118.561 279.401 118.77C278.023 118.982 276.631 119.021 275.264 118.921C272.524 118.723 269.847 118.086 267.349 117.063C264.847 116.044 262.5 114.654 260.508 112.839C259.515 111.93 258.618 110.911 257.903 109.757C257.186 108.611 256.646 107.282 256.676 105.845C256.69 105.135 256.874 104.407 257.222 103.765C257.571 103.123 258.081 102.574 258.654 102.14C259.806 101.273 261.173 100.796 262.531 100.552C265.264 100.059 268.025 100.341 270.62 100.986C267.982 100.512 265.237 100.337 262.588 100.917C261.279 101.205 259.984 101.7 258.94 102.514C257.895 103.329 257.242 104.557 257.258 105.827C257.278 107.094 257.782 108.317 258.462 109.396C259.153 110.482 260.02 111.456 260.984 112.32C262.923 114.054 265.232 115.365 267.664 116.36C270.096 117.354 272.691 118.02 275.34 118.233C276.666 118.342 278.006 118.318 279.321 118.122C280.636 117.926 281.937 117.545 283.059 116.848C284.175 116.161 285.048 115.065 285.242 113.785C285.434 112.513 285.035 111.213 284.432 110.076C283.204 107.77 281.207 105.946 279.041 104.441Z" fill="#FCEAB2"/>
<path d="M266.83 102.787C265.09 102.949 263.28 103.405 261.903 104.532C261.22 105.085 260.687 105.824 260.468 106.652C260.249 107.48 260.345 108.357 260.66 109.127C261.298 110.687 262.586 111.891 263.976 112.852C265.373 113.821 266.944 114.544 268.571 115.094C270.198 115.643 271.901 116.032 273.632 116.135C275.356 116.236 277.141 116.122 278.785 115.505C279.602 115.199 280.378 114.759 280.999 114.143C281.615 113.53 282.037 112.723 282.134 111.873C282.23 111.023 282.036 110.16 281.658 109.399C281.278 108.634 280.74 107.955 280.136 107.352C280.765 107.932 281.332 108.592 281.744 109.355C282.158 110.111 282.402 110.987 282.322 111.883C282.243 112.78 281.807 113.649 281.166 114.304C280.522 114.968 279.719 115.439 278.875 115.776C277.173 116.458 275.35 116.565 273.59 116.481C271.819 116.391 270.085 116.017 268.43 115.454C266.777 114.896 265.185 114.142 263.76 113.139C262.357 112.148 261.018 110.907 260.379 109.243C260.064 108.421 259.974 107.482 260.225 106.6C260.476 105.718 261.056 104.948 261.779 104.394C263.256 103.265 265.092 102.89 266.83 102.787Z" fill="#FCEAB2"/>
<path d="M275.454 115.56C275.08 115.583 274.69 115.583 274.282 115.576C271.176 115.492 267.859 114.471 265.324 112.981C264.597 111.719 264.279 110.25 264.408 108.775C264.501 107.543 264.899 106.304 265.649 105.174C266.065 104.546 266.55 103.995 267.095 103.534C269.594 101.36 273.274 100.925 276.129 102.708C277.72 103.699 278.77 105.219 279.222 106.904C279.294 107.187 279.359 107.482 279.398 107.767C279.65 109.515 279.272 111.377 278.193 113.012C277.475 114.102 276.525 114.969 275.454 115.56Z" fill="#E84343"/>
<path d="M273.144 113.853C270.949 114.377 268.79 113.89 267.138 112.722C265.825 111.794 264.831 110.433 264.386 108.771C264.48 107.541 264.877 106.303 265.627 105.173C266.042 104.546 266.527 103.995 267.071 103.535C269.569 101.363 273.245 100.928 276.099 102.709C277.688 103.699 278.737 105.218 279.189 106.902C279.184 106.924 279.188 106.941 279.18 106.96C278.897 110.184 276.511 113.06 273.144 113.853Z" fill="#FF8980"/>
<path d="M269.706 103.949C269.149 104.14 268.601 104.059 268.425 103.782C268.408 103.755 268.398 103.729 268.389 103.696C268.281 103.348 268.703 102.899 269.313 102.687C269.938 102.477 270.523 102.584 270.631 102.932C270.65 102.991 270.656 103.051 270.647 103.109C270.604 103.421 270.225 103.771 269.706 103.949Z" fill="#FC5552"/>
<path d="M274.306 104.579C273.943 104.588 273.628 104.475 273.507 104.29C273.471 104.236 273.447 104.168 273.441 104.107C273.433 103.84 273.835 103.604 274.309 103.58C274.789 103.564 275.179 103.771 275.175 104.051C275.173 104.079 275.172 104.099 275.167 104.121C275.109 104.361 274.74 104.555 274.306 104.579Z" fill="#FC5552"/>
<path d="M265.928 108.395C265.885 108.359 265.847 108.313 265.829 108.254C265.691 107.971 265.83 107.491 266.193 107.075C266.617 106.579 267.189 106.359 267.469 106.592C267.572 106.678 267.621 106.814 267.614 106.986C267.609 107.255 267.468 107.601 267.204 107.912C266.78 108.408 266.213 108.625 265.928 108.395Z" fill="#FC5552"/>
<path d="M271.934 108.908C271.205 109.2 270.433 108.963 270.21 108.366C269.995 107.784 270.398 107.068 271.123 106.772C271.844 106.479 272.598 106.728 272.832 107.311C272.868 107.397 272.889 107.48 272.884 107.574C272.927 108.11 272.537 108.662 271.934 108.908Z" fill="#FC5552"/>
<path d="M269.708 103.949C269.151 104.14 268.604 104.06 268.429 103.783C268.475 103.476 268.849 103.129 269.367 102.952C269.937 102.759 270.476 102.838 270.651 103.115C270.606 103.422 270.227 103.772 269.708 103.949Z" fill="#FC7464"/>
<path d="M274.309 104.579C273.947 104.588 273.636 104.472 273.51 104.291C273.579 104.058 273.944 103.859 274.368 103.842C274.728 103.828 275.046 103.945 275.173 104.119C275.103 104.36 274.742 104.555 274.309 104.579Z" fill="#FC7464"/>
<path d="M265.93 108.394C265.886 108.358 265.849 108.312 265.831 108.253C265.837 107.978 265.984 107.642 266.244 107.333C266.662 106.829 267.239 106.619 267.513 106.842C267.556 106.878 267.593 106.924 267.612 106.983C267.614 107.252 267.466 107.596 267.202 107.907C266.781 108.407 266.214 108.623 265.93 108.394Z" fill="#FC7464"/>
<path d="M271.933 108.908C271.205 109.199 270.434 108.963 270.21 108.367C270.177 107.845 270.56 107.285 271.175 107.037C271.896 106.744 272.663 106.984 272.883 107.575C272.925 108.11 272.536 108.662 271.933 108.908Z" fill="#FC7464"/>
<path d="M394.052 76.8111C394.358 75.9036 395.641 75.9033 395.947 76.8106L396.186 77.52C396.324 77.9266 396.705 78.2003 397.134 78.2003H397.829C398.807 78.2003 399.203 79.4586 398.403 80.0194L397.905 80.3679C397.542 80.6225 397.389 81.0861 397.531 81.5066L397.737 82.1159C398.045 83.0306 397.007 83.8083 396.216 83.2547L395.572 82.8045C395.228 82.5634 394.77 82.5635 394.425 82.8046L393.785 83.253C392.994 83.8069 391.955 83.0293 392.264 82.1144L392.469 81.5066C392.611 81.0861 392.458 80.6225 392.095 80.3679L391.597 80.0194C390.797 79.4586 391.193 78.2003 392.171 78.2003H392.866C393.295 78.2003 393.676 77.9263 393.813 77.5195L394.052 76.8111Z" fill="#F6CB51"/>
<path d="M161.192 118.825C161.527 117.923 162.818 117.968 163.089 118.891L163.831 121.416C163.953 121.83 164.326 122.119 164.757 122.133L167.398 122.222C168.372 122.255 168.728 123.519 167.916 124.056L165.762 125.479C165.395 125.721 165.23 126.174 165.353 126.595L166.08 129.069C166.352 129.996 165.281 130.732 164.513 130.145L162.384 128.519C162.046 128.26 161.58 128.244 161.225 128.479L158.992 129.958C158.185 130.492 157.166 129.684 157.502 128.777L158.396 126.365C158.549 125.953 158.415 125.49 158.066 125.223L156.017 123.658C155.244 123.067 155.685 121.831 156.658 121.864L159.303 121.953C159.733 121.968 160.124 121.705 160.274 121.301L161.192 118.825Z" fill="#88BEFF"/>
<path d="M138.531 128C138.531 129.653 137.414 131 136.031 131C134.654 131 133.531 129.659 133.531 128C133.531 126.341 134.649 125 136.031 125C137.414 125 138.531 126.341 138.531 128Z" fill="#99C1FD"/>
</g>
</g>
</g>
</svg>
