<svg width="411" height="140" viewBox="0 0 411 140" fill="none" xmlns="http://www.w3.org/2000/svg">
<defs>
<linearGradient id="paint0_linear_641_6178" x1="387.476" y1="101.346" x2="339.541" y2="101.346" gradientUnits="userSpaceOnUse">
<stop stop-color="#F19090"/>
<stop offset="1" stop-color="#E84343"/>
</linearGradient>
<linearGradient id="paint1_linear_641_6178" x1="387.476" y1="101.276" x2="340.611" y2="101.276" gradientUnits="userSpaceOnUse">
<stop stop-color="#E84343"/>
<stop offset="1" stop-color="#F19090"/>
</linearGradient>
<clipPath id="clip0_641_6178">
<rect width="53.6672" height="53.2237" fill="white" transform="translate(284 101)"/>
</clipPath>
</defs>
<g opacity="0.9">
<mask id="mask0_641_6178" style="mask-type:alpha" maskUnits="userSpaceOnUse" x="0" y="0" width="411" height="140">
<path d="M0 5C0 2.23857 2.23858 0 5 0H406C408.761 0 411 2.23858 411 5V140H0V5Z" fill="#00548B"/>
</mask>
<g mask="url(#mask0_641_6178)">
<g style="mix-blend-mode:luminosity" opacity="0.4">
<path d="M411.532 129.975L417.865 124.451L423.857 108.725L402.951 111.636L411.532 129.975Z" fill="#9A6849"/>
<path d="M424.185 76.7645L419.521 77.1414L424.146 78.0382L424.369 80.8586L413.397 80.1177L417.169 81.0015L424.514 82.7301L424.934 87.7339L424.12 98.2355L423.857 108.724L418.023 116.834L409.889 123.008L411.531 129.974L403.66 129.571L391.703 128.57L391.808 121.929L389.798 128.479L382.676 129.051L375.698 129.688L375.449 123.294L372.072 117.224L374.7 123.93L373.806 129.857L372.177 130L357 127.401L362.164 119.239L360.929 108.75L363.991 108.425L368.3 110.193L364.477 107.697L361.165 107.411L361.231 104.825L364.989 103.928L361.271 103.239L361.389 98.2615L362.243 87.7599L360.876 77.2584L362.203 66.7699L361.336 56.2683L361.139 45.2339L372.164 46.3647L374.148 46.0917L373.162 55.0076L374.069 58.8287L374.476 60.5703L375.252 63.8196L375.659 65.5742L376.447 68.9534L375.961 65.5352L375.711 63.7676L375.212 60.4404L374.963 58.6728L374.424 55.0076L377.052 45.7278L379.667 45.3769L381.257 55.0076L381.664 45.13L382.663 45L393.162 45.9358L403.647 46.2607L414.146 46.1307L417.116 45.9358L417.957 45.8838L418.929 45.8188L425 45.4159L424.947 56.2554L424.961 66.7439L424.185 76.7645Z" fill="#FDDA99"/>
<path d="M374.069 58.8291L374.477 60.5707L368.905 61.5585L368.59 59.7909L374.069 58.8291Z" fill="#E69F56"/>
<path d="M417.182 60.4018L409.035 61.4805L400.875 60.8177L392.939 59.8689L384.871 61.6235L376.803 60.1678L375.213 60.4408L374.963 58.6732L376.803 58.3482L384.831 59.7909L392.86 58.0493L401.059 59.0371L408.983 59.6869L416.945 58.6212L417.182 60.4018Z" fill="#E69F56"/>
<path d="M375.252 63.8193L375.659 65.5739L368.879 66.5097L368.629 64.7291L375.252 63.8193Z" fill="#E69F56"/>
<path d="M417.221 65.0157L416.905 66.7833L408.955 65.4186L400.992 65.7955L392.872 65.5875L384.883 65.8735L376.841 65.4186L375.961 65.5356L375.711 63.768L376.762 63.625L384.896 64.0799L392.872 63.794L400.979 64.0279L409.061 63.625L417.221 65.0157Z" fill="#E69F56"/>
<path d="M400.927 72.5535L392.859 71.3448L384.909 71.8777L376.763 72.2546L368.629 71.1108L368.879 69.3433L376.841 70.461L384.804 70.0971L392.938 69.5382L400.967 70.7469L409.008 69.8371L417.168 70.7599L416.958 72.5405L409.008 71.6307L400.927 72.5535Z" fill="#E69F56"/>
<path d="M396.763 77.5316L389.024 77.0377L381.455 77.2587L381.402 75.4781L389.05 75.2441L396.789 75.751L404.358 75.4651L404.424 77.2587L396.763 77.5316Z" fill="#E69F56"/>
<path d="M400.941 83.5485L392.846 82.2358L384.897 82.6777L376.829 82.9246L368.734 82.7167L368.774 80.9231L376.829 81.131L384.818 80.8841L392.952 80.4292L400.954 81.7419L408.969 80.5462L417.129 81.144L416.998 82.9246L409.048 82.3527L400.941 83.5485Z" fill="#E69F56"/>
<path d="M416.893 89.2421L408.956 87.6305L401.02 88.2024L392.925 89.1641L384.792 88.6572L376.75 89.2031L368.59 87.7085L368.918 85.9539L376.855 87.4095L384.792 86.8767L392.873 87.3705L400.849 86.4218L409.074 85.8369L417.248 87.5005L416.893 89.2421Z" fill="#E69F56"/>
<path d="M380.808 93.8953L372.688 93.2845L372.819 91.5039L380.887 92.1018H388.863L396.892 91.7898L404.986 91.7379L413.041 91.5039L413.093 93.2975L405.025 93.5314L396.931 93.5704L388.902 93.8823L380.808 93.8953Z" fill="#E69F56"/>
<path d="M392.952 100.108L384.818 99.8477L376.737 98.639L368.761 98.704L368.748 96.9234L376.869 96.8454L384.989 98.0801L392.926 98.3271L400.889 97.7942L408.996 96.6895L417.169 97.5732L416.972 99.3408L409.022 98.483L401.073 99.5748L392.952 100.108Z" fill="#E69F56"/>
<path d="M409.008 105.736L400.94 104.28L392.937 105.515L384.791 104.969L376.775 104.085L368.799 104.462L368.707 102.681L376.828 102.292L384.948 103.188L392.859 103.708L400.966 102.46L409.008 103.916L416.892 102.421L417.233 104.176L409.008 105.736Z" fill="#E69F56"/>
<path d="M392.964 110.881L383.411 110.816L373.937 110.855L373.924 109.075L383.411 109.036L392.911 109.101L402.333 108.477L411.912 108.724L411.859 110.518L402.372 110.258L392.964 110.881Z" fill="#E69F56"/>
<g opacity="0.7">
<path d="M240.256 35.2292C240.34 35.1834 240.447 35.1834 240.569 35.2597L270.389 52.4741L311.365 28.8119L281.545 11.5975C281.423 11.5288 281.309 11.5212 281.232 11.5669L240.256 35.2292Z" fill="#A0D9E6"/>
<path d="M240.254 35.2285C240.178 35.2743 240.132 35.3735 240.132 35.5109C240.132 35.7856 240.33 36.1289 240.567 36.2663L270.387 53.4807V52.4735L240.567 35.259C240.445 35.1827 240.338 35.1827 240.254 35.2285Z" fill="#19BDE0"/>
<path d="M240.896 28.673L270.251 45.6204L311.227 21.9581L281.88 5.01074L240.896 28.673Z" fill="#31D5F9"/>
<path d="M271.249 45.2072V51.9831L312.225 28.3209L311.225 21.957L271.249 45.2072Z" fill="#A0D9E6"/>
<path d="M241.893 28.2598C241.893 28.2598 242.664 29.4883 242.672 31.724C242.679 34.2116 241.893 35.0356 241.893 35.0356L271.248 51.983V45.2148L241.893 28.2598Z" fill="#FEFEFE"/>
<path d="M240.124 27.3757C240.208 27.3299 240.314 27.3299 240.436 27.4062L270.257 44.6206L311.232 20.9584L281.412 3.74395C281.29 3.67528 281.176 3.66764 281.1 3.71343L240.124 27.3757Z" fill="#A0D9E6"/>
<path d="M240.123 27.3743C240.047 27.4201 240.001 27.5193 240.001 27.6566C240.001 27.9313 240.199 28.2747 240.436 28.412L270.256 45.6265V44.6192L240.436 27.4048C240.314 27.3285 240.199 27.3209 240.123 27.3743Z" fill="#19BDE0"/>
<path d="M269.548 44.2081C269.831 44.376 270.121 44.5363 270.403 44.7041L311.379 21.0419C311.097 20.874 310.807 20.7138 310.524 20.5459L269.548 44.2081Z" fill="#19BDE0"/>
<path d="M270.394 44.6966C272.492 48.3364 272.492 52.2661 270.394 53.4793L311.37 29.8247C313.468 28.6115 313.468 24.6817 311.37 21.042L270.394 44.6966Z" fill="#7BE1F7"/>
<path d="M302.892 27.2291C303.494 28.5187 303.822 29.854 303.822 31.0138C303.822 32.0897 303.54 32.9291 303.029 33.3717L310.827 28.8697C311.484 28.4958 311.857 27.5648 311.857 26.3287C311.857 25.1765 311.522 23.8411 310.926 22.5439L302.892 27.2291Z" fill="#19BDE0"/>
<path d="M274.462 43.8496C275.248 45.4825 275.675 47.1841 275.675 48.7255C275.675 48.9697 275.668 49.2062 275.645 49.4275L300.345 34.9829C300.391 34.9524 300.444 34.9219 300.49 34.8913C300.536 34.8608 300.574 34.8227 300.62 34.7769C301.1 34.3191 301.375 33.495 301.375 32.442C301.375 31.2897 301.039 29.9544 300.444 28.6572L274.462 43.8496Z" fill="#19BDE0"/>
<path d="M269.546 44.209C271.645 47.8487 271.645 51.7784 269.546 52.9917C269.829 53.1596 270.118 53.3198 270.401 53.4877C272.499 52.2744 272.499 48.3447 270.401 44.705C270.111 44.5371 269.829 44.3692 269.546 44.209Z" fill="#19BDE0"/>
<path d="M247.697 24.6272C247.766 24.589 247.857 24.589 247.956 24.6501L272.435 38.7818L306.07 19.3621L281.592 1.85774C281.492 1.79669 281.401 1.79669 281.332 1.83485L247.697 24.6272Z" fill="#F9AD23"/>
<path d="M247.699 24.6295C247.638 24.6676 247.6 24.7439 247.6 24.8584C247.6 25.0873 247.76 25.362 247.959 25.4765L272.438 39.6082V38.7765L247.959 24.6447C247.852 24.5913 247.768 24.5913 247.699 24.6295Z" fill="#AB651D"/>
<path d="M248.23 15.8718L272.328 29.7899L305.963 10.3626L281.866 -3.54785L248.23 15.8718Z" fill="#FCEAB2"/>
<path d="M273.142 29.4482V38.3835L306.785 18.9562L305.961 10.3643L273.142 29.4482Z" fill="#FCD561"/>
<path d="M249.045 15.5381C249.045 15.5381 249.679 16.553 249.686 18.3843C249.694 20.4293 249.045 24.4734 249.045 24.4734L273.143 38.3839V29.4561L249.045 15.5381Z" fill="#FEFEFE"/>
<path d="M247.584 14.8053C247.652 14.7672 247.744 14.7672 247.843 14.8282L272.322 28.9599L305.965 9.54025L281.486 -4.59148C281.387 -4.65253 281.295 -4.65252 281.227 -4.61437L247.584 14.8053Z" fill="#F9AD23"/>
<path d="M247.582 14.808C247.521 14.8462 247.483 14.9225 247.483 15.0369C247.483 15.2658 247.643 15.5405 247.842 15.655L272.32 29.7867V28.9626L247.842 14.8309C247.742 14.7775 247.651 14.7699 247.582 14.808Z" fill="#AB651D"/>
<path d="M271.743 28.6286C271.979 28.766 272.208 28.8957 272.445 29.0331L306.088 9.6134C305.851 9.47605 305.622 9.34633 305.386 9.20898L271.743 28.6286Z" fill="#AB651D"/>
<path d="M272.444 29.0308C274.169 32.0143 274.161 38.6148 272.437 39.6067L306.08 20.187C307.804 19.1951 307.804 12.5947 306.08 9.60352L272.444 29.0308Z" fill="#CC9125"/>
<path d="M299.121 14.6944C299.609 15.7551 299.884 20.2189 299.884 21.1727C299.884 22.0579 299.655 22.7446 299.235 23.1109L305.637 19.4177C306.171 19.1125 306.782 15.8695 306.484 13.9619C306.339 13.0233 306.21 11.9169 305.721 10.8486L299.121 14.6944Z" fill="#FFCB6B"/>
<path d="M275.778 28.3366C276.419 29.6796 276.77 34.441 276.77 35.7077C276.77 35.9061 276.763 36.1045 276.74 36.2876L297.014 24.4298C297.052 24.4069 297.098 24.384 297.129 24.3535C297.167 24.3229 297.197 24.2924 297.235 24.2619C297.625 23.8804 297.854 23.2089 297.854 22.3467C297.854 21.4005 297.579 16.929 297.09 15.876L275.778 28.3366Z" fill="#FFCB6B"/>
<path d="M271.743 28.627C273.467 31.6105 273.467 38.2109 271.743 39.2105C271.979 39.3478 272.201 39.4775 272.437 39.6149C274.162 38.6229 274.169 32.0225 272.445 29.039C272.208 28.9017 271.972 28.7643 271.743 28.627Z" fill="#AB651D"/>
<path d="M256.756 12.5881C256.809 12.5576 256.878 12.5576 256.954 12.6034L275.84 23.5074L301.791 8.52106L282.905 -4.98494C282.829 -5.03073 282.76 -5.03074 282.707 -5.00022L256.756 12.5881Z" fill="#FF8980"/>
<path d="M256.758 12.5906C256.712 12.6211 256.682 12.6822 256.682 12.7661C256.682 12.9416 256.804 13.1553 256.956 13.2468L275.842 24.1508V23.5099L256.956 12.6059C256.88 12.5601 256.811 12.5601 256.758 12.5906Z" fill="#FC7464"/>
<path d="M257.162 5.83203L275.758 16.5682L301.709 1.58183L283.121 -9.1543L257.162 5.83203Z" fill="#FCEAB2"/>
<path d="M276.39 16.3099V23.1926L302.342 8.21393L301.708 1.58301L276.39 16.3099Z" fill="#FCD561"/>
<path d="M257.793 5.57227C257.793 5.57227 258.281 6.35057 258.281 7.76222C258.289 9.33411 257.793 12.455 257.793 12.455L276.381 23.1911V16.3008L257.793 5.57227Z" fill="#FEFEFE"/>
<path d="M256.676 5.00762C256.729 4.9771 256.798 4.97709 256.874 5.02288L275.76 15.9269L301.711 0.940545L282.825 -9.96347C282.749 -10.0093 282.68 -10.0092 282.627 -9.97872L256.676 5.00762Z" fill="#FC9F9C"/>
<path d="M256.676 5.00695C256.63 5.03747 256.6 5.0985 256.6 5.18244C256.6 5.35794 256.722 5.5716 256.874 5.66316L275.76 16.5672V15.9338L256.874 5.02984C256.798 4.97643 256.729 4.97643 256.676 5.00695Z" fill="#FC7464"/>
<path d="M275.304 15.6738C275.487 15.7807 275.662 15.8799 275.845 15.9867L301.797 1.00035C301.614 0.893527 301.438 0.794327 301.255 0.6875L275.304 15.6738Z" fill="#FF6666"/>
<path d="M275.848 15.9863C277.175 18.2907 277.175 23.3803 275.84 24.151L301.799 9.16466C303.127 8.39398 303.127 3.30442 301.799 1L275.848 15.9863Z" fill="#FC7464"/>
<path d="M296.426 4.93135C296.808 5.74781 297.014 9.19682 297.014 9.92935C297.014 10.6085 296.831 11.1426 296.51 11.4249L301.447 8.5711C301.859 8.33455 302.104 5.14501 302.104 4.3667C302.104 3.63417 301.89 2.78717 301.516 1.9707L296.426 4.93135Z" fill="#FF8980"/>
<path d="M278.426 15.452C278.922 16.4897 279.189 20.1676 279.189 21.1443C279.189 21.2969 279.181 21.4496 279.166 21.5869L294.809 12.4379C294.839 12.4227 294.87 12.3998 294.9 12.3769C294.931 12.354 294.954 12.3311 294.984 12.3006C295.289 12.0106 295.465 11.4917 295.465 10.8202C295.465 10.0877 295.251 6.64636 294.877 5.82227L278.426 15.452Z" fill="#FF8980"/>
<path d="M275.308 15.6699C276.636 17.9743 276.636 23.0639 275.308 23.8346C275.491 23.9414 275.667 24.0406 275.842 24.1474C277.17 23.3767 277.178 18.2872 275.85 15.9828C275.667 15.8836 275.491 15.7767 275.308 15.6699Z" fill="#FC7464"/>
<path d="M204.586 102.586C204.438 111.468 209.397 120.666 211.185 123.679C211.926 125.477 213.507 127.176 215.927 128.569C222.942 132.61 234.343 132.6 241.397 128.52C243.402 127.364 244.835 126 245.704 124.558C245.714 124.538 245.744 124.489 245.793 124.42C245.813 124.37 245.852 124.331 245.872 124.281C247.067 122.365 253.825 111.033 252.847 100.699C251.76 89.3674 241.11 77.9072 241.11 77.9072C241.11 77.9072 216.461 79.8238 216.362 78.0949C215.621 78.9051 205.742 89.9009 204.675 100.788C204.675 100.818 204.665 100.847 204.665 100.857C204.615 101.43 204.586 102.003 204.586 102.586Z" fill="#FC5552"/>
<path d="M227.952 84.8899C228.149 84.8899 228.347 84.8998 228.544 84.8998C231.745 84.9097 234.917 84.1193 237.416 82.7954C241.753 80.5034 241.111 77.8656 241.111 77.8656C241.111 77.8656 243.255 71.8194 244.352 70.2782L228.979 62.6611L227.952 84.8899Z" fill="#E84343"/>
<path d="M216.354 77.9745L216.403 78.0437C216.472 79.822 217.668 81.5213 219.94 82.8352C222.163 84.1196 225.028 84.8506 227.952 84.9C228.15 84.9 228.347 84.9099 228.545 84.9099V62.8096L212.797 69.6165L216.354 77.9745Z" fill="#E84343"/>
<path d="M213.923 71.9099C214.694 72.967 215.83 73.9648 217.332 74.8342C218.675 75.6147 220.207 76.2174 221.847 76.6619C223.951 77.2349 226.233 77.5215 228.525 77.5313H228.604C230.995 77.5313 233.386 77.2251 235.589 76.6126C237.199 76.168 238.701 75.5653 240.035 74.7947C241.586 73.8957 242.761 72.8682 243.542 71.7617C245.952 68.4027 244.816 64.4015 240.104 61.6946C235.816 59.2148 229.671 58.4442 224.208 59.3927C223.042 59.5903 221.847 64.4904 221.847 64.4904C221.847 64.4904 218.458 61.1314 217.411 61.7341C212.619 64.4905 211.453 68.541 213.923 71.9099Z" fill="#FC9F9C"/>
<path d="M218.998 73.8662C219.512 74.1527 220.046 74.4293 220.619 74.6566C225.41 76.6818 231.99 76.6522 236.791 74.6072C237.335 74.3701 237.848 74.1132 238.342 73.8267C243.697 70.7245 243.727 65.7255 238.402 62.653C235.082 60.7364 230.459 60.0152 226.151 60.5092C224.857 60.6574 223.316 66.2393 223.316 66.2393C223.316 66.2393 220.075 62.1195 219.068 62.7024C213.703 65.7947 213.673 70.7937 218.998 73.8662Z" fill="#FC5552"/>
<path d="M220.62 74.6564C225.412 76.6817 231.992 76.6521 236.793 74.6071C236.388 74.1724 235.874 73.7574 235.232 73.3919C231.646 71.3172 225.827 71.3369 222.221 73.4116C221.569 73.7969 221.035 74.2119 220.62 74.6564Z" fill="#B72727"/>
<path d="M204.585 102.583C204.585 102.01 204.615 101.437 204.674 100.864C204.585 101.427 204.555 102.01 204.585 102.583Z" fill="#FC9F9C"/>
<path d="M231.469 77.3373L226.816 85.0236L225.294 89.8744C225.294 89.8744 226.203 93.0062 226.302 95.0315C226.401 97.0568 220.937 99.6847 220.74 100.692C220.542 101.7 217.608 107.974 217.608 107.974L220.236 99.3785L225.294 95.3377L224.484 89.5681L225.798 84.6086L230.145 77.5251L229.434 76.3099L230.748 76.1123L231.469 77.3373Z" fill="#B72727"/>
<path d="M241.181 93.3115L248.363 103.626C248.363 103.626 248.166 108.476 248.057 109.089C247.958 109.692 248.462 112.735 248.156 113.031C247.85 113.337 245.725 116.568 245.725 116.568L247.346 112.823L247.148 109.178L247.553 104.12L241.181 93.3115Z" fill="#B72727"/>
<path d="M196.685 103.304C196.685 103.304 180.327 103.146 178.759 107.422C177.191 111.698 174.731 121.265 174.731 121.265C174.731 121.265 178.358 111.56 187.318 116.768C192.561 119.815 197.694 123.649 198.468 123.442C199.234 123.227 208.85 106.503 196.685 103.304Z" fill="#CC9125"/>
<path d="M174.728 121.279L176.345 124.111L180.172 113.901C180.172 113.901 178.707 112.81 178.521 110.337C178.507 110.046 178.403 109.66 178.549 109.618C178.701 109.577 180.766 108.492 183.142 110.896C185.505 113.266 184.918 113.846 184.918 113.846L181.519 118.599L182.838 122.612L188.089 121.182L188.586 115.407C188.586 115.407 192.151 113.397 194.472 115.49C196.793 117.576 197.304 120.775 197.304 120.775C197.304 120.775 193.491 121.037 192.489 120.471C191.494 119.897 190.686 123.13 190.686 123.13L188.296 128.871C188.296 128.871 191.812 132.511 195.259 130.536C195.404 130.467 195.515 130.405 195.618 130.308C198.872 128.45 201.463 127.386 201.463 127.386L214.857 125.189C214.857 125.189 210.795 112.077 212.115 107.532C213.407 103 214.167 92.0025 200.793 88.1063C189.491 84.8043 183.253 92.9213 180.994 97.7155C180.586 98.6066 180.317 99.3872 180.179 99.9468C179.281 103.511 174.728 121.279 174.728 121.279Z" fill="#FFCB6B"/>
<path opacity="0.4" d="M180.167 113.894C180.167 113.894 178.702 112.803 178.516 110.33C178.502 110.04 178.399 109.653 178.544 109.611C178.696 109.57 180.761 108.485 183.137 110.889C185.5 113.259 184.913 113.839 184.913 113.839L181.514 118.592L182.833 122.605L188.084 121.175L188.581 115.4C188.581 115.4 192.146 113.39 194.467 115.483C196.788 117.569 197.299 120.768 197.299 120.768C197.299 120.768 193.486 121.03 192.484 120.464C191.489 119.891 190.681 123.124 190.681 123.124L188.291 128.864C188.291 128.864 191.807 132.505 195.254 130.529C195.399 130.46 200.594 127.807 200.698 127.71C198.066 123.566 200.235 119.455 200.781 117.521C202.073 112.989 202.895 101.784 189.458 98.0955C180.879 95.7399 179.172 103.905 179.034 104.458C178.129 108.043 174.73 121.286 174.73 121.286L176.347 124.118L180.167 113.894Z" fill="#CC9125"/>
<path d="M176.318 123.889L179.717 113.99C178.86 113.189 178.391 112.159 178.163 111.075C178.1 110.799 178.08 110.432 178.045 110.225C178.031 110.087 177.99 109.97 178.004 109.7C178.018 109.624 178.011 109.521 178.142 109.348C178.204 109.258 178.342 109.182 178.432 109.154L178.653 109.071C179.254 108.85 179.917 108.788 180.546 108.885C181.824 109.071 182.915 109.831 183.717 110.667C184.124 111.075 184.525 111.503 184.884 111.987C185.064 112.235 185.243 112.484 185.388 112.802C185.464 112.961 185.534 113.127 185.575 113.334C185.575 113.576 185.755 113.728 185.43 114.225L182.273 118.701L183.281 121.762L187.385 120.622L187.862 114.93L188.214 114.743C189.257 114.197 190.3 113.859 191.481 113.769C192.642 113.686 193.954 114.018 194.901 114.86C196.614 116.422 197.574 118.453 198.023 120.643L198.189 121.458L197.353 121.492C195.903 121.554 194.528 121.623 192.974 121.361C192.787 121.326 192.442 121.223 192.269 121.147C192.2 121.223 192.089 121.354 192.027 121.499C191.744 122.017 191.523 122.68 191.329 123.399L189.043 128.697C190.597 130.1 192.828 131.122 194.707 130.21L197.947 128.538C199.053 128 200.165 127.482 201.408 126.984L214.865 125.167C214.865 125.167 201.526 127.765 201.622 127.737C200.524 128.228 199.433 128.773 198.362 129.34L195.15 131.129C193.934 131.771 192.435 131.758 191.184 131.336C189.906 130.908 188.836 130.21 187.848 129.298L187.551 129.029L187.716 128.621C187.716 128.621 190.072 122.874 190.038 122.977C190.231 122.238 190.438 121.561 190.811 120.843C191.039 120.504 191.171 120.069 191.917 119.744C192.317 119.565 192.974 119.917 192.898 119.876C192.98 119.91 193.119 119.952 193.264 119.972C194.217 120.124 195.315 120.124 196.386 120.076C195.923 118.536 195.08 117.023 193.913 116.007C192.78 114.971 190.867 115.227 189.319 115.917L188.766 121.762L182.363 123.468L180.767 118.46L184.352 113.562C184.338 113.5 184.311 113.403 184.269 113.306C184.186 113.106 184.048 112.892 183.91 112.684C183.613 112.263 183.261 111.855 182.888 111.462C182.183 110.674 181.333 110.08 180.38 109.9C179.91 109.818 179.427 109.845 178.978 109.99C178.978 110.032 178.985 110.066 178.992 110.108C179.026 110.446 179.026 110.647 179.074 110.923C179.24 111.925 179.71 112.947 180.422 113.562L180.67 113.776L176.36 124.345L174.736 121.264L176.318 123.889ZM184.359 113.589C184.345 113.624 184.359 113.617 184.359 113.589V113.589Z" fill="#FBC22C"/>
<path d="M168.146 138.873C168.146 140.268 167.227 141.656 165.389 142.721C161.711 144.845 155.745 144.845 152.062 142.721C150.223 141.656 149.304 140.268 149.304 138.873V140.56C149.304 141.954 150.223 143.343 152.062 144.408C155.739 146.532 161.705 146.532 165.389 144.408C167.227 143.343 168.146 141.954 168.146 140.56V138.873Z" fill="#00809C"/>
<path d="M168.146 138.873C168.146 137.478 167.227 136.09 165.389 135.025C161.711 132.901 155.745 132.901 152.062 135.025C150.223 136.09 149.304 137.478 149.304 138.873C149.304 140.268 150.223 141.656 152.062 142.721C155.739 144.845 161.705 144.845 165.389 142.721C167.227 141.656 168.146 140.268 168.146 138.873Z" fill="#0FACCE"/>
<path d="M160.766 124.863C160.766 124.863 159.542 125.294 159.358 126.067C159.175 126.841 159.149 132.61 159.092 132.902C159.035 133.2 163.879 136.947 163.879 136.947L157.526 138.716L153.209 136.915L158.16 132.927V125.807L156.949 124.856H160.766V124.863Z" fill="#FEB30F"/>
<path opacity="0.5" d="M158.738 125.487C158.865 125.487 159.036 125.487 159.258 125.461C159.683 125.417 160 125.335 160.038 125.328C160.323 125.252 160.995 125.075 161.705 124.637C162.085 124.403 163.246 123.699 164.127 122.114C164.958 120.624 164.97 119.197 164.977 118.735V116.002C164.717 116.23 164.412 116.439 164.083 116.636C162.637 117.498 160.71 117.98 158.668 117.98C156.722 117.98 154.87 117.543 153.457 116.75C153.07 116.535 152.728 116.294 152.43 116.04V118.779C152.442 119.128 152.461 119.432 152.487 119.635C152.512 119.876 152.569 120.167 152.613 120.351C152.759 120.909 152.899 121.397 153.292 122.126C153.805 123.077 154.636 123.971 155.517 124.523C156.132 124.903 156.582 125.087 156.849 125.176C157.128 125.265 157.787 125.474 158.503 125.487C158.586 125.487 158.662 125.487 158.738 125.487Z" fill="#121E51"/>
<path opacity="0.5" d="M156.637 125.86C156.814 125.917 157.112 126.012 157.486 126.088C156.497 126.487 155.223 127.223 155.039 127.343C154.684 127.572 154.31 127.908 154.164 128.041C153.974 128.212 153.739 128.472 153.568 128.662C153.372 128.884 152.985 129.366 152.605 130.101C152.211 130.856 152.021 131.604 152.021 131.604C151.894 132.13 151.869 132.238 151.818 132.612C151.755 133.094 151.761 133.449 151.761 133.645V138.407C151.768 139.466 152.484 140.512 153.885 141.304C154.044 141.393 154.209 141.482 154.38 141.558C157.163 142.851 161.246 142.724 163.782 141.203C165.107 140.41 165.76 139.383 165.754 138.369V133.601C165.748 133.322 165.722 132.954 165.69 132.682C165.671 132.542 165.621 132.124 165.5 131.674C165.431 131.42 165.221 130.647 164.733 129.797C164.258 128.985 163.395 127.844 161.95 127.026C161.715 126.9 160.663 126.405 159.896 126.088C160.092 126.05 160.213 126.018 160.213 126.018C160.53 125.936 161.278 125.739 162.083 125.245C162.501 124.985 163.788 124.205 164.758 122.455C165.671 120.8 165.684 119.241 165.697 118.727V113.167C165.697 114.188 165.031 115.208 163.706 116.001C161.468 117.339 158.038 117.599 155.35 116.749C154.798 116.578 154.278 116.362 153.816 116.096C152.408 115.31 151.704 114.251 151.704 113.199V118.765C151.711 119.044 151.736 119.425 151.774 119.704C151.806 119.945 151.856 120.274 151.92 120.515C152.066 121.105 152.231 121.656 152.662 122.462C153.232 123.514 154.158 124.509 155.147 125.124C155.819 125.555 156.326 125.765 156.637 125.86Z" fill="#FFCB6B"/>
<path opacity="0.5" d="M158.742 141.723C160.504 141.723 162.204 141.311 163.414 140.588C164.467 139.961 165.038 139.174 165.031 138.376V133.608C165.025 133.386 165.006 133.025 164.974 132.777C164.93 132.441 164.873 132.137 164.803 131.864C164.74 131.636 164.556 130.932 164.106 130.159C163.681 129.423 162.901 128.39 161.595 127.655C161.208 127.452 159.763 126.792 159.205 126.596C158.907 126.748 158.539 126.906 158.368 126.906H158.063L157.867 126.703C157.068 127.014 155.825 127.693 155.439 127.94C155.134 128.136 154.786 128.447 154.653 128.567C154.462 128.739 154.202 129.037 154.114 129.132C153.942 129.328 153.6 129.753 153.251 130.425C152.903 131.097 152.731 131.769 152.731 131.769C152.611 132.283 152.586 132.365 152.548 132.695C152.491 133.132 152.497 133.443 152.497 133.633V138.401C152.497 139.219 153.144 140.043 154.253 140.664C155.445 141.355 157.043 141.723 158.742 141.723Z" fill="#FFCB6B"/>
<path d="M153.519 122.116C153.519 122.883 154.026 123.65 155.035 124.233C157.057 125.4 158.953 126.674 162.364 124.233C163.315 123.555 163.879 122.883 163.879 122.116C163.879 121.348 163.372 120.581 162.364 119.998C160.341 118.831 157.057 118.831 155.035 119.998C154.026 120.588 153.519 121.355 153.519 122.116Z" fill="#FCD561"/>
<path d="M153.942 122.123C153.942 123.657 156.098 124.9 158.754 124.9C161.411 124.9 163.566 123.657 163.566 122.123C163.566 120.588 161.411 119.346 158.754 119.346C156.098 119.346 153.942 120.582 153.942 122.123Z" fill="#FEB30F"/>
<path d="M152.263 138.032C152.263 138.99 152.897 139.941 154.159 140.67C156.682 142.128 160.778 142.128 163.307 140.67C164.569 139.941 165.203 138.983 165.203 138.026C165.203 137.069 164.569 136.118 163.307 135.389C160.784 133.93 156.688 133.93 154.159 135.389C152.897 136.118 152.263 137.075 152.263 138.032Z" fill="#FCD561"/>
<path d="M163.89 136.944C163.89 136.944 164.866 138.865 163.414 139.531C161.962 140.197 161.595 139.804 160.872 138.028C160.143 136.259 158.868 134.275 159.363 134.313C159.857 134.351 161.233 136.259 162.083 136.437C162.926 136.627 163.89 136.944 163.89 136.944Z" fill="#FCEAB2"/>
<path d="M161.045 129.062C161.045 129.062 163.067 129.595 163.308 131.345C163.416 132.125 163.714 133.038 163.023 133.222C162.325 133.405 162.541 133.222 162.389 132.055C162.141 130.197 161.045 129.062 161.045 129.062Z" fill="#FEFEFE"/>
<path opacity="0.5" d="M156.634 125.864C156.811 125.921 157.109 126.016 157.483 126.092C156.494 126.491 155.22 127.227 155.036 127.347C154.681 127.576 154.307 127.912 154.161 128.045C153.971 128.216 153.736 128.476 153.565 128.666C153.369 128.888 152.982 129.37 152.601 130.105C152.208 130.86 152.018 131.608 152.018 131.608C151.891 132.134 151.866 132.242 151.815 132.616C151.752 133.098 151.758 133.453 151.758 133.649V138.411C151.765 139.47 152.481 140.516 153.882 141.308C154.041 141.397 154.205 141.486 154.377 141.562C154.332 139.653 154.32 136.255 154.656 133.275C155.163 128.837 158.06 126.923 158.06 126.923C158.06 126.923 158.168 125.813 157.293 125.636C156.412 125.458 154.839 122.909 154.776 120.557C154.738 119.207 155.068 117.755 155.353 116.759C154.801 116.588 154.282 116.373 153.819 116.106C152.411 115.32 151.708 114.261 151.708 113.209V118.776C151.714 119.055 151.739 119.435 151.777 119.714C151.809 119.955 151.86 120.285 151.923 120.525C152.069 121.115 152.234 121.667 152.665 122.472C153.235 123.524 154.161 124.52 155.15 125.135C155.816 125.559 156.323 125.769 156.634 125.864Z" fill="#FFCB6B"/>
<path d="M167.842 112.333C167.842 113.728 166.923 115.116 165.084 116.181C161.407 118.305 155.441 118.305 151.757 116.181C149.918 115.116 148.999 113.728 148.999 112.333V114.019C148.999 115.414 149.918 116.803 151.757 117.868C155.434 119.992 161.4 119.992 165.084 117.868C166.923 116.803 167.842 115.414 167.842 114.019V112.333Z" fill="#00809C"/>
<path d="M167.842 112.333C167.842 110.938 166.923 109.55 165.084 108.485C161.407 106.361 155.441 106.361 151.757 108.485C149.918 109.55 148.999 110.938 148.999 112.333C148.999 113.728 149.918 115.116 151.757 116.181C155.434 118.305 161.4 118.305 165.084 116.181C166.923 115.116 167.842 113.721 167.842 112.333Z" fill="#0FACCE"/>
<path d="M340.151 115.072L340.086 116.007L341.217 116.768L342.554 116.855L388.298 89.9436C388.298 89.9436 387.896 89.0411 388.385 88.6932C388.874 88.3452 390.135 87.7472 390.179 87.4971C390.212 87.247 390.472 87.0296 390.179 87.0404C389.885 87.0513 387.537 88.1169 387.537 88.1169L384.884 89.0737L340.151 115.072Z" fill="#FAF7F7"/>
<path d="M390.237 86.1624C390.237 86.2928 390.161 86.4233 390.042 86.4886L389.107 86.9887L386.943 89.5113L385.964 87.1518L385.855 86.7386C385.855 86.7386 388.476 86.6734 388.824 86.5103C389.041 86.4016 389.487 86.1841 389.802 86.0319C389.976 85.9449 390.237 86.108 390.237 86.1624Z" fill="white"/>
<path d="M387.472 88.7479L386.939 89.509L340.619 115.953L339.543 113.18L385.841 86.7363L386.939 87.3561L387.472 88.7479Z" fill="url(#paint0_linear_641_6178)"/>
<path d="M340.62 113.8L339.544 113.181L339 113.942L339.544 115.334L340.62 115.953L341.164 115.192L340.62 113.8Z" fill="white"/>
<path d="M340.25 114.128L340.065 114.019C339.923 113.932 339.739 113.976 339.641 114.117C339.576 114.204 339.565 114.324 339.608 114.422L339.771 114.846C339.793 114.911 339.847 114.976 339.913 115.009L340.097 115.118C340.239 115.205 340.424 115.161 340.521 115.02C340.587 114.933 340.598 114.813 340.554 114.715L340.391 114.291C340.369 114.226 340.315 114.172 340.25 114.128Z" fill="#EC6161"/>
<path d="M386.94 87.3564L340.609 113.789L341.164 115.192L387.473 88.7482L386.94 87.3564Z" fill="url(#paint1_linear_641_6178)"/>
<path d="M390.234 86.1612C390.234 86.2917 390.158 86.4222 390.038 86.4875L389.103 86.9876L388.788 87.1724L388.94 86.6723L388.494 86.7267L388.82 86.4983C389.038 86.3896 389.484 86.1721 389.799 86.0199C389.973 85.9438 390.234 86.1069 390.234 86.1612Z" fill="#F18C8C"/>
</g>
<g clip-path="url(#clip0_641_6178)">
<path d="M337.668 126.664C337.668 127.237 337.658 127.831 337.629 128.414C337.59 129.552 337.522 130.69 337.425 131.818C337.386 132.217 337.357 132.596 337.318 132.995C337.298 133.179 337.279 133.354 337.259 133.529C337.259 133.617 337.25 133.695 337.24 133.782C337.172 134.541 337.075 135.29 336.968 136.038C336.919 136.35 336.861 136.661 336.803 136.972C336.696 137.575 336.56 138.158 336.395 138.742C336.142 139.714 335.812 140.658 335.355 141.572C335.258 141.776 335.151 141.98 335.044 142.184C334.743 142.739 334.393 143.264 334.014 143.779C333.353 144.693 332.605 145.539 331.808 146.327C331.75 146.376 331.692 146.434 331.643 146.483C331.215 146.901 330.768 147.309 330.302 147.708C329.418 148.467 328.475 149.167 327.474 149.809C326.969 150.13 326.454 150.441 325.929 150.732C324.909 151.316 323.85 151.822 322.742 152.269C322.188 152.483 321.625 152.697 321.071 152.872C319.944 153.251 318.797 153.543 317.65 153.767C317.067 153.874 316.475 153.971 315.892 154.029C315.561 154.078 315.231 154.097 314.901 154.126C314.045 154.214 313.2 154.233 312.364 154.224C311.762 154.224 311.179 154.204 310.596 154.165C309.44 154.097 308.283 153.951 307.137 153.757C306.767 153.699 306.398 153.621 306.019 153.553C305.815 153.514 305.601 153.465 305.407 153.436C304.27 153.183 303.143 152.882 302.035 152.512C301.472 152.337 300.918 152.133 300.383 151.929C299.295 151.501 298.226 151.015 297.186 150.48C296.662 150.207 296.147 149.916 295.641 149.604C294.621 149.001 293.649 148.35 292.736 147.611C292.27 147.241 291.803 146.852 291.356 146.444C290.472 145.656 289.656 144.791 288.898 143.867C288.519 143.4 288.14 142.904 287.809 142.408C287.139 141.436 286.556 140.405 286.06 139.325C286.051 139.306 286.041 139.286 286.022 139.267C285.779 138.713 285.545 138.149 285.341 137.575C284.982 136.534 284.7 135.465 284.476 134.385C284.467 134.288 284.438 134.21 284.428 134.113C284.428 134.074 284.418 134.055 284.418 134.016C284.311 133.461 284.234 132.888 284.166 132.323C284.049 131.157 284 129.97 284.02 128.803C284.049 128.2 284.068 127.626 284.117 127.033C284.204 125.886 284.36 124.719 284.564 123.571C284.671 122.997 284.778 122.433 284.914 121.86C285.05 121.296 285.176 120.732 285.322 120.177C285.468 119.613 285.623 119.059 285.788 118.514C285.963 117.96 286.148 117.415 286.323 116.861C286.566 116.151 286.828 115.451 287.09 114.761C287.236 114.381 287.392 113.992 287.557 113.623C287.809 113.039 288.072 112.475 288.392 111.931C288.49 111.775 288.567 111.629 288.665 111.503C288.752 111.357 288.839 111.23 288.937 111.085C289.228 110.705 289.539 110.346 289.869 110.005C290.2 109.665 290.559 109.354 290.919 109.042C291.385 108.653 291.861 108.294 292.367 107.953C292.571 107.807 292.775 107.671 292.979 107.535C293.717 107.039 294.475 106.553 295.233 106.076C295.729 105.775 296.215 105.473 296.71 105.182C297.167 104.919 297.624 104.657 298.08 104.404C298.615 104.092 299.159 103.801 299.713 103.519C300.238 103.256 300.762 102.994 301.306 102.75H301.316C302.093 102.4 302.9 102.099 303.726 101.866C304.056 101.759 304.396 101.671 304.737 101.603C305.339 101.457 305.932 101.35 306.544 101.282C307.691 101.117 308.866 101.058 310.042 101.029C310.586 101 311.169 101 311.752 101C311.772 101 311.801 101.01 311.82 101.01C312.296 101.01 312.782 101.019 313.258 101.049C313.88 101.068 314.492 101.107 315.114 101.156H315.182C315.765 101.204 316.348 101.263 316.922 101.331C318.097 101.477 319.254 101.681 320.391 101.963C320.974 102.109 321.566 102.274 322.14 102.468C323.286 102.867 324.414 103.353 325.453 103.976C325.988 104.287 326.522 104.647 327.018 105.026C327.377 105.298 327.708 105.59 328.038 105.892C328.611 106.426 329.136 107.01 329.632 107.632C330.011 108.089 330.37 108.556 330.72 109.033C330.914 109.295 331.099 109.548 331.293 109.811C331.76 110.462 332.236 111.094 332.692 111.756C333.033 112.232 333.353 112.699 333.674 113.195C334.325 114.177 334.927 115.188 335.442 116.239C335.714 116.774 335.967 117.338 336.181 117.902C336.608 119.039 336.939 120.206 337.172 121.373C337.279 121.957 337.376 122.56 337.444 123.163C337.6 124.32 337.658 125.477 337.668 126.664Z" fill="#F2C97C"/>
<path d="M335.462 116.249C335.413 116.278 335.365 116.307 335.316 116.327L333.995 116.978L332.625 117.649C332.217 117.854 331.77 117.883 331.391 117.785C331.002 117.688 330.642 117.465 330.438 117.114C330.234 116.764 330.215 116.346 330.322 115.947C330.419 115.549 330.672 115.169 331.051 114.926L332.314 114.1L333.558 113.273C333.596 113.244 333.635 113.225 333.684 113.205C334.335 114.178 334.937 115.199 335.462 116.249Z" fill="#E69F56"/>
<path d="M332.702 111.756C332.663 111.785 332.634 111.814 332.595 111.844L331.37 112.709L330.146 113.575C329.388 114.1 328.348 113.944 327.833 113.215C327.309 112.485 327.474 111.464 328.212 110.9L329.417 109.996L330.622 109.101C330.661 109.072 330.7 109.043 330.739 109.033C330.933 109.296 331.118 109.558 331.312 109.821C331.769 110.463 332.245 111.105 332.702 111.756Z" fill="#E69F56"/>
<path d="M329.641 107.632C329.602 107.661 329.563 107.7 329.524 107.729L328.378 108.692L327.221 109.664C326.502 110.257 325.521 110.209 325.025 109.732C324.783 109.46 324.646 109.149 324.666 108.75C324.685 108.351 324.792 107.943 325.074 107.573L326.901 105.191C326.94 105.142 326.979 105.094 327.017 105.055C327.367 105.327 327.707 105.609 328.038 105.92C328.621 106.436 329.145 107.019 329.641 107.632Z" fill="#E69F56"/>
<path d="M325.455 103.986C325.436 104.044 325.407 104.093 325.378 104.141L324.62 105.435L323.852 106.728C323.619 107.117 323.269 107.409 322.9 107.545C322.715 107.623 322.53 107.662 322.356 107.662C322.171 107.662 321.986 107.633 321.821 107.555C321.16 107.244 320.811 106.339 321.092 105.464L321.588 104.044L322.074 102.634C322.093 102.585 322.113 102.537 322.132 102.479C323.298 102.868 324.416 103.363 325.455 103.986Z" fill="#E69F56"/>
<path d="M320.392 101.972C320.392 102.021 320.373 102.069 320.363 102.118L319.984 103.577L319.615 105.025C319.498 105.463 319.226 105.833 318.896 106.066C318.565 106.299 318.177 106.397 317.778 106.329C316.991 106.183 316.408 105.356 316.525 104.442L316.719 102.944L316.913 101.457C316.923 101.408 316.923 101.369 316.933 101.33C318.099 101.476 319.265 101.68 320.392 101.972Z" fill="#E69F56"/>
<path d="M315.182 101.155C315.182 101.194 315.182 101.232 315.182 101.271L315.056 102.769L314.939 104.267C314.852 105.181 314.113 105.871 313.258 105.832C312.403 105.793 311.703 105.045 311.713 104.111L311.732 102.613L311.752 101.116C311.752 101.077 311.752 101.038 311.752 101.009C311.781 101.009 311.8 101.009 311.83 101.009C312.928 101.019 314.055 101.067 315.182 101.155Z" fill="#E69F56"/>
<path d="M310.023 101.127L310.053 102.614L310.082 104.131C310.082 105.036 309.421 105.824 308.605 105.872C308.187 105.882 307.818 105.755 307.526 105.483C307.225 105.221 307.001 104.832 306.933 104.365L306.72 102.858L306.525 101.389C306.516 101.34 306.516 101.302 306.516 101.263C307.672 101.107 308.848 101.039 310.023 101.02C310.023 101.049 310.023 101.088 310.023 101.127Z" fill="#E69F56"/>
<path d="M305.3 105.881C305.213 106.056 305.096 106.202 304.96 106.329C304.834 106.465 304.678 106.572 304.504 106.63C303.804 106.834 302.9 106.455 302.531 105.599L301.928 104.209L301.336 102.847C301.316 102.808 301.307 102.769 301.297 102.74C302.084 102.39 302.881 102.089 303.707 101.846C304.047 101.748 304.377 101.661 304.717 101.583C304.737 101.632 304.746 101.671 304.756 101.719L305.087 103.158L305.427 104.646C305.534 105.094 305.465 105.531 305.3 105.881Z" fill="#E69F56"/>
<path d="M300.508 108.498C299.75 108.936 298.759 108.663 298.283 107.866L297.506 106.563L296.748 105.279C296.728 105.25 296.709 105.211 296.699 105.172C297.156 104.9 297.613 104.637 298.069 104.385C298.604 104.083 299.138 103.782 299.692 103.509C299.712 103.538 299.731 103.577 299.75 103.607L300.431 104.939L301.111 106.281C301.519 107.088 301.257 108.08 300.508 108.498Z" fill="#E69F56"/>
<path d="M296.429 110.987C295.671 111.463 294.728 111.24 294.175 110.491L293.3 109.265L292.425 108.05C292.406 108.021 292.387 107.991 292.367 107.953C292.571 107.807 292.775 107.671 292.979 107.534C293.718 107.038 294.476 106.552 295.234 106.076C295.253 106.105 295.273 106.134 295.302 106.163L296.099 107.427L296.895 108.711C297.371 109.499 297.167 110.52 296.429 110.987Z" fill="#E69F56"/>
<path d="M293.426 112.601C293.465 112.99 293.329 113.321 293.164 113.554C292.969 113.788 292.629 113.865 292.279 113.885C291.91 113.895 291.473 113.797 291.084 113.564L289.792 112.786L288.509 112.008C288.47 111.979 288.422 111.95 288.383 111.921C288.548 111.629 288.733 111.347 288.937 111.074C289.5 110.306 290.18 109.645 290.919 109.042C290.948 109.071 290.987 109.1 291.006 109.139L291.978 110.287L292.95 111.434C293.241 111.784 293.397 112.212 293.426 112.601Z" fill="#E69F56"/>
<path d="M291.367 116.959C291.066 117.757 290.124 118.175 289.259 117.883L287.84 117.397L286.421 116.911C286.382 116.901 286.353 116.881 286.314 116.862C286.557 116.152 286.81 115.452 287.082 114.761C287.228 114.382 287.383 114.003 287.549 113.633C287.587 113.643 287.626 113.662 287.675 113.682L289.045 114.295L290.415 114.907C291.241 115.267 291.659 116.152 291.367 116.959Z" fill="#E69F56"/>
<path d="M289.918 121.393C289.685 122.21 288.84 122.716 287.926 122.521L286.469 122.2L285.001 121.879C284.963 121.87 284.933 121.86 284.895 121.85C285.147 120.722 285.439 119.604 285.779 118.505C285.818 118.515 285.847 118.524 285.886 118.534L287.324 118.972L288.762 119.409C289.636 119.691 290.132 120.576 289.918 121.393Z" fill="#E69F56"/>
<path d="M289.024 125.895C288.937 126.712 288.13 127.325 287.207 127.266L285.711 127.159L284.205 127.043C284.166 127.043 284.137 127.033 284.098 127.033C284.185 125.876 284.331 124.728 284.545 123.571C284.584 123.571 284.622 123.581 284.652 123.59L286.129 123.853L287.606 124.115C288.509 124.271 289.141 125.078 289.024 125.895Z" fill="#E69F56"/>
<path d="M288.821 130.349C288.85 130.748 288.675 131.127 288.403 131.419C288.14 131.71 287.742 131.924 287.285 131.983L285.789 132.148L284.302 132.313C284.254 132.323 284.205 132.323 284.156 132.323C284.03 131.156 283.991 129.979 284.011 128.793C284.049 128.793 284.088 128.793 284.127 128.793L285.624 128.822L287.13 128.851C288.063 128.871 288.782 129.552 288.821 130.349Z" fill="#E69F56"/>
<path d="M289.288 135.727C289.249 135.786 289.201 135.844 289.152 135.902C288.948 136.146 288.686 136.36 288.375 136.486C288.355 136.496 288.326 136.505 288.307 136.505L286.898 137.021L285.489 137.507C285.44 137.527 285.382 137.546 285.333 137.556C284.974 136.515 284.692 135.445 284.469 134.366C284.459 134.269 284.43 134.191 284.42 134.094C284.459 134.084 284.507 134.074 284.537 134.055C284.546 134.055 284.546 134.055 284.556 134.055L286.033 133.792L287.51 133.52C287.967 133.423 288.404 133.52 288.754 133.724C289.084 133.919 289.376 134.21 289.473 134.599C289.551 134.998 289.492 135.377 289.288 135.727Z" fill="#E69F56"/>
<path d="M291.135 139.606C291.028 140.005 290.785 140.365 290.406 140.628L289.152 141.474L287.918 142.31C287.87 142.349 287.831 142.368 287.792 142.397C287.121 141.425 286.538 140.394 286.043 139.315C286.033 139.295 286.023 139.276 286.004 139.256C286.052 139.237 286.101 139.208 286.15 139.198L287.51 138.576L288.88 137.953C289.716 137.584 290.678 137.817 291.037 138.488C291.241 138.829 291.251 139.227 291.135 139.606Z" fill="#E69F56"/>
<path d="M336.394 138.742C336.141 139.714 335.811 140.658 335.354 141.572C335.257 141.776 335.15 141.98 335.043 142.184C334.975 142.165 334.898 142.126 334.839 142.087L333.547 141.358L332.216 140.628C331.817 140.405 331.535 140.055 331.38 139.704C331.244 139.374 331.176 138.985 331.331 138.674C331.419 138.45 331.574 138.256 331.788 138.119C331.885 138.051 331.992 137.983 332.099 137.944C332.274 137.876 332.478 137.808 332.702 137.808C332.915 137.789 333.129 137.798 333.362 137.867L334.81 138.275L336.248 138.683C336.277 138.713 336.345 138.722 336.394 138.742Z" fill="#E69F56"/>
<path d="M337.271 133.53C337.271 133.618 337.261 133.696 337.251 133.783C337.183 134.542 337.086 135.29 336.979 136.039C336.931 136.35 336.872 136.662 336.814 136.973C336.765 136.973 336.717 136.963 336.668 136.953L335.463 136.71L335.201 136.662L333.724 136.36C333.559 136.341 333.403 136.273 333.258 136.204C332.626 135.893 332.237 135.261 332.325 134.571C332.441 133.744 333.258 133.093 334.171 133.19L337.164 133.501C337.193 133.511 337.232 133.52 337.271 133.53Z" fill="#E69F56"/>
<path d="M337.638 128.414C337.609 129.552 337.522 130.69 337.425 131.828C337.386 131.828 337.337 131.828 337.298 131.828L335.802 131.701L334.305 131.575C333.382 131.497 332.722 130.699 332.77 129.834C332.838 128.959 333.586 128.297 334.509 128.327L336.016 128.375L337.502 128.424C337.561 128.404 337.599 128.414 337.638 128.414Z" fill="#E69F56"/>
<path d="M337.667 126.663C337.618 126.673 337.579 126.673 337.531 126.673L336.034 126.692L334.528 126.702C333.595 126.712 332.866 126.021 332.808 125.214C332.779 124.806 332.934 124.417 333.216 124.115C333.498 123.814 333.867 123.6 334.334 123.541L335.83 123.357L337.317 123.182C337.365 123.172 337.414 123.172 337.453 123.172C337.599 124.31 337.657 125.486 337.667 126.663Z" fill="#E69F56"/>
<path d="M337.191 121.383C337.143 121.393 337.094 121.412 337.046 121.412L335.578 121.704L334.092 121.996C333.188 122.161 332.313 121.684 332.138 120.955C331.895 120.255 332.41 119.389 333.256 119.049L334.665 118.504L336.064 117.96C336.113 117.94 336.152 117.921 336.2 117.911C336.637 119.039 336.958 120.206 337.191 121.383Z" fill="#E69F56"/>
<path d="M313.483 146.569C313.094 146.589 312.695 146.598 312.278 146.589H312.229C311.811 146.589 311.393 146.569 310.995 146.55H310.946C310.091 146.491 309.217 146.394 308.352 146.248L308.235 146.229C307.973 146.19 307.701 146.141 307.448 146.083L306.972 145.986C306.098 145.791 305.252 145.558 304.465 145.295C304.038 145.159 303.629 145.013 303.182 144.838C302.327 144.498 301.55 144.148 300.831 143.768L300.763 143.729C300.413 143.554 300.063 143.36 299.684 143.127C298.917 142.669 298.217 142.193 297.566 141.678C297.206 141.386 296.886 141.123 296.623 140.88L296.585 140.851C295.972 140.297 295.409 139.713 294.913 139.1C294.641 138.77 294.408 138.449 294.184 138.128C293.747 137.496 293.388 136.854 293.077 136.212L293.038 136.144L292.98 136.018C292.814 135.658 292.669 135.288 292.542 134.919C292.29 134.189 292.076 133.402 291.93 132.595C291.852 132.186 291.794 131.778 291.746 131.35C291.658 130.552 291.629 129.687 291.648 128.812C291.658 128.374 291.677 127.956 291.716 127.538L291.746 127.158V127.158C291.814 126.39 291.92 125.622 292.056 124.863C292.144 124.348 292.231 123.93 292.319 123.551L292.329 123.492C292.523 122.607 292.756 121.713 293.028 120.828C293.164 120.371 293.31 119.923 293.456 119.486C293.669 118.863 293.874 118.299 294.078 117.764C294.194 117.473 294.291 117.21 294.408 116.947L294.447 116.85C294.602 116.481 294.738 116.199 294.874 115.965L294.904 115.907C294.962 115.81 295.01 115.732 295.059 115.664C295.273 115.372 295.564 115.08 295.953 114.759C295.953 114.759 296.06 114.672 296.089 114.643L297.061 113.933C297.177 113.845 297.294 113.767 297.411 113.69C298.071 113.242 298.722 112.824 299.354 112.425C299.772 112.163 300.19 111.91 300.607 111.667C300.977 111.443 301.365 111.22 301.754 111.006C302.172 110.772 302.609 110.529 303.027 110.315C303.435 110.101 303.746 109.946 304.018 109.829L304.222 109.741C304.786 109.489 305.291 109.304 305.767 109.168C305.952 109.109 306.166 109.061 306.379 109.012C306.758 108.925 307.118 108.856 307.536 108.808C308.06 108.74 308.585 108.691 309.178 108.662C309.499 108.642 309.809 108.633 310.13 108.633C310.626 108.623 311.092 108.623 311.549 108.623C311.588 108.623 311.636 108.623 311.675 108.623C312.647 108.633 313.531 108.672 314.367 108.74C314.862 108.779 315.309 108.827 315.737 108.876C316.631 108.983 317.486 109.148 318.263 109.343C318.662 109.44 319.05 109.557 319.478 109.693C320.207 109.936 320.887 110.247 321.46 110.587L321.509 110.617C321.8 110.782 322.072 110.967 322.325 111.161L322.393 111.21C322.558 111.336 322.723 111.472 322.889 111.638C323.19 111.92 323.511 112.26 323.841 112.678C324.132 113.038 324.434 113.427 324.706 113.806L325.221 114.507L325.192 114.468L325.464 114.847C325.784 115.294 326.115 115.742 326.435 116.189C326.707 116.568 326.97 116.957 327.232 117.356C327.776 118.173 328.194 118.892 328.544 119.602C328.729 119.982 328.884 120.312 329.01 120.653C329.282 121.363 329.496 122.121 329.652 122.928C329.729 123.356 329.797 123.765 329.836 124.154C329.933 124.961 329.982 125.846 329.992 126.779C329.992 127.197 329.982 127.664 329.972 128.15C329.943 129.016 329.895 129.911 329.797 131.009L329.681 132.264L329.652 132.556L329.661 132.497C329.574 133.334 329.467 134.316 329.292 135.211C329.205 135.668 329.127 136.047 329.02 136.397L329.001 136.455C328.845 137.039 328.661 137.564 328.427 138.04C328.379 138.138 328.34 138.216 328.301 138.284L328.243 138.391C328.097 138.663 327.922 138.935 327.708 139.227L327.669 139.276C327.29 139.801 326.824 140.336 326.231 140.929L326.066 141.084C325.813 141.327 325.503 141.609 325.153 141.921C324.521 142.456 323.851 142.961 323.151 143.409C322.762 143.661 322.412 143.875 322.072 144.05L322.004 144.089C321.266 144.507 320.498 144.867 319.731 145.178L319.672 145.208C319.313 145.354 318.934 145.49 318.565 145.606L318.487 145.636C317.69 145.898 316.874 146.112 316.048 146.268C315.591 146.355 315.183 146.414 314.804 146.462C314.542 146.491 314.318 146.52 314.104 146.53C313.891 146.55 313.687 146.559 313.483 146.569Z" fill="#FDDA99"/>
<path d="M328.01 126.633C327.951 125.466 327.66 124.211 327.291 123.122C326.776 121.605 326.115 120.088 325.162 118.794C323.783 116.957 322.189 115.294 320.304 113.981C319.983 113.738 319.643 113.514 319.313 113.31C317.632 112.221 315.863 111.345 313.939 110.733C312.239 110.208 310.49 110.013 308.712 109.877C308.624 109.877 308.546 109.867 308.459 109.857C308.712 110.985 308.935 112.084 309.129 113.222C309.236 113.932 309.353 114.623 309.479 115.332C309.518 115.556 309.547 115.78 309.586 116.003C309.606 116.198 310.344 116.208 310.509 116.217C311.792 116.373 313.123 116.713 314.279 117.248C315.251 117.696 316.145 118.23 316.981 118.843C316.922 118.892 316.874 118.95 316.816 118.999C316.573 119.203 316.32 119.397 316.087 119.572C313.959 117.939 311.17 117.18 308.42 117.734C306.117 118.23 304.047 119.504 302.6 121.381C302.531 121.479 302.473 121.586 302.395 121.683C302.201 121.663 302.016 121.634 301.812 121.624C301.57 121.615 301.336 121.605 301.093 121.586C300.957 121.576 300.986 121.722 300.948 121.838C300.88 122.101 300.802 122.354 300.734 122.616C300.54 123.307 300.384 124.056 300.384 124.775C300.384 125.193 300.345 125.602 300.384 126.01C300.394 126.283 300.403 126.565 300.403 126.827C300.403 127.022 300.608 126.983 300.773 127.022C300.986 127.07 301.191 127.119 301.395 127.168C301.365 127.469 301.395 127.8 301.404 127.877C301.463 128.198 301.501 128.5 301.453 128.821C301.385 129.472 300.88 130.143 300.588 130.717C300.19 131.476 299.714 132.322 299.675 133.197C299.655 133.771 299.966 134.228 300.51 134.393C300.928 134.529 301.404 134.412 301.822 134.51C301.803 136.202 301.696 137.845 301.54 139.518C301.54 139.557 301.531 139.606 301.531 139.635C301.511 139.771 301.511 139.878 301.511 139.995C301.511 140.811 301.832 141.482 302.58 141.998C303.562 142.679 304.864 142.708 306.02 142.572C306.477 142.523 306.953 142.484 307.419 142.426C307.458 143.311 307.526 144.487 307.614 145.363L308.644 145.265C308.556 144.38 308.478 143.106 308.439 142.231C309.411 142.027 310.509 141.764 311.17 141.103C311.267 141.016 311.345 140.918 311.413 140.811C311.811 140.306 311.996 139.674 312.19 139.061C312.482 138.147 312.754 137.242 313.006 136.319C313.006 136.309 313.016 136.299 313.016 136.28C313.395 136.844 313.842 137.359 314.367 137.797C315.3 138.575 316.242 139.207 317.36 139.703C317.369 139.703 317.379 139.703 317.379 139.703C317.476 139.956 317.583 140.228 317.671 140.52C317.71 140.617 317.739 140.714 317.778 140.821C317.816 140.938 317.865 141.064 317.894 141.181C318.147 141.949 318.409 142.737 318.662 143.281L319.585 142.834C319.371 142.358 319.118 141.599 318.876 140.86C318.866 140.821 318.856 140.802 318.837 140.763C318.788 140.617 318.74 140.461 318.691 140.335C318.672 140.247 318.642 140.179 318.623 140.111C318.798 140.16 319.002 140.199 319.187 140.247C319.459 140.306 319.74 140.354 320.012 140.413C319.964 140.306 319.925 140.199 319.896 140.082C319.449 138.847 319.021 137.622 318.846 136.309C318.574 134.276 318.788 132.341 319.303 130.338C319.731 128.811 319.876 127.274 319.672 125.689C319.507 124.396 319.06 123.18 318.399 122.13C318.555 122.023 318.691 121.916 318.769 121.858C319.021 121.663 319.255 121.479 319.497 121.274C319.808 121.644 320.1 122.033 320.372 122.451C321.625 124.377 322.218 126.565 322.529 128.83V128.869C322.587 129.074 323.501 129.229 323.715 129.297C324.278 129.463 324.842 129.638 325.415 129.803C326.27 130.046 327.116 130.279 327.961 130.513C328.019 129.19 328.068 127.936 328.01 126.633ZM301.084 126.428C300.948 125.485 301.025 124.843 301.171 123.851C301.327 123.423 301.395 123.005 301.599 122.597C303.085 122.928 304.679 122.928 306.175 123.18C306.185 123.18 309.703 123.287 309.984 127.809C307.254 127.284 306.69 127.333 305.077 127.022C303.581 126.74 302.551 126.555 301.084 126.428ZM312.734 136.007C312.443 136.562 312.171 137.126 311.918 137.69C311.578 138.419 311.296 139.246 310.859 139.917C310.587 140.325 310.198 140.568 309.761 140.704C309.586 140.772 309.392 140.821 309.197 140.87C308.993 140.918 308.789 140.977 308.585 141.025C308.158 141.142 307.73 141.249 307.303 141.337C306.739 141.424 306.175 141.531 305.612 141.599C304.63 141.891 303.124 141.657 302.376 140.918C302.133 140.627 302.026 140.383 301.997 140.092C301.978 139.936 301.958 139.781 301.958 139.586V139.44C301.948 138.633 302.007 137.845 302.075 137.058C302.143 136.192 302.289 135.346 302.434 134.49C302.473 134.315 302.57 134.14 302.415 134.043C302.201 133.907 301.997 133.829 301.754 133.771C301.433 133.683 300.948 133.712 300.666 133.498C300.345 133.275 300.831 132.292 300.928 132.049C301.229 131.31 301.579 130.561 301.842 129.793C301.997 129.326 302.094 128.86 301.997 128.364C301.9 127.946 301.706 127.586 301.638 127.187C302.872 127.45 304.057 127.683 305.33 127.809C306.564 127.965 307.818 128.218 309.061 128.266C308.877 128.519 308.702 128.782 308.498 129.025C307.779 129.881 307.011 130.659 306.127 131.31C305.417 131.826 304.698 132.244 304.621 133.216C304.621 133.975 305.136 134.665 305.505 135.317C305.796 135.842 306.107 136.357 306.739 136.542C307.711 136.892 308.488 136.192 309.217 135.667C310.13 135.015 310.917 134.257 311.656 133.43C311.928 134.296 312.287 135.142 312.773 135.92C312.754 135.968 312.744 135.988 312.734 136.007ZM319.157 130.309C318.681 132.02 318.38 133.761 318.341 135.56C318.312 136.795 318.516 138.001 318.798 139.207C318.584 139.119 318.38 139.032 318.166 138.935C318.147 138.886 318.118 138.828 318.108 138.779L317.972 138.837C316.437 138.108 315.066 137.048 314.143 135.589C313.123 134.033 312.764 132.331 312.355 130.552C311.131 131.981 309.946 133.479 308.43 134.617C308.138 134.831 307.672 135.356 307.283 135.375C306.914 135.385 306.768 135.054 306.613 134.792C306.409 134.442 306.205 134.111 306 133.761C305.855 133.537 305.69 133.236 305.894 132.983C305.913 132.944 306.049 132.827 306.049 132.827C307.011 132.098 307.992 131.271 308.721 130.299C309.178 129.715 309.586 128.918 309.955 128.305C309.955 128.296 309.946 128.296 309.946 128.296H310.169C310.451 128.247 310.519 127.041 310.48 126.798C309.984 123.871 308.537 122.655 306.253 122.276C305.223 122.111 304.174 121.906 303.115 121.77C303.766 121.06 304.475 120.467 305.32 119.961C307.176 118.863 309.606 118.396 311.724 118.833C313.9 119.29 315.99 120.282 317.457 122.013C319.478 124.367 319.964 127.352 319.157 130.309ZM318.059 121.624C317.661 121.09 317.224 120.584 316.728 120.127C316.874 119.854 317 119.572 317.175 119.32C317.224 119.252 317.272 119.183 317.321 119.115C317.826 119.514 318.302 119.932 318.749 120.399C318.477 120.798 318.254 121.197 318.059 121.624ZM322.655 128.801C322.724 126.856 322.549 124.872 321.742 123.073C320.819 121.021 319.536 119.222 317.787 117.793C316.505 116.752 314.969 115.945 313.395 115.459C312.501 115.187 311.607 115.05 310.694 114.934C310.441 113.64 310.189 112.337 309.868 111.054C311.277 111.112 312.657 111.209 314.046 111.52C315.854 111.929 317.564 112.658 319.099 113.64C321.062 114.924 322.743 116.636 323.977 118.688C325.211 120.749 326.28 123.054 326.717 125.427C326.97 126.788 327.077 128.111 327.145 129.492C325.668 129.219 324.171 128.976 322.655 128.801Z" fill="#E69F56"/>
<path d="M297.711 138.283C297.478 138.439 297.264 138.624 297.05 138.799C297.011 138.828 296.972 138.847 296.933 138.877C297.118 138.585 297.254 138.235 297.293 137.943C297.332 137.612 296.836 137.486 296.778 137.826C296.729 138.079 296.652 138.313 296.545 138.546C296.448 138.76 296.37 138.954 296.409 139.178C296.409 139.207 296.438 139.217 296.457 139.236C296.409 139.324 296.428 139.46 296.545 139.48C296.963 139.528 297.38 139.129 297.691 138.896C297.905 138.731 298.129 138.565 298.372 138.439C298.478 138.381 298.605 138.254 298.556 138.118C298.43 137.768 297.856 138.186 297.711 138.283Z" fill="#E69F56"/>
<path d="M295.496 137.749C295.448 137.779 295.448 137.856 295.506 137.886C295.681 137.983 296.021 138.012 296.176 137.886C296.244 137.827 296.244 137.73 296.167 137.691C295.992 137.574 295.661 137.633 295.496 137.749Z" fill="#E69F56"/>
<path d="M297.245 136.698C297.527 136.562 297.294 136.056 297.003 136.192C296.692 136.338 296.4 136.523 296.109 136.718C295.846 136.893 295.526 137.068 295.341 137.34C295.283 137.418 295.302 137.544 295.409 137.564C296.07 137.671 296.692 136.97 297.245 136.698Z" fill="#E69F56"/>
<path d="M296.672 135.6C296.76 135.551 296.769 135.454 296.75 135.376C296.73 135.298 296.682 135.259 296.604 135.25C296.546 135.24 296.507 135.25 296.449 135.279C296.245 135.376 296.021 135.405 295.807 135.435C295.321 135.503 294.359 135.328 294.078 135.814C294.058 135.843 294.068 135.882 294.078 135.911C294.35 136.29 294.981 136.125 295.36 136.018C295.798 135.872 296.283 135.804 296.672 135.6Z" fill="#E69F56"/>
<path d="M294.845 134.609C294.826 134.677 294.836 134.755 294.884 134.823C294.982 134.969 295.079 135.144 295.215 135.251C295.37 135.367 295.565 135.27 295.574 135.076C295.584 134.871 295.458 134.677 295.341 134.512C295.263 134.405 295.156 134.375 295.05 134.395C295.273 134.191 295.506 133.986 295.72 133.772C295.807 133.685 295.798 133.558 295.749 133.461C295.73 133.422 295.691 133.393 295.652 133.374C295.545 133.306 295.429 133.354 295.341 133.432C295.069 133.665 294.807 133.909 294.544 134.161C294.301 134.395 293.99 134.618 293.913 134.959C293.893 135.066 293.99 135.124 294.078 135.114C294.399 135.066 294.622 134.803 294.845 134.609Z" fill="#E69F56"/>
<path d="M294.359 132.371C294.456 132.264 294.456 132.137 294.407 132.05C294.757 132.215 295.117 132.39 295.476 132.478C295.544 132.497 295.612 132.41 295.564 132.351C295.291 131.992 294.806 131.758 294.407 131.564C294.067 131.398 293.542 131 293.163 131.136C293.095 131.145 293.037 131.243 293.066 131.311C293.222 131.661 293.688 131.739 294.028 131.875C293.98 131.885 293.941 131.914 293.902 131.953C293.727 132.118 293.523 132.264 293.387 132.468C293.27 132.643 293.154 132.886 293.115 133.1C293.076 133.285 293.241 133.421 293.416 133.372C293.669 133.304 293.746 133.081 293.863 132.876C293.98 132.672 294.213 132.536 294.359 132.371Z" fill="#E69F56"/>
<path d="M294.932 130.766C294.854 130.893 294.757 131.029 294.65 131.116C294.494 131.243 294.601 131.535 294.815 131.447C295.048 131.35 295.252 131.291 295.437 131.116C295.738 130.805 295.165 130.368 294.932 130.766Z" fill="#E69F56"/>
<path d="M293.864 130.105C294.272 130.056 294.719 130.105 295.108 129.939C295.439 129.803 295.283 129.307 294.933 129.405C294.234 129.599 293.456 129.288 292.757 129.482C292.485 129.56 292.514 129.91 292.718 130.037C293.048 130.26 293.495 130.153 293.864 130.105Z" fill="#E69F56"/>
<path d="M294.728 127.985C294.154 127.985 293.62 127.82 293.047 127.858C292.804 127.878 292.765 128.247 293.008 128.286C293.591 128.384 294.154 128.539 294.757 128.539C294.883 128.539 294.99 128.442 295.009 128.325C295.019 128.267 295.019 128.228 295 128.179C294.961 128.053 294.854 127.985 294.728 127.985Z" fill="#E69F56"/>
<path d="M293.913 127.266C294.03 127.071 293.758 126.809 293.573 126.964C293.427 127.081 293.311 127.207 293.155 127.314C293.038 127.402 292.834 127.519 292.815 127.674C292.805 127.723 292.825 127.762 292.864 127.781C293.165 127.995 293.777 127.499 293.913 127.266Z" fill="#E69F56"/>
<path d="M295.311 126.098C295.019 125.593 294.184 125.612 293.688 125.544C293.319 125.495 293.183 126.05 293.562 126.128C293.805 126.176 294.048 126.225 294.281 126.283C294.524 126.351 294.767 126.468 295.019 126.517C295.262 126.565 295.427 126.303 295.311 126.098Z" fill="#E69F56"/>
<path d="M294.106 125.184C294.524 125.213 294.981 125.233 295.36 125.019C295.632 124.863 295.885 124.63 295.904 124.299C295.924 124.017 295.787 123.667 295.457 123.715C295.389 123.725 295.35 123.764 295.331 123.822C295.272 123.988 295.36 124.075 295.379 124.241C295.409 124.474 294.981 124.62 294.816 124.649C294.32 124.737 293.621 124.192 293.203 124.532C293.135 124.581 293.096 124.669 293.125 124.756C293.261 125.126 293.747 125.155 294.106 125.184Z" fill="#E69F56"/>
<path d="M294.66 123.56C294.854 123.482 294.873 123.23 294.699 123.123C294.436 122.957 294.067 123.055 293.766 122.957C293.591 122.899 293.503 123.171 293.659 123.249C293.95 123.414 294.31 123.696 294.66 123.56Z" fill="#E69F56"/>
<path d="M294.719 122.354C295.351 122.704 296.021 122.062 296.177 121.479C296.245 121.216 295.885 121.041 295.72 121.236C295.535 121.45 295.419 121.946 295.059 121.858C294.544 121.742 294.7 121.178 294.826 120.837C294.933 120.555 294.515 120.331 294.408 120.613C294.291 120.915 294.185 121.216 294.175 121.547C294.155 121.917 294.427 122.189 294.719 122.354Z" fill="#E69F56"/>
<path d="M296.381 122.869C296.799 122.743 297.042 122.461 297.071 122.023C297.1 121.634 296.964 121.061 296.556 120.905C296.274 120.798 296.05 121.051 296.177 121.323C296.293 121.557 296.459 121.693 296.478 121.975C296.497 122.228 296.429 122.597 296.323 122.821C296.323 122.85 296.352 122.879 296.381 122.869Z" fill="#E69F56"/>
<path d="M298.936 118.533C298.897 118.378 298.722 118.319 298.576 118.348C298.343 118.397 298.226 118.689 298.061 118.844C297.954 118.942 297.779 119.214 297.945 119.35C297.634 118.99 297.323 118.65 296.983 118.309C296.72 118.047 296.409 117.522 296.03 117.463C295.923 117.444 295.836 117.522 295.836 117.629C295.846 118.018 296.361 118.436 296.604 118.718C296.953 119.126 297.293 119.418 297.779 119.622C297.945 119.7 298.071 119.506 297.954 119.369C297.954 119.36 297.945 119.36 297.935 119.35C298.149 119.506 298.401 119.379 298.576 119.224C298.79 119.039 299.013 118.825 298.936 118.533Z" fill="#E69F56"/>
<path d="M299.88 117.667C300.113 117.395 299.715 117.074 299.501 117.356C299.219 117.726 298.675 117.395 298.422 117.162C298.102 116.87 298.005 116.588 298.053 116.17C298.063 116.053 297.927 115.975 297.83 116.024C296.838 116.549 298.85 118.883 299.88 117.667Z" fill="#E69F56"/>
<path d="M298.528 116.15C298.975 116.295 299.471 116.48 299.587 116.976C299.616 117.093 299.704 117.151 299.82 117.171C299.869 117.18 299.908 117.161 299.947 117.141C300.044 117.093 300.102 116.966 300.073 116.869C299.888 116.188 299.296 115.897 298.645 115.751C298.392 115.692 298.266 116.062 298.528 116.15Z" fill="#E69F56"/>
<path d="M300.929 116.607C300.997 116.597 301.056 116.51 301.036 116.442C300.92 116.091 300.521 115.761 300.298 115.469C300.006 115.08 299.666 114.555 299.219 114.341C299.151 114.312 299.044 114.351 299.073 114.448C299.238 114.954 299.656 115.352 299.977 115.771C300.22 116.091 300.463 116.656 300.929 116.607Z" fill="#E69F56"/>
<path d="M299.743 114.321C299.937 114.253 300.044 114.156 300.238 114.272C300.442 114.399 300.442 114.574 300.452 114.788C300.471 115.021 300.773 115.167 300.918 114.933C301.132 114.574 300.85 114.049 300.568 113.815C300.209 113.514 299.548 113.533 299.48 114.097C299.461 114.224 299.616 114.369 299.743 114.321Z" fill="#E69F56"/>
<path d="M301.171 115.313C300.987 115.284 300.822 115.546 301.026 115.634C301.22 115.721 301.443 115.809 301.667 115.789C301.881 115.77 301.978 115.449 301.735 115.391C301.55 115.361 301.356 115.342 301.171 115.313Z" fill="#E69F56"/>
<path d="M302.425 114.954C302.493 114.954 302.541 114.915 302.541 114.847C302.57 114.526 302.201 114.283 302.016 114.05C301.744 113.71 301.531 113.262 301.191 112.99C301.103 112.922 300.967 113.019 300.996 113.126C301.142 113.535 301.453 113.914 301.696 114.274C301.88 114.526 302.075 114.983 302.425 114.954Z" fill="#E69F56"/>
<path d="M302.852 115.1C303.017 115.081 303.144 114.984 303.28 114.896C303.416 114.799 303.561 114.711 303.688 114.595C303.921 114.381 303.639 113.953 303.357 114.128C303.095 114.303 302.745 114.536 302.619 114.838C302.541 114.993 302.716 115.12 302.852 115.1Z" fill="#E69F56"/>
<path d="M302.367 113.865C302.445 113.845 302.503 113.826 302.571 113.787C302.843 113.621 302.629 113.213 302.338 113.349C302.26 113.378 302.221 113.417 302.163 113.476C301.998 113.631 302.143 113.913 302.367 113.865Z" fill="#E69F56"/>
<path d="M303.95 113.971C304.018 114.069 304.106 114.117 304.232 114.098C304.252 114.098 304.271 114.088 304.29 114.088C304.368 114.078 304.417 114.001 304.427 113.933C304.465 113.641 304.125 113.407 303.999 113.155C303.824 112.795 303.707 112.406 303.513 112.056C303.406 111.861 303.124 112.017 303.212 112.211C303.455 112.785 303.581 113.446 303.95 113.971Z" fill="#E69F56"/>
<path d="M304.339 112.396C304.427 112.426 304.563 112.387 304.602 112.299C304.621 112.26 304.631 112.231 304.64 112.192C304.65 112.085 304.572 111.998 304.475 111.959C304.252 111.881 304.038 111.764 303.814 111.667C303.649 111.599 303.504 111.842 303.63 111.959C303.844 112.153 304.067 112.299 304.339 112.396Z" fill="#E69F56"/>
<path d="M305.923 113.175C306.069 113.263 306.205 113.078 306.108 112.951C305.719 112.455 305.884 111.658 305.651 111.094C305.515 110.744 305.019 110.977 305.068 111.308C305.116 111.668 305.233 112.018 305.379 112.348C305.524 112.65 305.622 112.99 305.923 113.175Z" fill="#E69F56"/>
<path d="M307.663 112.086C308.188 111.813 307.76 110.996 307.235 111.269C306.711 111.551 307.138 112.368 307.663 112.086Z" fill="#E69F56"/>
<path d="M298.965 140.063C298.372 140.374 298.858 141.289 299.441 140.977C300.034 140.666 299.558 139.752 298.965 140.063Z" fill="#E69F56"/>
<path d="M321.139 136.699C321.489 136.358 321.751 135.95 322.013 135.541C322.256 136.125 322.519 136.747 322.966 137.107C323.063 137.185 323.267 137.146 323.247 136.99C323.189 136.271 322.693 135.59 322.402 134.938V134.929C322.742 134.384 323.257 133.713 323.247 133.062C323.247 132.925 323.072 132.789 322.946 132.887C322.538 133.198 322.315 133.733 322.072 134.209C321.829 133.713 321.566 133.246 321.187 132.809C321.1 132.702 320.935 132.818 320.964 132.935C321.148 133.616 321.411 134.209 321.712 134.841C321.382 135.376 321.042 135.911 320.828 136.504C320.76 136.699 321.012 136.815 321.139 136.699Z" fill="#E69F56"/>
<path d="M326.697 131.7C325.832 131.389 324.87 131.554 323.966 131.515C322.898 131.476 321.955 131.311 320.906 131.602C320.789 131.632 320.808 131.816 320.935 131.816C322.859 131.739 324.783 132.351 326.707 132.03C326.882 132.001 326.843 131.758 326.697 131.7Z" fill="#E69F56"/>
<path d="M324.318 134.51C324.308 134.111 324.288 133.781 324.182 133.401C324.143 133.256 323.939 133.256 323.9 133.401C323.793 133.781 323.773 134.111 323.764 134.51C323.764 134.685 323.773 135.084 324.045 135.084C324.318 135.084 324.327 134.685 324.318 134.51Z" fill="#E69F56"/>
<path d="M324.968 136.902C325.25 136.348 325.172 135.647 325.211 135.035C325.259 134.335 325.327 133.605 325.182 132.905C325.152 132.769 324.929 132.759 324.9 132.905C324.764 133.605 324.754 134.325 324.676 135.035C324.608 135.647 324.463 136.338 324.725 136.902C324.773 136.99 324.929 136.99 324.968 136.902Z" fill="#E69F56"/>
<path d="M325.978 133.772C325.716 134.151 325.774 134.676 325.735 135.123C325.687 135.639 325.521 136.242 325.813 136.708C325.871 136.796 325.988 136.796 326.046 136.708C326.308 136.31 326.25 135.794 326.279 135.337C326.318 134.841 326.474 134.209 326.182 133.772C326.134 133.684 326.027 133.694 325.978 133.772Z" fill="#E69F56"/>
<path d="M325.872 137.74C325.561 137.672 325.211 137.71 324.891 137.701C324.725 137.701 324.57 137.681 324.414 137.672C323.977 137.526 323.452 137.574 322.996 137.565C322.335 137.535 321.655 137.691 321.052 137.934C320.945 137.983 320.916 138.148 321.052 138.187C321.684 138.352 322.354 138.167 322.996 138.187C323.326 138.197 323.657 138.265 323.977 138.255C324.191 138.381 324.473 138.401 324.716 138.43C325.075 138.469 325.512 138.537 325.862 138.459C326.222 138.372 326.222 137.827 325.872 137.74Z" fill="#E69F56"/>
<path d="M332.061 123.795C332.012 123.367 331.944 122.91 331.847 122.433C331.682 121.539 331.429 120.673 331.118 119.866C330.972 119.487 330.807 119.098 330.594 118.68C330.195 117.892 329.719 117.075 329.136 116.19C328.864 115.743 328.563 115.325 328.271 114.906C327.941 114.44 327.601 113.983 327.222 113.448L326.95 113.078L326.386 112.32C326.085 111.901 325.764 111.464 325.443 111.075C325.065 110.608 324.705 110.219 324.355 109.898C324.151 109.704 323.957 109.538 323.694 109.344C323.413 109.12 323.082 108.896 322.703 108.673C322.043 108.294 321.265 107.934 320.439 107.652C319.963 107.486 319.526 107.36 319.089 107.253C318.214 107.039 317.281 106.854 316.271 106.738C315.804 106.679 315.309 106.631 314.774 106.582C313.851 106.514 312.879 106.475 311.801 106.446H311.023C310.722 106.446 310.421 106.446 310.129 106.456C309.77 106.456 309.42 106.465 309.08 106.475C308.419 106.514 307.836 106.572 307.263 106.64C306.767 106.718 306.35 106.796 305.932 106.893C305.689 106.942 305.456 107.01 305.242 107.068C304.707 107.224 304.124 107.438 303.493 107.72L303.25 107.827C302.949 107.963 302.599 108.128 302.161 108.362C301.695 108.585 301.199 108.867 300.752 109.13C300.325 109.354 299.897 109.606 299.499 109.849C299.042 110.122 298.586 110.404 298.139 110.686C297.449 111.114 296.739 111.571 296.011 112.047C295.875 112.145 295.748 112.232 295.612 112.32L294.534 113.107L294.388 113.243C293.921 113.613 293.572 113.973 293.309 114.323C293.251 114.41 293.173 114.517 293.066 114.702C292.911 114.965 292.746 115.305 292.512 115.83C292.376 116.122 292.27 116.414 292.143 116.725C291.92 117.308 291.686 117.931 291.463 118.621C291.298 119.098 291.142 119.584 290.997 120.08C290.695 121.043 290.433 122.035 290.209 123.065C290.112 123.474 290.015 123.941 289.918 124.514C289.763 125.351 289.656 126.207 289.568 127.062L289.529 127.471C289.49 127.938 289.471 128.404 289.461 128.881C289.442 129.853 289.49 130.797 289.578 131.711C289.626 132.187 289.685 132.644 289.772 133.101C289.937 133.996 290.171 134.871 290.462 135.717C290.55 135.96 290.647 136.194 290.754 136.447C290.812 136.612 290.89 136.797 290.967 136.962L291.055 137.137C291.405 137.876 291.823 138.596 292.299 139.306C292.551 139.666 292.814 140.025 293.115 140.395C293.678 141.085 294.31 141.747 295.029 142.398C295.33 142.661 295.67 142.962 296.079 143.283C296.807 143.857 297.604 144.402 298.44 144.898C298.867 145.15 299.266 145.374 299.722 145.607C300.529 146.026 301.374 146.424 302.336 146.794C302.822 146.988 303.279 147.144 303.745 147.3C304.62 147.591 305.553 147.854 306.534 148.068L307.049 148.175C307.341 148.233 307.632 148.282 307.924 148.33L308.06 148.35C309.002 148.505 309.974 148.622 310.965 148.69C311.422 148.729 311.888 148.739 312.403 148.739H312.627C313.006 148.739 313.385 148.739 313.744 148.719C313.968 148.71 314.201 148.7 314.463 148.671C314.706 148.651 314.949 148.622 315.241 148.583C315.668 148.535 316.125 148.467 316.63 148.369C317.553 148.204 318.467 147.961 319.429 147.64C319.846 147.504 320.264 147.368 320.731 147.173C321.596 146.823 322.441 146.415 323.325 145.928C323.694 145.724 324.093 145.481 324.52 145.199C325.298 144.703 326.056 144.149 326.755 143.546C327.154 143.196 327.494 142.885 327.776 142.612L327.96 142.447C328.631 141.786 329.155 141.173 329.622 140.531C329.874 140.191 330.079 139.87 330.244 139.559L330.302 139.452C330.36 139.354 330.399 139.277 330.457 139.15C330.564 138.936 330.671 138.703 330.759 138.46C330.904 138.1 331.021 137.721 331.138 137.273C331.245 136.875 331.342 136.447 331.439 135.931C331.633 134.949 331.75 133.87 331.837 133.024L332.002 131.332C332.109 130.106 332.168 129.143 332.197 128.2C332.226 127.665 332.226 127.15 332.226 126.693C332.216 125.672 332.168 124.689 332.061 123.795ZM331.002 128.181C330.972 129.095 330.914 130.038 330.807 131.234L330.662 132.839C330.564 133.675 330.448 134.755 330.263 135.727C330.176 136.204 330.088 136.602 329.962 137.05C329.806 137.653 329.612 138.168 329.389 138.645C329.34 138.742 329.301 138.81 329.253 138.888L329.243 138.927L329.194 138.995C329.049 139.257 328.883 139.529 328.621 139.889C328.223 140.424 327.737 140.988 327.125 141.591L326.95 141.766C326.687 142.019 326.367 142.321 325.988 142.641C325.317 143.205 324.608 143.731 323.879 144.197C323.471 144.47 323.102 144.684 322.674 144.917C321.906 145.364 321.11 145.744 320.216 146.094C319.846 146.249 319.448 146.395 318.972 146.551C318.136 146.823 317.271 147.056 316.407 147.212C315.931 147.309 315.493 147.368 315.085 147.416C314.813 147.455 314.58 147.475 314.356 147.484C314.104 147.504 313.89 147.523 313.676 147.533C313.326 147.552 312.986 147.552 312.627 147.552H312.355C311.908 147.552 311.48 147.543 311.004 147.504C310.081 147.445 309.158 147.338 308.254 147.183L308.118 147.163C307.826 147.125 307.554 147.066 307.282 147.018L306.796 146.911C305.864 146.706 304.96 146.463 304.124 146.181C303.668 146.035 303.24 145.88 302.774 145.705C301.86 145.345 301.054 144.975 300.199 144.528C299.839 144.353 299.47 144.129 299.071 143.896C298.265 143.429 297.517 142.914 296.837 142.379C296.458 142.077 296.127 141.795 295.807 141.504C295.175 140.93 294.582 140.307 294.057 139.666C293.766 139.316 293.533 138.995 293.29 138.645C292.93 138.119 292.61 137.575 292.318 137.001C292.25 136.865 292.182 136.729 292.114 136.583L292.056 136.466C291.871 136.097 291.716 135.717 291.589 135.328C291.327 134.57 291.094 133.734 290.958 132.907C290.87 132.479 290.812 132.061 290.763 131.604C290.676 130.748 290.627 129.853 290.656 128.929C290.666 128.472 290.695 128.035 290.725 127.587L290.763 127.169C290.831 126.362 290.938 125.555 291.084 124.738C291.181 124.203 291.278 123.756 291.385 123.289C291.589 122.346 291.842 121.383 292.124 120.449C292.279 119.973 292.425 119.487 292.59 119.02C292.804 118.359 293.037 117.746 293.251 117.182C293.368 116.871 293.474 116.598 293.61 116.316L293.659 116.2C293.815 115.84 293.96 115.548 294.125 115.256C294.174 115.169 294.223 115.111 294.252 115.052C294.456 114.78 294.747 114.498 295.136 114.177L296.302 113.302C296.419 113.214 296.545 113.136 296.662 113.059C297.371 112.582 298.071 112.125 298.76 111.697C299.207 111.425 299.645 111.143 300.101 110.88C300.5 110.637 300.918 110.404 301.336 110.17C301.782 109.918 302.249 109.655 302.696 109.431C303.123 109.208 303.464 109.052 303.736 108.916L303.959 108.819C304.542 108.556 305.077 108.362 305.562 108.216C305.757 108.157 305.971 108.099 306.184 108.05C306.583 107.963 306.952 107.895 307.38 107.836C307.933 107.768 308.478 107.72 309.099 107.681C309.43 107.671 309.77 107.661 310.12 107.661C310.421 107.652 310.703 107.652 310.994 107.652H311.772C312.802 107.671 313.744 107.71 314.648 107.788C315.173 107.827 315.639 107.875 316.096 107.934C317.038 108.05 317.942 108.206 318.768 108.43C319.186 108.527 319.594 108.644 320.021 108.789C320.779 109.052 321.469 109.363 322.12 109.752C322.412 109.918 322.684 110.102 323.005 110.365C323.17 110.482 323.335 110.627 323.51 110.783C323.821 111.075 324.132 111.415 324.482 111.853C324.792 112.232 325.113 112.66 325.405 113.039L326.279 114.235C326.619 114.692 326.95 115.149 327.27 115.597C327.562 116.005 327.844 116.423 328.125 116.851C328.699 117.707 329.136 118.456 329.515 119.214C329.709 119.613 329.865 119.954 329.991 120.304C330.283 121.033 330.506 121.84 330.662 122.667C330.749 123.114 330.817 123.542 330.866 123.95C330.963 124.806 331.011 125.74 331.021 126.732C331.031 127.16 331.031 127.646 331.002 128.181Z" fill="#FDDA99"/>
<path opacity="0.1" d="M336.97 136.039C336.921 136.35 336.863 136.661 336.805 136.972C336.698 137.575 336.562 138.159 336.396 138.742C336.144 139.715 335.813 140.658 335.357 141.572C335.259 141.776 335.153 141.981 335.046 142.185C334.744 142.739 334.395 143.264 334.016 143.78C333.355 144.694 332.607 145.54 331.81 146.328C331.752 146.376 331.693 146.435 331.645 146.483C331.217 146.901 330.77 147.31 330.304 147.709C329.42 148.467 328.477 149.167 327.476 149.809C326.971 150.13 326.456 150.441 325.931 150.733C324.911 151.316 323.852 151.822 322.744 152.27C322.19 152.483 321.626 152.697 321.073 152.872C319.945 153.252 318.799 153.543 317.652 153.767C317.069 153.874 316.476 153.971 315.893 154.03C315.563 154.078 315.233 154.098 314.902 154.127C314.047 154.214 313.202 154.234 312.366 154.224C311.764 154.224 311.181 154.205 310.598 154.166C309.441 154.098 308.285 153.952 307.138 153.757C306.769 153.699 306.4 153.621 306.021 153.553C305.817 153.514 305.603 153.466 305.409 153.436C304.272 153.184 303.145 152.882 302.037 152.513C301.473 152.338 300.919 152.133 300.385 151.929C299.297 151.501 298.228 151.015 297.188 150.48C296.663 150.208 296.148 149.916 295.643 149.605C294.623 149.002 293.651 148.35 292.738 147.611C292.271 147.242 291.805 146.853 291.358 146.444C290.474 145.657 289.657 144.791 288.899 143.867C288.521 143.401 288.142 142.905 287.811 142.409C287.141 141.436 286.558 140.405 286.062 139.326C286.052 139.306 286.043 139.287 286.023 139.267C285.78 138.713 285.547 138.149 285.343 137.575C284.984 136.535 284.702 135.465 284.478 134.386C284.469 134.288 284.439 134.211 284.43 134.113C284.43 134.074 284.42 134.055 284.42 134.016C284.469 134.036 284.517 134.065 284.556 134.074C286.111 134.736 287.646 135.348 289.181 135.912C289.716 136.117 290.25 136.311 290.775 136.476C291.29 136.671 291.815 136.846 292.33 137.011C292.806 137.167 293.292 137.323 293.768 137.468C294.739 137.78 295.711 138.071 296.663 138.334C296.829 138.383 297.003 138.431 297.169 138.47C297.266 138.509 297.344 138.528 297.431 138.538C297.635 138.596 297.829 138.645 298.014 138.694C299.209 139.005 300.395 139.277 301.571 139.52C301.716 139.54 301.852 139.579 301.988 139.608C304.612 140.133 307.206 140.522 309.781 140.726C310.335 140.785 310.879 140.823 311.424 140.833C313.571 140.969 315.689 140.969 317.798 140.843C318.157 140.833 318.507 140.804 318.867 140.785C321.84 140.561 324.775 140.094 327.67 139.355C328.205 139.238 328.739 139.092 329.274 138.937C329.789 138.791 330.294 138.635 330.79 138.48C331.139 138.373 331.47 138.256 331.81 138.13C332.121 138.032 332.422 137.925 332.723 137.819C333.646 137.478 334.57 137.128 335.473 136.72C335.959 136.506 336.464 136.282 336.97 136.039Z" fill="#1D1D1B"/>
</g>
</g>
</g>
</g>
</svg>
