<svg width="411" height="140" viewBox="0 0 411 140" fill="none" xmlns="http://www.w3.org/2000/svg">
<g opacity="0.8">
<mask id="mask0_641_5994" style="mask-type:alpha" maskUnits="userSpaceOnUse" x="0" y="0" width="411" height="140">
<path d="M411 5C411 2.23857 408.761 0 406 0H4.99999C2.23857 0 0 2.23858 0 5V140H411V5Z" fill="#1B9C42"/>
</mask>
<g mask="url(#mask0_641_5994)">
<g style="mix-blend-mode:luminosity" opacity="0.7">
<path d="M269 112.182L274.665 115.453V121.727L269 118.456V112.182Z" fill="#3E85F4"/>
<path d="M274.664 115.452L292.216 105.319C296.128 103.063 302.477 103.063 306.389 105.319V111.593C302.477 109.338 296.128 109.338 292.216 111.593L274.664 121.726V115.452Z" fill="#1C6DF6"/>
<path d="M306.391 105.329L312.056 102.048V108.322L306.391 111.593V105.329Z" fill="#E7F0F4"/>
<path d="M269.002 112.18L286.554 102.046C293.587 97.9845 305.035 97.9845 312.069 102.046L306.403 105.317C302.491 103.062 296.142 103.062 292.229 105.317L274.678 115.451L269.002 112.18Z" fill="#5195FB"/>
<path d="M306.391 105.328C308.347 106.45 309.319 107.936 309.319 109.422V115.697C309.319 114.211 308.347 112.736 306.391 111.603V105.328Z" fill="#E84343"/>
<path d="M288.836 123.638L294.501 126.909V133.183L288.836 129.912V123.638Z" fill="#FC5552"/>
<path d="M294.5 126.908L312.052 116.775C315.568 114.744 317.321 112.082 317.321 109.41V115.685C317.321 118.346 315.558 121.019 312.052 123.05L294.5 133.183V126.908Z" fill="#E84343"/>
<path d="M288.84 123.638L306.391 113.505C308.348 112.372 309.32 110.897 309.32 109.411C309.32 107.925 308.348 106.45 306.391 105.317L312.057 102.046C315.573 104.077 317.326 106.738 317.326 109.411C317.326 112.072 315.563 114.745 312.057 116.776L294.505 126.909L288.84 123.638Z" fill="#FF6666"/>
<path d="M262.341 80.9315C262.145 81.0781 261.935 81.2267 261.739 81.3733C263.509 80.1052 265.252 78.7228 266.916 77.2486C265.799 78.23 264.663 79.1625 263.518 80.0522C267.926 80.2539 274.049 80.0073 277.783 77.9668C282.653 75.3039 280.557 71.0613 275.757 67.4472C275.821 67.3494 275.962 67.1517 276.322 66.5975C284.433 72.6246 283.135 78.6369 273.023 80.481C269.675 81.0924 265.868 81.1505 262.341 80.9315Z" fill="#E84343"/>
<path d="M260.004 97.2075C258.295 97.333 256.57 95.952 256.338 94.127C256.318 94.0424 256.312 93.9558 256.306 93.8692C256.198 92.1793 257.448 90.8087 259.093 90.7435C259.247 90.7355 259.414 90.7477 259.574 90.768C259.568 90.8929 259.508 91.5212 259.398 92.1496C259.362 92.359 259.32 92.5765 259.28 92.7718C259.28 92.7718 259.624 93.6402 260.333 93.1211C260.481 92.4727 260.578 91.7295 260.64 91.079C261.373 91.424 261.957 92.0166 262.32 92.7218C262.539 93.149 262.678 93.6244 262.699 94.1099C262.795 95.7796 261.607 97.112 260.004 97.2075Z" fill="#0B45B2"/>
<path d="M259.677 96.1104C258.336 96.2041 256.994 95.3788 256.358 94.1368C256.338 94.0522 256.332 93.9655 256.326 93.8788C256.218 92.1879 257.469 90.8164 259.115 90.7511C259.065 91.0574 259.014 91.3859 258.944 91.6659C258.944 91.6659 259.104 92.051 259.42 92.1581C259.384 92.3676 259.342 92.5852 259.302 92.7807C259.302 92.7807 259.646 93.6496 260.356 93.1302C260.503 92.4813 260.601 91.7378 260.663 91.0868C261.396 91.432 261.981 92.025 262.343 92.7306C262.358 92.8233 262.367 92.9241 262.373 93.0108C262.469 94.6816 261.277 96.0008 259.677 96.1104Z" fill="#3E85F4"/>
<path d="M260.402 93.0776C261.177 89.6497 260.666 84.0033 260.202 80.4216C259.3 73.3709 257.477 65.4877 255.278 58.7933C254.333 55.9142 253.125 52.601 251.801 49.8281C250.999 48.1422 248.953 44.057 247.212 43.5111C246.616 43.3218 246.254 43.8035 245.981 44.3375C244.708 46.9294 245.266 53.1142 245.23 53.3231C245.216 53.4777 245.07 53.6081 244.903 53.6542C244.617 53.7323 244.279 53.5853 244.179 53.3382C244.094 53.2779 243.781 47.9369 244.55 45.0332C244.782 44.1416 245.161 43.1196 245.933 42.6363C248.691 40.8893 251.971 47.5425 253.406 50.7936C256.563 57.9589 259.985 69.9489 261.34 80.7501C261.791 84.3699 262.257 89.9721 261.471 93.416C260.75 93.9356 260.402 93.0776 260.402 93.0776Z" fill="#FCD561"/>
<path d="M275.385 66.956L275.964 66.1019C278.065 62.91 280.176 58.6002 280.149 54.6132C280.148 54.3946 280.147 54.1759 280.131 53.9593C280.131 53.9593 280.027 53.3545 280.631 53.4249C281.229 53.5036 281.254 53.8474 281.254 53.8474C281.275 54.0558 281.282 54.2661 281.288 54.4764C281.415 60.917 276.621 67.855 272.473 72.3759C269.125 76.0282 265.564 79.1205 261.081 82.1622C261.042 81.76 260.989 81.3598 260.932 80.9449C266.368 77.1652 271.592 72.4028 275.385 66.956Z" fill="#69A4FC"/>
<path d="M257.205 96.1153C254.852 95.1515 252.541 90.3245 251.507 87.9794C251.865 87.8068 252.367 87.5636 252.436 87.5322C253.319 89.5276 254.846 92.6595 256.391 94.2602C256.461 94.9431 256.752 95.5872 257.205 96.1153Z" fill="#FCD561"/>
<path d="M256.974 58.5945C263.1 60.1187 270.469 62.7513 275.804 66.3814C275.627 66.6501 275.45 66.9188 275.27 67.1739C270.23 63.7061 262.995 61.0552 257.304 59.6113C257.042 58.7879 256.762 57.9739 256.484 57.1735C256.659 57.6666 256.826 58.1537 256.974 58.5945Z" fill="#E84343"/>
<path d="M281.731 54.524C281.727 54.3206 281.722 54.1172 281.704 53.9158C281.704 53.9158 281.675 53.5774 281.12 53.5125C280.561 53.4557 280.645 54.0338 280.645 54.0338C280.653 54.2513 280.658 54.4547 280.657 54.6662C278.543 54.6685 276.663 53.0478 276.214 51.0215C276.144 50.6891 276.107 50.3447 276.116 49.9862C276.192 46.921 279.528 45.246 282.282 47.0527C282.893 47.4519 283.372 47.9578 283.712 48.5058C285.106 50.7223 284.364 53.7608 281.731 54.524Z" fill="#E84343"/>
<path d="M281.187 53.1529C279.207 53.7121 277.24 52.678 276.25 51.0418C276.18 50.709 276.142 50.3641 276.151 50.0052C276.228 46.9359 279.568 45.2585 282.325 47.0675C282.936 47.4673 283.416 47.9738 283.757 48.5226C284.212 50.4851 283.287 52.5616 281.187 53.1529Z" fill="#FC5552"/>
<path d="M259.474 82.8334C259.505 82.7855 259.824 86.1528 259.859 88.5707C259.834 87.0121 259.732 85.4214 259.597 83.9945C256.922 85.7355 254.646 87.1653 251.249 88.7435C245.899 91.2563 238.291 93.6704 232.208 92.4637C226.064 91.2369 222.882 86.4991 225.063 79.0946C225.823 76.518 227.131 73.9919 228.579 71.7638C228.63 71.7998 229.318 72.3003 229.433 72.3704C227.211 75.7884 224.886 80.697 225.546 84.9839C226.072 88.3935 228.508 91.1062 233.789 91.6844C239.678 92.3334 247.065 89.7272 252.156 87.1581C253.564 86.4545 254.937 85.691 256.08 84.9971C257.863 83.9643 259.37 82.8992 259.474 82.8334Z" fill="#69A4FC"/>
<path d="M261.816 80.47C261.787 80.4964 261.009 81.0569 260.893 81.1399C260.864 80.8944 260.832 80.6347 260.804 80.3893C261.138 80.4142 261.482 80.4452 261.816 80.47Z" fill="#E84343"/>
<path d="M259.509 81.0484C259.515 81.0756 259.622 81.9536 259.625 81.9672C248.233 80.7694 237.756 77.0054 231.49 73.185C229.448 71.9286 228.23 70.9586 227.258 70.0599C227.35 69.288 228.023 69.4337 228.023 69.4337C228.733 70.0804 229.544 70.7413 230.584 71.4618C232.928 73.0771 235.435 74.3324 238.036 75.4834C241.621 77.0673 248.287 79.0889 248.582 79.0479C251.94 79.9181 255.765 80.6533 259.509 81.0484Z" fill="#E84343"/>
<path d="M260.588 75.3973C260.425 74.4813 260.257 73.5733 260.063 72.6472C259.203 68.3287 258.092 63.9375 256.838 59.8804C256.838 59.8804 257.094 60.7099 257.22 61.1287C260.037 62.8158 261.797 65.6334 262.253 68.5465C262.633 70.9463 262.122 73.4178 260.588 75.3973Z" fill="#1C6DF6"/>
<path d="M249.987 80.1172C250.052 80.3982 251.243 83.9074 252.406 86.6941C252.353 86.7382 250.652 87.5453 251.466 87.1507C250.926 85.8638 250.416 84.5508 249.95 83.2459C249.754 82.7079 248.8 79.8471 248.788 79.827C248.105 79.6578 247.405 79.4765 246.702 79.2812C250.39 80.2982 254.129 81.0463 257.664 81.4971C255.224 81.1918 252.67 80.7358 249.987 80.1172Z" fill="#FCD561"/>
<path d="M259.57 76.6926C256.998 79.0653 253.245 79.5257 249.957 78.1394C247.762 77.2132 245.952 75.5602 244.813 73.525C244.09 72.2454 243.68 70.9057 243.544 69.5843C243.145 65.7571 245.074 62.1149 248.527 60.6634C250.866 59.644 253.528 59.773 255.819 60.7436C257.082 64.9038 258.2 69.3842 259.067 73.8865C259.247 74.8152 259.417 75.76 259.57 76.6926Z" fill="#1C6DF6"/>
<path d="M277.633 47.7227C277.545 47.8011 277.275 47.9497 276.874 48.4524C273.838 46.7035 269.661 46.7886 266.374 47.3191C263.156 47.8396 259.19 49.0154 254.7 51.1705C254.561 50.8485 254.431 50.5326 254.291 50.2327C259.421 47.7802 266.101 45.5605 271.969 46.0441C273.927 46.2026 275.916 46.6771 277.633 47.7227Z" fill="#69A4FC"/>
<path d="M249.793 79.1558L248.612 78.8603C248.612 78.8603 248.582 78.7932 248.469 78.4024C248.469 78.4024 248.242 77.678 248.233 77.6366C248.375 77.7376 249.402 78.2691 249.52 78.2951C249.536 78.3642 249.522 78.3307 249.793 79.1558Z" fill="#FCD561"/>
<path d="M247.542 57.4667C251.678 57.9835 255.563 58.8659 255.613 58.9016C255.702 59.1612 255.93 59.8665 255.95 59.9496C253.092 59.2637 250.237 58.7421 247.343 58.3768C247.679 58.4073 247.879 57.4972 247.542 57.4667Z" fill="#E84343"/>
<path d="M253.501 52.3718C253.571 52.517 251.53 53.1452 246.755 56.3217C246.717 56.3421 246.679 56.3032 246.635 56.2724C246.444 56.1004 246.27 55.8813 246.136 55.6195C246.118 55.5704 246.09 55.5151 246.12 55.4886C248.302 54.041 250.668 52.6408 253.095 51.439C253.112 51.4513 253.477 52.3309 253.501 52.3718Z" fill="#69A4FC"/>
<path d="M245.609 63.5931C245.281 61.7479 245.026 60.0021 244.829 58.4166C245.375 58.4616 245.911 58.5229 245.933 58.527C245.985 58.5635 245.943 59.0318 246.534 62.5923C245.998 63.0521 245.405 63.8504 245.609 63.5931Z" fill="#FCD561"/>
<path d="M225.825 62.8106C226.132 62.8754 225.414 62.6952 224.725 62.7593C225.969 60.1526 229.618 58.904 232.496 58.345C236.289 57.5648 241.014 57.6126 244.967 57.9486C245.424 57.9913 247.3 58.1703 247.379 58.2027C247.662 58.322 247.477 59.0867 247.18 59.1229C247.18 59.1229 244.884 58.881 244.704 58.8707C243.989 58.8218 243.859 58.8116 243.792 58.7994C243.747 58.7913 242.276 58.6994 242.198 58.7034C238.098 58.4985 232.672 58.765 229.05 60.3163C227.789 60.8583 226.512 61.6364 225.825 62.8106Z" fill="#E84343"/>
<path d="M245.964 57.5582C246.16 57.5805 246.355 57.6029 246.551 57.6253C246.089 57.5764 245.626 57.5275 245.145 57.4885C245.393 57.3154 245.642 57.1423 245.89 56.9692C245.919 57.1529 245.938 57.3525 245.964 57.5582Z" fill="#FCD561"/>
<path d="M246.041 55.662C246.003 55.6823 246.039 55.7434 246.057 55.7922C246.16 56.02 246.328 56.2459 246.552 56.4414C246.59 56.4801 246.641 56.5167 246.671 56.4903C246.167 56.8213 245.656 57.1827 245.175 57.5177C244.649 57.4765 244.124 57.4353 243.584 57.3961C243.539 57.3879 243.48 57.4408 244.167 56.9432C244.974 56.3767 245.396 56.0945 246.041 55.662Z" fill="#69A4FC"/>
<path d="M245.722 53.7426C245.751 53.6208 245.667 53.442 245.888 55.8421C245.326 56.2253 244.918 56.5052 244.87 56.5417C244.766 55.5426 244.69 54.5984 244.633 53.6441C244.634 53.6807 244.648 53.7375 244.66 53.7578C244.852 54.2148 245.683 54.1892 245.722 53.7426Z" fill="#FCD561"/>
<path d="M229.663 71.2507C233.016 66.4231 237.528 62.0495 242.204 58.5153C242.29 58.5034 243.757 58.6074 243.832 58.612C244.029 58.6297 236.181 63.7429 230.562 71.8833C230 71.5115 229.304 70.9857 229.663 71.2507Z" fill="#69A4FC"/>
<path d="M228.245 70.4374C228.162 70.3547 228.071 70.266 227.982 70.1915C227.982 70.1915 227.304 70.0499 227.197 70.8455C227.36 70.9967 227.397 71.035 227.448 71.0713C225.4 72.2742 222.635 71.3072 221.479 69.0483C221.087 68.2746 220.923 67.4164 221.009 66.5946C221.017 66.506 221.033 66.4234 221.05 66.3408C221.441 63.9583 223.961 62.5261 226.437 63.5935C227.892 64.205 228.863 65.4848 229.17 66.8688C229.444 68.1119 229.172 69.4491 228.245 70.4374Z" fill="#FEB30F"/>
<path d="M227.984 69.2714C227.328 69.8623 226.469 70.1914 225.551 70.2088C223.489 70.2695 221.526 68.6847 221.051 66.6064C221.058 66.5179 221.075 66.4354 221.091 66.353C221.481 63.9736 223.998 62.5434 226.472 63.6096C227.925 64.2203 228.889 65.5065 229.201 66.8806C229.099 67.7838 228.695 68.6363 227.984 69.2714Z" fill="#FBC22C"/>
<path d="M251.566 83.1329C251.701 83.2027 251.577 83.1897 251.566 83.1329V83.1329Z" fill="#1C6DF6"/>
<path d="M258.779 73.9315C258.962 74.8511 259.119 75.7747 259.267 76.6924C256.713 79.0388 252.996 79.507 249.747 78.1553C247.578 77.2521 245.792 75.6318 244.671 73.6325C243.96 72.3756 243.558 71.0581 243.428 69.7576C245.194 72.1772 248.288 75.6038 251.89 76.1354C254.77 76.5524 257.09 75.4819 258.779 73.9315Z" fill="#0B45B2"/>
<path d="M260.391 75.3328C260.225 74.3976 260.053 73.4707 259.856 72.5253C261.023 71.1562 261.789 69.6006 262.123 68.3315C262.51 70.7815 261.977 73.3071 260.391 75.3328Z" fill="#0B45B2"/>
<path d="M253.564 66.05C253.011 66.8985 251.842 67.0752 250.952 66.445C250.062 65.8148 249.789 64.6177 250.342 63.7693C250.896 62.9208 252.064 62.7441 252.955 63.3743C253.845 64.0044 254.118 65.2015 253.564 66.05Z" fill="#69A4FC"/>
<path d="M279.654 49.0008C279.443 49.3241 278.989 49.3927 278.65 49.1526C278.311 48.9125 278.205 48.4478 278.416 48.1246C278.627 47.8013 279.081 47.7327 279.42 47.9728C279.759 48.2129 279.865 48.6776 279.654 49.0008Z" fill="#FC9F9C"/>
<path d="M225.757 66.5563C225.435 67.0451 224.759 67.1557 224.253 66.8023C223.747 66.449 223.598 65.7611 223.92 65.2723C224.243 64.7835 224.919 64.6729 225.424 65.0263C225.93 65.3797 226.085 66.0593 225.757 66.5563Z" fill="#FCEAB2"/>
<path d="M373.869 22.887C373.752 22.747 373.634 22.607 373.517 22.467C374.55 23.7027 375.657 24.9106 376.825 26.0715C376.051 25.2963 375.295 24.5084 374.59 23.7142C374.808 26.8683 375.485 31.2294 377.213 33.8466C379.471 37.2616 382.27 35.679 384.405 32.1748C384.483 32.2207 384.625 32.3162 385.041 32.5608C381.499 38.4771 377.181 37.6843 375.063 30.5068C374.356 28.1096 374.002 25.3977 373.869 22.887Z" fill="#E84343"/>
<path d="M362.807 22.2875C362.569 21.0468 363.415 19.7627 364.693 19.5453C364.757 19.5352 364.812 19.5199 364.871 19.5187C366.07 19.3986 367.142 20.2804 367.333 21.4813C367.348 21.5979 367.363 21.7146 367.356 21.8299C367.261 21.8336 366.815 21.7984 366.361 21.735C366.208 21.7168 366.047 21.6935 365.904 21.6575C365.904 21.6575 365.316 21.9334 365.742 22.435C366.211 22.5318 366.751 22.5863 367.225 22.6139C367.037 23.1493 366.664 23.5998 366.194 23.8734C365.912 24.0421 365.578 24.157 365.237 24.1835C364.057 24.2907 363.019 23.4526 362.807 22.2875Z" fill="#0B45B2"/>
<path d="M363.579 21.9881C363.401 21.0104 363.877 20.0106 364.7 19.5262C364.764 19.5161 364.819 19.5008 364.878 19.4996C366.076 19.3795 367.148 20.2611 367.339 21.4616C367.119 21.4395 366.877 21.3931 366.675 21.3582C366.675 21.3582 366.41 21.477 366.368 21.7152C366.215 21.6971 366.053 21.6738 365.911 21.6377C365.911 21.6377 365.323 21.9136 365.748 22.4151C366.217 22.5118 366.757 22.5663 367.231 22.5939C367.043 23.1291 366.671 23.5795 366.2 23.853C366.131 23.8721 366.072 23.8733 366 23.8783C364.824 23.9997 363.786 23.1617 363.579 21.9881Z" fill="#3E85F4"/>
<path d="M365.906 21.0948C368.428 21.5847 372.424 21.0846 374.95 20.6659C379.923 19.8424 385.412 18.3396 390.023 16.5724C392.008 15.8116 394.268 14.8536 396.153 13.818C397.29 13.1933 400.049 11.6059 400.294 10.3127C400.381 9.87261 400.002 9.61417 399.592 9.43266C397.629 8.55348 393.254 9.10567 393.092 9.08235C392.979 9.07578 392.872 8.97682 392.825 8.85356C392.748 8.64043 392.818 8.39414 392.991 8.3161C393.027 8.25327 396.823 7.8992 398.963 8.4039C399.62 8.56265 400.38 8.80623 400.79 9.3586C402.27 11.3317 397.781 13.8895 395.578 15.0132C390.713 17.4935 382.414 20.2655 374.807 21.4921C372.25 21.9043 368.283 22.3737 365.757 21.8697C365.317 21.3712 365.906 21.0948 365.906 21.0948Z" fill="#FCD561"/>
<path d="M384.771 31.3207L385.401 31.6988C387.733 33.0567 390.831 34.3959 393.531 34.3176C393.683 34.3128 393.826 34.3031 393.969 34.2933C393.969 34.2933 394.37 34.213 394.38 34.6139C394.381 35.0098 394.148 35.0369 394.148 35.0369C394.005 35.0466 393.871 35.0614 393.719 35.0661C389.367 35.2515 384.269 32.1553 380.861 29.4624C378.11 27.2797 375.716 24.9555 373.281 22.0038C373.555 21.9656 373.82 21.9224 374.094 21.8842C377.098 25.458 380.766 28.8722 384.771 31.3207Z" fill="#69A4FC"/>
<path d="M363.527 20.129C364.033 18.3509 367.379 16.5276 369.006 15.6973C369.163 15.9587 369.386 16.3313 369.415 16.3844C368.025 17.0883 365.858 18.2888 364.818 19.4754C364.328 19.5497 363.879 19.7805 363.527 20.129Z" fill="#FCD561"/>
<path d="M389.682 17.2987C389.088 21.9774 387.769 27.615 385.493 31.7218C385.271 31.5914 385.057 31.4662 384.84 31.3268C387.013 27.4397 388.359 21.9023 388.935 17.5655C389.536 17.3466 390.127 17.1224 390.705 16.9021C390.363 17.0421 390.013 17.1769 389.682 17.2987Z" fill="#E84343"/>
<path d="M393.685 34.889C393.83 34.879 393.976 34.869 394.121 34.8589C394.121 34.8589 394.359 34.831 394.357 34.4235C394.356 34.0161 393.939 34.0936 393.939 34.0936C393.788 34.1127 393.639 34.1086 393.493 34.1187C393.315 32.5666 394.31 31.1662 395.719 30.7991C395.954 30.734 396.192 30.7062 396.45 30.7027C398.639 30.6865 400.117 33.0873 399.054 35.1412C398.816 35.5996 398.5 35.9516 398.139 36.2176C396.682 37.2625 394.448 36.7853 393.685 34.889Z" fill="#E84343"/>
<path d="M394.632 34.4243C394.071 32.9945 394.643 31.5381 395.723 30.7867C395.957 30.7217 396.195 30.6939 396.453 30.6904C398.64 30.6742 400.117 33.0733 399.055 35.1257C398.818 35.5838 398.501 35.9355 398.14 36.2014C396.791 36.567 395.238 35.94 394.632 34.4243Z" fill="#FC5552"/>
<path d="M374.02 21.2183C374.055 21.2389 371.652 21.5546 369.915 21.6256C371.032 21.5744 372.171 21.464 373.194 21.3329C371.715 19.4064 370.492 17.7504 369.061 15.2875C366.793 11.3956 364.411 5.85166 364.766 1.34068C365.128 -3.2256 368.284 -5.668 373.804 -4.22217C375.727 -3.71524 377.657 -2.80822 379.384 -1.79214C379.364 -1.75615 379.058 -1.23944 379.021 -1.1533C376.364 -2.7161 372.632 -4.32284 369.594 -3.73271C367.177 -3.26907 365.431 -1.41391 365.457 2.49169C365.494 6.84884 367.991 12.2321 370.276 15.9298C370.911 16.9521 371.567 17.9384 372.169 18.7728C373.062 20.0425 373.961 21.1359 374.02 21.2183Z" fill="#69A4FC"/>
<path d="M374.744 22.5215C374.723 22.4972 374.265 21.9541 374.193 21.8761C374.371 21.8497 374.54 21.8182 374.718 21.7917C374.721 22.0316 374.728 22.2854 374.744 22.5215Z" fill="#E84343"/>
<path d="M374.98 20.9801C374.951 20.9878 374.314 21.0869 374.291 21.0856C374.162 12.4631 376.049 4.4643 378.363 -0.337749C379.126 -1.90294 379.748 -2.84753 380.33 -3.59738C380.916 -3.5446 380.875 -3.03557 380.875 -3.03557C380.444 -2.48811 380.026 -1.86011 379.579 -1.05552C378.57 0.753486 377.859 2.66422 377.23 4.65949C376.364 7.40119 375.447 12.4766 375.497 12.7001C375.151 15.2373 374.939 18.1436 374.98 20.9801Z" fill="#E84343"/>
<path d="M378.311 20.8284C378.95 20.6896 379.58 20.5456 380.228 20.3889C383.237 19.6701 386.276 18.7539 389.062 17.749C389.062 17.749 388.492 17.9521 388.2 18.0555C387.229 20.1524 385.368 21.4983 383.331 21.9031C381.662 22.2135 379.856 21.9047 378.311 20.8284Z" fill="#1C6DF6"/>
<path d="M374.571 13.9505C374.377 14.0041 371.958 14.9534 370.057 15.8726C370.023 15.8289 369.307 14.6044 369.646 15.1993C370.522 14.7679 371.422 14.375 372.313 14C372.681 13.8452 374.663 13.0699 374.663 13.0699C374.727 12.568 374.801 12.0481 374.875 11.5282C374.457 14.2546 374.232 17.0108 374.199 19.6157C374.236 17.8042 374.346 15.9273 374.571 13.9505Z" fill="#FCD561"/>
<path d="M377.65 20.1992C375.741 18.3706 375.103 15.639 375.819 13.213C376.292 11.6016 377.32 10.2448 378.671 9.36501C379.522 8.81261 380.444 8.48197 381.372 8.34614C384.068 7.97055 386.824 9.29293 388.138 11.7768C389.055 13.4644 389.191 15.3983 388.689 17.1006C385.848 18.1205 382.728 19.0363 379.597 19.7662C378.963 19.9191 378.302 20.0566 377.65 20.1992Z" fill="#1C6DF6"/>
<path d="M398.986 31.6761C398.926 31.6171 398.793 31.4194 398.394 31.1368C399.398 28.8791 398.98 25.8206 398.329 23.4388C397.689 21.0993 396.52 18.2334 394.604 14.9998C394.823 14.9014 395.039 14.7889 395.241 14.6802C397.422 18.3693 399.559 23.2046 399.703 27.5025C399.762 28.9373 399.588 30.391 398.986 31.6761Z" fill="#69A4FC"/>
<path d="M375.322 13.5994L375.438 12.7139C375.438 12.7139 375.485 12.6933 375.766 12.5928C375.766 12.5928 376.281 12.4124 376.314 12.3956C376.252 12.5041 375.946 13.2898 375.945 13.3739C375.879 13.4074 375.903 13.3855 375.322 13.5994Z" fill="#FCD561"/>
<path d="M390.37 10.3623C390.352 13.4497 390.035 16.3611 390.015 16.3972C389.832 16.4705 389.341 16.6519 389.285 16.6673C389.539 14.5268 389.675 12.3886 389.693 10.2296C389.686 10.4905 390.368 10.6141 390.37 10.3623Z" fill="#E84343"/>
<path d="M394.534 14.3276C394.446 14.382 393.84 12.9487 391.234 9.62969C391.213 9.60555 391.242 9.57515 391.262 9.53965C391.365 9.39895 391.508 9.26972 391.676 9.1786C391.708 9.16215 391.746 9.13683 391.767 9.16097C392.96 10.6789 394.122 12.3324 395.16 14.0201C395.133 14.0277 394.553 14.3149 394.534 14.3276Z" fill="#69A4FC"/>
<path d="M386.2 9.25977C387.472 8.98328 388.691 8.75905 389.79 8.58316C389.796 8.98011 389.811 9.38218 389.811 9.38218C389.791 9.41789 389.454 9.39829 386.994 9.90543C386.607 9.52327 386.001 9.11909 386.2 9.25977Z" fill="#FCD561"/>
<path d="M385.607 -5.18269C385.583 -4.95745 385.657 -5.47572 385.554 -5.9904C387.509 -5.15062 388.7 -2.51488 389.337 -0.443064C390.2 2.29847 390.57 5.74201 390.654 8.62326C390.66 8.96117 390.686 10.3269 390.67 10.3768C390.606 10.5904 390.049 10.4655 390.003 10.2594C390.003 10.2594 389.978 8.58393 389.973 8.44953C389.951 7.93497 389.948 7.83768 389.951 7.79161C389.958 7.75962 389.895 6.6831 389.88 6.62676C389.689 3.64681 389.048 -0.302671 387.647 -2.89519C387.161 -3.80205 386.496 -4.71941 385.607 -5.18269Z" fill="#E84343"/>
<path d="M390.467 9.19611C390.467 9.34021 390.468 9.48429 390.468 9.62838C390.462 9.28872 390.461 8.94009 390.446 8.59526C390.589 8.77568 390.747 8.95224 390.89 9.13265C390.748 9.1568 390.605 9.18096 390.467 9.19611Z" fill="#FCD561"/>
<path d="M391.844 9.16799C391.823 9.14376 391.785 9.16918 391.753 9.1857C391.603 9.26446 391.451 9.38909 391.338 9.54816C391.317 9.58379 391.288 9.61432 391.309 9.63855C391.034 9.28661 390.742 8.92446 390.462 8.58143C390.454 8.2082 390.429 7.82476 390.417 7.43752C390.415 7.40058 390.377 7.36612 390.783 7.85453C391.261 8.42074 391.49 8.71022 391.844 9.16799Z" fill="#69A4FC"/>
<path d="M393.183 8.79719C393.272 8.82537 393.385 8.749 391.716 8.96987C391.407 8.57411 391.172 8.29322 391.139 8.24982C391.83 8.1564 392.489 8.07954 393.165 8.01288C393.138 8.02049 393.097 8.03191 393.083 8.03572C392.781 8.1794 392.869 8.7789 393.183 8.79719Z" fill="#FCD561"/>
<path d="M380.082 -1.70378C383.662 0.505199 387.017 3.5074 389.815 6.64046C389.829 6.69564 389.881 7.70866 389.878 7.75379C389.883 7.88543 385.749 2.61427 379.717 -1.08626C379.933 -1.4633 380.237 -1.95304 380.082 -1.70378Z" fill="#69A4FC"/>
<path d="M372.534 15.2326C372.489 15.3304 372.497 15.2361 372.534 15.2326V15.2326Z" fill="#1C6DF6"/>
<path d="M379.665 19.8889C379.011 20.0471 378.353 20.1912 377.687 20.33C375.763 18.4881 375.121 15.7357 375.843 13.2907C376.322 11.6667 377.359 10.299 378.722 9.41184C379.579 8.85481 380.509 8.52123 381.445 8.38394C379.827 9.76022 377.579 12.1405 377.481 14.8315C377.416 16.9879 378.39 18.6817 379.665 19.8889Z" fill="#0B45B2"/>
<path d="M378.311 20.9353C378.941 20.7986 379.563 20.6569 380.203 20.5026C381.231 21.2807 382.366 21.7693 383.27 21.9805C381.617 22.295 379.835 21.9923 378.311 20.9353Z" fill="#0B45B2"/>
<path d="M384.76 15.3389C384.114 14.959 383.897 14.1129 384.274 13.4495C384.651 12.786 385.481 12.5561 386.127 12.936C386.773 13.316 386.991 14.162 386.613 14.8255C386.236 15.4889 385.406 15.7188 384.76 15.3389Z" fill="#69A4FC"/>
<path d="M397.324 32.4151C397.178 32.6725 397.263 33.0007 397.514 33.1483C397.765 33.2958 398.087 33.2068 398.233 32.9494C398.379 32.692 398.295 32.3638 398.044 32.2162C397.793 32.0687 397.471 32.1577 397.324 32.4151Z" fill="#FC9F9C"/>
<path d="M339.746 69.2565C339.46 69.2565 339.198 69.071 339.114 68.7842L334.011 52.1605C333.901 51.8063 334.095 51.4352 334.45 51.3255C334.795 51.2159 335.175 51.4099 335.276 51.7641L340.379 68.3878C340.489 68.742 340.295 69.1131 339.94 69.2228C339.873 69.2481 339.805 69.2565 339.746 69.2565Z" fill="#C6DFFD"/>
<path d="M385.824 97.2409C385.537 97.2409 385.276 97.0554 385.183 96.7686L379.768 78.8798C379.658 78.5256 379.861 78.1545 380.215 78.0533C380.569 77.9436 380.94 78.146 381.042 78.5003L386.456 96.3891C386.566 96.7433 386.364 97.1144 386.009 97.2156C385.959 97.2325 385.891 97.2409 385.824 97.2409Z" fill="#C6DFFD"/>
<path d="M343.578 120.455C343.578 125.187 350.224 129.024 358.414 129.024C366.603 129.024 373.249 125.187 373.249 120.455V121.88C373.249 126.612 366.603 130.45 358.414 130.45C350.224 130.45 343.578 126.612 343.578 121.88V120.455Z" fill="#3E85F4"/>
<path d="M358.414 129.024C366.607 129.024 373.249 125.187 373.249 120.455C373.249 115.722 366.607 111.886 358.414 111.886C350.22 111.886 343.578 115.722 343.578 120.455C343.578 125.187 350.22 129.024 358.414 129.024Z" fill="#71AAF9"/>
<path d="M350.373 78.5344C350.373 86.1082 343.752 90.0048 335.588 90.0048C327.424 90.0048 320.803 85.9564 320.803 78.5344C320.803 73.8197 327.424 69.999 335.588 69.999C343.752 69.999 350.373 73.8197 350.373 78.5344Z" fill="#0B45B2"/>
<path d="M335.588 87.0697C343.753 87.0697 350.373 83.2483 350.373 78.5344C350.373 73.8204 343.753 69.999 335.588 69.999C327.422 69.999 320.803 73.8204 320.803 78.5344C320.803 83.2483 327.422 87.0697 335.588 87.0697Z" fill="#71AAF9"/>
<path d="M349.051 78.501C349.068 82.8193 343.02 86.3026 335.59 86.3026C329.509 86.3026 324.372 83.9832 322.702 80.7866C322.323 80.0697 322.129 79.3191 322.129 78.5263C322.129 74.2333 328.159 70.75 335.598 70.75C343.012 70.7584 349.042 74.2249 349.051 78.501Z" fill="#3E85F4"/>
<path d="M394.992 104.291C394.992 111.865 388.371 115.762 380.207 115.762C372.043 115.762 365.422 111.713 365.422 104.291C365.422 99.5765 372.043 95.7559 380.207 95.7559C388.38 95.7643 394.992 99.585 394.992 104.291Z" fill="#0B45B2"/>
<path d="M380.213 112.827C388.378 112.827 394.998 109.005 394.998 104.291C394.998 99.5773 388.378 95.7559 380.213 95.7559C372.047 95.7559 365.428 99.5773 365.428 104.291C365.428 109.005 372.047 112.827 380.213 112.827Z" fill="#71AAF9"/>
<path d="M393.676 104.265C393.693 108.583 387.645 112.066 380.215 112.066C374.134 112.066 368.997 109.747 367.327 106.55C366.948 105.833 366.754 105.083 366.754 104.29C366.754 99.997 372.784 96.5137 380.223 96.5137C387.637 96.5221 393.667 99.9885 393.676 104.265Z" fill="#3E85F4"/>
<path d="M371.064 101.608L378.031 105.631V110.996L371.064 106.981V101.608Z" fill="#FCDC79"/>
<path d="M378.033 105.631L384.991 101.608V106.981L378.033 110.996V105.631Z" fill="#FCD96E"/>
<path d="M371.064 101.607L378.031 97.5928L384.989 101.607L378.031 105.631L371.064 101.607Z" fill="#FFE856"/>
<path d="M355.463 67.7399C355.463 68.6255 356.711 69.3424 358.246 69.3424C359.781 69.3424 361.029 68.6255 361.029 67.7314L360.059 72.6823L361.029 118.969C361.029 119.854 359.781 120.58 358.246 120.58C356.711 120.58 355.463 119.863 355.463 118.969L356.483 72.657L355.463 67.7399Z" fill="#ABD0FC"/>
<path d="M380.859 78.9717C380.859 78.9717 377.797 79.8573 376.262 78.8452C374.727 77.8331 368.494 71.7099 364.556 69.5592C363.215 68.8255 361.975 68.4038 360.921 68.1676C360.6 68.8508 359.521 69.3484 358.239 69.3484C356.704 69.3484 355.455 68.6315 355.455 67.7459C355.455 67.2652 353.035 62.989 350.555 61.4878C346.616 59.084 340.383 58.0129 338.848 57.2538C337.313 56.4948 334.252 52.0753 334.252 52.0753C334.176 51.5776 334.21 51.3246 334.319 51.2656C334.851 50.962 337.212 54.926 338.3 55.5501C339.616 56.3092 341.471 55.1116 345.191 55.6092C348.91 56.1152 354.814 60.7877 354.814 60.7877L357.547 53.9814L360.28 63.9421C360.28 63.9421 366.184 66.0928 369.903 69.8797C373.622 73.6667 375.478 77.015 376.794 77.7741C378.126 78.5247 381.298 76.568 380.859 78.9717Z" fill="#C6DFFD"/>
<path d="M355.763 60.2409L354.827 60.7807C354.827 60.7807 348.923 56.1082 345.204 55.6021C341.484 55.0961 339.629 56.3021 338.313 55.5431C337.225 54.9189 334.863 50.9549 334.332 51.2585L335.268 50.7187C335.8 50.4151 338.161 54.3707 339.249 55.0033C340.565 55.7624 342.42 54.5647 346.14 55.0623C349.859 55.5684 355.763 60.2409 355.763 60.2409Z" fill="#E5EFFA"/>
<path d="M358.497 53.4424L357.561 53.9822L354.828 60.7801L355.764 60.2403L358.497 53.4424Z" fill="#DDECFD"/>
<path d="M361.227 63.4031L360.291 63.9429L357.559 53.9822L358.495 53.4424L361.227 63.4031Z" fill="#DDECFD"/>
<path d="M381.797 78.4349L380.861 78.9747C381.3 76.571 378.129 78.5277 376.813 77.7771C375.506 77.018 373.642 73.6696 369.922 69.8827C366.203 66.0958 360.299 63.9451 360.299 63.9451L361.235 63.4053C361.235 63.4053 367.139 65.556 370.858 69.3429C374.578 73.1298 376.433 76.4782 377.749 77.2373C379.056 77.9879 382.228 76.0312 381.797 78.4349Z" fill="#E5EFFA"/>
<path d="M342.241 86.3764C341.938 86.3764 341.659 86.1656 341.592 85.8535L334.398 53.9219L322.118 78.3134C321.949 78.6423 321.552 78.7773 321.223 78.6086C320.895 78.4399 320.76 78.0435 320.928 77.7146L334.878 50L342.891 85.5583C342.975 85.921 342.747 86.2752 342.385 86.3511C342.334 86.368 342.292 86.3764 342.241 86.3764Z" fill="#C6DFFD"/>
<path d="M386.589 112.335C386.277 112.335 385.998 112.115 385.939 111.803L379.707 80.7403L366.667 105.157C366.49 105.486 366.085 105.604 365.765 105.435C365.436 105.258 365.318 104.862 365.487 104.533L380.272 76.8438L387.238 111.542C387.314 111.904 387.078 112.25 386.715 112.326C386.673 112.335 386.631 112.335 386.589 112.335Z" fill="#C6DFFD"/>
<path d="M46.3086 147.211L46.0937 159.354C45.2818 159.39 44.4579 159.198 43.7296 158.781L18.787 144.381C18.2617 144.083 17.999 143.545 17.999 143.02V130.877L46.3086 147.211Z" fill="#FC5552"/>
<path d="M100.602 115.474V127.473C100.602 127.999 100.339 128.536 99.8135 128.834L48.0659 158.768C47.4569 159.126 46.7764 159.317 46.0958 159.341V146.135L90.2616 120.584L100.602 115.474Z" fill="#E84343"/>
<path d="M43.7317 146.637L18.7891 132.238C17.7384 131.629 17.7384 130.112 18.7891 129.515L70.5368 99.5821C71.8741 98.806 73.5218 98.806 74.871 99.5821L99.8135 113.982C100.864 114.591 100.864 116.107 99.8135 116.704L48.0659 146.637C46.7166 147.402 45.0689 147.413 43.7317 146.637Z" fill="#FC7464"/>
<path d="M71.6211 101.588L60.8751 107.797L85.746 122.16L96.5039 115.952L71.6211 101.588Z" fill="#E84343"/>
<path d="M85.7105 121.707L62.9888 108.585L71.6572 103.582L94.3789 116.704L85.7105 121.707Z" fill="#1C6DF6"/>
<path d="M68.1592 128.536C63.1206 131.438 54.9417 131.426 49.8792 128.5C44.8167 125.575 44.7928 120.847 49.8195 117.945C54.8462 115.044 63.037 115.056 68.0995 117.981C73.174 120.907 73.1979 125.635 68.1592 128.536Z" fill="#FC5552"/>
<path d="M66.4879 129.061C62.3686 131.437 55.6823 131.425 51.5391 129.037C47.396 126.649 47.3721 122.781 51.4914 120.404C55.6106 118.028 62.297 118.04 66.4401 120.428C70.5833 122.816 70.6072 126.685 66.4879 129.061Z" fill="#E84343"/>
<path d="M49.2224 142.351C48.0762 143.02 46.2136 143.008 45.0554 142.339C43.8972 141.67 43.8972 140.596 45.0435 139.927C46.1897 139.259 48.0523 139.27 49.2105 139.939C50.3567 140.62 50.3687 141.694 49.2224 142.351Z" fill="#202A5F"/>
<path d="M48.8415 142.471C47.8982 143.009 46.3699 143.009 45.4266 142.459C44.4834 141.91 44.4715 141.027 45.4147 140.489C46.358 139.952 47.8863 139.952 48.8295 140.501C49.7728 141.051 49.7847 141.934 48.8415 142.471Z" fill="#0E173D"/>
<path d="M50.5122 128.846C50.5122 128.846 48.578 127.831 49.4496 127.318L64.9237 119.891C65.7953 119.389 67.1326 119.33 67.8848 119.772L68.6132 118.291C69.3773 118.733 68.7684 121.109 67.8848 121.61L53.4256 129.956C53.4256 129.968 51.2644 129.288 50.5122 128.846Z" fill="#FC5552"/>
<path d="M50.1061 128.5L49.8912 128.381C49.127 127.939 49.2225 127.175 50.1061 126.674C50.1061 126.674 53.306 123.259 57.6879 120.942C61.9266 118.71 64.9116 118.125 64.9116 118.125C65.7832 117.623 67.1205 117.563 67.8727 118.005L68.0876 118.125C68.8518 118.566 68.7562 119.331 67.8727 119.832C67.8727 119.832 64.3504 120.942 60.0759 122.984C55.9925 124.93 53.0552 128.381 53.0552 128.381C52.1956 128.882 50.8702 128.942 50.1061 128.5Z" fill="#FC7464"/>
<path d="M49.3843 137.403V134.55L53.8379 140.365L53.42 142.764L49.3843 137.403Z" fill="#5195FB"/>
<path d="M49.3841 134.551L51.5333 133.5L55.6406 139.243L53.8377 140.365L49.3841 134.551Z" fill="#81B2FC"/>
<path d="M55.6397 139.243L53.8368 140.366L54.9591 143.148L56.3203 142.359L55.6397 139.243Z" fill="#5195FB"/>
<path d="M53.4138 134.716V131.862L57.8555 137.665L57.4376 140.065L53.4138 134.716Z" fill="#C02106"/>
<path d="M53.4134 131.863L55.5626 130.812L59.6699 136.556L57.855 137.666L53.4134 131.863Z" fill="#FC5552"/>
<path d="M57.4361 140.066L58.9883 141.141V140.46L57.854 137.666L57.4361 140.066Z" fill="#FC5552"/>
<path d="M59.6691 136.556L57.8542 137.666L58.9885 140.46L60.3496 139.672L59.6691 136.556Z" fill="#C02106"/>
<path d="M60.3496 140.461V139.673L58.9885 140.461V141.141L60.3496 140.461Z" fill="#FC5552"/>
<path d="M159.199 100.346L150.925 105.122V103.701L158.853 99.1164C159.151 98.9493 159.736 98.9254 159.736 99.3194C159.736 99.7134 159.486 100.167 159.199 100.346Z" fill="#C9DEFE"/>
<path d="M150.147 103.415C150.135 102.663 150.661 102.341 151.318 102.699C151.974 103.057 152.512 103.977 152.512 104.729C152.523 105.481 151.998 105.803 151.341 105.445C150.685 105.075 150.159 104.168 150.147 103.415Z" fill="#FF8980"/>
<path d="M146.399 110.746C145.969 111.128 145.313 111.164 144.572 110.746C143.271 110.018 142.196 108.203 142.184 106.699L150.148 103.415C150.16 104.167 150.698 105.075 151.342 105.445C151.712 105.648 152.047 105.636 152.262 105.445C150.304 107.212 148.357 108.979 146.399 110.746Z" fill="#FF8980"/>
<path d="M150.602 102.579C150.315 102.675 150.148 102.961 150.148 103.415L142.184 106.698C142.172 105.815 142.53 105.23 143.091 105.039C143.318 104.967 150.375 102.663 150.602 102.579Z" fill="#FF8980"/>
<path d="M143.091 105.05C143.318 104.979 150.374 102.662 150.601 102.591C150.792 102.531 151.043 102.555 151.318 102.71C151.974 103.068 152.512 103.988 152.512 104.74C152.512 105.062 152.428 105.313 152.261 105.456C150.303 107.223 148.357 108.99 146.398 110.758C146.721 110.471 146.9 109.981 146.9 109.337C146.876 107.832 145.813 106.017 144.512 105.289C143.975 104.991 143.473 104.919 143.091 105.05Z" fill="#FC5552"/>
<path d="M144.571 110.937C145.956 111.713 147.078 111.032 147.054 109.42C147.03 107.809 145.896 105.874 144.499 105.098C143.114 104.322 141.992 105.003 142.016 106.615C142.04 108.226 143.186 110.161 144.571 110.937ZM142.183 106.698C142.159 105.194 143.21 104.549 144.511 105.277C145.813 106.006 146.887 107.82 146.899 109.325C146.923 110.829 145.872 111.474 144.571 110.746C143.269 110.029 142.195 108.215 142.183 106.698Z" fill="#FF8980"/>
<path d="M141.992 104.228C142.016 104.216 142.171 104.12 142.398 104.06C142.541 104.025 142.696 104.001 142.852 104.001C143.305 103.989 143.676 104.12 143.855 104.192C144.034 104.263 144.404 104.419 144.858 104.753C145.335 105.111 145.705 105.517 145.825 105.648C145.932 105.78 146.123 106.007 146.243 106.174C146.302 106.257 146.386 106.365 146.434 106.448C146.493 106.532 146.565 106.651 146.613 106.735C146.66 106.819 146.732 106.938 146.78 107.033C146.78 107.033 146.923 107.308 147.066 107.642C147.186 107.917 147.234 108.06 147.293 108.275C147.401 108.598 147.711 109.708 147.472 110.735C147.449 110.83 147.377 111.141 147.186 111.451C147.007 111.738 146.792 111.929 146.72 111.977C146.649 112.024 146.541 112.096 146.458 112.144C146.41 112.168 146.338 112.203 146.278 112.215C146.207 112.239 146.099 112.275 146.028 112.299C145.896 112.323 145.789 112.347 145.574 112.347C145.443 112.347 145.264 112.323 145.132 112.299C145.132 112.299 144.798 112.239 144.38 112.048C143.938 111.845 143.592 111.571 143.592 111.571C143.449 111.451 143.246 111.296 143.114 111.165C143.043 111.105 142.947 111.01 142.887 110.938C142.601 110.627 142.601 110.627 142.458 110.436C142.279 110.21 142.147 110.018 142.064 109.887C141.789 109.457 141.622 109.123 141.574 109.004C141.491 108.824 141.383 108.574 141.311 108.395C141.276 108.299 141.24 108.168 141.204 108.072C141.168 107.977 141.132 107.845 141.108 107.75C141.061 107.559 141.013 107.32 140.989 107.129C140.977 107.033 140.965 106.902 140.953 106.807C140.941 106.711 140.941 106.592 140.941 106.508C140.941 106.448 140.977 106.401 141.061 106.353C141.276 106.234 141.777 106.46 142.028 106.604C142.052 108.216 143.186 110.15 144.583 110.926C145.968 111.702 147.09 111.021 147.066 109.41C147.043 107.798 145.908 105.863 144.511 105.087C143.126 104.311 142.004 104.992 142.028 106.604C141.777 106.46 141.276 106.234 141.061 106.353C140.977 106.401 140.941 106.46 140.941 106.508C140.941 106.126 140.977 105.875 140.977 105.875C141.001 105.732 141.049 105.529 141.096 105.386C141.12 105.302 141.168 105.195 141.204 105.123C141.467 104.562 141.837 104.335 141.992 104.228Z" fill="#FF8980"/>
<path d="M143.987 111.284C145.372 112.061 146.494 111.38 146.47 109.768C146.446 108.156 145.312 106.222 143.915 105.446C142.518 104.67 141.408 105.35 141.432 106.962C141.456 108.574 142.602 110.508 143.987 111.284ZM141.599 107.046C141.575 105.541 142.626 104.897 143.927 105.625C145.229 106.353 146.303 108.168 146.315 109.673C146.339 111.177 145.288 111.822 143.987 111.093C142.685 110.365 141.611 108.55 141.599 107.046Z" fill="#FF8980"/>
<path d="M140.93 106.531C140.93 106.364 140.942 106.137 140.966 105.97C140.978 105.886 141.002 105.767 141.014 105.695C141.061 105.492 141.061 105.492 141.169 105.206C141.193 105.134 141.252 105.027 141.288 104.955C141.348 104.848 141.443 104.716 141.527 104.621C141.575 104.561 141.658 104.49 141.718 104.442C141.802 104.382 141.909 104.298 141.993 104.251C142.088 104.203 142.243 104.119 142.399 104.084C142.518 104.06 142.685 104.036 142.816 104.024C142.9 104.012 142.996 104.024 143.079 104.024C143.163 104.036 143.27 104.036 143.342 104.06C143.413 104.072 143.509 104.096 143.581 104.119C143.664 104.143 143.772 104.179 143.855 104.215C144.01 104.275 144.202 104.37 144.345 104.442C144.5 104.537 144.715 104.669 144.858 104.776C144.942 104.836 145.037 104.907 145.109 104.979C145.431 105.266 145.431 105.266 145.587 105.433C145.885 105.743 146.172 106.101 146.422 106.483C146.601 106.77 146.733 106.997 146.769 107.069C146.9 107.307 146.924 107.367 147.055 107.677C147.055 107.677 147.175 107.964 147.282 108.31C147.354 108.549 147.354 108.561 147.449 108.943C147.497 109.17 147.557 109.564 147.557 109.898C147.557 110.065 147.545 110.304 147.521 110.471C147.497 110.662 147.485 110.686 147.401 110.985C147.366 111.128 147.222 111.45 147.079 111.642C146.984 111.761 146.912 111.856 146.781 111.964C146.733 112 146.673 112.047 146.625 112.083C146.554 112.131 146.458 112.179 146.387 112.215C146.303 112.25 146.195 112.298 146.1 112.31C146.04 112.322 145.969 112.346 145.909 112.358C145.825 112.37 145.718 112.382 145.622 112.382C145.491 112.382 145.312 112.37 145.181 112.346C145.085 112.334 144.978 112.31 144.882 112.274C144.464 112.155 144.106 111.952 144.106 111.952C143.951 111.856 143.748 111.725 143.605 111.63C143.521 111.57 143.413 111.486 143.342 111.427C143.031 111.152 143.031 111.152 142.864 110.985C142.673 110.782 142.554 110.651 142.434 110.483C142.411 110.459 142.243 110.245 142.04 109.934C141.921 109.743 141.921 109.743 141.694 109.349C141.611 109.206 141.599 109.182 141.408 108.74C141.372 108.645 141.324 108.525 141.288 108.43C141.288 108.43 141.109 107.964 141.014 107.486C141.014 107.331 140.942 106.973 140.93 106.531C140.93 106.675 141.193 106.83 141.431 106.961C141.455 108.573 142.59 110.507 143.987 111.283C145.372 112.059 146.494 111.379 146.47 109.767C146.446 108.155 145.312 106.221 143.915 105.445C142.518 104.669 141.408 105.349 141.431 106.961C141.193 106.818 140.93 106.675 140.93 106.531Z" fill="#FC7464"/>
<path d="M135.485 117.576C135.02 117.874 134.351 117.851 133.623 117.445C132.166 116.633 130.972 114.603 130.948 112.919L141.599 107.045C141.623 108.549 142.685 110.364 143.987 111.093C144.643 111.463 145.228 111.475 145.658 111.212C142.267 113.337 138.876 115.463 135.485 117.576Z" fill="#FF8980"/>
<path d="M142.316 105.468C141.863 105.707 141.588 106.256 141.6 107.044L130.95 112.918C130.938 112.035 131.248 111.426 131.75 111.151C135.272 109.253 138.794 107.366 142.316 105.468Z" fill="#FF8980"/>
<path d="M131.749 111.153C135.272 109.254 138.794 107.368 142.316 105.469C142.734 105.243 143.295 105.278 143.916 105.625C145.218 106.353 146.292 108.168 146.304 109.672C146.316 110.425 146.065 110.95 145.648 111.213C142.257 113.338 138.866 115.451 135.487 117.577C135.952 117.29 136.227 116.693 136.215 115.857C136.191 114.174 134.997 112.144 133.54 111.332C132.848 110.938 132.215 110.902 131.749 111.153Z" fill="#FC5552"/>
<path d="M105.969 132.227C105.778 132.322 105.515 132.298 105.24 132.143C104.631 131.809 104.13 130.961 104.13 130.257L130.959 112.92C130.983 114.603 132.177 116.633 133.633 117.445C134.314 117.827 134.935 117.875 135.389 117.648C125.574 122.496 115.771 127.367 105.969 132.227Z" fill="#FF8980"/>
<path d="M131.641 111.213C131.199 111.511 130.936 112.096 130.936 112.908L104.107 130.245C104.107 129.911 104.215 129.66 104.394 129.541C113.492 123.439 122.566 117.326 131.641 111.213Z" fill="#FF8980"/>
<path d="M104.119 130.257C104.108 129.553 104.597 129.254 105.206 129.601C105.815 129.935 106.316 130.783 106.316 131.487C106.316 132.191 105.839 132.49 105.23 132.144C104.633 131.809 104.131 130.962 104.119 130.257Z" fill="#FF8980"/>
<path d="M104.418 129.552C113.493 123.438 122.567 117.325 131.653 111.212C132.131 110.889 132.799 110.901 133.552 111.331C135.008 112.143 136.202 114.173 136.226 115.856C136.238 116.752 135.916 117.385 135.379 117.636C125.576 122.495 115.773 127.355 105.97 132.214C106.185 132.107 106.329 131.844 106.317 131.474C106.305 130.769 105.815 129.934 105.206 129.587C104.896 129.42 104.609 129.42 104.418 129.552Z" fill="#E84343"/>
<path d="M168.408 108.643L160.134 113.419V111.998L168.062 107.413C168.36 107.246 168.945 107.222 168.945 107.616C168.945 108.022 168.706 108.476 168.408 108.643Z" fill="#C9DEFE"/>
<path d="M160.134 111.223C160.122 110.471 160.647 110.148 161.304 110.507C161.961 110.865 162.498 111.784 162.498 112.536C162.51 113.289 161.984 113.611 161.328 113.253C160.671 112.895 160.146 111.987 160.134 111.223Z" fill="#009FBD"/>
<path d="M156.395 118.567C155.965 118.95 155.309 118.985 154.568 118.567C153.267 117.839 152.192 116.024 152.181 114.52L160.144 111.236C160.156 111.989 160.694 112.896 161.338 113.266C161.709 113.469 162.043 113.457 162.258 113.266C160.3 115.021 158.342 116.8 156.395 118.567Z" fill="#009FBD"/>
<path d="M160.586 110.399C160.299 110.495 160.132 110.781 160.132 111.235L152.168 114.519C152.156 113.635 152.515 113.05 153.076 112.859C153.303 112.787 160.359 110.471 160.586 110.399Z" fill="#009FBD"/>
<path d="M153.077 112.86C153.304 112.788 160.361 110.472 160.588 110.4C160.779 110.34 161.029 110.364 161.304 110.52C161.961 110.878 162.498 111.797 162.498 112.549C162.498 112.872 162.414 113.123 162.247 113.266C160.289 115.033 158.343 116.8 156.385 118.567C156.707 118.281 156.886 117.791 156.886 117.146C156.862 115.642 155.8 113.827 154.498 113.099C153.961 112.8 153.471 112.728 153.077 112.86Z" fill="#5195FB"/>
<path d="M154.569 118.745C155.954 119.522 157.076 118.841 157.052 117.229C157.028 115.617 155.894 113.683 154.497 112.907C153.112 112.131 151.99 112.811 152.014 114.423C152.026 116.035 153.172 117.969 154.569 118.745ZM152.169 114.519C152.145 113.014 153.196 112.369 154.497 113.098C155.799 113.826 156.873 115.641 156.885 117.145C156.909 118.65 155.858 119.295 154.557 118.566C153.255 117.838 152.193 116.023 152.169 114.519Z" fill="#009FBD"/>
<path d="M151.99 112.048C152.014 112.036 152.169 111.94 152.396 111.881C152.539 111.845 152.695 111.821 152.85 111.821C153.304 111.809 153.674 111.94 153.853 112.012C154.032 112.084 154.402 112.239 154.856 112.573C155.333 112.931 155.704 113.337 155.811 113.469C155.918 113.6 156.11 113.827 156.229 113.994C156.289 114.078 156.372 114.185 156.42 114.269C156.48 114.352 156.551 114.472 156.599 114.555C156.647 114.639 156.718 114.758 156.766 114.854C156.766 114.854 156.91 115.128 157.053 115.463C157.172 115.737 157.22 115.881 157.28 116.096C157.387 116.418 157.698 117.528 157.459 118.555C157.435 118.651 157.363 118.961 157.172 119.272C156.993 119.558 156.778 119.749 156.707 119.785C156.635 119.833 156.527 119.904 156.444 119.952C156.396 119.976 156.324 120.012 156.265 120.024C156.193 120.048 156.086 120.084 156.014 120.107C155.883 120.131 155.775 120.155 155.56 120.155C155.429 120.155 155.25 120.131 155.119 120.107C155.119 120.107 154.784 120.048 154.366 119.857C153.925 119.654 153.578 119.379 153.578 119.379C153.435 119.26 153.232 119.104 153.101 118.973C153.029 118.913 152.934 118.818 152.874 118.746C152.587 118.436 152.587 118.436 152.444 118.245C152.265 118.018 152.134 117.827 152.05 117.696C151.775 117.266 151.608 116.931 151.56 116.812C151.477 116.633 151.369 116.382 151.298 116.203C151.262 116.108 151.226 115.976 151.19 115.881C151.154 115.785 151.119 115.654 151.095 115.558C151.047 115.367 150.999 115.128 150.975 114.937C150.963 114.842 150.951 114.711 150.94 114.615C150.928 114.52 150.928 114.4 150.928 114.317C150.928 114.257 150.963 114.209 151.047 114.161C151.262 114.042 151.763 114.269 152.014 114.412C152.038 116.024 153.172 117.958 154.569 118.734C155.954 119.51 157.077 118.83 157.053 117.218C157.029 115.606 155.895 113.672 154.498 112.896C153.113 112.12 151.99 112.8 152.014 114.412C151.763 114.269 151.262 114.042 151.047 114.161C150.963 114.209 150.928 114.269 150.928 114.317C150.928 113.923 150.963 113.684 150.963 113.684C150.987 113.54 151.035 113.337 151.083 113.194C151.107 113.111 151.154 113.003 151.19 112.931C151.453 112.37 151.823 112.143 151.99 112.048Z" fill="#009FBD"/>
<path d="M153.973 119.093C155.358 119.869 156.481 119.189 156.457 117.577C156.433 115.965 155.298 114.031 153.901 113.254C152.505 112.478 151.394 113.159 151.418 114.771C151.442 116.383 152.588 118.317 153.973 119.093ZM151.585 114.854C151.561 113.35 152.612 112.705 153.913 113.434C155.215 114.162 156.289 115.977 156.301 117.481C156.325 118.986 155.275 119.63 153.973 118.902C152.672 118.186 151.597 116.371 151.585 114.854Z" fill="#5195FB"/>
<path d="M150.928 114.339C150.928 114.172 150.94 113.945 150.964 113.778C150.976 113.694 151 113.575 151.012 113.491C151.06 113.288 151.06 113.288 151.167 113.002C151.191 112.93 151.251 112.823 151.286 112.751C151.346 112.644 151.442 112.512 151.525 112.417C151.573 112.357 151.657 112.285 151.716 112.238C151.8 112.178 151.907 112.094 151.991 112.047C152.086 111.999 152.242 111.915 152.397 111.879C152.516 111.856 152.683 111.832 152.803 111.82C152.886 111.808 152.982 111.82 153.065 111.82C153.149 111.832 153.257 111.832 153.328 111.856C153.4 111.868 153.495 111.891 153.567 111.915C153.651 111.939 153.758 111.975 153.842 112.011C153.997 112.071 154.188 112.166 154.331 112.238C154.486 112.333 154.701 112.465 154.845 112.572C154.928 112.632 155.024 112.703 155.095 112.775C155.418 113.062 155.418 113.062 155.573 113.229C155.871 113.539 156.158 113.897 156.409 114.279C156.588 114.566 156.719 114.793 156.755 114.864C156.886 115.103 156.91 115.163 157.041 115.473C157.041 115.473 157.161 115.76 157.268 116.106C157.34 116.345 157.34 116.357 157.436 116.739C157.483 116.966 157.543 117.36 157.543 117.694C157.543 117.861 157.531 118.1 157.507 118.267C157.483 118.458 157.471 118.482 157.388 118.781C157.352 118.924 157.209 119.246 157.065 119.437C156.97 119.557 156.898 119.652 156.767 119.76C156.719 119.796 156.659 119.843 156.612 119.879C156.54 119.927 156.444 119.975 156.373 120.011C156.289 120.046 156.182 120.094 156.098 120.106C156.039 120.118 155.967 120.142 155.907 120.154C155.824 120.166 155.716 120.178 155.621 120.178C155.489 120.178 155.31 120.166 155.179 120.142C155.083 120.13 154.976 120.106 154.88 120.07C154.462 119.951 154.104 119.748 154.104 119.748C153.949 119.652 153.746 119.521 153.603 119.426C153.519 119.366 153.412 119.282 153.34 119.223C153.03 118.948 153.03 118.948 152.862 118.781C152.671 118.578 152.552 118.434 152.433 118.279C152.409 118.255 152.242 118.04 152.039 117.73C151.919 117.539 151.919 117.539 151.692 117.145C151.609 117.002 151.597 116.978 151.406 116.536C151.37 116.441 151.322 116.321 151.286 116.226C151.286 116.226 151.107 115.76 151.012 115.282C151 115.139 150.928 114.793 150.928 114.339C150.928 114.482 151.191 114.638 151.43 114.769C151.454 116.381 152.588 118.315 153.985 119.091C155.37 119.867 156.492 119.187 156.468 117.575C156.444 115.963 155.31 114.029 153.913 113.253C152.516 112.476 151.406 113.157 151.43 114.769C151.179 114.638 150.916 114.482 150.928 114.339Z" fill="#99C1FD"/>
<path d="M145.472 125.397C145.006 125.696 144.337 125.672 143.609 125.266C142.152 124.454 140.958 122.424 140.935 120.741L151.585 114.866C151.609 116.371 152.671 118.186 153.973 118.914C154.63 119.284 155.215 119.296 155.645 119.033C152.254 121.147 148.863 123.272 145.472 125.397Z" fill="#009FBD"/>
<path d="M152.301 113.276C151.847 113.515 151.572 114.064 151.584 114.852L140.934 120.727C140.922 119.843 141.232 119.234 141.734 118.96C145.256 117.073 148.779 115.175 152.301 113.276Z" fill="#009FBD"/>
<path d="M141.746 118.961C145.268 117.062 148.79 115.176 152.312 113.277C152.73 113.05 153.292 113.086 153.912 113.432C155.214 114.161 156.288 115.976 156.3 117.48C156.312 118.232 156.062 118.758 155.644 119.02C152.253 121.146 148.862 123.259 145.483 125.384C145.948 125.098 146.223 124.501 146.211 123.665C146.187 121.981 144.993 119.952 143.537 119.14C142.832 118.746 142.211 118.71 141.746 118.961Z" fill="#69A4FC"/>
<path d="M115.955 140.035C115.764 140.131 115.501 140.107 115.227 139.952C114.618 139.617 114.116 138.77 114.116 138.065L140.945 120.729C140.969 122.412 142.163 124.442 143.62 125.254C144.3 125.636 144.921 125.684 145.375 125.457C135.56 130.316 125.758 135.176 115.955 140.035Z" fill="#009FBD"/>
<path d="M141.639 119.033C141.197 119.332 140.934 119.917 140.934 120.729L114.105 138.065C114.105 137.731 114.213 137.48 114.392 137.361C123.478 131.248 132.552 125.135 141.639 119.033Z" fill="#009FBD"/>
<path d="M114.116 138.066C114.104 137.361 114.593 137.063 115.202 137.409C115.811 137.743 116.312 138.591 116.312 139.296C116.312 140 115.835 140.299 115.226 139.952C114.617 139.618 114.116 138.77 114.116 138.066Z" fill="#1C6DF6"/>
<path d="M114.405 137.36C123.479 131.247 132.553 125.134 141.64 119.02C142.117 118.698 142.786 118.71 143.538 119.14C144.995 119.952 146.189 121.982 146.213 123.665C146.225 124.561 145.902 125.193 145.365 125.444C135.562 130.304 125.759 135.163 115.957 140.023C116.172 139.915 116.315 139.653 116.303 139.283C116.291 138.578 115.802 137.742 115.193 137.396C114.882 137.229 114.596 137.229 114.405 137.36Z" fill="#5195FB"/>
<path d="M45.997 182.554C47.0716 182.554 48.2298 182.411 49.4118 182.148C49.4477 182.148 49.4954 182.148 49.5312 182.148C53.7699 182.053 59.0235 180.226 64.7188 176.847C69.3634 174.101 72.0141 170.399 72.6111 165.838C73.0887 162.185 72.1932 158.376 70.7007 154.818C77.7811 151.152 105.446 131.427 105.518 131.38L104.956 130.341C104.873 130.389 77.2558 150.089 70.2231 153.731C66.6053 145.839 60.313 139.391 59.9309 138.985L59.0951 139.809C59.1906 139.905 65.5665 146.436 69.1605 154.28C64.1576 156.859 58.1041 159.904 51.7759 162.949C44.5164 166.435 39.7405 171.14 38.9883 175.545C38.6539 177.504 39.1793 179.235 40.5046 180.56C41.8777 181.957 43.8 182.554 45.997 182.554ZM64.1338 161.158C59.3817 161.158 52.5043 163.355 45.9373 168.74C42.3195 171.713 40.7195 175.342 41.7822 178.208C42.2956 179.605 43.3583 180.656 44.8388 181.324C43.4419 181.145 42.2359 180.644 41.3166 179.724C40.2658 178.674 39.8599 177.324 40.1345 175.748C40.8151 171.784 45.4597 167.283 52.2774 164.011C58.5936 160.979 64.6233 157.946 69.6261 155.367C71.0351 158.746 71.8708 162.316 71.441 165.683C70.9037 169.85 68.4321 173.265 64.1218 175.82C61.1368 177.587 58.5339 178.781 56.325 179.557C60.0264 177.671 63.5726 175.104 66.1874 172.501C68.0381 170.65 69.3396 168.847 69.9605 167.271C70.8918 164.907 70.1634 163.486 69.3873 162.71C68.3963 161.719 66.5456 161.158 64.1338 161.158ZM49.3999 180.966C46.0806 181.026 43.6568 179.868 42.8926 177.802C42.0091 175.426 43.4658 172.298 46.6895 169.659C56.6236 161.492 66.3546 161.349 68.5635 163.558C69.3276 164.322 69.4351 165.432 68.8739 166.853C68.3127 168.274 67.0949 169.946 65.3636 171.689C61.3756 175.653 54.8923 179.677 49.3999 180.966Z" fill="#FC9F9C"/>
<path d="M45.1135 185.111C45.2329 185.111 45.3404 185.111 45.4598 185.111C49.6388 185.016 55.1431 183.069 60.9578 179.619C65.5905 176.872 68.2292 173.183 68.7904 168.658C69.1247 165.995 68.7188 163.237 67.8711 160.563C80.4199 157.649 115.034 139.286 115.213 139.274L115.093 138.104C114.914 138.127 80.1692 156.491 67.489 159.452C64.2055 150.366 56.2774 142.402 55.8356 141.96L54.9998 142.796C55.1073 142.903 63.0234 150.855 66.3069 159.727C59.74 161.303 53.0416 163.345 47.6687 165.924C40.5047 169.362 35.7765 174.031 35.0362 178.425C34.7019 180.419 35.2273 182.174 36.5765 183.523C38.0809 185.027 40.4809 185.242 42.9166 184.944C43.6091 185.051 44.3374 185.111 45.1135 185.111ZM59.9191 164.228C55.167 164.228 48.4328 166.306 41.8539 171.702C38.2361 174.676 36.6362 178.305 37.6989 181.171C38.0929 182.245 38.8212 183.129 39.8122 183.774C38.7854 183.607 37.9854 183.248 37.4123 182.687C36.3496 181.625 35.9317 180.216 36.2064 178.616C36.8869 174.664 41.4718 170.198 48.194 166.974C53.5073 164.419 60.1698 162.401 66.7009 160.837C67.5248 163.392 67.9308 166.007 67.6203 168.515C67.1069 172.658 64.6592 176.049 60.3489 178.604C55.9669 181.195 51.6686 182.95 48.1224 183.63C56.0505 180.801 65.6383 174.102 66.5696 169.207C66.8442 167.786 66.3905 166.544 65.2562 165.649C64.1697 164.753 62.2951 164.228 59.9191 164.228ZM59.931 165.41C62.0563 165.41 63.6682 165.852 64.5398 166.544C65.3278 167.177 65.6263 167.965 65.4353 168.968C64.6234 173.243 55.0595 180.287 46.4866 182.926C45.2091 183.32 44.0389 183.583 42.9763 183.738C40.8629 183.332 39.4062 182.305 38.8331 180.765C37.9496 178.389 39.4062 175.261 42.63 172.622C49.1253 167.273 55.5849 165.41 59.931 165.41Z" fill="#81B2FC"/>
</g>
</g>
</g>
</svg>
