<svg width="384" height="140" viewBox="0 0 384 140" fill="none" xmlns="http://www.w3.org/2000/svg">
<g opacity="0.8">
<mask id="mask0_728_4683" style="mask-type:alpha" maskUnits="userSpaceOnUse" x="0" y="0" width="384" height="140">
<path d="M0 5C0 2.23857 2.23858 0 5 0H379C381.761 0 384 2.23858 384 5V140H0V5Z" fill="#EE1D23"/>
</mask>
<g mask="url(#mask0_728_4683)">
<g style="mix-blend-mode:luminosity" opacity="0.7">
<path d="M157.069 120.989C158.84 121.784 160.607 122.574 162.382 123.366C162.769 123.504 163.039 123.781 163.215 124.143C163.938 125.664 165.183 126.021 166.781 126.058C168.963 126.11 170.472 125.332 171.234 123.165C173.342 121.29 175.959 120.357 178.385 119.101C185.613 115.357 192.836 111.596 200.076 107.87C204.102 105.795 208.124 103.715 212.144 101.623C212.706 101.332 213.252 101.019 213.9 101.013C214.574 100.693 215.258 100.407 215.914 100.051C216.553 99.7019 217.172 99.578 217.494 100.327C217.78 100.998 217.244 101.373 216.698 101.658C213.383 103.385 210.064 105.116 206.749 106.843C196.082 112.395 185.422 117.956 174.75 123.491C173.855 123.953 173.132 124.458 172.698 125.463C171.025 129.317 163.157 129.599 161.431 125.854C160.991 124.901 160.368 124.279 159.334 124.118C157.347 124.154 155.786 123.29 154.505 121.84C142.131 116.336 129.753 110.835 117.377 105.327C116.802 105.074 116.11 104.784 116.427 103.987C116.784 103.09 117.491 103.361 118.145 103.666C118.855 103.991 119.589 104.27 120.308 104.567C121.006 104.417 121.632 104.624 122.251 104.9C132.001 109.281 141.805 113.544 151.519 118.002C152.701 118.778 154.099 119.073 155.342 119.719C155.988 120.051 156.692 120.29 157.069 120.989Z" fill="#F5465B"/>
<path d="M154.859 121.768C156.476 122.529 158.092 123.297 159.709 124.058C159.723 127.23 159.738 130.395 159.756 133.719C158.599 133.345 158.316 131.795 157.413 132.029C156.602 132.242 155.963 133.253 154.917 134.217C154.894 129.819 154.876 125.798 154.859 121.768Z" fill="#57BCAE"/>
<path d="M126.643 101.791C126.203 101.67 125.793 101.57 125.322 101.797C123.659 102.593 121.983 103.35 120.316 104.121C130.793 108.798 141.265 113.479 151.741 118.157C153.674 116.865 154.369 114.909 154.615 112.721C145.761 107.898 136.336 104.506 126.643 101.791Z" fill="#F8E096"/>
<path d="M212.824 100.628C210.355 99.2159 207.947 98.809 205.167 100.386C202.571 101.856 199.703 102.792 196.975 104.021C188.317 107.928 179.644 111.812 171.628 117.08C171.313 117.287 171.051 117.733 170.364 117.6C173.702 114.62 177.287 112.405 180.983 110.372C189.248 105.832 197.825 102.057 206.572 98.7049C207.03 98.5298 207.908 98.5301 207.625 97.6668C207.413 97.0216 206.86 97.4737 206.47 97.6252C195.439 101.935 184.528 106.517 174.453 113.026C174.188 113.195 173.929 113.695 173.431 113.256C173.827 112.868 174.184 112.496 174.569 112.152C180.511 106.755 187.237 102.566 194.127 98.6533C197.187 96.9104 200.336 95.3386 203.437 93.6704C203.797 93.4782 204.44 93.3648 204.107 92.7073C203.84 92.1893 203.42 92.5533 203.067 92.677C202.903 92.7325 202.759 92.8356 202.604 92.9126C194.099 97.2079 185.789 101.852 178.182 107.747C176.522 109.034 174.915 110.406 173.288 111.738C173.416 111.232 173.681 110.868 173.976 110.536C178.563 105.434 183.775 101.074 189.225 97.015C192.621 94.4884 196.134 92.1325 199.582 89.6783C199.897 89.4512 200.592 89.3532 200.264 88.6922C199.852 87.8646 199.408 88.5766 199.035 88.7998C198.191 89.3065 197.376 89.854 196.563 90.414C187.959 96.3499 179.571 102.556 172.572 110.518C171.256 112.011 170.107 113.656 168.633 115.544C169.732 111.376 171.023 107.699 172.514 104.086C175.947 95.7483 180.128 87.7855 184.648 79.991C184.91 79.5445 185.585 78.9496 184.831 78.5169C184.179 78.147 184.034 78.981 183.796 79.3736C181.169 83.7317 178.753 88.2083 176.488 92.7583C172.573 100.622 169.051 108.641 167.077 117.523C166.341 115.288 165.808 113.296 165.045 111.404C160.885 101.057 154.576 92.1467 147.664 83.6493C147.235 83.1217 146.792 82.6126 146.35 82.0954C146.169 81.8832 145.963 81.6267 145.654 81.8708C145.349 82.1114 145.235 82.4308 145.502 82.7733C145.714 83.0388 145.94 83.2939 146.156 83.5559C151.85 90.4676 157.067 97.7313 161.242 105.745C161.713 106.654 162.149 107.582 162.589 108.508C162.992 109.371 163.377 110.248 163.771 111.118C157.633 101.782 150.3 93.5785 142.48 85.8201C142.082 85.4233 141.682 84.3196 140.941 85.0772C140.29 85.7448 141.326 86.1012 141.681 86.4883C144.252 89.2614 146.943 91.9283 149.457 94.7511C155.059 101.046 160.499 107.486 164.313 115.165C164.842 116.233 165.453 117.287 165.513 118.708C163.635 117.074 161.956 115.492 160.156 114.064C151.212 106.971 141.379 101.281 131.428 95.7872C130.975 95.5381 130.338 94.672 129.874 95.5119C129.427 96.3174 130.487 96.4033 130.932 96.7289C131.426 97.0938 132.008 97.3357 132.543 97.6409C140.84 102.29 149.011 107.135 156.692 112.783C158.694 114.259 160.685 115.757 162.269 117.784C161.23 117.17 160.193 116.548 159.154 115.934C157.695 117.403 156.664 119.057 156.889 121.236C158.465 122.666 160.342 123.458 162.41 123.852C164.985 123.407 167.556 122.84 170.171 123.242C170.273 123.227 170.368 123.203 170.468 123.176C170.698 123.477 171.116 123.374 171.514 123.321C179.374 119.205 187.237 115.092 195.095 110.963C201.369 107.669 207.63 104.357 213.898 101.046C213.537 100.895 213.181 100.762 212.824 100.628Z" fill="#F8E096"/>
<path d="M151.781 118.447C152.924 116.741 153.718 114.846 154.645 113.025C156.431 113.603 157.974 114.614 159.468 115.725C158.767 117.457 157.721 119.053 157.277 120.898C155.437 120.108 153.525 119.464 151.781 118.447Z" fill="#57BCAE"/>
<path d="M170.715 122.774C171.11 122.962 171.513 123.152 171.908 123.34C171.327 125.597 170.256 126.558 168.189 126.689C164.532 126.916 163.652 126.404 162.674 123.483C165.32 122.564 167.989 122.245 170.715 122.774Z" fill="#57BCAE"/>
<path d="M236.224 108.285L268.974 143.135L347.262 116.963L314.512 82.1128L236.224 108.285Z" fill="#FCEAB2"/>
<path d="M308.716 84.0409L308.884 83.9761L341.645 118.826L341.466 118.891L308.716 84.0409Z" fill="#86DDD1"/>
<path d="M306.017 84.9207L306.185 84.8667L338.945 119.716L338.767 119.771L306.017 84.9207Z" fill="#86DDD1"/>
<path d="M303.31 85.8192L303.489 85.7651L336.238 120.615L336.059 120.669L303.31 85.8192Z" fill="#86DDD1"/>
<path d="M300.611 86.7128L300.789 86.6479L333.539 121.498L333.36 121.563L300.611 86.7128Z" fill="#86DDD1"/>
<path d="M297.907 87.6043L298.086 87.5503L330.836 122.4L330.657 122.465L297.907 87.6043Z" fill="#86DDD1"/>
<path d="M295.204 88.5028L295.383 88.4487L328.133 123.299L327.954 123.353L295.204 88.5028Z" fill="#86DDD1"/>
<path d="M292.501 89.3964L292.68 89.3315L325.43 124.192L325.251 124.246L292.501 89.3964Z" fill="#86DDD1"/>
<path d="M289.798 90.2948L289.977 90.23L322.727 125.08L322.548 125.145L289.798 90.2948Z" fill="#86DDD1"/>
<path d="M287.095 91.1785L287.274 91.1245L320.023 125.974L319.845 126.028L287.095 91.1785Z" fill="#86DDD1"/>
<path d="M284.392 92.077L284.571 92.0229L317.32 126.873L317.142 126.927L284.392 92.077Z" fill="#86DDD1"/>
<path d="M281.693 92.9745L281.871 92.9097L314.621 127.759L314.442 127.824L281.693 92.9745Z" fill="#86DDD1"/>
<path d="M278.986 93.8582L279.164 93.8042L311.914 128.654L311.746 128.708L278.986 93.8582Z" fill="#86DDD1"/>
<path d="M276.279 94.7567L276.457 94.7026L309.207 129.552L309.039 129.606L276.279 94.7567Z" fill="#86DDD1"/>
<path d="M273.583 95.6542L273.762 95.5894L306.512 130.439L306.343 130.504L273.583 95.6542Z" fill="#86DDD1"/>
<path d="M270.877 96.5487L271.056 96.4839L303.816 131.334L303.638 131.398L270.877 96.5487Z" fill="#86DDD1"/>
<path d="M268.185 97.4364L268.353 97.3823L301.113 132.232L300.935 132.286L268.185 97.4364Z" fill="#86DDD1"/>
<path d="M265.482 98.3339L265.65 98.269L298.41 133.13L298.231 133.184L265.482 98.3339Z" fill="#86DDD1"/>
<path d="M264.418 138.359L342.98 112.414L343.074 112.522L264.513 138.467L264.418 138.359Z" fill="#FC9F9C"/>
<path d="M262.782 99.2284L262.951 99.1636L295.711 134.013L295.532 134.078L262.782 99.2284Z" fill="#86DDD1"/>
<path d="M260.075 100.116L260.254 100.062L293.004 134.912L292.825 134.966L260.075 100.116Z" fill="#86DDD1"/>
<path d="M257.376 101.014L257.555 100.96L290.305 135.81L290.126 135.864L257.376 101.014Z" fill="#86DDD1"/>
<path d="M254.673 101.908L254.852 101.843L287.602 136.693L287.423 136.758L254.673 101.908Z" fill="#86DDD1"/>
<path d="M251.97 102.8L252.149 102.746L284.898 137.595L284.72 137.66L251.97 102.8Z" fill="#86DDD1"/>
<path d="M249.267 103.694L249.446 103.64L282.195 138.49L282.017 138.544L249.267 103.694Z" fill="#86DDD1"/>
<path d="M246.56 104.592L246.739 104.527L279.488 139.387L279.31 139.441L246.56 104.592Z" fill="#86DDD1"/>
<path d="M243.861 105.49L244.039 105.425L276.789 140.275L276.61 140.34L243.861 105.49Z" fill="#86DDD1"/>
<path d="M241.154 106.37L241.332 106.316L274.082 141.166L273.903 141.22L241.154 106.37Z" fill="#86DDD1"/>
<path d="M238.45 107.272L238.629 107.218L271.379 142.068L271.2 142.122L238.45 107.272Z" fill="#86DDD1"/>
<path d="M272.902 98.0347L264.834 102.829V118.477L276.082 111.81L272.902 98.0347Z" fill="#33A292"/>
<path d="M251.484 98.0347L259.562 102.829V118.477L248.315 111.81L251.484 98.0347Z" fill="#1A4E46"/>
<path d="M264.836 102.828C262.77 102.828 261.621 102.828 259.555 102.828V118.487C261.621 118.487 262.77 118.487 264.836 118.487V102.828Z" fill="#1A4E46"/>
<path d="M251.486 98.04L259.565 102.835H264.835L272.902 98.04L264.847 93.2573H259.565L251.486 98.04Z" fill="#2A8477"/>
<path d="M266.035 93.687C266.035 94.2714 265.664 94.8439 264.909 95.2971C263.412 96.1797 260.986 96.1797 259.5 95.2971C258.757 94.8558 258.374 94.2714 258.374 93.687V97.3843C258.374 97.9687 258.746 98.5412 259.5 98.9944C260.997 99.877 263.423 99.877 264.909 98.9944C265.652 98.5531 266.035 97.9687 266.035 97.3843V93.687Z" fill="#1A4E46"/>
<path d="M266.035 93.6856C266.035 93.1012 265.664 92.5287 264.909 92.0755C263.412 91.1929 260.986 91.1929 259.5 92.0755C258.757 92.5168 258.374 93.1012 258.374 93.6856C258.374 94.27 258.746 94.8425 259.5 95.2957C260.997 96.1783 263.423 96.1783 264.909 95.2957C265.664 94.8425 266.035 94.2581 266.035 93.6856Z" fill="#33A292"/>
<path d="M264.715 93.6866C264.715 93.3049 264.471 92.9233 263.984 92.637C263.009 92.0526 261.418 92.0526 260.443 92.637C259.956 92.9233 259.712 93.3049 259.712 93.6866C259.712 94.0682 259.956 94.4499 260.443 94.7362C261.418 95.3206 263.009 95.3206 263.984 94.7362C264.471 94.438 264.715 94.0682 264.715 93.6866Z" fill="#1A4E46"/>
<path d="M247.34 77.4229C247.15 77.2272 244.742 75.9856 242.545 74.9212C240.374 71.1204 238.477 67.2335 236.968 64.2783C238.182 64.5266 239.404 64.7964 240.616 65.0653C239.12 64.2384 237.613 63.4207 236.114 62.6246C235.927 62.2735 235.758 61.945 235.588 61.6371C234.36 59.3954 232.371 56.0178 230.053 52.3784C230.657 52.4089 231.261 52.4394 231.854 52.4791C230.776 51.6948 229.688 50.9095 228.609 50.1457C226.258 46.5341 223.687 42.8482 221.404 39.7934C222.036 39.8578 222.668 39.9223 223.3 39.9971C222.362 39.5175 221.424 39.038 220.485 38.5688C218.617 36.1062 217.027 34.1594 216.119 33.1746C213.407 30.2213 213.118 26.5295 213.108 26.5284C215.02 26.0179 217.4 26.4681 220.07 27.6534C220.546 28.5008 221.023 29.3483 221.499 30.2061C221.348 29.5164 221.199 28.8164 221.04 28.1154C224.114 29.6428 227.514 32.0957 230.948 35.1537C231.613 36.975 232.258 38.7941 232.883 40.6112C232.883 40.6112 232.538 38.003 232.116 36.217C232.796 36.8465 233.473 37.4966 234.149 38.1673C234.51 39.3038 234.86 40.4393 235.211 41.5645C235.211 41.5645 235.278 40.3574 235.177 39.1851C237.703 41.7771 240.188 44.6139 242.531 47.5504C243.457 50.7366 244.33 53.9278 245.143 57.1128C245.248 55.173 245.323 53.2197 245.388 51.2655C248.105 54.9248 250.561 58.6302 252.629 62.0573C252.99 64.0861 253.33 66.1129 253.65 68.1375C253.65 68.1375 254.098 66.7929 254.562 65.367C257.144 69.936 258.885 73.7137 259.587 75.7253C261.915 82.4264 258.005 88.0764 258.007 88.0558C253.414 88.6561 249.565 85.2755 246.241 80.7243C246.801 80.6672 247.349 80.6194 247.908 80.5727C247.109 80.2837 246.32 79.9957 245.52 79.717C244.858 78.7572 244.218 77.7583 243.602 76.7305C244.849 76.951 246.095 77.1818 247.34 77.4229Z" fill="#FFDB88"/>
<path d="M255.683 88.1092C251.947 87.7405 248.75 84.7322 245.948 80.8189C246.503 80.7555 247.048 80.7016 247.602 80.6485C246.813 80.3657 246.033 80.0838 245.242 79.8113C244.594 78.8509 243.969 77.8509 243.367 76.8215C244.601 77.0306 245.825 77.2492 247.067 77.48C246.881 77.2847 244.504 76.0587 242.335 75.0091C240.217 71.2013 238.371 67.3037 236.901 64.3412C238.102 64.5786 239.311 64.8377 240.511 65.0959C239.035 64.2782 237.548 63.47 236.069 62.6835C235.886 62.3316 235.722 62.0023 235.556 61.6938C234.358 59.4474 232.416 56.0641 230.151 52.4205C230.749 52.4449 231.348 52.4692 231.936 52.503C230.874 51.7239 229.802 50.9438 228.739 50.1855C226.44 46.5702 223.924 42.8823 221.688 39.8275C222.314 39.8859 222.941 39.9442 223.566 40.0129C222.64 39.5394 221.714 39.066 220.788 38.603C218.958 36.1407 217.398 34.1954 216.507 33.2124C214.094 30.5493 213.658 27.2958 213.591 26.6721C235.465 39.9695 258.72 87.6176 257.643 87.9359C257.643 87.9359 256.873 88.0107 255.683 88.1092Z" fill="#FFB239"/>
<path d="M260.294 93.084C255.538 79.3396 252.019 73.5267 244.422 61.276C236.802 49.065 227.835 37.681 217.241 28.3536C227.687 37.866 236.449 49.367 243.85 61.6518C251.226 73.9761 255.36 80.223 259.865 93.9231C260.463 93.9893 260.088 93.4653 260.056 93.9409C259.7 94.0543 260.185 94.3193 260.056 93.9409C260.403 93.8162 260.422 93.4831 260.294 93.084C260.293 93.0944 260.293 93.0944 260.294 93.084Z" fill="#AE592B"/>
<path d="M372.859 96.1445L326.858 68.6753C326.869 71.4633 324.965 74.8564 322.599 76.2612L368.6 103.73C370.966 102.326 372.87 98.9325 372.859 96.1445Z" fill="#FCDC79"/>
<path d="M372.859 91.0438L326.858 63.5854V68.6751L372.859 96.1443V91.0438Z" fill="#FCDC79"/>
<path d="M371.608 88.2304L325.607 60.7612C326.375 61.2151 326.858 62.1876 326.858 63.5708L372.859 91.04C372.859 89.6568 372.376 88.6951 371.608 88.2304Z" fill="#FCDC79"/>
<path d="M326.004 58.5347C341.338 67.6875 356.671 76.8511 372.005 86.0039C372.247 86.0687 372.489 86.166 372.699 86.2956L326.698 58.8264C326.488 58.6968 326.256 58.5995 326.004 58.5347Z" fill="#FCDC79"/>
<path d="M368.609 103.715L322.608 76.2456L290.742 95.1563L336.743 122.615L368.609 103.715Z" fill="#FCDC79"/>
<path d="M368.57 88.5468L322.569 61.0776L292.501 78.9078L338.502 106.377L368.57 88.5468Z" fill="#F0E6DE"/>
<path d="M336.344 106.011L292.635 79.8276V95.0103L336.344 121.183V106.011Z" fill="#DEE6E4"/>
<path d="M368.555 86.7079L322.554 59.2495L290.687 78.1494L336.688 105.619L368.555 86.7079Z" fill="#FCDC79"/>
<path d="M326.007 58.5365C325.039 58.2664 323.851 58.4825 322.557 59.2497L368.558 86.7189C369.852 85.9517 371.04 85.7463 372.008 86.0057C364.457 81.4995 328.194 59.844 327.353 59.3362C326.953 59.0984 326.438 58.7202 326.007 58.5365Z" fill="#FCDC79"/>
<path d="M290.194 97.036L336.195 124.505C336.059 124.419 335.974 124.246 335.974 123.997C335.974 123.489 336.322 122.873 336.742 122.625L290.741 95.1558C290.321 95.4043 289.973 96.0202 289.973 96.5281C289.973 96.7767 290.058 96.9496 290.194 97.036Z" fill="#FBC429"/>
<path d="M336.343 106.011V121.194L366.432 103.353C368.798 101.948 370.702 98.5551 370.691 95.7671V90.6774C370.681 87.8894 368.756 86.7764 366.39 88.1704L336.343 106.011Z" fill="#FCF9F9"/>
<path d="M290.154 80.0312L336.155 107.5C336.018 107.414 335.924 107.241 335.924 106.982C335.924 106.485 336.271 105.869 336.691 105.609L290.69 78.1401C290.27 78.3887 289.923 79.0046 289.923 79.5125C289.923 79.7719 290.017 79.9448 290.154 80.0312Z" fill="#FBC429"/>
<path d="M370.578 76.5308L327.69 50.9526C327.701 53.5893 325.892 56.7988 323.662 58.1171L366.55 83.6952C368.78 82.3661 370.589 79.1566 370.578 76.5308Z" fill="#208F80"/>
<path d="M370.578 75.7408L327.69 50.1519V50.9515L370.578 76.5296V75.7408Z" fill="#208F80"/>
<path d="M369.4 73.0854L326.512 47.5073C327.238 47.9396 327.69 48.8581 327.69 50.1656L370.578 75.7437C370.578 74.4362 370.126 73.5177 369.4 73.0854Z" fill="#208F80"/>
<path d="M327.546 45.6789C327.346 45.56 327.114 45.4628 326.883 45.3979C338.946 52.5948 357.708 63.7792 369.761 70.9761C369.992 71.0409 370.223 71.1382 370.434 71.257C359.58 64.7733 338.399 52.1734 327.546 45.6789Z" fill="#4BAFA1"/>
<path d="M326.884 45.3979C338.947 52.5948 357.709 63.7792 369.762 70.9761C357.72 63.7792 338.947 52.5948 326.884 45.3979Z" fill="#288E7F"/>
<path d="M366.555 83.6939L323.667 58.105L293.599 75.9567L336.487 101.535L366.555 83.6939Z" fill="#208F80"/>
<path d="M366.535 73.3628L323.647 47.7847L295.262 64.6206L338.15 90.1987L366.535 73.3628Z" fill="#F5EFEB"/>
<path d="M336.371 90.2007L295.46 65.9409V76.2716L336.371 100.531V90.2007Z" fill="#DEE6E4"/>
<path d="M366.527 71.6401L323.639 46.062L293.571 63.9029L336.449 89.4811L366.527 71.6401Z" fill="#4BAFA1"/>
<path d="M311.883 68.9078L334.988 55.1948L330.54 52.5581L307.423 66.2711L311.883 68.9078Z" fill="#86DDD1"/>
<path d="M326.867 69.8785L337.395 63.6326L335.365 62.4331L324.837 68.679L326.867 69.8785Z" fill="#86DDD1"/>
<path d="M326.885 45.3974C325.971 45.1488 324.845 45.3542 323.636 46.0674L366.524 71.6455C367.733 70.9323 368.858 70.727 369.773 70.9755C363.968 67.5067 329.42 46.9102 329.073 46.7049C328.41 46.3051 327.59 45.6891 326.885 45.3974Z" fill="#328A7D"/>
<path d="M293.081 77.7179L335.969 103.296C335.843 103.22 335.759 103.048 335.759 102.821C335.759 102.345 336.085 101.772 336.484 101.535L293.596 75.9565C293.197 76.1943 292.871 76.767 292.871 77.2425C292.871 77.4802 292.955 77.6423 293.081 77.7179Z" fill="#288E7F"/>
<path d="M336.377 90.202V100.522L364.773 83.6859C367.002 82.3676 368.801 79.1581 368.801 76.5214V75.7326C368.79 73.0959 366.981 72.0369 364.752 73.3553L336.377 90.202Z" fill="#FCF9F9"/>
<path d="M336.445 89.4873C336.045 89.725 335.719 90.3085 335.719 90.7732C335.719 91.2487 336.045 91.4432 336.445 91.2054L366.523 73.3645C368.753 72.0462 370.572 73.1052 370.572 75.7419V76.5307C370.583 79.1674 368.774 82.3768 366.544 83.6952L336.466 101.536C336.066 101.774 335.74 102.347 335.74 102.822C335.74 103.297 336.066 103.492 336.466 103.254L366.544 85.4133C369.584 83.6087 372.023 79.2538 372.023 75.6662V74.8774C372.013 71.2897 369.541 69.8525 366.513 71.6463L336.445 89.4873Z" fill="#288E7F"/>
<path d="M293.05 65.675L335.938 91.2531C335.812 91.1774 335.727 91.0154 335.727 90.7776C335.727 90.3022 336.053 89.7294 336.453 89.4917L293.565 63.9136C293.166 64.1513 292.84 64.7348 292.84 65.1995C292.84 65.4264 292.913 65.5993 293.05 65.675Z" fill="#288E7F"/>
<path d="M336.7 105.665C336.279 105.914 335.932 106.53 335.932 107.037C335.932 107.545 336.279 107.751 336.71 107.502L368.619 88.5698C370.985 87.165 372.92 88.2888 372.92 91.0768V96.1773C372.931 98.9653 371.016 102.369 368.661 103.774L336.752 122.706C336.332 122.955 335.985 123.571 335.985 124.079C335.985 124.576 336.332 124.781 336.763 124.533L368.671 105.6C371.889 103.688 374.487 99.0625 374.477 95.2588V90.1583C374.466 86.3545 371.847 84.8201 368.619 86.7327L336.7 105.665Z" fill="#FBC22C"/>
<path d="M363.957 94.6558C363.957 94.6558 366.25 95.8769 366.523 97.8652C366.797 99.8643 366.797 101.193 366.797 101.193L363.957 102.879C363.957 102.879 364.115 98.8702 363.389 97.8652C362.664 96.871 361.118 96.1362 361.118 96.1362L363.957 94.6558Z" fill="#F5465B"/>
<path d="M307.641 99.2847C307.641 99.2847 305.348 100.506 305.075 102.494C304.801 104.493 304.801 105.822 304.801 105.822L307.641 107.508C307.641 107.508 307.483 103.499 308.209 102.494C308.934 101.5 310.48 100.765 310.48 100.765L307.641 99.2847Z" fill="#4BAFA1"/>
<path d="M348.555 86.2964C348.555 86.2964 350.848 87.5175 351.121 89.5058C351.395 91.4941 351.395 92.8341 351.395 92.8341L348.555 94.5199C348.555 94.5199 348.713 90.5108 347.987 89.5058C347.261 88.5116 345.715 87.7768 345.715 87.7768L348.555 86.2964Z" fill="#FCDC79"/>
<path d="M266.986 127.28C266.975 127.42 266.996 127.561 267.038 127.701C267.123 127.95 267.27 128.155 267.48 128.296C267.364 128.198 267.301 128.025 267.301 127.798C267.301 127.744 267.312 127.68 267.322 127.626C267.396 127.15 267.722 126.631 268.101 126.415C268.29 126.307 268.469 126.286 268.605 126.34C268.49 126.275 268.279 126.188 268.017 126.21C267.701 126.232 267.501 126.372 267.386 126.469C267.144 126.675 267.007 126.977 266.986 127.28Z" fill="#7CD8CB"/>
<path d="M267.315 127.799C267.315 128.026 267.378 128.199 267.494 128.296C267.547 128.328 270.702 130.219 270.702 130.219C270.554 130.133 270.47 129.949 270.47 129.69C270.47 129.571 270.491 129.452 270.523 129.344C270.639 128.923 270.923 128.501 271.27 128.307C271.48 128.188 271.68 128.177 271.816 128.253L268.651 126.372C268.472 126.286 268.293 126.308 268.104 126.426C267.715 126.643 267.389 127.172 267.326 127.637C267.315 127.691 267.315 127.745 267.315 127.799Z" fill="#7CD8CB"/>
<path d="M270.133 129.879C270.122 130.214 270.227 130.463 270.385 130.603C271.163 131.273 272.657 132.527 273.056 132.851C273.708 133.391 274.003 133.597 274.045 133.64C274.802 134.191 275.812 134.872 277.053 135.661C278.104 136.331 280.05 137.584 283.71 139.821C284.499 140.307 290.861 144.165 291.461 144.511C291.314 144.424 291.198 144.295 291.103 144.133C291.061 144.046 291.019 143.96 290.988 143.863C290.935 143.679 290.904 143.452 290.904 143.203C290.904 143.117 290.914 143.03 290.925 142.944C291.04 141.734 291.871 140.383 292.86 139.81C293.385 139.508 293.848 139.486 294.195 139.691C288.884 136.536 279.598 131.23 279.577 131.219C278.714 130.744 277.263 129.944 276.38 129.534C276.085 129.393 275.728 129.242 274.949 128.918C274.644 128.799 272.141 127.815 272.005 127.761C271.815 127.686 271.563 127.718 271.3 127.869C270.858 128.129 270.501 128.615 270.301 129.123C270.185 129.382 270.133 129.642 270.133 129.879Z" fill="#57BCAE"/>
<path d="M290.894 143.208C290.894 143.456 290.926 143.683 290.978 143.867C291.01 143.964 291.052 144.051 291.094 144.137C291.189 144.299 291.304 144.429 291.452 144.515L292.85 145.347C292.514 145.131 292.293 144.677 292.303 144.051C292.303 143.964 292.314 143.889 292.314 143.802C292.43 142.592 293.26 141.23 294.249 140.658C294.291 140.636 294.323 140.614 294.365 140.593C294.438 140.56 294.512 140.528 294.586 140.495C294.659 140.474 294.722 140.441 294.796 140.431C294.943 140.398 295.09 140.387 295.217 140.409C295.29 140.42 295.322 140.42 295.353 140.431C295.437 140.452 295.511 140.485 295.574 140.517L294.175 139.685C293.839 139.48 293.366 139.501 292.84 139.804C291.851 140.366 291.031 141.727 290.905 142.938C290.905 143.035 290.894 143.121 290.894 143.208Z" fill="#FEB30F"/>
<path d="M266.986 127.277C266.976 127.417 266.997 127.558 267.039 127.698C267.123 127.947 267.27 128.141 267.48 128.293C267.533 128.325 270.12 129.87 270.12 129.87C270.11 130.205 270.215 130.454 270.373 130.594C271.151 131.264 272.644 132.518 273.044 132.842C273.696 133.382 273.99 133.588 274.032 133.631C274.79 134.182 275.799 134.863 277.04 135.652C278.092 136.322 280.038 137.575 283.698 139.812C284.486 140.298 292.847 145.345 292.847 145.345C294.951 146.631 297.643 148.208 299.536 149.246C301.156 150.132 301.934 150.532 302.554 150.834C303.606 151.364 304.489 151.742 304.616 151.796C304.826 151.882 305.457 152.142 307.55 152.552C307.771 152.596 308.349 152.715 309.18 152.855C309.327 152.877 309.464 152.898 309.611 152.931L310.673 153.568C310.978 153.73 311.22 153.644 311.336 153.568C311.336 153.568 310.999 153.622 310.221 153.104C309.432 152.585 309.432 152.585 309.432 152.585C309.432 152.585 305.888 151.234 304.226 150.24C303.448 149.775 298.022 146.62 292.416 143.216C291.943 142.935 291.459 142.73 290.986 142.449C285.044 138.839 279.091 135.77 278.334 135.284C276.977 134.42 271.719 130.27 270.52 129.33C270.362 129.2 270.278 129.136 270.278 129.136C270.278 129.136 268.185 128.282 267.323 127.623C267.165 127.504 267.049 127.385 266.986 127.277Z" fill="#8CD7CC"/>
<path d="M284.508 138.691L283.898 138.788V140.409L284.508 140.312V138.691Z" fill="#87E2D6"/>
<path d="M283.898 138.787C283.478 137.912 282.626 137.155 281.427 136.582L272.088 132.152V133.773L281.427 138.203C282.626 138.776 283.478 139.532 283.898 140.408V138.787Z" fill="#87E2D6"/>
<path d="M272.086 132.152L270.161 129.656V131.277L272.086 133.773V132.152Z" fill="#86DDD1"/>
<path d="M284.508 138.69C284.056 137.739 283.12 136.917 281.826 136.291L272.603 131.914L271.404 130.358L270.163 129.656L272.098 132.152L281.437 136.582C282.636 137.155 283.488 137.912 283.908 138.787L284.508 138.69Z" fill="#8CD7CC"/>
</g>
</g>
</g>
</svg>
