<svg width="20" height="29" viewBox="0 0 20 29" fill="none" xmlns="http://www.w3.org/2000/svg">
<path d="M0.385283 14.7641C0.502925 14.2788 0.642625 13.8082 0.973494 13.4112C1.51759 12.7495 2.22344 12.4186 3.06899 12.4186C7.73057 12.4112 12.3995 12.4112 17.0611 12.4186C18.6125 12.426 19.7448 13.5656 19.7448 15.1244C19.7595 18.6095 19.7595 22.102 19.7448 25.5872C19.7374 27.1386 18.6051 28.2856 17.0611 28.2929C12.3995 28.3076 7.73057 28.3003 3.06899 28.2929C1.69405 28.2929 0.679388 27.4033 0.422046 26.0504C0.414693 26.0136 0.392635 25.9769 0.37793 25.9401C0.385282 22.2123 0.385283 18.4919 0.385283 14.7641ZM9.19374 22.5873C9.19374 22.9917 9.19374 23.3887 9.19374 23.7931C9.20109 24.3666 9.56137 24.7637 10.0761 24.7637C10.5907 24.7637 10.951 24.3666 10.9584 23.7931C10.9657 23.0579 10.9731 22.3226 10.951 21.5873C10.9363 21.2418 10.9657 20.9771 11.3554 20.8815C11.4363 20.8594 11.5098 20.7933 11.576 20.7418C12.7304 19.955 13.0465 18.4183 12.2966 17.1758C11.6201 16.0434 10.0393 15.6096 8.87022 16.242C7.91438 16.7567 7.4144 17.5801 7.43646 18.6536C7.45852 19.7345 8.01732 20.5212 8.99522 20.9844C9.14962 21.0579 9.18639 21.1388 9.18639 21.2932C9.18639 21.727 9.19374 22.1535 9.19374 22.5873Z" fill="white" fill-opacity="0.5"/>
<path d="M10.6568 0C11.245 0.1397 11.8479 0.220579 12.4141 0.4191C15.1566 1.397 16.9874 3.86749 17.0977 6.77913C17.1418 8.05114 17.105 9.32314 17.105 10.6246C15.9433 10.6246 14.789 10.6246 13.5905 10.6246C13.5905 10.529 13.5905 10.4187 13.5905 10.3157C13.5905 9.22021 13.6052 8.11731 13.5905 7.02177C13.5611 5.02185 11.9288 3.47044 9.93623 3.52926C8.12748 3.58809 6.60549 5.08802 6.55402 6.90413C6.52461 8.02908 6.54666 9.16138 6.54666 10.2863C6.54666 10.3893 6.54666 10.4996 6.54666 10.6246C5.37024 10.6246 4.21588 10.6246 3.02475 10.6246C3.02475 10.5143 3.02475 10.4113 3.02475 10.3084C3.02475 9.28638 3.0174 8.27171 3.02475 7.2497C3.03946 4.48511 4.21588 2.3749 6.57608 0.941138C7.37751 0.455864 8.26718 0.176463 9.19361 0.0588213C9.2892 0.044116 9.38478 0.0220579 9.48036 0C9.87741 0 10.2671 0 10.6568 0Z" fill="white" fill-opacity="0.5"/>
<path d="M10.9507 18.5947C10.9434 19.0727 10.5463 19.4697 10.0684 19.4697C9.59047 19.4624 9.19343 19.0653 9.20078 18.58C9.20814 18.1021 9.60518 17.7051 10.0831 17.7051C10.561 17.7124 10.9507 18.1168 10.9507 18.5947Z" fill="white" fill-opacity="0.5"/>
</svg>
