<svg width="80" height="80" viewBox="0 0 80 80" fill="none" xmlns="http://www.w3.org/2000/svg">
<circle cx="40" cy="40" r="40" fill="#8A88F3"/>
<g clip-path="url(#clip0_936_1224)">
<path d="M40 42.9951C39.8455 42.9951 39.691 42.9636 39.547 42.9006L30.172 38.7756C29.764 38.5941 29.5 38.1921 29.5 37.7451C29.5 37.2981 29.764 36.8961 30.172 36.7146L39.547 32.5896C39.835 32.4636 40.165 32.4636 40.453 32.5896L49.828 36.7146C50.236 36.8961 50.5 37.2981 50.5 37.7451C50.5 38.1921 50.236 38.5941 49.828 38.7756L40.453 42.9006C40.309 42.9636 40.1545 42.9951 40 42.9951Z" fill="white"/>
<path d="M41.359 44.9591C40.9225 45.1496 40.468 45.2441 40 45.2441C39.532 45.2441 39.0775 45.1496 38.647 44.9621L32.5 42.2561V43.2881C32.5 44.2031 32.9785 45.0641 33.748 45.5306C35.9095 46.8431 37.9555 47.4986 40 47.4986C42.0445 47.4986 44.0905 46.8416 46.252 45.5306C47.0215 45.0641 47.5 44.2046 47.5 43.2881V42.2561L41.359 44.9591Z" fill="white"/>
<path d="M24.25 39.9998C24.25 31.3148 31.315 24.2498 40 24.2498C43.1185 24.2498 46.0825 25.1603 48.598 26.8103L46.33 29.0798C46.0075 29.4008 45.913 29.8853 46.0855 30.3053C46.2595 30.7253 46.669 30.9998 47.125 30.9998H53.875C54.496 30.9998 55 30.4958 55 29.8748V23.1248C55 22.6703 54.7255 22.2593 54.3055 22.0853C53.8855 21.9098 53.401 22.0073 53.08 22.3298L50.209 25.2008C47.2525 23.1458 43.726 21.9998 40 21.9998C30.0745 21.9998 22 30.0743 22 39.9998C22 41.7593 22.2595 43.5083 22.7695 45.1988C22.948 45.7913 23.5705 46.1303 24.172 45.9518C24.766 45.7718 25.1035 45.1448 24.9235 44.5493C24.4765 43.0688 24.25 41.5388 24.25 39.9998Z" fill="white"/>
<path d="M57.2305 34.7998C57.052 34.2058 56.4265 33.8683 55.828 34.0468C55.234 34.2268 54.8965 34.8538 55.0765 35.4493C55.5235 36.9298 55.75 38.4598 55.75 39.9988C55.75 48.6837 48.685 55.7487 40 55.7487C36.8815 55.7487 33.9175 54.8382 31.402 53.1882L33.67 50.9187C33.9925 50.5977 34.087 50.1132 33.9145 49.6932C33.7405 49.2732 33.331 48.9987 32.875 48.9987H26.125C25.504 48.9987 25 49.5027 25 50.1237V56.8737C25 57.3282 25.2745 57.7392 25.6945 57.9132C26.1025 58.0827 26.59 57.9987 26.92 57.6687L29.791 54.7977C32.7475 56.8527 36.274 57.9987 40 57.9987C49.9255 57.9987 58 49.9242 58 39.9988C58 38.2393 57.7405 36.4903 57.2305 34.7998Z" fill="white"/>
</g>
<defs>
<clipPath id="clip0_936_1224">
<rect width="36" height="36" fill="white" transform="translate(22 22)"/>
</clipPath>
</defs>
</svg>
