<svg width="100" height="52" viewBox="0 0 100 52" fill="none" xmlns="http://www.w3.org/2000/svg">
<path d="M80.729 15.1075C80.729 18.266 78.5609 20.3981 75.3857 20.3981C72.1725 20.3981 70.0044 18.266 70.0044 15.1075C70.0044 11.9695 72.1725 9.85571 75.3857 9.85571C78.5609 9.85775 80.729 11.9695 80.729 15.1075ZM72.4962 15.1462C72.4962 17.0075 73.6752 18.2843 75.3857 18.2843C77.0582 18.2843 78.2372 17.0054 78.2372 15.1462C78.2372 13.287 77.0582 12.0082 75.3857 12.0082C73.6752 12.0082 72.4962 13.287 72.4962 15.1462Z" fill="#0367B4"/>
<path d="M93.2381 13.8271V20.2987H90.7483V14.5643C90.7483 13.1103 89.893 12.2204 88.4863 12.2204C86.8137 12.2387 85.8246 13.4993 85.8246 15.2037V20.2987H83.3528V9.93356H85.8246V11.8702C86.548 10.4936 87.8208 9.85414 89.4754 9.83582C91.8133 9.83582 93.2381 11.3672 93.2381 13.8271Z" fill="#0367B4"/>
<path d="M100 30.2321H63.2424V0H100V30.2321ZM65.2167 28.2222H98.0278V2.00991H65.2167V28.2222Z" fill="#0367B4"/>
<path d="M37.3411 39.6666C37.3411 40.5708 38.0524 41.1552 39.2154 41.1552C40.6961 41.1552 41.8591 40.3509 41.997 39.3062V38.341H39.3333C37.9725 38.3389 37.3411 38.7218 37.3411 39.6666Z" fill="#0367B4"/>
<path d="M11.9097 37.7566H16.7634L14.3555 31.845L11.9097 37.7566Z" fill="#0367B4"/>
<path d="M52.5338 40.9721C54.1903 40.9721 55.5331 39.5052 55.5331 37.6956C55.5331 35.886 54.1903 34.4191 52.5338 34.4191C50.8773 34.4191 49.5344 35.886 49.5344 37.6956C49.5344 39.5052 50.8773 40.9721 52.5338 40.9721Z" fill="#0367B4"/>
<path d="M0 20.2335V51.0541H65.0927V20.2335H0ZM18.9333 43.043L17.7104 40.0679H10.9624L9.73943 43.043H6.99585L13.0525 28.9676H15.7961L21.7748 43.043H18.9333ZM30.9887 43.043L28.1273 38.339L26.5087 40.0679V43.043H23.9429V28.1225H26.5087V36.7689L30.8489 32.3052H33.8083L29.9017 36.4472L34.0461 43.043H30.9887ZM42.017 43.043V41.7357C41.2877 42.6805 40.1027 43.1632 38.604 43.1632C36.334 43.1632 34.9153 41.7357 34.9153 39.8255C34.9153 37.834 36.356 36.6081 38.9198 36.5877H41.9971V36.3067C41.9971 35.0604 41.1878 34.3151 39.6092 34.3151C38.622 34.3151 37.557 34.6572 36.4719 35.3211L35.5447 33.5107C37.0634 32.6453 38.2484 32.183 40.1807 32.183C42.9422 32.183 44.5009 33.6105 44.5208 36.0033L44.5408 43.041H42.017V43.043ZM58.0969 43.043H55.5311V41.3141C54.7818 42.5013 53.5589 43.1632 51.9803 43.1632C48.9609 43.1632 46.9487 40.9109 46.9487 37.6344C46.9487 34.3762 48.9609 32.185 51.9203 32.185C53.5389 32.185 54.7618 32.8489 55.5311 34.0544V28.1225H58.0969V43.043Z" fill="#0367B4"/>
</svg>
