<svg width="12" height="11" viewBox="0 0 12 11" fill="none" xmlns="http://www.w3.org/2000/svg">
<path d="M0.721172 4.30321C0.770271 4.29524 0.819961 4.29157 0.869678 4.29221H9.33514L9.15055 4.20635C8.97012 4.12095 8.80597 4.00473 8.66546 3.86293L6.29153 1.489C5.97888 1.19054 5.92635 0.710418 6.16704 0.351404C6.44717 -0.0311664 6.98439 -0.114232 7.36699 0.165901C7.3979 0.188545 7.42728 0.213229 7.45489 0.239791L11.7477 4.53261C12.0832 4.86772 12.0835 5.41132 11.7484 5.74681C11.7482 5.74702 11.7479 5.74726 11.7477 5.74748L7.45489 10.0403C7.11913 10.3751 6.57553 10.3744 6.24069 10.0386C6.21434 10.0122 6.18974 9.98406 6.16704 9.95444C5.92635 9.59542 5.97888 9.1153 6.29153 8.81684L8.66117 6.43862C8.78714 6.31252 8.93196 6.20678 9.09045 6.12524L9.34802 6.00934H0.916924C0.478333 6.02562 0.0935354 5.71925 0.0111399 5.28814C-0.0647631 4.82009 0.253121 4.37914 0.721172 4.30321Z" fill="white"/>
</svg>
