<svg width="31" height="31" viewBox="0 0 31 31" fill="none" xmlns="http://www.w3.org/2000/svg">
<circle cx="15.5" cy="15.5" r="15.5" fill="#0367B4"/>
<g clip-path="url(#clip0_801_2318)">
<path d="M10.9793 6.4585C10.6226 6.4585 10.3335 6.74765 10.3335 7.10434V8.39599H11.6252V7.10434C11.6252 6.74765 11.336 6.4585 10.9793 6.4585Z" fill="white"/>
<path d="M20.021 6.4585C19.6643 6.4585 19.3752 6.74765 19.3752 7.10434V8.39599H20.6668V7.10434C20.6668 6.74765 20.3777 6.4585 20.021 6.4585Z" fill="white"/>
<path d="M22.6042 8.396H20.6667V10.9793C20.6667 11.336 20.3775 11.6252 20.0208 11.6252C19.6641 11.6252 19.375 11.336 19.375 10.9793V8.396H11.625V10.9793C11.625 11.336 11.3358 11.6252 10.9791 11.6252C10.6225 11.6252 10.3333 11.336 10.3333 10.9793V8.396H8.39584C7.32579 8.396 6.45834 9.26344 6.45834 10.3335V22.6043C6.45834 23.6744 7.32579 24.5418 8.39584 24.5418H22.6042C23.6742 24.5418 24.5417 23.6744 24.5417 22.6043V10.3335C24.5417 9.26344 23.6742 8.396 22.6042 8.396ZM23.25 22.6043C23.25 22.961 22.9608 23.2502 22.6041 23.2502H8.39584C8.03915 23.2502 7.75 22.961 7.75 22.6043V14.2085H23.25V22.6043Z" fill="white"/>
<path d="M11.6249 15.5H10.3332C9.97653 15.5 9.68738 15.7892 9.68738 16.1458C9.68738 16.5025 9.97653 16.7917 10.3332 16.7917H11.6249C11.9816 16.7917 12.2707 16.5025 12.2707 16.1458C12.2707 15.7892 11.9816 15.5 11.6249 15.5Z" fill="white"/>
<path d="M16.146 15.5H14.8543C14.4976 15.5 14.2085 15.7892 14.2085 16.1458C14.2085 16.5025 14.4976 16.7917 14.8543 16.7917H16.146C16.5027 16.7917 16.7918 16.5025 16.7918 16.1458C16.7918 15.7892 16.5027 15.5 16.146 15.5Z" fill="white"/>
<path d="M20.6666 15.5H19.3749C19.0182 15.5 18.7291 15.7892 18.7291 16.1458C18.7291 16.5025 19.0182 16.7917 19.3749 16.7917H20.6666C21.0233 16.7917 21.3124 16.5025 21.3124 16.1458C21.3124 15.7892 21.0232 15.5 20.6666 15.5Z" fill="white"/>
<path d="M11.6249 18.0835H10.3332C9.97653 18.0835 9.68738 18.3726 9.68738 18.7293C9.68738 19.086 9.97653 19.3752 10.3332 19.3752H11.6249C11.9816 19.3752 12.2707 19.086 12.2707 18.7293C12.2707 18.3726 11.9816 18.0835 11.6249 18.0835Z" fill="white"/>
<path d="M16.146 18.0835H14.8543C14.4976 18.0835 14.2085 18.3726 14.2085 18.7293C14.2085 19.086 14.4976 19.3752 14.8543 19.3752H16.146C16.5027 19.3752 16.7918 19.086 16.7918 18.7293C16.7918 18.3726 16.5027 18.0835 16.146 18.0835Z" fill="white"/>
<path d="M20.6666 18.0835H19.3749C19.0182 18.0835 18.7291 18.3726 18.7291 18.7293C18.7291 19.086 19.0182 19.3752 19.3749 19.3752H20.6666C21.0233 19.3752 21.3124 19.086 21.3124 18.7293C21.3124 18.3726 21.0232 18.0835 20.6666 18.0835Z" fill="white"/>
<path d="M11.6249 20.667H10.3332C9.97653 20.667 9.68738 20.9561 9.68738 21.3128C9.68738 21.6695 9.97653 21.9586 10.3332 21.9586H11.6249C11.9816 21.9586 12.2707 21.6695 12.2707 21.3128C12.2707 20.9561 11.9816 20.667 11.6249 20.667Z" fill="white"/>
<path d="M16.146 20.667H14.8543C14.4976 20.667 14.2085 20.9561 14.2085 21.3128C14.2085 21.6695 14.4976 21.9587 14.8543 21.9587H16.146C16.5027 21.9587 16.7918 21.6695 16.7918 21.3128C16.7918 20.9561 16.5027 20.667 16.146 20.667Z" fill="white"/>
<path d="M20.6666 20.667H19.3749C19.0182 20.667 18.7291 20.9561 18.7291 21.3128C18.7291 21.6695 19.0182 21.9587 19.3749 21.9587H20.6666C21.0233 21.9587 21.3124 21.6695 21.3124 21.3128C21.3124 20.9561 21.0232 20.667 20.6666 20.667Z" fill="white"/>
</g>
<defs>
<clipPath id="clip0_801_2318">
<rect width="18.0833" height="18.0833" fill="white" transform="translate(6.45834 6.4585)"/>
</clipPath>
</defs>
</svg>
